<!-- Generator: Adobe Illustrator 21.1.0, SVG Export Plug-In . SVG Version: 6.00 Build 0)  -->
<svg version="1.1" id="Logo" xmlns="http://www.w3.org/2000/svg" xmlns:xlink="http://www.w3.org/1999/xlink" x="0px" y="0px" viewBox="0 0 354.3 252.3" style="enable-background:new 0 0 354.3 252.3;" xml:space="preserve"
	>
<style type="text/css">
	.st0{fill:#FFFFFF;}
</style>
<g>
	<path class="st0" d="M188.3,136.2L188.3,136.2l0.1-0.1v0l0,0c2.4,6-2.5-6.2-3-7.5l0,0l-0.1-0.1l-0.1-0.1l-0.2-0.2
		c-0.1-0.1-0.2-0.3-0.2-0.4c-0.1-0.5,0.4-0.8,1.3-0.8c-0.8-0.5-1.6-1-1.6-1c0.3-0.2,1.4-0.7,1.4-0.7c-9.4-5.9-18.7-7.3-26.3-5.7
		c-1.6,0.3-4.2,1.3-5.8,2.1c-0.8,0.4-2.8,0.1-3.5,0.2c-1.1,1-0.7,2.1-1,3.1c-5.4-0.1-16.9,1.6-15.5,4.8c-4,1.1-4.3,3-8.3,4.7
		c-5.3,2.4-11.8,5.9-17.7,10c-3.2,2.6-6.5,4.4-9.5,9.4c-1.1,1.7-1.8,5.6-0.3,8.2c4.2,6.3,8,6,11.2,7.6c3.3,1.1,6.4,1.9,9.4,2.7
		c6,1.5,11.7,2.9,17.1,4.4c10.9,2.9,20,7.4,30.1,14.8c4.9,3.7,9.4,8.5,11.3,13.9c2.1,5.4-0.1,10.6-5.4,13.5c-10.6,5.6-24.2,6-34,2.9
		c-10.1-2.9-17.3-10.1-17.9-15.2c-0.8-4.8,2.2-7,3.7-8.6c0.2-0.9,0.7-1.8,1.2-2.8c-3.4,0.8-9.8,6.1-6.7,13.7
		c3,7.6,12.6,12.5,18,14.4c4.4,1.4,8,2,10.7,2.4c2.3,0.2-3.2,0.3-10.7-2.4c-3.3-1.1-7.2-2.7-11-5.5c4.2,4.3,9.8,7.4,14,9.1
		c3.2,0.7,6.5,1,9.9,1.2c7.4,0.2,14.7-1.1,21.7-3.7c6.8-2.2,14.1-9.4,12.5-18.2c-0.2-6.4-7.7-16.3-11.3-20.1
		c4,3.9,7.6,8.3,10.1,13.7c2.5,5.1,3.4,12.5-0.5,18c-3.8,5.3-9.5,7.7-14.7,9.3c-5.4,1.4-10.8,2.4-16.4,2.4l1.8,0.2
		c5.9-0.2,11.5-1,17.3-2.9c5.5-1.8,12.1-5.2,14.8-12.3c0.9-2.4,1.1-4.9,1-7.4c0.2,2.4,0,5-1,7.4c-2.2,6.4-7.4,10.2-12.8,12.7
		c-3.5,1.3-7.6,1.9-11,2.5c-2.8,0.4-5.6,0.3-8.3,0c-1.7,0-3.5,0-5.2-0.2c-0.5,0-1.1,0.1-1.6,0l0.1,0c2.1,1.5,14.4,3.6,27.7-0.8
		c6.5-1.8,14.8-8.5,15.8-17.1c1-8-1.8-12.9-2.7-14.8c-3.6-6.2-9-9.2-14-13.5c-1.7-1.4-2.8-3.1-4.5-3.7c-0.3,0.1-1.1-0.2-2-0.5
		c-3.6-2.5-6.8-5.8-10.3-6.5c-2-0.7-6.7-8.2-7.6-7.4c-2.9,2.7-0.8,0.7-6.1-1.2c-0.6-0.3-3.1,0.6-4.3,0.1c-4.1-1.9-5.6-1-10.5-1.6
		c-7.3-0.5-8.4-2.9-14.7-2.5c-0.4,0-2.9-0.4-4.8-1c-1.7-0.7-1.9-0.8-1.9-0.8c-0.1-0.6,2.3-3.8,4.3-5.3c2.2-1.8,4.6-3.1,7.8-3.5
		c4.8-5.5,14.5-6.7,21.3-9.2c7-2.5,10.5-1.5,16.8-1c1.8-0.1,3.1-0.3,4.1,0c1.1,0.3,3.4-1.2,5.1-1.1l-0.4,1c0.6,0,1.7,0.2,2.2,0.3
		c0.6,0.1,0.4,0.4,0.3,0.7c-0.3,0.6-0.5,1.3,0.4,1.7c2.2,0.5,4.2,1.1,5.8,1.7c0.9-0.1,1.5-0.1,2.3-0.2l0.8-0.1l0.2,0l0.1,0
		c0-0.5,0.2-1.9,0.3-3.7c0.1,0.1,0.3,0.2,0.5,0.3c0.4,0.2,0.8,0,2.3-0.2c1.2,0,4.6-1.4,5.9-3.5c0.7-0.8,0.8,1.7,0.4,3.5
		C187.4,138.3,187.8,137.1,188.3,136.2z"/>
	<path class="st0" d="M213.8,132l-0.2-0.9c-0.6-0.4-1.3-0.7-1.6-0.9c-1.8-0.7-3-2.6-4.7-3.1c-0.5-0.1-1.3,1.4-2.4,1.8
		c-0.3,0-0.7-0.6-1.3-1c-0.4,1-1.1,0.7-1.5,0.1c-0.1,0.2-0.3,0.4-0.3,0.4c-0.2-0.1-0.8-0.6-0.8-0.6c-1.9,2.2-4.3,4.5-4.2,7.3
		c-0.1,0.6,0.1,1.6,0.4,2.3c0.1,0.3-0.4,0.9-0.6,1.1c0.5,0.6,1.2,0.7,1.8,1c-1.1,1.6-3.1,5.3-0.7,5.7c-0.4,1.4,0.7,1.9,0.6,3.4
		c-0.2,2-0.4,4.5-0.6,7c0,1.4-0.2,2.7-0.3,4l-0.1,1.4c-0.5,9.8-2.5,17.1-0.1,26.6c4.4,18.7,5,40.2,7.3,45.4l1.3,1
		c0.4-3.9-2.8-13.9-2.8-18.5c-0.2-1.8-0.3-3.1-0.2-4.1c0-0.9,0.2,1.1,0.2,4.1c0.2,1.3,0.5,2.9,0.8,4.7c0.3-2.5,0.5-4.8,1-6.5
		l-0.5-3.4c-0.7-5.1-1.3-10.1-1.4-15.2c0-1.8-0.2-5.9,0.1-7.6c0.3,7.4,1,14.9,2.2,22.2l0-0.6c-0.4-3.9-0.7-7.8-0.8-11.7
		c-0.1-0.6-0.1-1.3-0.1-2l0.1,2c0.2,1.7,0.5,3.4,0.9,5.2c0.1,1.2,0,2.5,0.2,3.7c0.1,1-0.2,1.9-0.3,2.8l0.2,1.7l0.2,0.5l0,0
		c1.1-1.8,1.6-16.5,1.2-18.8c-0.4-1.9-2-3.5-2.3-5.7c-0.1-0.7,0.3-1.3-0.1-1.9c-0.2,0-0.4-0.3-0.6-0.6c-0.2-1.4,0.6-2.9-0.1-4
		c-0.3-0.8,3.4-3,2.7-3.1c-2.5-0.6-0.7-0.2-0.5-2c0-0.2-1-0.9-0.9-1.4c0.6-1.5-0.2-1.9-0.4-3.6c-0.7-2.6,0.9-3-0.6-5.4
		c-0.2-0.3-0.9-3.9-0.9-3.9c0.4-2.7-0.5-4.6,1.4-6.5c-1.3-2.7,1.2-5.7,1.3-8.3c0.2-2.6,1.8-3.4,3.3-5.4c0.3-0.6,0.3-1.1,0.8-1.3
		c0.4-0.2-0.2-1.4,0.1-1.9l0.6,0.4c0.1-0.2,0.3-0.6,0.5-0.7c0.1-0.2,0.3-0.1,0.5,0.1c0.4,0.2,0.8,0.5,1.2,0.2
		c0.6-0.7,1.1-1.5,1.6-2.2c0-0.9,0-1.8-0.1-2.7C214.3,132.3,214,132.2,213.8,132z"/>
	<path class="st0" d="M103.2,191.9c-0.9-0.4-1.7-0.8-2.2-1.2C100.6,190.3,101.7,190.9,103.2,191.9c0.7,0.3,1.6,0.7,2.5,1.1
		c-0.9-1.3-2-2.6-2.8-3.7c-0.6-0.2-1.3-0.4-2-0.7c-2.5-0.8-5-1.7-7.6-2.7c0-0.2-0.1-0.5-0.1-0.8c2.7,0.7,5.3,1.5,7.7,2.2l-0.3-0.3
		c-2.1-0.8-4.2-1.8-6.6-2.7c-0.3-0.1-0.6-0.1-0.9-0.3c0,0,0,0,0,0l0.9,0.3c1.1,0.3,2.2,0.3,3.4,0.5c0.6,0.2,1.3,0.8,1.9,1
		c0.5,0.2,0.9,0.8,1.4,1.2l1,0.4l0.3,0l0,0c-0.2-1.1-2.2-2.9-4.2-4.4c-1.8-1.2-3.7-2.1-5-2.5c-0.1-1-0.3-2-0.4-3.1
		c-1.9-15.3-4.3-30.1-7.2-45.2c-0.9-5.5-4.3-17.3-6-22.7c8,21.8,11.1,44.1,14.4,66.4l0-1.8c-1.4-11.7-2.9-23.5-5.1-35.3
		c-0.4-2-0.8-4-1.2-6.1l1.2,6.1c1.1,5.2,2.4,10.2,3.6,15.8c0.6,3.5,0.8,7.6,1.3,11.1c0.4,2.9,0.2,5.6,0.2,8.3l0.6,5.3
		c0.1,0.5,0.3,1,0.4,1.6l0-0.1c2.3-4.6-1.8-49.6-5.2-57c-2-5.8-5.7-10.5-8.7-16.8c-1-2.1-1.4-4.2-2.8-5.6c-0.4,0-1.1-0.7-1.8-1.4
		c-2.5-3.8-5.7-9.8-12.1-10.1c-2-0.3-5.4-1.5-9.3-0.9c-3.6,0.4-6.3,1.5-6.3,2.1c0.8,4.5-0.2,1.1-4.7,6.4c-0.5,0.6-0.7,3.6-1.6,4.7
		c-3.3,3.9-2.8,5.8-4.7,11c-2,7.9-4.8,8.7-4.9,16.1c-0.1,0.9-1.9,11.7-1.8,11.7c-2.7,8.1-2.2,13.6-6.3,19.3
		c0.4,7.8-4.8,16.9-6.3,24.9c-1.5,8-4.1,10.9-7,17.7c-0.6,2-0.7,3.5-1.5,4.6c-0.7,1.1,0.3,4.3-0.3,6.3l-0.9-0.7
		c-0.2,0.7-0.6,2-0.7,2.7c-0.2,0.7-0.5,0.5-0.8,0.3c-0.6-0.4-1.2-0.9-1.9,0.3c-0.9,2.9-1.6,6-2.2,9.1c0.2,1.6,0.4,3.2,0.6,4.8
		l0.4,2.4l0.2,1.2l0.1,0.6l0.1,0.4l0,0v0c1.5,1.4,4.8,4.6,11.5,11h0l0,0l0.2,0c0.6-0.5,1.3-1,2.5-1.7c0.6,0,4.9-2.1,6.3-4.7
		c0.9-1.4,1.5-3.4,1.6-4.8c0-0.9,0-1.8-0.2-2.7c-0.1-0.1-0.2-0.2-0.3-0.3c1.4-6.2,4.4-12.7,4.1-19c0-1.4-0.2-3.9-0.4-5.6
		c-0.1-0.8,0.8-2.5,1-3.1c-0.7-1.3-1.8-1.4-2.7-2c2-4.7,6.3-15,2.7-15.6c1.2-4-0.2-5.2,0.7-9.5c1.2-5.6,2.8-12.9,4.4-19.9
		c0.7-3.8,1.8-7.5,2.8-11.1c0.4-1.4,0.7-2.7,1.1-3.9c3.9-13.5,8.6-25.2,14.7-34.5c3-4.8,7-7.6,7.8-6.8c1.8,0.1,6.2,5.7,9.1,11.3
		c6.4,11.9,10,26.1,12.7,39.7c2.1,10.4,3.2,20.3,4.3,30.1c-0.2,0-0.4,0.1-0.6,0.1c-0.5,0-0.8-0.5-1.2-0.1c-0.1,0.3-0.2,0.5-0.4,0.6
		c-0.9,0.1-1.8-0.9-2.5-0.2c-0.5,0.3-1.7-4-1.9-3.2c-0.4,2.9-0.1,0.8-1.3,0.5c-0.2-0.1-0.6,1.1-0.9,1c-0.9-0.7-1.2,0.3-2.3,0.6
		c-1.5,1-1.9-0.9-3.3,1c-0.2,0.2-2.3,1.5-2.3,1.5c-1.7-0.2-2.7,1.3-4-0.8c-1.5,1.8-3.4-0.3-5,0c-1.5,0.3-2.2-1.2-3.4-2.5
		c-0.4-0.2-0.6-0.1-0.8-0.5c-0.2-0.4-0.8,0.7-1.1,0.5l0.2-0.8c-0.1-0.1-0.3-0.2-0.4-0.3c-0.1-0.1,0-0.3,0-0.6
		c0.1-0.5,0.2-1.1,0.1-1.5c-0.4-0.5-0.9-0.9-1.3-1.2c-0.5,0.4-1,0.7-1.6,1.1c-0.1,0.4-0.2,0.7-0.3,1l-0.5,0.5
		c-0.2,0.8-0.3,1.6-0.5,2.1c-0.4,2.2-1.4,4.3-1.6,6.3c0,0.6,0.9,0.9,1.2,2.1c0.1,0.3-0.3,1-0.5,1.8c0.6,0.1,0.5,0.9,0.2,1.6
		c0.1,0.1,0.3,0.2,0.3,0.2c-0.1,0.3-0.3,1-0.3,1c1.5,1.3,3.1,3.3,4.8,2.5c0.4-0.1,1-0.7,1.3-1c0.2-0.2,0.6,0.3,0.7,0.4
		c0.3-0.7,0.3-1.6,0.5-2.4c1.1,0.8,3.5,2.3,3.4-0.6c0.9,0.1,1-1.2,1.9-1.3c1.2-0.2,2.7-0.4,4.1-0.5c0.8-0.2,1.6-0.2,2.3-0.2l0.8-0.1
		c5.7-0.4,9.7,1.7,15,0c0.7-0.2,1.4-0.4,2.1-0.5c0.1,0.5,0.1,0.9,0.2,1.4c5.1,24,7.8,42.7,8.8,49.4l2.1,3.6c1.5-9.3-5-33.5-7.2-46.8
		c0.8,3.8,0.5,3,1.7,8.3c-0.4-5.8-0.9-11.4-0.9-15.8c3.1,0.5,6.2,1.8,9,3c4.4,2,6.3,4.9,7.4,5.8l1.1-0.6
		C110.7,195.4,105.7,193.3,103.2,191.9z"/>
	<path class="st0" d="M347.5,217.4c-0.8,1.7-1.3,4-3.8,7.1c-2.3,3.4-8.6,5.1-11.9,3.9c-6.8-1.9-11-5.8-15.5-9.5
		c-8.8-7.7-16.5-16.7-20.9-22.5c2.7,3.3,5.9,7,9.9,11.3c-4.3-6.1-7.9-12.2-10.3-16.7c-2.3-2.8-4.8-5.7-6.6-8.6
		c-4.7-10.5-6.8-21.8-7.4-33.3c0.3-1.4,0.5-2.9,0.7-4.3c0.1,0.1,0.1,0.3,0.2,0.4c0,0.5,0,0.9,0.1,1.4c0.9,11.6,2.6,23.5,7.3,33.9
		l-0.6-1.8c-4.2-11-5.4-23.3-5.7-35.3c0,0,0-0.1,0-0.1c0.3,5.3,1.2,10.4,2.2,16c0.5,3.6,0.9,7.7,1.8,11.2c0.7,2.8,1,5.6,1.7,8.3
		c0.8,1.9,1.1,3,2.3,4.4c0.4,0.4,0.8,0.8,1.2,1.2l0-0.1c-0.1-0.6-0.6-1.9-1.1-3.3c0-1-0.9-3.4-1.3-5.7c-1-4.7-1.8-10.9-2.2-17.3
		c-0.4-6.4-0.4-12.9-0.3-18.2c0.1-2.6,0.2-5,0.3-6.7c0-0.5,0.1-0.8,0.1-1c0,0,0-0.1,0-0.1c-0.8,0-3.2-0.3-5-0.8v0l0-0.8V130
		c0.8,0.1-2.2-0.4-5-0.8c-0.2-0.2-0.4-0.4-0.6-0.5c-4.3-3.3-7-4.5-11-5.5c-8-1.9-16,0.9-20.2,4.4c-2.1,1.4-4.4,4.4-5.8,6.3
		c-0.6,1-2.9,2.3-3.5,2.9c-0.3,1.8,0.7,2.4,1.1,3.6c-5.3,4-13.8,14.4-10.2,16c-2.5,4.1-1.4,5.8-3.4,10.2c-2.4,6.3-5.8,12.7-7.3,22.6
		c-0.2,4.7-0.4,9.4,1.2,14.6c0.6,1.9,1.6,4,3.1,5.8c2,2.5,5.6,4.4,8.8,4.5c3.2,0.2,5.8-0.6,8-1.5c4.3-1.9,7.4-4.3,10.3-6.7
		c5.8-4.9,10.3-10.6,14.4-15.9c6-8.2,11.3-17,14.9-27.3c0.9,5.3,2.1,10.6,3.9,15.7c0.6,1.8,1.3,3.5,2,5.3c0.2,0.6,1,2.1,1.6,2.9
		c0.5,0.8,1.1,1.5,1.6,2.2c2.1,2.8,4.2,5.5,6.3,8.1c8.3,10.3,16.1,19.3,23.7,26c3.9,3.3,7.6,6.2,12.7,8c2.4,0.9,5.8,1.4,9.5,0.3
		c3.7-1,6.2-3.7,7.4-5.6C347.6,222.1,347.5,219.6,347.5,217.4z M267.6,156.1c-1.4,4.2-4.6,7.7-5.2,11.2c-0.7,2.4-9,5.3-8.4,6.2
		c2.3,3.6,0.7,1-2.7,5.4c-0.4,0.5-0.3,3.2-1.3,4.2c-3.5,3.1-3.2,4.9-6.3,9.3c-4.1,6-7.2,5.5-10.6,10c-0.2,0.3-2.1,1.5-3.2,1.6
		c-1,0.3-2.4-1-2.4-1c-2.3-5.5-3.6-13.2,0.8-17.6c0.2-8.1,7.3-16.7,11.1-23.8c3.9-7.2,7.8-9,13.4-12.3c1.5-1,2.3-1.9,3.4-2
		c1-0.1,2-2.5,3.3-2.6l0.1,1.1c0.4-0.1,1.1-0.1,1.4-0.1c0.3,0,0.3,0.4,0.3,0.7c0,0.8,0.1,1.4,0.5,1.9c0.3,0.3,0.4,0.5,0.5,0.8
		c0.2,0-0.4,1.9,1.9-3.2c0.2-0.3,0.3-0.5,0.5-0.8c0.9,2.3,0.4,5.5,2.1,7.1c0.2,0.1,0.6,0.1,1.1-0.1c-0.2,0.6-0.4,1.2-0.4,1.8
		C267.7,154.3,267.7,155.1,267.6,156.1z"/>
	<g>
		<path class="st0" d="M224.9,88.2c1,1.7,1.5,6.6,0.3,11.6c-1.4,4.7-2.9,11.3-10.3,14c-3.7,1.1-6.6-0.4-8.8-1.9
			c-2.4-1.8-4.8-4.8-4.7-9l0.1-1.2c0.3-1,0.6-2.1,1.1-3c0.9-1.8,2.5-3.2,4-4c1.1-0.5,1-1.6,2.4-1.7c-0.5-2.2,3.8-1.4,5-0.2
			c0.3-0.5,0.4-1.1,1-1.5c0.2,0.1,0.7,0.6,1,0.6c0.7-0.1,1.5,0,2,0.1c2.6,0.6,3.5,3.4,4,5.2c0,0-0.5,0.3-0.7,0.4
			c0,0,0.1,0.2,0.1,0.3c-0.6,0.1-1,0.6-0.6,1.1c-0.5,0.3,0.2,1,0,1.2c-0.3,0.9-1.1,1.1-1.4,1.4c-1.2,1-2.9,1.4-4.2,2.4
			c-0.3,0.2-0.8,0.6-1.4,0.9l-0.5,0c0,0-3.5,0.7-1.5,2.7c0.9,0.7,1,0.6,1.5,0.4c0.1-0.1,0.6-0.4,0.9-0.4c0.7-0.3,0.7-1.6,0.8-1.9
			c0-0.3,5.2-4.3,5.9-4.6l0,0l0,0.3l-0.3,0.8c-0.3,0.4-0.8,0.7-0.9,1.1c-0.3,0.5-0.7,1-1,1.4c-0.4,0.7-0.6,1.5-1.1,2
			c-0.2,0.2-0.4,0.4-0.7,0.5c0.3-0.1,0.5-0.2,0.7-0.5c1.3-1,2.4-2.7,3-4.5l0.2-0.3c-0.9,3.6-3.3,7-6.4,7c0.8,0.3,2.4-0.2,3.1-0.7
			c2.1-1.2,3.4-3.7,4.2-6.3l0.4-1.8c0.6-0.8,1.5-2,2.1-3.4c0,1.1-0.2,2-0.3,2.8c-0.6,1.7-1,2.7-0.8,2.3c0.3-0.5,0.6-1.3,0.8-2.3
			c1.2-2.6,1.1-8.1,0.9-11L224.9,88.2z"/>
	</g>
	<path class="st0" d="M102.6,58h6.9l-3.4-11.1L102.6,58z M135.5,2.8c-29.7,0-53.7,24-53.7,53.7c0,29.7,24,53.7,53.7,53.7
		c29.7,0,53.7-24,53.7-53.7C189.2,26.9,165.2,2.8,135.5,2.8z M113,70.2l-2-6.3H101l-2,6.3h-8.3l11.1-30.3h9.2l10.7,30.3H113z
		 M137.4,70.9c-2.3,0-4.5-0.4-6.4-1.2c-1.9-0.8-3.6-1.9-5-3.3c-1.4-1.4-2.5-3.1-3.2-5c-0.8-1.9-1.2-4.1-1.2-6.4
		c0-2.3,0.4-4.4,1.1-6.4c0.8-2,1.8-3.6,3.2-5.1c1.4-1.4,3.1-2.6,5-3.4c1.9-0.8,4.1-1.2,6.4-1.2c2.6,0,5.1,0.4,7.3,1.3
		c2.2,0.9,4.1,2.4,5.7,4.6l-5.3,5.4c-0.8-1.1-1.9-2.1-3-2.8c-1.2-0.7-2.5-1-4-1c-1.3,0-2.4,0.2-3.4,0.6c-1,0.4-1.8,1-2.5,1.8
		c-0.7,0.8-1.2,1.6-1.6,2.7c-0.4,1-0.5,2.1-0.5,3.3c0,1.2,0.2,2.3,0.6,3.4c0.4,1,0.9,1.9,1.6,2.7c0.7,0.8,1.5,1.3,2.5,1.8
		c1,0.4,2.1,0.6,3.3,0.6c1.8,0,3.2-0.3,4.3-0.9c1.1-0.6,2.2-1.6,3.2-2.9l5.4,5.1C147.4,68.8,142.9,70.9,137.4,70.9z M170.1,46.9
		v23.2H162V46.9h-9.3v-7h26.6v7H170.1z"/>
</g>
</svg>
