<svg width="1731" height="432" viewBox="0 0 1731 432" fill="none" xmlns="http://www.w3.org/2000/svg">
<path fill-rule="evenodd" clip-rule="evenodd" d="M230.732 62.5451C228.663 62.4276 226.591 62.3373 224.517 62.2744C230.469 74.3435 235.718 86.6667 240.263 99.1843C244.4 98.8996 248.464 98.5375 252.421 98.0999C260.756 97.1783 268.459 95.9402 275.297 94.4411C262.645 81.9915 247.772 71.1661 230.732 62.5451ZM223.389 99.9061V69.1304C228.104 79.0791 232.341 89.1946 236.1 99.4434C231.916 99.6763 227.669 99.8312 223.389 99.9061ZM223.389 105.907C228.382 105.821 233.335 105.628 238.201 105.331C244.279 122.832 248.974 140.699 252.284 158.768C242.753 159.209 233.097 159.469 223.389 159.546V110.868V105.907ZM223.389 165.546C233.447 165.467 243.451 165.193 253.324 164.726C256.386 183.177 258.01 201.82 258.19 220.478H223.389V165.546ZM217.389 220.478V165.569H217.389L217.389 220.478H217.389ZM217.389 224.478V338.171L217.389 334.582V282.374V276.374L217.389 231.14V224.478L217.389 224.478ZM223.389 224.478H258.207C258.182 242.1 256.871 259.725 254.268 277.207C244.078 276.743 233.759 276.472 223.389 276.396L223.389 231.14V224.478ZM262.207 224.478C262.182 242.163 260.876 259.852 258.284 277.4C272.926 278.141 287.28 279.28 301.117 280.805C306.754 281.426 312.282 282.109 317.687 282.851C324.436 264.001 327.891 244.24 328.138 224.478H262.207ZM332.139 224.478C331.896 244.424 328.457 264.37 321.736 283.421C339.778 286.025 356.384 289.297 371.046 293.145C371.676 291.736 372.287 290.316 372.879 288.888C381.336 268.468 385.69 246.581 385.69 224.478L332.139 224.478ZM385.642 220.478H332.145C331.949 199.268 328.143 178.126 320.827 158.132C336.073 155.767 350.145 152.884 362.676 149.547C364.29 149.118 365.876 148.681 367.433 148.238C369.397 152.104 371.214 156.05 372.879 160.068C380.826 179.256 385.149 199.738 385.642 220.478ZM328.145 220.478H262.19C262.011 201.753 260.395 183.045 257.345 164.525C270.558 163.827 283.513 162.784 296.018 161.405C303.137 160.62 310.069 159.731 316.786 158.742C324.127 178.52 327.947 199.464 328.145 220.478ZM223.389 282.396C233.444 282.47 243.448 282.73 253.33 283.171C250.056 302.893 245.133 322.411 238.554 341.513C234.224 341.256 229.83 341.079 225.402 340.982C224.732 340.967 224.061 340.954 223.389 340.943L223.389 334.582V282.396ZM257.353 283.361C254.102 303.105 249.216 322.648 242.69 341.783C246.766 342.075 250.775 342.437 254.691 342.869C255.43 342.95 256.165 343.034 256.895 343.12C264.364 344.002 271.375 345.128 277.77 346.472C294.615 329.325 307.155 309.604 315.511 288.61C310.595 287.947 305.575 287.333 300.46 286.769C286.547 285.236 272.099 284.095 257.353 283.361ZM225.363 346.982C229.097 347.065 232.805 347.206 236.468 347.404C232.621 357.977 228.261 368.414 223.389 378.68L223.389 366.842V346.944C224.048 346.955 224.706 346.967 225.363 346.982ZM250.35 385.233C244.244 385.829 237.925 386.257 231.496 386.512L249.351 374.838C259.671 368.091 269.003 360.605 277.36 352.519C279.95 353.075 282.424 353.667 284.77 354.292C285.318 354.438 285.857 354.585 286.388 354.733C294.343 356.959 300.305 359.456 304.2 361.959C304.373 362.071 304.54 362.181 304.701 362.289C307.113 363.912 308.132 365.171 308.56 365.955C300.097 371.409 291.141 376.106 281.795 379.978C281.459 380.117 281.123 380.255 280.786 380.392C272.951 382.247 263.914 383.761 254.033 384.851C252.815 384.985 251.587 385.113 250.35 385.233ZM247.162 371.49C256.445 365.421 264.911 358.74 272.569 351.554C267.468 350.594 261.985 349.763 256.195 349.079C255.479 348.995 254.758 348.913 254.033 348.833C249.675 348.352 245.195 347.959 240.631 347.655C236.543 359.004 231.873 370.2 226.619 381.201L224.035 386.611L247.162 371.49ZM286.314 348.494C285.027 348.151 283.706 347.819 282.353 347.497C298.96 330.128 311.335 310.269 319.595 289.175C337.507 291.72 353.959 294.918 368.456 298.67C360.315 315.249 349.49 330.398 336.396 343.492C329.345 350.543 321.7 356.936 313.556 362.607C312.42 360.779 310.55 358.985 307.969 357.257C307.797 357.141 307.622 357.026 307.443 356.912C302.851 353.96 296.254 351.262 287.989 348.951C287.438 348.797 286.879 348.644 286.314 348.494ZM361.133 143.749C348.485 147.117 334.185 150.027 318.621 152.4C310.695 132.791 299.323 114.413 284.604 98.3223C292.67 96.0841 299.1 93.4617 303.556 90.5898C306.854 88.4644 309.026 86.2316 310.024 83.9558C319.496 90.2007 328.335 97.4024 336.396 105.464C347.496 116.565 356.967 129.143 364.553 142.816C363.43 143.13 362.289 143.441 361.133 143.749ZM253.081 104.064C263.059 102.96 272.234 101.404 280.202 99.466C295.067 115.325 306.549 133.533 314.545 153.006C308.333 153.903 301.93 154.717 295.36 155.441C282.748 156.832 269.665 157.879 256.314 158.57C253.027 140.479 248.367 122.585 242.337 105.051C245.983 104.781 249.571 104.452 253.081 104.064ZM281.791 92.8697C281.166 93.0364 280.532 93.2007 279.889 93.3626C268.584 81.92 255.484 71.7665 240.628 63.318C258.955 65.1407 276.927 69.1138 294.022 75.1438C295.08 75.5171 296.134 75.8979 297.183 76.2861C299.642 77.6101 302.066 78.9944 304.454 80.4378C304.638 80.8092 304.656 81.0241 304.656 81.0625C304.656 81.1765 304.497 82.8456 300.306 85.5464C296.364 88.0869 290.168 90.6336 281.791 92.8697ZM217.389 105.959V110.868L217.389 123.492L217.389 105.959H217.389Z" fill="white"/>
<mask id="mask0" mask-type="alpha" maskUnits="userSpaceOnUse" x="160" y="21" width="45" height="170">
<path d="M160.488 27.7318C174.944 23.7894 189.862 21.7953 204.846 21.8024L204.766 190.114L160.488 27.7318Z" fill="#130947"/>
</mask>
<g mask="url(#mask0)">
<path fill-rule="evenodd" clip-rule="evenodd" d="M204.766 21.8022C204.385 21.8022 204.004 21.8035 203.624 21.8061C204.004 21.805 204.385 21.8042 204.766 21.8036L204.766 21.8022ZM172.369 24.9501C182.642 22.9347 193.104 21.8778 203.619 21.8061C203.621 21.8061 203.622 21.8061 203.624 21.8061C193.106 21.8775 182.643 22.9345 172.369 24.9501ZM134.843 37.0162C150.041 32.1469 165.861 28.8627 181.955 27.2249C163.845 35.3477 148.06 45.9393 134.66 58.3424C129.299 56.5697 125.063 54.6503 122.02 52.6892C117.681 49.8928 116.849 47.7552 116.849 46.6988C116.849 46.664 116.85 46.6279 116.852 46.5907C122.641 43.044 128.649 39.8456 134.843 37.0162ZM113.04 48.9969C113.902 51.4784 116.156 53.9157 119.741 56.2262C122.721 58.1463 126.583 59.955 131.226 61.6118C114.529 77.9584 101.786 97.2057 93.1276 117.956C81.8288 115.962 71.2981 113.672 61.7037 111.118C60.0603 110.68 58.4489 110.236 56.8699 109.786C64.576 95.5956 74.299 82.561 85.7597 71.0996C94.0777 62.781 103.224 55.3779 113.04 48.9969ZM54.8671 113.589C56.7429 114.13 58.6613 114.662 60.6213 115.184C70.0937 117.706 80.4463 119.968 91.5209 121.944C83.4193 142.791 79.3759 165.039 79.52 187.309H36.4889C36.8413 166.161 41.1767 145.26 49.2767 125.704C49.3833 125.446 49.4905 125.189 49.5983 124.933C51.2157 121.082 52.9736 117.298 54.8671 113.589ZM152.053 349.957C157.169 350.86 162.63 351.636 168.366 352.269C176.239 353.137 184.502 353.721 192.935 354.009L158.28 331.351C151.711 327.056 145.563 322.447 139.832 317.563C138.995 317.77 138.173 317.981 137.365 318.196C128.512 320.553 121.804 323.275 117.427 326.088C114.49 327.976 113.059 329.593 112.413 330.822C121.223 336.605 130.577 341.561 140.36 345.614C144.208 347.208 148.109 348.656 152.053 349.957ZM52.9513 262.764C61.1726 279.946 72.2607 295.629 85.7596 309.128C92.8994 316.269 100.65 322.734 108.91 328.458C110.102 326.434 112.194 324.45 115.153 322.548C120.001 319.432 127.084 316.598 136.005 314.204C116.872 296.92 102.7 276.464 93.3363 254.456C78.6925 256.792 65.1325 259.581 52.9513 262.764ZM46.2978 246.8C39.7985 228.629 36.4656 209.454 36.4655 190.114H79.5603C80.017 210.618 84.0282 231.092 91.6947 250.457C77.0149 252.828 63.4025 255.654 51.1555 258.885C50.5091 257.441 49.8828 255.987 49.2766 254.524C48.2194 251.971 47.2263 249.396 46.2978 246.8ZM159.814 329.003C153.948 325.167 148.422 321.077 143.235 316.76C150.716 315.078 159.189 313.7 168.366 312.688C171.455 312.347 174.604 312.05 177.8 311.798L197.916 353.914L159.814 329.003ZM167.905 308.505C157.358 309.668 147.671 311.314 139.278 313.366C119.948 296.275 105.641 275.934 96.2006 254.006C104.465 252.733 113.062 251.602 121.94 250.624C132.133 249.501 142.611 248.588 153.282 247.89C157.418 264.836 163.314 281.467 170.976 297.509L175.86 307.734C173.172 307.96 170.518 308.217 167.905 308.505ZM180.802 311.574L201 353.863L201 310.762C194.165 310.842 187.395 311.115 180.802 311.574ZM173.507 296.3L178.855 307.496C186.068 306.957 193.498 306.641 201 306.554V246.229C185.856 246.307 170.817 246.805 156.125 247.71C160.21 264.302 166.002 280.586 173.507 296.3ZM148.804 190.114C149.011 208.04 151.121 225.958 155.14 243.555C170.152 242.616 185.523 242.1 201 242.021L201.701 242.018L201.701 190.114H148.804ZM145.983 187.309C145.973 167.845 148.183 148.389 152.603 129.332C144.002 128.717 135.542 127.953 127.28 127.041C115.772 125.772 104.751 124.231 94.3416 122.439C86.2282 143.111 82.1792 165.199 82.3254 187.309H145.983ZM145.999 190.114C146.205 208.1 148.304 226.077 152.305 243.738C141.816 244.433 131.512 245.336 121.479 246.441C112.182 247.466 103.182 248.658 94.5391 250.006C86.8516 230.8 82.8281 210.473 82.3665 190.114H145.999ZM148.788 187.309H201.701L201.701 131.194C186.065 131.109 170.544 130.549 155.437 129.529C150.997 148.517 148.778 167.909 148.788 187.309ZM139.959 64.3031C137.947 63.766 136.031 63.2055 134.218 62.6237C117.451 78.7604 104.656 97.8418 95.9659 118.448C106.012 120.157 116.642 121.635 127.741 122.859C136.172 123.789 144.812 124.565 153.601 125.185C158.32 106.28 165.227 87.7979 174.316 70.1232C172.939 69.9908 171.572 69.8497 170.217 69.6999C158.901 68.4487 148.62 66.6149 139.959 64.3031ZM141.044 60.2376C139.912 59.9354 138.817 59.627 137.759 59.3131C151.904 46.4708 168.692 35.659 188.052 27.6518L190.865 26.4885C193.05 26.3495 195.238 26.2407 197.429 26.1622L176.423 66.0935C174.487 65.9188 172.571 65.7268 170.679 65.5175C159.521 64.2838 149.454 62.4826 141.044 60.2376ZM201.701 26.0479C201.35 26.0541 200.999 26.0611 200.648 26.0689L179.457 66.3517C186.676 66.9294 194.147 67.2693 201.701 67.3615L201.701 26.0479ZM201.701 71.5696C193.414 71.4697 185.219 71.0752 177.332 70.3976C168.163 88.0328 161.198 106.491 156.444 125.38C171.225 126.361 186.405 126.902 201.701 126.986L201.701 71.5696Z" fill="white"/>
</g>
<mask id="mask1" mask-type="alpha" maskUnits="userSpaceOnUse" x="35" y="7" width="143" height="162">
<path d="M35.8623 77.3333C57.5988 43.5315 90.7119 18.6235 129.214 7.11312L177.417 168.374L35.8623 77.3333Z" fill="#130947"/>
</mask>
<g mask="url(#mask1)">
<path fill-rule="evenodd" clip-rule="evenodd" d="M177.417 0.0620117C177.037 0.0620117 176.656 0.0633059 176.275 0.0658908C176.656 0.0647636 177.037 0.0639177 177.417 0.0633541L177.417 0.0620117ZM145.02 3.20989C155.293 1.19449 165.755 0.137551 176.271 0.0659033C176.272 0.0658991 176.274 0.065895 176.275 0.0658908C165.758 0.137286 155.294 1.19422 145.02 3.20989ZM107.494 15.276C122.693 10.4067 138.513 7.12247 154.606 5.48472C136.497 13.6075 120.711 24.1991 107.311 36.6022C101.95 34.8294 97.7149 32.91 94.6717 30.9489C90.3325 28.1525 89.5007 26.015 89.5007 24.9586C89.5007 24.9237 89.5016 24.8876 89.5035 24.8504C95.2927 21.3038 101.3 18.1054 107.494 15.276ZM85.6913 27.2566C86.5531 29.7381 88.8074 32.1755 92.3926 34.4859C95.3722 36.4061 99.234 38.2147 103.877 39.8716C87.1802 56.2181 74.4371 75.4655 65.779 96.2158C54.4802 94.2221 43.9495 91.9316 34.3551 89.3773C32.7117 88.9398 31.1003 88.4957 29.5212 88.0454C37.2274 73.8554 46.9504 60.8207 58.411 49.3593C66.729 41.0408 75.8757 33.6376 85.6913 27.2566ZM27.5184 91.8483C29.3943 92.3898 31.3127 92.9217 33.2727 93.4435C42.7451 95.9653 53.0977 98.2283 64.1723 100.204C56.0707 121.051 52.0273 143.299 52.1714 165.569H9.14028C9.49268 144.421 13.828 123.52 21.928 103.964C22.0346 103.706 22.1418 103.449 22.2497 103.192C23.8671 99.3416 25.625 95.5578 27.5184 91.8483ZM124.704 328.217C129.82 329.12 135.281 329.896 141.018 330.528C148.89 331.396 157.154 331.981 165.586 332.269L130.931 309.611C124.362 305.316 118.214 300.707 112.484 295.823C111.647 296.03 110.824 296.241 110.016 296.456C101.163 298.813 94.4554 301.535 90.0788 304.348C87.1411 306.236 85.7102 307.852 85.0646 309.081C93.8743 314.864 103.229 319.821 113.012 323.873C116.86 325.467 120.76 326.916 124.704 328.217ZM25.6027 241.024C33.824 258.206 44.9121 273.888 58.411 287.388C65.5508 294.528 73.3012 300.994 81.5611 306.718C82.7535 304.694 84.8451 302.71 87.8042 300.808C92.6525 297.692 99.7356 294.858 108.656 292.464C89.5238 275.18 75.3516 254.724 65.9877 232.715C51.3439 235.052 37.7839 237.841 25.6027 241.024ZM18.9492 225.06C12.4499 206.888 9.11698 187.714 9.11692 168.374H52.2117C52.6684 188.878 56.6796 209.351 64.3461 228.717C49.6663 231.087 36.0539 233.914 23.8069 237.145C23.1605 235.701 22.5342 234.247 21.928 232.784C20.8708 230.231 19.8777 227.656 18.9492 225.06ZM132.466 307.263C126.599 303.427 121.074 299.336 115.886 295.02C123.368 293.337 131.841 291.959 141.018 290.947C144.107 290.607 147.256 290.31 150.452 290.057L170.567 332.174L132.466 307.263ZM140.557 286.765C130.01 287.928 120.322 289.574 111.93 291.626C92.5997 274.535 78.2923 254.194 68.852 232.266C77.1163 230.993 85.7134 229.862 94.5917 228.884C104.784 227.76 115.262 226.848 125.933 226.15C130.069 243.096 135.966 259.726 143.627 275.768L148.511 285.994C145.823 286.22 143.169 286.477 140.557 286.765ZM153.454 289.834L173.651 332.123L173.651 289.022C166.817 289.102 160.046 289.374 153.454 289.834ZM146.158 274.559L151.506 285.756C158.719 285.217 166.15 284.9 173.651 284.814V224.489C158.507 224.567 143.469 225.065 128.777 225.97C132.862 242.562 138.654 258.846 146.158 274.559ZM121.456 168.374C121.663 186.3 123.773 204.217 127.791 221.815C142.803 220.876 158.175 220.36 173.651 220.281L174.352 220.278L174.352 168.374H121.456ZM118.634 165.569C118.625 146.104 120.834 126.649 125.254 107.592C116.653 106.977 108.194 106.212 99.931 105.301C88.4239 104.032 77.4021 102.491 66.9929 100.699C58.8796 121.371 54.8306 143.459 54.9768 165.569H118.634ZM118.651 168.374C118.856 186.359 120.956 204.336 124.956 221.997C114.467 222.693 104.163 223.596 94.1308 224.701C84.8335 225.726 75.8336 226.917 67.1905 228.266C59.503 209.06 55.4795 188.733 55.0179 168.374H118.651ZM121.439 165.569H174.352L174.352 109.454C158.716 109.368 143.195 108.808 128.088 107.789C123.649 126.777 121.43 146.168 121.439 165.569ZM112.61 42.5628C110.598 42.0257 108.683 41.4653 106.869 40.8835C90.1024 57.0201 77.3075 76.1016 68.6173 96.7076C78.6638 98.417 89.2935 99.8949 100.392 101.119C108.824 102.049 117.464 102.825 126.253 103.445C130.971 84.5397 137.878 66.0577 146.967 48.3829C145.59 48.2506 144.223 48.1095 142.868 47.9596C131.553 46.7085 121.271 44.8746 112.61 42.5628ZM113.695 38.4974C112.563 38.1952 111.468 37.8868 110.411 37.5728C124.555 24.7306 141.344 13.9188 160.704 5.91157L163.516 4.74825C165.701 4.60924 167.889 4.50044 170.081 4.42199L149.075 44.3532C147.139 44.1786 145.223 43.9865 143.331 43.7773C132.172 42.5435 122.106 40.7424 113.695 38.4974ZM174.352 4.30764C174.001 4.31387 173.65 4.32088 173.299 4.32867L152.108 44.6114C159.327 45.1892 166.798 45.5291 174.352 45.6213L174.352 4.30764ZM174.352 49.8294C166.065 49.7295 157.87 49.335 149.983 48.6573C140.815 66.2925 133.85 84.7506 129.096 103.639C143.877 104.621 159.057 105.162 174.352 105.246L174.352 49.8294Z" fill="white"/>
</g>
<mask id="mask2" mask-type="alpha" maskUnits="userSpaceOnUse" x="5" y="106" width="168" height="92">
<path d="M5.6901 175.541C8.97629 150.941 17.6617 127.372 31.1241 106.523L172.509 197.828L5.6901 175.541Z" fill="#130947"/>
</mask>
<g mask="url(#mask2)">
<path fill-rule="evenodd" clip-rule="evenodd" d="M172.509 29.5166C172.128 29.5166 171.747 29.5179 171.366 29.5205C171.747 29.5194 172.128 29.5185 172.509 29.5179L172.509 29.5166ZM140.111 32.6645C150.384 30.6491 160.846 29.5921 171.362 29.5205C171.363 29.5205 171.365 29.5205 171.366 29.5205C160.849 29.5919 150.386 30.6488 140.111 32.6645ZM102.585 44.7306C117.784 39.8612 133.604 36.5771 149.698 34.9393C131.588 43.0621 115.802 53.6537 102.403 66.0568C97.0413 64.284 92.8061 62.3646 89.763 60.4035C85.4238 57.6071 84.5919 55.4696 84.5919 54.4132C84.5919 54.3783 84.5928 54.3422 84.5948 54.305C90.384 50.7584 96.3913 47.5599 102.585 44.7306ZM80.7826 56.7112C81.6444 59.1927 83.8987 61.6301 87.4839 63.9405C90.4635 65.8607 94.3253 67.6693 98.9684 69.3261C82.2714 85.6727 69.5284 104.92 60.8703 125.67C49.5714 123.677 39.0408 121.386 29.4464 118.832C27.803 118.394 26.1916 117.95 24.6125 117.5C32.3187 103.31 42.0417 90.2753 53.5023 78.8139C61.8203 70.4954 70.967 63.0922 80.7826 56.7112ZM22.6097 121.303C24.4856 121.844 26.404 122.376 28.364 122.898C37.8364 125.42 48.189 127.683 59.2635 129.659C51.162 150.505 47.1186 172.754 47.2627 195.024H4.23157C4.58397 173.876 8.91935 152.975 17.0194 133.418C17.1259 133.161 17.2331 132.904 17.341 132.647C18.9584 128.796 20.7163 125.012 22.6097 121.303ZM119.795 357.671C124.911 358.575 130.373 359.35 136.109 359.983C143.981 360.851 152.245 361.436 160.678 361.724L126.022 339.065C119.454 334.771 113.306 330.161 107.575 325.277C106.738 325.484 105.915 325.695 105.107 325.911C96.2546 328.267 89.5467 330.99 85.1701 333.802C82.2324 335.69 80.8015 337.307 80.1558 338.536C88.9656 344.319 98.3201 349.276 108.103 353.328C111.951 354.922 115.851 356.37 119.795 357.671ZM20.694 270.478C28.9153 287.661 40.0034 303.343 53.5023 316.843C60.6421 323.983 68.3925 330.449 76.6524 336.173C77.8448 334.148 79.9364 332.164 82.8954 330.263C87.7437 327.147 94.8269 324.313 103.747 321.919C84.615 304.635 70.4428 284.178 61.079 262.17C46.4352 264.506 32.8752 267.295 20.694 270.478ZM14.0405 254.514C7.54122 236.343 4.20827 217.169 4.20821 197.829H47.303C47.7597 218.333 51.7708 238.806 59.4374 258.172C44.7576 260.542 31.1451 263.369 18.8982 266.6C18.2518 265.156 17.6254 263.702 17.0193 262.238C15.9621 259.686 14.969 257.11 14.0405 254.514ZM127.557 336.717C121.69 332.882 116.165 328.791 110.978 324.474C118.459 322.792 126.932 321.414 136.109 320.402C139.198 320.061 142.347 319.764 145.543 319.512L165.658 361.629L127.557 336.717ZM135.648 316.22C125.101 317.383 115.414 319.029 107.021 321.08C87.6909 303.989 73.3836 283.648 63.9433 261.721C72.2076 260.447 80.8047 259.317 89.683 258.338C99.8753 257.215 110.354 256.302 121.024 255.605C125.161 272.55 131.057 289.181 138.719 305.223L143.602 315.448C140.915 315.674 138.261 315.932 135.648 316.22ZM148.545 319.289L168.742 361.577L168.742 318.477C161.908 318.556 155.137 318.829 148.545 319.289ZM141.25 304.014L146.597 315.211C153.81 314.671 161.241 314.355 168.742 314.269V253.944C153.599 254.021 138.56 254.519 123.868 255.424C127.953 272.016 133.745 288.301 141.25 304.014ZM116.547 197.829C116.754 215.755 118.864 233.672 122.882 251.269C137.894 250.331 153.266 249.815 168.742 249.736L169.443 249.732L169.443 197.829H116.547ZM113.725 195.024C113.716 175.559 115.925 156.103 120.345 137.047C111.745 136.432 103.285 135.667 95.0223 134.756C83.5151 133.487 72.4934 131.945 62.0842 130.153C53.9708 150.825 49.9219 172.914 50.0681 195.024H113.725ZM113.742 197.829C113.947 215.814 116.047 233.791 120.047 251.452C109.558 252.147 99.2542 253.05 89.2221 254.156C79.9247 255.18 70.9249 256.372 62.2818 257.72C54.5943 238.515 50.5708 218.188 50.1092 197.829H113.742ZM116.53 195.024H169.443L169.444 138.908C153.807 138.823 138.287 138.263 123.18 137.244C118.74 156.232 116.521 175.623 116.53 195.024ZM107.702 72.0174C105.69 71.4803 103.774 70.9199 101.96 70.3381C85.1937 86.4747 72.3988 105.556 63.7086 126.162C73.7551 127.872 84.3848 129.349 95.4834 130.573C103.915 131.503 112.555 132.28 121.344 132.899C126.062 113.994 132.97 95.5123 142.059 77.8375C140.681 77.7052 139.315 77.564 137.959 77.4142C126.644 76.1631 116.362 74.3292 107.702 72.0174ZM108.787 67.9519C107.655 67.6498 106.56 67.3414 105.502 67.0274C119.647 54.1852 136.435 43.3734 155.795 35.3662L158.608 34.2028C160.792 34.0638 162.981 33.955 165.172 33.8766L144.166 73.8078C142.23 73.6332 140.314 73.4411 138.422 73.2319C127.263 71.9981 117.197 70.197 108.787 67.9519ZM169.443 33.7622C169.092 33.7685 168.741 33.7755 168.39 33.7833L147.2 74.066C154.418 74.6438 161.889 74.9837 169.443 75.0759L169.443 33.7622ZM169.444 79.284C161.157 79.1841 152.962 78.7896 145.075 78.1119C135.906 95.7471 128.941 114.205 124.187 133.094C138.968 134.076 154.148 134.617 169.444 134.7L169.444 79.284Z" fill="white"/>
</g>
<mask id="mask3" mask-type="alpha" maskUnits="userSpaceOnUse" x="17" y="206" width="169" height="149">
<path d="M74.7318 354.411C54.0671 336.25 38.1694 313.299 28.4304 287.568C18.6914 261.837 15.4082 234.111 18.868 206.816L185.832 227.984L74.7318 354.411Z" fill="#130947"/>
</mask>
<g mask="url(#mask3)">
<path fill-rule="evenodd" clip-rule="evenodd" d="M185.833 59.6724C185.452 59.6724 185.071 59.6737 184.69 59.6762C185.071 59.6751 185.452 59.6743 185.833 59.6737L185.833 59.6724ZM153.435 62.8202C163.708 60.8048 174.17 59.7479 184.686 59.6763C184.687 59.6763 184.689 59.6762 184.69 59.6762C174.173 59.7476 163.71 60.8046 153.435 62.8202ZM115.909 74.8863C131.108 70.017 146.928 66.7328 163.022 65.0951C144.912 73.2178 129.126 83.8095 115.726 96.2126C110.365 94.4398 106.13 92.5204 103.087 90.5593C98.7475 87.7629 97.9157 85.6253 97.9157 84.569C97.9157 84.5341 97.9166 84.498 97.9185 84.4608C103.708 80.9141 109.715 77.7157 115.909 74.8863ZM94.1063 86.867C94.9681 89.3485 97.2224 91.7858 100.808 94.0963C103.787 96.0165 107.649 97.8251 112.292 99.4819C95.5952 115.828 82.8522 135.076 74.1941 155.826C62.8952 153.832 52.3646 151.542 42.7701 148.988C41.1267 148.55 39.5153 148.106 37.9363 147.656C45.6424 133.466 55.3654 120.431 66.8261 108.97C75.1441 100.651 84.2907 93.248 94.1063 86.867ZM35.9335 151.459C37.8093 152 39.7277 152.532 41.6877 153.054C51.1601 155.576 61.5127 157.839 72.5873 159.815C64.4857 180.661 60.4423 202.909 60.5865 225.179H17.5553C17.9077 204.031 22.2431 183.13 30.3431 163.574C30.4497 163.317 30.5569 163.06 30.6647 162.803C32.2821 158.952 34.04 155.168 35.9335 151.459ZM133.119 387.827C138.235 388.73 143.696 389.506 149.433 390.139C157.305 391.007 165.569 391.591 174.001 391.88L139.346 369.221C132.777 364.926 126.629 360.317 120.899 355.433C120.062 355.64 119.239 355.851 118.431 356.066C109.578 358.423 102.87 361.145 98.4939 363.958C95.5562 365.846 94.1252 367.463 93.4796 368.692C102.289 374.475 111.644 379.431 121.427 383.484C125.275 385.078 129.175 386.526 133.119 387.827ZM34.0177 300.634C42.239 317.816 53.3272 333.499 66.826 346.998C73.9659 354.139 81.7162 360.605 89.9762 366.328C91.1685 364.304 93.2601 362.32 96.2192 360.418C101.067 357.302 108.151 354.468 117.071 352.074C97.9388 334.79 83.7666 314.334 74.4028 292.326C59.759 294.662 46.1989 297.451 34.0177 300.634ZM27.3643 284.67C20.865 266.499 17.532 247.325 17.532 227.985H60.6268C61.0835 248.488 65.0946 268.962 72.7611 288.327C58.0813 290.698 44.4689 293.525 32.2219 296.755C31.5756 295.311 30.9492 293.858 30.3431 292.394C29.2858 289.842 28.2927 287.266 27.3643 284.67ZM140.881 366.873C135.014 363.037 129.489 358.947 124.301 354.63C131.783 352.948 140.256 351.57 149.433 350.558C152.522 350.217 155.671 349.92 158.867 349.668L178.982 391.785L140.881 366.873ZM148.972 346.375C138.425 347.538 128.737 349.184 120.345 351.236C101.015 334.145 86.7074 313.804 77.267 291.876C85.5314 290.603 94.1285 289.472 103.007 288.494C113.199 287.371 123.677 286.458 134.348 285.76C138.484 302.706 144.381 319.337 152.042 335.379L156.926 345.604C154.238 345.83 151.584 346.087 148.972 346.375ZM161.869 349.444L182.066 391.733L182.066 348.632C175.232 348.712 168.461 348.985 161.869 349.444ZM154.574 334.17L159.921 345.366C167.134 344.827 174.565 344.511 182.066 344.424V284.099C166.922 284.177 151.884 284.675 137.192 285.58C141.277 302.172 147.069 318.457 154.574 334.17ZM129.871 227.985C130.078 245.91 132.188 263.828 136.206 281.425C151.218 280.486 166.59 279.971 182.066 279.891L182.767 279.888L182.767 227.985H129.871ZM127.049 225.179C127.04 205.715 129.249 186.259 133.669 167.202C125.068 166.587 116.609 165.823 108.346 164.912C96.8389 163.643 85.8172 162.101 75.408 160.309C67.2946 180.981 63.2457 203.07 63.3919 225.179H127.049ZM127.066 227.985C127.271 245.97 129.371 263.947 133.371 281.608C122.882 282.303 112.578 283.206 102.546 284.311C93.2485 285.336 84.2487 286.528 75.6056 287.876C67.9181 268.67 63.8946 248.343 63.4329 227.985H127.066ZM129.854 225.179H182.767L182.767 169.064C167.131 168.979 151.61 168.419 136.503 167.399C132.064 186.387 129.845 205.779 129.854 225.179ZM121.025 102.173C119.013 101.636 117.098 101.076 115.284 100.494C98.5175 116.63 85.7225 135.712 77.0324 156.318C87.0789 158.027 97.7085 159.505 108.807 160.729C117.239 161.659 125.879 162.435 134.668 163.055C139.386 144.15 146.293 125.668 155.382 107.993C154.005 107.861 152.638 107.72 151.283 107.57C139.968 106.319 129.686 104.485 121.025 102.173ZM122.11 98.1077C120.978 97.8055 119.883 97.4972 118.826 97.1832C132.97 84.3409 149.759 73.5292 169.119 65.5219L171.931 64.3586C174.116 64.2196 176.304 64.1108 178.496 64.0323L157.49 103.964C155.554 103.789 153.638 103.597 151.746 103.388C140.587 102.154 130.521 100.353 122.11 98.1077ZM182.767 63.918C182.416 63.9242 182.065 63.9312 181.714 63.939L160.523 104.222C167.742 104.8 175.213 105.139 182.767 105.232L182.767 63.918ZM182.767 109.44C174.48 109.34 166.285 108.945 158.398 108.268C149.23 125.903 142.265 144.361 137.511 163.25C152.292 164.232 167.472 164.772 182.767 164.856L182.767 109.44Z" fill="white"/>
</g>
<mask id="mask4" mask-type="alpha" maskUnits="userSpaceOnUse" x="95" y="237" width="114" height="169">
<path d="M208.272 405.413C166.598 405.413 126.406 389.95 95.4765 362.018L208.272 237.101L208.272 405.413Z" fill="#130947"/>
</mask>
<g mask="url(#mask4)">
<path fill-rule="evenodd" clip-rule="evenodd" d="M208.272 68.7893C207.892 68.7893 207.511 68.7906 207.13 68.7932C207.511 68.7921 207.892 68.7912 208.272 68.7906L208.272 68.7893ZM175.875 71.9372C186.148 69.9218 196.61 68.8648 207.126 68.7932C207.127 68.7932 207.129 68.7932 207.13 68.7932C196.613 68.8646 186.149 69.9215 175.875 71.9372ZM138.349 84.0033C153.548 79.134 169.368 75.8498 185.461 74.212C167.352 82.3348 151.566 92.9264 138.166 105.33C132.805 103.557 128.57 101.637 125.527 99.6762C121.187 96.8798 120.356 94.7423 120.356 93.6859C120.356 93.651 120.357 93.6149 120.358 93.5777C126.148 90.0311 132.155 86.8326 138.349 84.0033ZM116.546 95.9839C117.408 98.4654 119.662 100.903 123.248 103.213C126.227 105.133 130.089 106.942 134.732 108.599C118.035 124.945 105.292 144.193 96.634 164.943C85.3351 162.949 74.8045 160.659 65.2101 158.105C63.5667 157.667 61.9553 157.223 60.3762 156.773C68.0824 142.583 77.8053 129.548 89.266 118.087C97.584 109.768 106.731 102.365 116.546 95.9839ZM58.3734 160.576C60.2492 161.117 62.1676 161.649 64.1277 162.171C73.6001 164.693 83.9527 166.956 95.0272 168.932C86.9256 189.778 82.8823 212.026 83.0264 234.296H39.9953C40.3477 213.148 44.683 192.247 52.783 172.691C52.8896 172.434 52.9968 172.177 53.1046 171.92C54.7221 168.069 56.4799 164.285 58.3734 160.576ZM155.559 396.944C160.675 397.847 166.136 398.623 171.873 399.256C179.745 400.124 188.008 400.708 196.441 400.997L161.786 378.338C155.217 374.043 149.069 369.434 143.339 364.55C142.502 364.757 141.679 364.968 140.871 365.183C132.018 367.54 125.31 370.262 120.934 373.075C117.996 374.963 116.565 376.58 115.92 377.809C124.729 383.592 134.084 388.548 143.867 392.601C147.715 394.195 151.615 395.643 155.559 396.944ZM56.4576 309.751C64.6789 326.933 75.7671 342.616 89.266 356.115C96.4058 363.256 104.156 369.722 112.416 375.445C113.608 373.421 115.7 371.437 118.659 369.535C123.507 366.419 130.591 363.585 139.511 361.191C120.379 343.907 106.207 323.451 96.8427 301.443C82.1989 303.779 68.6389 306.568 56.4576 309.751ZM49.8042 293.787C43.3049 275.616 39.972 256.441 39.9719 237.102H83.0667C83.5234 257.605 87.5346 278.079 95.2011 297.444C80.5213 299.815 66.9088 302.642 54.6619 305.872C54.0155 304.428 53.3891 302.975 52.783 301.511C51.7258 298.959 50.7327 296.383 49.8042 293.787ZM163.321 375.99C157.454 372.154 151.929 368.064 146.741 363.747C154.223 362.065 162.696 360.687 171.873 359.675C174.962 359.334 178.111 359.037 181.307 358.785L201.422 400.902L163.321 375.99ZM171.412 355.492C160.865 356.655 151.177 358.301 142.785 360.353C123.455 343.262 109.147 322.921 99.707 300.993C107.971 299.72 116.568 298.589 125.447 297.611C135.639 296.488 146.117 295.575 156.788 294.877C160.924 311.823 166.821 328.454 174.482 344.496L179.366 354.721C176.678 354.947 174.024 355.204 171.412 355.492ZM184.309 358.561L204.506 400.85L204.506 357.749C197.672 357.829 190.901 358.102 184.309 358.561ZM177.013 343.287L182.361 354.483C189.574 353.944 197.005 353.628 204.506 353.541V293.216C189.362 293.294 174.324 293.792 159.632 294.697C163.717 311.289 169.509 327.574 177.013 343.287ZM152.311 237.102C152.518 255.027 154.628 272.945 158.646 290.542C173.658 289.603 189.03 289.088 204.506 289.008L205.207 289.005L205.207 237.102H152.311ZM149.489 234.296C149.48 214.832 151.689 195.376 156.109 176.319C147.508 175.704 139.049 174.94 130.786 174.029C119.279 172.76 108.257 171.218 97.8479 169.426C89.7345 190.098 85.6856 212.187 85.8318 234.296H149.489ZM149.506 237.102C149.711 255.087 151.811 273.064 155.811 290.725C145.322 291.42 135.018 292.323 124.986 293.428C115.688 294.453 106.689 295.645 98.0455 296.993C90.358 277.787 86.3345 257.46 85.8729 237.102H149.506ZM152.294 234.296H205.207L205.207 178.181C189.571 178.096 174.05 177.536 158.943 176.516C154.504 195.504 152.285 214.896 152.294 234.296ZM143.465 111.29C141.453 110.753 139.538 110.193 137.724 109.611C120.957 125.747 108.162 144.829 99.4723 165.435C109.519 167.144 120.148 168.622 131.247 169.846C139.679 170.776 148.319 171.552 157.107 172.172C161.826 153.267 168.733 134.785 177.822 117.11C176.445 116.978 175.078 116.837 173.723 116.687C162.408 115.436 152.126 113.602 143.465 111.29ZM144.55 107.225C143.418 106.922 142.323 106.614 141.266 106.3C155.41 93.4579 172.199 82.6461 191.559 74.6389L194.371 73.4755C196.556 73.3365 198.744 73.2277 200.936 73.1493L179.93 113.081C177.994 112.906 176.078 112.714 174.185 112.505C163.027 111.271 152.961 109.47 144.55 107.225ZM205.207 73.0349C204.856 73.0412 204.505 73.0482 204.154 73.056L182.963 113.339C190.182 113.916 197.653 114.256 205.207 114.349L205.207 73.0349ZM205.207 118.557C196.92 118.457 188.725 118.062 180.838 117.385C171.67 135.02 164.705 153.478 159.951 172.367C174.732 173.349 189.912 173.889 205.207 173.973L205.207 118.557Z" fill="white"/>
</g>
<path d="M444.084 242.312V308H450.34V242.312H444.084ZM463.743 260.528V308H469.539V280.308C469.6 277.977 469.968 275.831 470.643 273.868C471.379 271.844 472.36 270.127 473.587 268.716C474.875 267.244 476.408 266.109 478.187 265.312C480.027 264.453 482.112 264.024 484.443 264.024C486.773 264.024 488.705 264.392 490.239 265.128C491.833 265.864 493.091 266.876 494.011 268.164C494.931 269.452 495.575 270.985 495.943 272.764C496.311 274.481 496.495 276.352 496.495 278.376V308H502.291V277.456C502.291 274.635 502.015 272.089 501.463 269.82C500.911 267.551 499.96 265.649 498.611 264.116C497.261 262.521 495.452 261.295 493.183 260.436C490.975 259.577 488.215 259.148 484.903 259.148C481.529 259.148 478.432 260.037 475.611 261.816C472.789 263.533 470.827 265.833 469.723 268.716H469.539V260.528H463.743ZM508.833 260.528L527.141 308H533.305L551.061 260.528H545.081L530.361 302.204H530.177L515.273 260.528H508.833ZM591.807 280.952H561.079C561.324 278.805 561.815 276.72 562.551 274.696C563.348 272.611 564.391 270.801 565.679 269.268C566.967 267.673 568.531 266.416 570.371 265.496C572.211 264.515 574.327 264.024 576.719 264.024C579.049 264.024 581.135 264.515 582.975 265.496C584.815 266.416 586.379 267.673 587.667 269.268C588.955 270.801 589.936 272.58 590.611 274.604C591.347 276.628 591.745 278.744 591.807 280.952ZM561.079 285.828H597.603C597.725 282.516 597.419 279.265 596.683 276.076C595.947 272.825 594.72 269.973 593.003 267.52C591.347 265.005 589.169 262.981 586.471 261.448C583.772 259.915 580.521 259.148 576.719 259.148C572.977 259.148 569.727 259.884 566.967 261.356C564.268 262.767 562.06 264.668 560.343 267.06C558.625 269.391 557.337 272.059 556.479 275.064C555.681 278.069 555.283 281.136 555.283 284.264C555.283 287.637 555.681 290.857 556.479 293.924C557.337 296.929 558.625 299.597 560.343 301.928C562.06 304.197 564.268 306.007 566.967 307.356C569.727 308.644 572.977 309.288 576.719 309.288C582.729 309.288 587.36 307.816 590.611 304.872C593.923 301.928 596.192 297.757 597.419 292.36H591.623C590.703 296.04 589.047 298.984 586.655 301.192C584.263 303.4 580.951 304.504 576.719 304.504C573.959 304.504 571.597 303.921 569.635 302.756C567.672 301.591 566.047 300.119 564.759 298.34C563.471 296.561 562.52 294.568 561.907 292.36C561.355 290.091 561.079 287.913 561.079 285.828ZM634.73 274.42H640.526C640.403 271.844 639.882 269.605 638.962 267.704C638.042 265.803 636.784 264.208 635.19 262.92C633.656 261.632 631.847 260.681 629.762 260.068C627.738 259.455 625.53 259.148 623.138 259.148C621.052 259.148 618.936 259.393 616.79 259.884C614.704 260.375 612.803 261.141 611.086 262.184C609.368 263.227 607.958 264.607 606.854 266.324C605.811 268.041 605.29 270.096 605.29 272.488C605.29 274.512 605.627 276.229 606.302 277.64C606.976 278.989 607.896 280.155 609.062 281.136C610.288 282.056 611.699 282.853 613.294 283.528C614.888 284.141 616.636 284.693 618.538 285.184L625.99 286.84C627.278 287.147 628.535 287.515 629.762 287.944C631.05 288.373 632.184 288.925 633.166 289.6C634.147 290.213 634.914 291.011 635.466 291.992C636.079 292.912 636.386 294.077 636.386 295.488C636.386 297.144 635.956 298.555 635.098 299.72C634.3 300.824 633.258 301.744 631.97 302.48C630.682 303.216 629.271 303.737 627.738 304.044C626.266 304.351 624.824 304.504 623.414 304.504C619.55 304.504 616.299 303.523 613.662 301.56C611.086 299.536 609.675 296.561 609.43 292.636H603.634C604.124 298.463 606.087 302.695 609.522 305.332C613.018 307.969 617.556 309.288 623.138 309.288C625.346 309.288 627.584 309.043 629.854 308.552C632.123 308.061 634.147 307.264 635.926 306.16C637.766 304.995 639.268 303.523 640.434 301.744C641.599 299.904 642.182 297.696 642.182 295.12C642.182 293.035 641.783 291.225 640.986 289.692C640.188 288.159 639.146 286.871 637.858 285.828C636.631 284.785 635.19 283.957 633.534 283.344C631.939 282.669 630.314 282.209 628.658 281.964L620.93 280.216C619.948 279.971 618.875 279.664 617.71 279.296C616.544 278.867 615.471 278.345 614.49 277.732C613.508 277.119 612.68 276.383 612.006 275.524C611.392 274.604 611.086 273.5 611.086 272.212C611.086 270.679 611.423 269.391 612.098 268.348C612.772 267.305 613.662 266.477 614.766 265.864C615.87 265.189 617.066 264.729 618.354 264.484C619.703 264.177 621.022 264.024 622.31 264.024C623.966 264.024 625.53 264.239 627.002 264.668C628.474 265.036 629.762 265.649 630.866 266.508C632.031 267.367 632.951 268.471 633.626 269.82C634.3 271.108 634.668 272.641 634.73 274.42ZM660.715 260.528V246.268H654.919V260.528H646.639V265.404H654.919V297.88C654.857 301.928 655.593 304.719 657.127 306.252C658.66 307.724 661.359 308.46 665.223 308.46C666.081 308.46 666.94 308.429 667.799 308.368C668.657 308.307 669.516 308.276 670.375 308.276V303.4C668.719 303.584 667.063 303.676 665.407 303.676C663.321 303.553 662.003 302.971 661.451 301.928C660.96 300.824 660.715 299.321 660.715 297.42V265.404H670.375V260.528H660.715ZM679.749 242.312V251.604H685.545V242.312H679.749ZM679.749 260.528V308H685.545V260.528H679.749ZM697.466 260.528V308H703.262V280.308C703.323 277.977 703.691 275.831 704.366 273.868C705.102 271.844 706.083 270.127 707.31 268.716C708.598 267.244 710.131 266.109 711.91 265.312C713.75 264.453 715.835 264.024 718.166 264.024C720.496 264.024 722.428 264.392 723.962 265.128C725.556 265.864 726.814 266.876 727.734 268.164C728.654 269.452 729.298 270.985 729.666 272.764C730.034 274.481 730.218 276.352 730.218 278.376V308H736.014V277.456C736.014 274.635 735.738 272.089 735.186 269.82C734.634 267.551 733.683 265.649 732.334 264.116C730.984 262.521 729.175 261.295 726.906 260.436C724.698 259.577 721.938 259.148 718.626 259.148C715.252 259.148 712.155 260.037 709.334 261.816C706.512 263.533 704.55 265.833 703.446 268.716H703.262V260.528H697.466ZM788.004 304.136V260.528H782.208V268.716H782.024C781.472 267.428 780.674 266.201 779.632 265.036C778.65 263.871 777.516 262.859 776.228 262C774.94 261.08 773.498 260.375 771.904 259.884C770.37 259.393 768.714 259.148 766.936 259.148C763.501 259.148 760.434 259.792 757.736 261.08C755.098 262.307 752.86 264.024 751.02 266.232C749.241 268.379 747.861 270.924 746.88 273.868C745.96 276.751 745.5 279.817 745.5 283.068C745.5 286.441 745.898 289.631 746.696 292.636C747.493 295.58 748.75 298.156 750.468 300.364C752.246 302.572 754.485 304.32 757.184 305.608C759.882 306.835 763.133 307.448 766.936 307.448C770.432 307.448 773.468 306.559 776.044 304.78C778.681 303.001 780.674 300.64 782.024 297.696H782.208V304.136C782.208 309.901 781.012 314.317 778.62 317.384C776.228 320.451 772.333 321.984 766.936 321.984C765.341 321.984 763.777 321.8 762.244 321.432C760.71 321.125 759.3 320.604 758.012 319.868C756.785 319.132 755.712 318.151 754.792 316.924C753.933 315.759 753.35 314.287 753.044 312.508H747.248C747.432 315.023 748.106 317.169 749.272 318.948C750.498 320.788 752.001 322.291 753.78 323.456C755.62 324.621 757.674 325.48 759.944 326.032C762.213 326.584 764.544 326.86 766.936 326.86C770.8 326.86 774.05 326.339 776.688 325.296C779.386 324.253 781.564 322.751 783.22 320.788C784.876 318.825 786.072 316.433 786.808 313.612C787.605 310.791 788.004 307.632 788.004 304.136ZM766.936 302.572C764.237 302.572 761.906 302.051 759.944 301.008C757.981 299.904 756.356 298.493 755.068 296.776C753.78 294.997 752.829 292.973 752.216 290.704C751.602 288.435 751.296 286.104 751.296 283.712C751.296 281.259 751.572 278.867 752.124 276.536C752.737 274.144 753.688 272.028 754.976 270.188C756.264 268.348 757.889 266.876 759.852 265.772C761.814 264.607 764.176 264.024 766.936 264.024C769.696 264.024 772.026 264.607 773.928 265.772C775.89 266.937 777.485 268.471 778.712 270.372C779.938 272.273 780.828 274.389 781.38 276.72C781.932 279.051 782.208 281.381 782.208 283.712C782.208 286.104 781.87 288.435 781.196 290.704C780.582 292.973 779.632 294.997 778.344 296.776C777.056 298.493 775.461 299.904 773.56 301.008C771.658 302.051 769.45 302.572 766.936 302.572ZM826.55 242.312V251.604H832.346V242.312H826.55ZM826.55 260.528V308H832.346V260.528H826.55ZM844.267 260.528V308H850.063V280.308C850.124 277.977 850.492 275.831 851.167 273.868C851.903 271.844 852.884 270.127 854.111 268.716C855.399 267.244 856.932 266.109 858.711 265.312C860.551 264.453 862.636 264.024 864.967 264.024C867.297 264.024 869.229 264.392 870.763 265.128C872.357 265.864 873.615 266.876 874.535 268.164C875.455 269.452 876.099 270.985 876.467 272.764C876.835 274.481 877.019 276.352 877.019 278.376V308H882.815V277.456C882.815 274.635 882.539 272.089 881.987 269.82C881.435 267.551 880.484 265.649 879.135 264.116C877.785 262.521 875.976 261.295 873.707 260.436C871.499 259.577 868.739 259.148 865.427 259.148C862.053 259.148 858.956 260.037 856.135 261.816C853.313 263.533 851.351 265.833 850.247 268.716H850.063V260.528H844.267ZM928.578 274.512V247.648H950.106C954.461 247.648 957.988 248.752 960.686 250.96C963.385 253.168 964.734 256.541 964.734 261.08C964.734 265.619 963.385 268.992 960.686 271.2C957.988 273.408 954.461 274.512 950.106 274.512H928.578ZM922.322 242.312V308H928.578V279.848H951.486C954.43 279.848 957.098 279.449 959.49 278.652C961.882 277.793 963.937 276.567 965.654 274.972C967.372 273.316 968.69 271.323 969.61 268.992C970.53 266.661 970.99 264.024 970.99 261.08C970.99 258.136 970.53 255.499 969.61 253.168C968.69 250.837 967.372 248.875 965.654 247.28C963.937 245.624 961.882 244.397 959.49 243.6C957.098 242.741 954.43 242.312 951.486 242.312H922.322ZM980.18 242.312V308H985.976V242.312H980.18ZM997.436 275.064H1003.23C1003.35 271.2 1004.58 268.409 1006.91 266.692C1009.24 264.913 1012.25 264.024 1015.93 264.024C1017.65 264.024 1019.24 264.177 1020.71 264.484C1022.25 264.729 1023.56 265.22 1024.67 265.956C1025.83 266.692 1026.72 267.704 1027.34 268.992C1028.01 270.219 1028.35 271.813 1028.35 273.776C1028.35 275.064 1028.16 276.107 1027.8 276.904C1027.49 277.701 1027.03 278.345 1026.42 278.836C1025.8 279.265 1025.04 279.572 1024.12 279.756C1023.2 279.94 1022.12 280.093 1020.9 280.216C1017.77 280.584 1014.67 280.983 1011.6 281.412C1008.6 281.78 1005.87 282.455 1003.42 283.436C1001.02 284.417 999.092 285.859 997.62 287.76C996.148 289.6 995.412 292.176 995.412 295.488C995.412 297.88 995.811 299.965 996.608 301.744C997.467 303.461 998.601 304.903 1000.01 306.068C1001.48 307.172 1003.17 307.969 1005.07 308.46C1007.03 309.012 1009.12 309.288 1011.33 309.288C1013.66 309.288 1015.65 309.073 1017.31 308.644C1019.03 308.215 1020.53 307.601 1021.82 306.804C1023.17 306.007 1024.36 305.025 1025.4 303.86C1026.51 302.633 1027.58 301.253 1028.62 299.72H1028.81C1028.81 300.947 1028.87 302.081 1028.99 303.124C1029.18 304.105 1029.51 304.964 1030 305.7C1030.49 306.436 1031.17 307.019 1032.03 307.448C1032.95 307.816 1034.14 308 1035.62 308C1036.41 308 1037.06 307.969 1037.55 307.908C1038.1 307.847 1038.71 307.755 1039.39 307.632V302.756C1038.84 303.001 1038.22 303.124 1037.55 303.124C1035.28 303.124 1034.14 301.959 1034.14 299.628V274.42C1034.14 271.231 1033.62 268.655 1032.58 266.692C1031.54 264.668 1030.19 263.104 1028.53 262C1026.88 260.896 1025.01 260.16 1022.92 259.792C1020.83 259.363 1018.75 259.148 1016.66 259.148C1013.9 259.148 1011.39 259.455 1009.12 260.068C1006.85 260.681 1004.86 261.632 1003.14 262.92C1001.48 264.208 1000.17 265.864 999.184 267.888C998.203 269.912 997.62 272.304 997.436 275.064ZM1028.35 282.056V289.6C1028.35 291.931 1027.89 294.016 1026.97 295.856C1026.11 297.696 1024.91 299.26 1023.38 300.548C1021.91 301.836 1020.16 302.817 1018.14 303.492C1016.11 304.167 1014 304.504 1011.79 304.504C1010.44 304.504 1009.12 304.289 1007.83 303.86C1006.54 303.431 1005.41 302.817 1004.43 302.02C1003.45 301.161 1002.65 300.18 1002.04 299.076C1001.48 297.911 1001.21 296.592 1001.21 295.12C1001.21 292.789 1001.88 291.011 1003.23 289.784C1004.64 288.496 1006.42 287.515 1008.57 286.84C1010.71 286.165 1013.08 285.675 1015.65 285.368C1018.29 285 1020.83 284.601 1023.29 284.172C1024.09 284.049 1025.01 283.835 1026.05 283.528C1027.09 283.221 1027.8 282.731 1028.16 282.056H1028.35ZM1046.52 260.528V308H1052.32V280.308C1052.38 277.977 1052.75 275.831 1053.42 273.868C1054.16 271.844 1055.14 270.127 1056.37 268.716C1057.65 267.244 1059.19 266.109 1060.97 265.312C1062.81 264.453 1064.89 264.024 1067.22 264.024C1069.55 264.024 1071.49 264.392 1073.02 265.128C1074.61 265.864 1075.87 266.876 1076.79 268.164C1077.71 269.452 1078.35 270.985 1078.72 272.764C1079.09 274.481 1079.27 276.352 1079.27 278.376V308H1085.07V277.456C1085.07 274.635 1084.79 272.089 1084.24 269.82C1083.69 267.551 1082.74 265.649 1081.39 264.116C1080.04 262.521 1078.23 261.295 1075.96 260.436C1073.75 259.577 1070.99 259.148 1067.68 259.148C1064.31 259.148 1061.21 260.037 1058.39 261.816C1055.57 263.533 1053.61 265.833 1052.5 268.716H1052.32V260.528H1046.52ZM1131.08 280.952H1100.35C1100.6 278.805 1101.09 276.72 1101.83 274.696C1102.62 272.611 1103.67 270.801 1104.95 269.268C1106.24 267.673 1107.81 266.416 1109.65 265.496C1111.49 264.515 1113.6 264.024 1115.99 264.024C1118.32 264.024 1120.41 264.515 1122.25 265.496C1124.09 266.416 1125.65 267.673 1126.94 269.268C1128.23 270.801 1129.21 272.58 1129.89 274.604C1130.62 276.628 1131.02 278.744 1131.08 280.952ZM1100.35 285.828H1136.88C1137 282.516 1136.69 279.265 1135.96 276.076C1135.22 272.825 1133.99 269.973 1132.28 267.52C1130.62 265.005 1128.44 262.981 1125.75 261.448C1123.05 259.915 1119.8 259.148 1115.99 259.148C1112.25 259.148 1109 259.884 1106.24 261.356C1103.54 262.767 1101.33 264.668 1099.62 267.06C1097.9 269.391 1096.61 272.059 1095.75 275.064C1094.96 278.069 1094.56 281.136 1094.56 284.264C1094.56 287.637 1094.96 290.857 1095.75 293.924C1096.61 296.929 1097.9 299.597 1099.62 301.928C1101.33 304.197 1103.54 306.007 1106.24 307.356C1109 308.644 1112.25 309.288 1115.99 309.288C1122 309.288 1126.63 307.816 1129.89 304.872C1133.2 301.928 1135.47 297.757 1136.69 292.36H1130.9C1129.98 296.04 1128.32 298.984 1125.93 301.192C1123.54 303.4 1120.23 304.504 1115.99 304.504C1113.23 304.504 1110.87 303.921 1108.91 302.756C1106.95 301.591 1105.32 300.119 1104.03 298.34C1102.75 296.561 1101.79 294.568 1101.18 292.36C1100.63 290.091 1100.35 287.913 1100.35 285.828ZM1154.78 260.528V246.268H1148.98V260.528H1140.7V265.404H1148.98V297.88C1148.92 301.928 1149.65 304.719 1151.19 306.252C1152.72 307.724 1155.42 308.46 1159.28 308.46C1160.14 308.46 1161 308.429 1161.86 308.368C1162.72 308.307 1163.58 308.276 1164.44 308.276V303.4C1162.78 303.584 1161.12 303.676 1159.47 303.676C1157.38 303.553 1156.06 302.971 1155.51 301.928C1155.02 300.824 1154.78 299.321 1154.78 297.42V265.404H1164.44V260.528H1154.78ZM1173.17 275.064H1178.96C1179.09 271.2 1180.31 268.409 1182.64 266.692C1184.97 264.913 1187.98 264.024 1191.66 264.024C1193.38 264.024 1194.97 264.177 1196.44 264.484C1197.98 264.729 1199.29 265.22 1200.4 265.956C1201.56 266.692 1202.45 267.704 1203.07 268.992C1203.74 270.219 1204.08 271.813 1204.08 273.776C1204.08 275.064 1203.89 276.107 1203.53 276.904C1203.22 277.701 1202.76 278.345 1202.15 278.836C1201.53 279.265 1200.77 279.572 1199.85 279.756C1198.93 279.94 1197.85 280.093 1196.63 280.216C1193.5 280.584 1190.4 280.983 1187.33 281.412C1184.33 281.78 1181.6 282.455 1179.15 283.436C1176.75 284.417 1174.82 285.859 1173.35 287.76C1171.88 289.6 1171.14 292.176 1171.14 295.488C1171.14 297.88 1171.54 299.965 1172.34 301.744C1173.2 303.461 1174.33 304.903 1175.74 306.068C1177.21 307.172 1178.9 307.969 1180.8 308.46C1182.77 309.012 1184.85 309.288 1187.06 309.288C1189.39 309.288 1191.38 309.073 1193.04 308.644C1194.76 308.215 1196.26 307.601 1197.55 306.804C1198.9 306.007 1200.09 305.025 1201.13 303.86C1202.24 302.633 1203.31 301.253 1204.35 299.72H1204.54C1204.54 300.947 1204.6 302.081 1204.72 303.124C1204.91 304.105 1205.24 304.964 1205.73 305.7C1206.23 306.436 1206.9 307.019 1207.76 307.448C1208.68 307.816 1209.87 308 1211.35 308C1212.14 308 1212.79 307.969 1213.28 307.908C1213.83 307.847 1214.44 307.755 1215.12 307.632V302.756C1214.57 303.001 1213.95 303.124 1213.28 303.124C1211.01 303.124 1209.87 301.959 1209.87 299.628V274.42C1209.87 271.231 1209.35 268.655 1208.31 266.692C1207.27 264.668 1205.92 263.104 1204.26 262C1202.61 260.896 1200.74 260.16 1198.65 259.792C1196.57 259.363 1194.48 259.148 1192.39 259.148C1189.63 259.148 1187.12 259.455 1184.85 260.068C1182.58 260.681 1180.59 261.632 1178.87 262.92C1177.21 264.208 1175.9 265.864 1174.91 267.888C1173.93 269.912 1173.35 272.304 1173.17 275.064ZM1204.08 282.056V289.6C1204.08 291.931 1203.62 294.016 1202.7 295.856C1201.84 297.696 1200.64 299.26 1199.11 300.548C1197.64 301.836 1195.89 302.817 1193.87 303.492C1191.84 304.167 1189.73 304.504 1187.52 304.504C1186.17 304.504 1184.85 304.289 1183.56 303.86C1182.27 303.431 1181.14 302.817 1180.16 302.02C1179.18 301.161 1178.38 300.18 1177.77 299.076C1177.21 297.911 1176.94 296.592 1176.94 295.12C1176.94 292.789 1177.61 291.011 1178.96 289.784C1180.37 288.496 1182.15 287.515 1184.3 286.84C1186.45 286.165 1188.81 285.675 1191.38 285.368C1194.02 285 1196.57 284.601 1199.02 284.172C1199.82 284.049 1200.74 283.835 1201.78 283.528C1202.82 283.221 1203.53 282.731 1203.89 282.056H1204.08ZM1222.35 260.528V308H1228.14V282.7C1228.14 280.185 1228.57 277.885 1229.43 275.8C1230.29 273.653 1231.48 271.813 1233.02 270.28C1234.61 268.747 1236.48 267.581 1238.63 266.784C1240.78 265.925 1243.17 265.557 1245.81 265.68V259.884C1241.51 259.7 1237.8 260.651 1234.67 262.736C1231.61 264.821 1229.34 267.796 1227.87 271.66H1227.68V260.528H1222.35ZM1246.95 260.528L1265.9 307.816L1263.88 313.152C1263.39 314.256 1262.93 315.268 1262.5 316.188C1262.07 317.108 1261.55 317.875 1260.93 318.488C1260.32 319.163 1259.58 319.684 1258.73 320.052C1257.93 320.42 1256.89 320.604 1255.6 320.604C1254.92 320.604 1254.25 320.543 1253.57 320.42C1252.96 320.359 1252.32 320.267 1251.64 320.144V325.02C1252.13 325.204 1252.68 325.296 1253.3 325.296C1253.97 325.357 1254.89 325.419 1256.06 325.48C1257.9 325.48 1259.4 325.296 1260.57 324.928C1261.79 324.621 1262.83 324.069 1263.69 323.272C1264.61 322.536 1265.44 321.493 1266.18 320.144C1266.91 318.856 1267.71 317.2 1268.57 315.176L1289.18 260.528H1283.38L1268.75 301.008L1253.11 260.528H1246.95ZM1323.42 242.312V308H1329.68V276.168H1368.68V308H1374.94V242.312H1368.68V270.832H1329.68V242.312H1323.42ZM1422.15 280.952H1391.42C1391.66 278.805 1392.15 276.72 1392.89 274.696C1393.69 272.611 1394.73 270.801 1396.02 269.268C1397.31 267.673 1398.87 266.416 1400.71 265.496C1402.55 264.515 1404.67 264.024 1407.06 264.024C1409.39 264.024 1411.47 264.515 1413.31 265.496C1415.15 266.416 1416.72 267.673 1418.01 269.268C1419.29 270.801 1420.28 272.58 1420.95 274.604C1421.69 276.628 1422.08 278.744 1422.15 280.952ZM1391.42 285.828H1427.94C1428.06 282.516 1427.76 279.265 1427.02 276.076C1426.29 272.825 1425.06 269.973 1423.34 267.52C1421.69 265.005 1419.51 262.981 1416.81 261.448C1414.11 259.915 1410.86 259.148 1407.06 259.148C1403.32 259.148 1400.07 259.884 1397.31 261.356C1394.61 262.767 1392.4 264.668 1390.68 267.06C1388.96 269.391 1387.68 272.059 1386.82 275.064C1386.02 278.069 1385.62 281.136 1385.62 284.264C1385.62 287.637 1386.02 290.857 1386.82 293.924C1387.68 296.929 1388.96 299.597 1390.68 301.928C1392.4 304.197 1394.61 306.007 1397.31 307.356C1400.07 308.644 1403.32 309.288 1407.06 309.288C1413.07 309.288 1417.7 307.816 1420.95 304.872C1424.26 301.928 1426.53 297.757 1427.76 292.36H1421.96C1421.04 296.04 1419.39 298.984 1416.99 301.192C1414.6 303.4 1411.29 304.504 1407.06 304.504C1404.3 304.504 1401.94 303.921 1399.97 302.756C1398.01 301.591 1396.39 300.119 1395.1 298.34C1393.81 296.561 1392.86 294.568 1392.25 292.36C1391.69 290.091 1391.42 287.913 1391.42 285.828ZM1436.09 275.064H1441.89C1442.01 271.2 1443.23 268.409 1445.57 266.692C1447.9 264.913 1450.9 264.024 1454.58 264.024C1456.3 264.024 1457.89 264.177 1459.37 264.484C1460.9 264.729 1462.22 265.22 1463.32 265.956C1464.49 266.692 1465.38 267.704 1465.99 268.992C1466.66 270.219 1467 271.813 1467 273.776C1467 275.064 1466.82 276.107 1466.45 276.904C1466.14 277.701 1465.68 278.345 1465.07 278.836C1464.46 279.265 1463.69 279.572 1462.77 279.756C1461.85 279.94 1460.78 280.093 1459.55 280.216C1456.42 280.584 1453.32 280.983 1450.26 281.412C1447.25 281.78 1444.52 282.455 1442.07 283.436C1439.68 284.417 1437.75 285.859 1436.27 287.76C1434.8 289.6 1434.07 292.176 1434.07 295.488C1434.07 297.88 1434.46 299.965 1435.26 301.744C1436.12 303.461 1437.25 304.903 1438.67 306.068C1440.14 307.172 1441.82 307.969 1443.73 308.46C1445.69 309.012 1447.77 309.288 1449.98 309.288C1452.31 309.288 1454.31 309.073 1455.96 308.644C1457.68 308.215 1459.18 307.601 1460.47 306.804C1461.82 306.007 1463.01 305.025 1464.06 303.86C1465.16 302.633 1466.23 301.253 1467.28 299.72H1467.46C1467.46 300.947 1467.52 302.081 1467.65 303.124C1467.83 304.105 1468.17 304.964 1468.66 305.7C1469.15 306.436 1469.82 307.019 1470.68 307.448C1471.6 307.816 1472.8 308 1474.27 308C1475.07 308 1475.71 307.969 1476.2 307.908C1476.75 307.847 1477.37 307.755 1478.04 307.632V302.756C1477.49 303.001 1476.88 303.124 1476.2 303.124C1473.93 303.124 1472.8 301.959 1472.8 299.628V274.42C1472.8 271.231 1472.28 268.655 1471.23 266.692C1470.19 264.668 1468.84 263.104 1467.19 262C1465.53 260.896 1463.66 260.16 1461.57 259.792C1459.49 259.363 1457.4 259.148 1455.32 259.148C1452.56 259.148 1450.04 259.455 1447.77 260.068C1445.5 260.681 1443.51 261.632 1441.79 262.92C1440.14 264.208 1438.82 265.864 1437.84 267.888C1436.86 269.912 1436.27 272.304 1436.09 275.064ZM1467 282.056V289.6C1467 291.931 1466.54 294.016 1465.62 295.856C1464.76 297.696 1463.57 299.26 1462.03 300.548C1460.56 301.836 1458.81 302.817 1456.79 303.492C1454.77 304.167 1452.65 304.504 1450.44 304.504C1449.09 304.504 1447.77 304.289 1446.49 303.86C1445.2 303.431 1444.06 302.817 1443.08 302.02C1442.1 301.161 1441.3 300.18 1440.69 299.076C1440.14 297.911 1439.86 296.592 1439.86 295.12C1439.86 292.789 1440.54 291.011 1441.89 289.784C1443.3 288.496 1445.07 287.515 1447.22 286.84C1449.37 286.165 1451.73 285.675 1454.31 285.368C1456.94 285 1459.49 284.601 1461.94 284.172C1462.74 284.049 1463.66 283.835 1464.7 283.528C1465.74 283.221 1466.45 282.731 1466.82 282.056H1467ZM1485.36 242.312V308H1491.16V242.312H1485.36ZM1512.37 260.528V246.268H1506.57V260.528H1498.29V265.404H1506.57V297.88C1506.51 301.928 1507.25 304.719 1508.78 306.252C1510.31 307.724 1513.01 308.46 1516.88 308.46C1517.74 308.46 1518.59 308.429 1519.45 308.368C1520.31 308.307 1521.17 308.276 1522.03 308.276V303.4C1520.37 303.584 1518.72 303.676 1517.06 303.676C1514.98 303.553 1513.66 302.971 1513.1 301.928C1512.61 300.824 1512.37 299.321 1512.37 297.42V265.404H1522.03V260.528H1512.37ZM1531.22 242.312V308H1537.02V280.308C1537.08 277.977 1537.44 275.831 1538.12 273.868C1538.86 271.844 1539.84 270.127 1541.06 268.716C1542.35 267.244 1543.88 266.109 1545.66 265.312C1547.5 264.453 1549.59 264.024 1551.92 264.024C1554.25 264.024 1556.18 264.392 1557.72 265.128C1559.31 265.864 1560.57 266.876 1561.49 268.164C1562.41 269.452 1563.05 270.985 1563.42 272.764C1563.79 274.481 1563.97 276.352 1563.97 278.376V308H1569.77V277.456C1569.77 274.635 1569.49 272.089 1568.94 269.82C1568.39 267.551 1567.44 265.649 1566.09 264.116C1564.74 262.521 1562.93 261.295 1560.66 260.436C1558.45 259.577 1555.69 259.148 1552.38 259.148C1549.01 259.148 1545.91 260.037 1543.09 261.816C1540.27 263.533 1538.3 265.833 1537.2 268.716H1537.02V242.312H1531.22Z" fill="white"/>
<path d="M445.384 113.896V211H519.096V193.048H466.736V169.248H513.792V152.656H466.736V131.848H518.008V113.896H445.384ZM531.532 140.688V211H550.844V174.144C550.844 166.981 552.022 161.859 554.38 158.776C556.737 155.603 560.545 154.016 565.804 154.016C570.428 154.016 573.646 155.467 575.46 158.368C577.273 161.179 578.18 165.485 578.18 171.288V211H597.492V167.752C597.492 163.4 597.084 159.456 596.268 155.92C595.542 152.293 594.228 149.256 592.324 146.808C590.42 144.269 587.79 142.32 584.436 140.96C581.172 139.509 576.956 138.784 571.788 138.784C567.708 138.784 563.718 139.736 559.82 141.64C555.921 143.453 552.748 146.4 550.3 150.48H549.892V140.688H531.532ZM662.061 175.64C662.061 178.541 661.789 181.352 661.245 184.072C660.701 186.792 659.794 189.24 658.525 191.416C657.255 193.501 655.533 195.179 653.357 196.448C651.271 197.717 648.642 198.352 645.469 198.352C642.477 198.352 639.893 197.717 637.717 196.448C635.631 195.088 633.863 193.365 632.413 191.28C631.053 189.104 630.055 186.656 629.421 183.936C628.786 181.216 628.469 178.496 628.469 175.776C628.469 172.875 628.741 170.109 629.285 167.48C629.919 164.76 630.871 162.357 632.141 160.272C633.501 158.187 635.269 156.509 637.445 155.24C639.621 153.971 642.295 153.336 645.469 153.336C648.642 153.336 651.271 153.971 653.357 155.24C655.442 156.509 657.119 158.187 658.389 160.272C659.749 162.267 660.701 164.624 661.245 167.344C661.789 169.973 662.061 172.739 662.061 175.64ZM662.333 202.024V211H680.693V113.896H661.381V149.256H661.109C658.933 145.811 655.941 143.227 652.133 141.504C648.415 139.691 644.471 138.784 640.301 138.784C635.133 138.784 630.599 139.827 626.701 141.912C622.802 143.907 619.538 146.581 616.909 149.936C614.37 153.291 612.421 157.189 611.061 161.632C609.791 165.984 609.157 170.517 609.157 175.232C609.157 180.128 609.791 184.843 611.061 189.376C612.421 193.909 614.37 197.944 616.909 201.48C619.538 204.925 622.847 207.691 626.837 209.776C630.826 211.771 635.45 212.768 640.709 212.768C645.333 212.768 649.458 211.952 653.085 210.32C656.802 208.597 659.794 205.832 662.061 202.024H662.333ZM718.681 159.592V130.488H735.273C737.721 130.488 740.079 130.669 742.345 131.032C744.612 131.395 746.607 132.12 748.329 133.208C750.052 134.205 751.412 135.656 752.409 137.56C753.497 139.464 754.041 141.957 754.041 145.04C754.041 148.123 753.497 150.616 752.409 152.52C751.412 154.424 750.052 155.92 748.329 157.008C746.607 158.005 744.612 158.685 742.345 159.048C740.079 159.411 737.721 159.592 735.273 159.592H718.681ZM697.329 113.896V211H718.681V176.184H741.121C747.196 176.184 752.364 175.323 756.625 173.6C760.887 171.787 764.332 169.429 766.961 166.528C769.681 163.627 771.631 160.317 772.809 156.6C774.079 152.792 774.713 148.939 774.713 145.04C774.713 141.051 774.079 137.197 772.809 133.48C771.631 129.763 769.681 126.453 766.961 123.552C764.332 120.651 760.887 118.339 756.625 116.616C752.364 114.803 747.196 113.896 741.121 113.896H697.329ZM785.184 162.312C785.456 157.779 786.59 154.016 788.584 151.024C790.579 148.032 793.118 145.629 796.2 143.816C799.283 142.003 802.728 140.733 806.536 140.008C810.435 139.192 814.334 138.784 818.232 138.784C821.768 138.784 825.35 139.056 828.976 139.6C832.603 140.053 835.912 141.005 838.904 142.456C841.896 143.907 844.344 145.947 846.248 148.576C848.152 151.115 849.104 154.515 849.104 158.776V195.36C849.104 198.533 849.286 201.571 849.648 204.472C850.011 207.373 850.646 209.549 851.552 211H831.968C831.606 209.912 831.288 208.824 831.016 207.736C830.835 206.557 830.699 205.379 830.608 204.2C827.526 207.373 823.899 209.595 819.728 210.864C815.558 212.133 811.296 212.768 806.944 212.768C803.59 212.768 800.462 212.36 797.56 211.544C794.659 210.728 792.12 209.459 789.944 207.736C787.768 206.013 786.046 203.837 784.776 201.208C783.598 198.579 783.008 195.451 783.008 191.824C783.008 187.835 783.688 184.571 785.048 182.032C786.499 179.403 788.312 177.317 790.488 175.776C792.755 174.235 795.294 173.101 798.104 172.376C801.006 171.56 803.907 170.925 806.808 170.472C809.71 170.019 812.566 169.656 815.376 169.384C818.187 169.112 820.68 168.704 822.856 168.16C825.032 167.616 826.755 166.845 828.024 165.848C829.294 164.76 829.883 163.219 829.792 161.224C829.792 159.139 829.43 157.507 828.704 156.328C828.07 155.059 827.163 154.107 825.984 153.472C824.896 152.747 823.582 152.293 822.04 152.112C820.59 151.84 819.003 151.704 817.28 151.704C813.472 151.704 810.48 152.52 808.304 154.152C806.128 155.784 804.859 158.504 804.496 162.312H785.184ZM829.792 176.592C828.976 177.317 827.934 177.907 826.664 178.36C825.486 178.723 824.171 179.04 822.72 179.312C821.36 179.584 819.91 179.811 818.368 179.992C816.827 180.173 815.286 180.4 813.744 180.672C812.294 180.944 810.843 181.307 809.392 181.76C808.032 182.213 806.808 182.848 805.72 183.664C804.723 184.389 803.907 185.341 803.272 186.52C802.638 187.699 802.32 189.195 802.32 191.008C802.32 192.731 802.638 194.181 803.272 195.36C803.907 196.539 804.768 197.491 805.856 198.216C806.944 198.851 808.214 199.304 809.664 199.576C811.115 199.848 812.611 199.984 814.152 199.984C817.96 199.984 820.907 199.349 822.992 198.08C825.078 196.811 826.619 195.315 827.616 193.592C828.614 191.779 829.203 189.965 829.384 188.152C829.656 186.339 829.792 184.888 829.792 183.8V176.592ZM864.094 140.688V211H883.406V174.144C883.406 166.981 884.585 161.859 886.942 158.776C889.299 155.603 893.107 154.016 898.366 154.016C902.99 154.016 906.209 155.467 908.022 158.368C909.835 161.179 910.742 165.485 910.742 171.288V211H930.054V167.752C930.054 163.4 929.646 159.456 928.83 155.92C928.105 152.293 926.79 149.256 924.886 146.808C922.982 144.269 920.353 142.32 916.998 140.96C913.734 139.509 909.518 138.784 904.35 138.784C900.27 138.784 896.281 139.736 892.382 141.64C888.483 143.453 885.31 146.4 882.862 150.48H882.454V140.688H864.094ZM994.623 175.64C994.623 178.541 994.351 181.352 993.807 184.072C993.263 186.792 992.357 189.24 991.087 191.416C989.818 193.501 988.095 195.179 985.919 196.448C983.834 197.717 981.205 198.352 978.031 198.352C975.039 198.352 972.455 197.717 970.279 196.448C968.194 195.088 966.426 193.365 964.975 191.28C963.615 189.104 962.618 186.656 961.983 183.936C961.349 181.216 961.031 178.496 961.031 175.776C961.031 172.875 961.303 170.109 961.847 167.48C962.482 164.76 963.434 162.357 964.703 160.272C966.063 158.187 967.831 156.509 970.007 155.24C972.183 153.971 974.858 153.336 978.031 153.336C981.205 153.336 983.834 153.971 985.919 155.24C988.005 156.509 989.682 158.187 990.951 160.272C992.311 162.267 993.263 164.624 993.807 167.344C994.351 169.973 994.623 172.739 994.623 175.64ZM994.895 202.024V211H1013.26V113.896H993.943V149.256H993.671C991.495 145.811 988.503 143.227 984.695 141.504C980.978 139.691 977.034 138.784 972.863 138.784C967.695 138.784 963.162 139.827 959.263 141.912C955.365 143.907 952.101 146.581 949.471 149.936C946.933 153.291 944.983 157.189 943.623 161.632C942.354 165.984 941.719 170.517 941.719 175.232C941.719 180.128 942.354 184.843 943.623 189.376C944.983 193.909 946.933 197.944 949.471 201.48C952.101 204.925 955.41 207.691 959.399 209.776C963.389 211.771 968.013 212.768 973.271 212.768C977.895 212.768 982.021 211.952 985.647 210.32C989.365 208.597 992.357 205.832 994.623 202.024H994.895ZM1075.18 168.296H1043.76C1043.85 166.936 1044.13 165.395 1044.58 163.672C1045.12 161.949 1045.99 160.317 1047.16 158.776C1048.43 157.235 1050.07 155.965 1052.06 154.968C1054.15 153.88 1056.73 153.336 1059.81 153.336C1064.53 153.336 1068.02 154.605 1070.28 157.144C1072.64 159.683 1074.27 163.4 1075.18 168.296ZM1043.76 180.536H1094.49C1094.85 175.096 1094.4 169.883 1093.13 164.896C1091.86 159.909 1089.78 155.467 1086.88 151.568C1084.07 147.669 1080.44 144.587 1076 142.32C1071.55 139.963 1066.34 138.784 1060.36 138.784C1055.01 138.784 1050.11 139.736 1045.67 141.64C1041.32 143.544 1037.55 146.173 1034.38 149.528C1031.21 152.792 1028.76 156.691 1027.04 161.224C1025.31 165.757 1024.45 170.653 1024.45 175.912C1024.45 181.352 1025.27 186.339 1026.9 190.872C1028.62 195.405 1031.03 199.304 1034.11 202.568C1037.19 205.832 1040.95 208.371 1045.4 210.184C1049.84 211.907 1054.83 212.768 1060.36 212.768C1068.33 212.768 1075.13 210.955 1080.76 207.328C1086.38 203.701 1090.55 197.672 1093.27 189.24H1076.27C1075.63 191.416 1073.91 193.501 1071.1 195.496C1068.29 197.4 1064.93 198.352 1061.04 198.352C1055.6 198.352 1051.43 196.947 1048.52 194.136C1045.62 191.325 1044.04 186.792 1043.76 180.536ZM1106.49 140.688V211H1125.8V170.2C1125.8 166.755 1126.3 163.989 1127.3 161.904C1128.29 159.728 1129.47 158.096 1130.83 157.008C1132.28 155.829 1133.73 155.059 1135.19 154.696C1136.73 154.243 1137.95 154.016 1138.86 154.016C1141.94 154.016 1144.25 154.56 1145.79 155.648C1147.43 156.645 1148.56 158.005 1149.19 159.728C1149.92 161.451 1150.33 163.355 1150.42 165.44C1150.51 167.435 1150.55 169.475 1150.55 171.56V211H1169.87V171.832C1169.87 169.656 1170 167.525 1170.27 165.44C1170.64 163.264 1171.27 161.36 1172.18 159.728C1173.17 158.005 1174.49 156.645 1176.12 155.648C1177.84 154.56 1180.07 154.016 1182.79 154.016C1185.51 154.016 1187.64 154.469 1189.18 155.376C1190.81 156.283 1192.03 157.507 1192.85 159.048C1193.67 160.589 1194.16 162.403 1194.35 164.488C1194.53 166.573 1194.62 168.795 1194.62 171.152V211H1213.93V163.944C1213.93 159.411 1213.29 155.557 1212.03 152.384C1210.76 149.12 1208.99 146.491 1206.72 144.496C1204.45 142.501 1201.73 141.051 1198.56 140.144C1195.39 139.237 1191.94 138.784 1188.23 138.784C1183.33 138.784 1179.07 139.963 1175.44 142.32C1171.91 144.677 1169.09 147.397 1167.01 150.48C1165.11 146.128 1162.29 143.091 1158.58 141.368C1154.95 139.645 1150.92 138.784 1146.47 138.784C1141.85 138.784 1137.72 139.781 1134.1 141.776C1130.56 143.771 1127.52 146.581 1124.99 150.208H1124.71V140.688H1106.49ZM1249.05 129.808V113.896H1229.74V129.808H1249.05ZM1229.74 140.688V211H1249.05V140.688H1229.74ZM1312.13 165.44H1331.03C1330.76 160.907 1329.67 157.008 1327.77 153.744C1325.87 150.389 1323.37 147.624 1320.29 145.448C1317.3 143.181 1313.85 141.504 1309.95 140.416C1306.15 139.328 1302.16 138.784 1297.99 138.784C1292.27 138.784 1287.2 139.736 1282.75 141.64C1278.31 143.544 1274.55 146.219 1271.47 149.664C1268.38 153.019 1266.03 157.053 1264.39 161.768C1262.85 166.392 1262.08 171.424 1262.08 176.864C1262.08 182.123 1262.94 186.973 1264.67 191.416C1266.39 195.768 1268.79 199.531 1271.87 202.704C1274.96 205.877 1278.67 208.371 1283.03 210.184C1287.47 211.907 1292.32 212.768 1297.58 212.768C1306.92 212.768 1314.58 210.32 1320.56 205.424C1326.55 200.528 1330.17 193.411 1331.44 184.072H1312.81C1312.18 188.424 1310.59 191.915 1308.05 194.544C1305.6 197.083 1302.07 198.352 1297.44 198.352C1294.45 198.352 1291.91 197.672 1289.83 196.312C1287.74 194.952 1286.06 193.229 1284.79 191.144C1283.62 188.968 1282.75 186.565 1282.21 183.936C1281.67 181.307 1281.39 178.723 1281.39 176.184C1281.39 173.555 1281.67 170.925 1282.21 168.296C1282.75 165.576 1283.66 163.128 1284.93 160.952C1286.29 158.685 1288.01 156.872 1290.1 155.512C1292.18 154.061 1294.77 153.336 1297.85 153.336C1306.1 153.336 1310.86 157.371 1312.13 165.44ZM1357.31 188.152H1338.95C1339.13 192.867 1340.18 196.811 1342.08 199.984C1344.07 203.067 1346.57 205.56 1349.56 207.464C1352.64 209.368 1356.13 210.728 1360.03 211.544C1363.93 212.36 1367.92 212.768 1372 212.768C1375.99 212.768 1379.89 212.36 1383.7 211.544C1387.59 210.819 1391.04 209.504 1394.03 207.6C1397.02 205.696 1399.43 203.203 1401.24 200.12C1403.14 196.947 1404.1 193.048 1404.1 188.424C1404.1 185.16 1403.46 182.44 1402.19 180.264C1400.92 177.997 1399.25 176.139 1397.16 174.688C1395.07 173.147 1392.67 171.923 1389.95 171.016C1387.32 170.109 1384.6 169.339 1381.79 168.704C1379.07 168.069 1376.4 167.48 1373.77 166.936C1371.14 166.392 1368.78 165.803 1366.7 165.168C1364.7 164.443 1363.07 163.536 1361.8 162.448C1360.53 161.36 1359.9 159.955 1359.9 158.232C1359.9 156.781 1360.26 155.648 1360.98 154.832C1361.71 153.925 1362.57 153.245 1363.57 152.792C1364.66 152.339 1365.83 152.067 1367.1 151.976C1368.37 151.795 1369.55 151.704 1370.64 151.704C1374.09 151.704 1377.08 152.384 1379.62 153.744C1382.15 155.013 1383.56 157.507 1383.83 161.224H1402.19C1401.83 156.872 1400.7 153.291 1398.79 150.48C1396.98 147.579 1394.67 145.267 1391.86 143.544C1389.05 141.821 1385.83 140.597 1382.2 139.872C1378.66 139.147 1374.99 138.784 1371.18 138.784C1367.38 138.784 1363.66 139.147 1360.03 139.872C1356.41 140.507 1353.14 141.685 1350.24 143.408C1347.34 145.04 1344.98 147.307 1343.17 150.208C1341.45 153.109 1340.58 156.827 1340.58 161.36C1340.58 164.443 1341.22 167.072 1342.49 169.248C1343.76 171.333 1345.43 173.101 1347.52 174.552C1349.61 175.912 1351.96 177.045 1354.59 177.952C1357.31 178.768 1360.08 179.493 1362.89 180.128C1369.78 181.579 1375.13 183.029 1378.94 184.48C1382.83 185.931 1384.78 188.107 1384.78 191.008C1384.78 192.731 1384.38 194.181 1383.56 195.36C1382.74 196.448 1381.7 197.355 1380.43 198.08C1379.25 198.715 1377.89 199.213 1376.35 199.576C1374.9 199.848 1373.5 199.984 1372.14 199.984C1370.23 199.984 1368.37 199.757 1366.56 199.304C1364.84 198.851 1363.3 198.171 1361.94 197.264C1360.58 196.267 1359.44 195.043 1358.54 193.592C1357.72 192.051 1357.31 190.237 1357.31 188.152Z" fill="white"/>
</svg>
