<svg width="700" height="700" viewBox="0 0 700 700" fill="none" xmlns="http://www.w3.org/2000/svg">
<g clip-path="url(#clip0)">
<path fill-rule="evenodd" clip-rule="evenodd" d="M380.731 77.5451C378.663 77.4276 376.591 77.3373 374.517 77.2744C380.469 89.3435 385.718 101.667 390.263 114.184C394.4 113.9 398.463 113.537 402.421 113.1C410.755 112.178 418.459 110.94 425.297 109.441C412.645 96.9915 397.771 86.1661 380.731 77.5451ZM367.389 72.056L367.389 72.0559L367.389 150.761L367.389 125.868V120.959H367.389V114.959L367.389 96.0625V77.1664L367.389 72.056ZM386.099 114.443C382.34 104.195 378.103 94.0791 373.389 84.1304L373.389 114.906C377.668 114.831 381.915 114.676 386.099 114.443ZM373.389 120.907C378.381 120.821 383.334 120.628 388.201 120.331C394.278 137.832 398.974 155.699 402.284 173.768C392.753 174.209 383.097 174.469 373.389 174.546V125.868V120.907ZM373.389 180.546C383.446 180.467 393.451 180.193 403.324 179.726C406.386 198.177 408.009 216.82 408.19 235.478H373.389V180.546ZM367.389 235.478V180.569H367.389L367.389 235.478H367.389ZM367.389 239.478L367.389 379.308L367.389 361.894V355.894L367.389 349.582V297.374V291.374L367.389 246.14V239.478H367.389ZM373.389 239.478H408.206C408.182 257.1 406.87 274.725 404.268 292.207C394.078 291.743 383.759 291.472 373.389 291.396L373.389 246.14V239.478ZM412.206 239.478C412.182 257.163 410.876 274.852 408.283 292.4C422.925 293.141 437.28 294.28 451.116 295.805C456.754 296.426 462.281 297.109 467.687 297.851C474.436 279.001 477.891 259.24 478.138 239.478H412.206ZM482.139 239.478C481.896 259.424 478.456 279.37 471.736 298.421C489.777 301.025 506.383 304.297 521.046 308.145C521.676 306.736 522.287 305.316 522.878 303.888C531.336 283.468 535.689 261.581 535.689 239.478L482.139 239.478ZM535.642 235.478H482.145C481.949 214.268 478.142 193.126 470.827 173.132C486.073 170.767 500.145 167.884 512.676 164.547C514.29 164.118 515.876 163.681 517.433 163.238C519.397 167.104 521.214 171.05 522.878 175.068C530.825 194.256 535.149 214.738 535.642 235.478ZM478.144 235.478H412.19C412.011 216.753 410.394 198.045 407.345 179.525C420.558 178.827 433.513 177.784 446.017 176.405C453.136 175.62 460.069 174.731 466.786 173.742C474.126 193.52 477.947 214.464 478.144 235.478ZM373.389 297.396C383.444 297.47 393.448 297.73 403.329 298.171C400.056 317.893 395.132 337.411 388.554 356.513C384.224 356.256 379.83 356.079 375.402 355.982C374.732 355.967 374.06 355.954 373.389 355.943L373.389 349.582V297.396ZM450.459 301.769C436.547 300.236 422.098 299.095 407.352 298.361C404.101 318.105 399.215 337.648 392.69 356.783C396.765 357.075 400.775 357.437 404.69 357.869C405.43 357.95 406.164 358.034 406.895 358.12C414.363 359.002 421.375 360.128 427.77 361.472C444.615 344.325 457.154 324.604 465.51 303.61C460.595 302.947 455.574 302.333 450.459 301.769ZM375.363 361.982C379.097 362.065 382.805 362.206 386.468 362.404C382.62 372.977 378.261 383.414 373.389 393.68L373.389 381.842V361.944C374.047 361.955 374.705 361.968 375.363 361.982ZM400.35 400.233C394.243 400.829 387.925 401.257 381.495 401.512L399.35 389.838C409.67 383.091 419.003 375.605 427.36 367.519C429.949 368.075 432.423 368.667 434.77 369.292C435.318 369.438 435.857 369.585 436.387 369.733C444.342 371.959 450.305 374.456 454.199 376.959C454.373 377.071 454.539 377.181 454.7 377.289C457.112 378.912 458.132 380.171 458.559 380.955C450.096 386.409 441.141 391.106 431.794 394.978C431.458 395.117 431.122 395.255 430.785 395.392C422.951 397.247 413.914 398.761 404.033 399.851C402.814 399.985 401.586 400.113 400.35 400.233ZM397.161 386.49C406.444 380.421 414.91 373.74 422.569 366.554C417.467 365.594 411.984 364.763 406.195 364.079C405.479 363.995 404.758 363.913 404.033 363.833C399.675 363.352 395.195 362.959 390.631 362.655C386.543 374.004 381.872 385.201 376.619 396.201L374.035 401.611L397.161 386.49ZM436.313 363.494C435.027 363.151 433.706 362.819 432.352 362.497C448.96 345.128 461.335 325.269 469.595 304.175C487.507 306.72 503.959 309.918 518.456 313.67C510.315 330.249 499.489 345.398 486.395 358.492C479.345 365.543 471.699 371.936 463.556 377.607C462.42 375.779 460.55 373.985 457.969 372.257C457.797 372.141 457.621 372.027 457.443 371.912C452.851 368.96 446.253 366.262 437.988 363.951C437.437 363.797 436.879 363.644 436.313 363.494ZM511.132 158.749C498.484 162.117 484.185 165.027 468.621 167.4C460.694 147.791 449.322 129.413 434.604 113.322C442.67 111.084 449.099 108.462 453.556 105.59C456.854 103.464 459.026 101.232 460.023 98.9558C469.495 105.201 478.334 112.402 486.395 120.464C497.496 131.565 506.966 144.143 514.553 157.816C513.429 158.13 512.289 158.441 511.132 158.749ZM403.08 119.064C413.059 117.96 422.233 116.404 430.201 114.466C445.067 130.325 456.548 148.533 464.545 168.006C458.332 168.903 451.93 169.717 445.36 170.441C432.747 171.832 419.664 172.879 406.314 173.57C403.027 155.479 398.366 137.585 392.337 120.051C395.982 119.781 399.57 119.452 403.08 119.064ZM431.791 107.87C431.166 108.036 430.532 108.201 429.889 108.363C418.583 96.92 405.483 86.7665 390.628 78.318C408.955 80.1407 426.927 84.1138 444.022 90.1438C445.08 90.5171 446.134 90.8979 447.183 91.2861C449.641 92.6101 452.066 93.9945 454.453 95.4378C454.637 95.8092 454.655 96.0241 454.655 96.0625C454.655 96.1765 454.497 97.8456 450.306 100.546C446.363 103.087 440.167 105.634 431.791 107.87Z" fill="#55BC85"/>
<mask id="mask0" mask-type="alpha" maskUnits="userSpaceOnUse" x="310" y="36" width="45" height="170">
<path d="M310.488 42.7316C324.944 38.7891 339.862 36.795 354.846 36.8022L354.766 205.114L310.488 42.7316Z" fill="#130947"/>
</mask>
<g mask="url(#mask0)">
<path fill-rule="evenodd" clip-rule="evenodd" d="M186.488 202.309H229.52C229.375 180.039 233.419 157.791 241.52 136.944C230.446 134.969 220.093 132.706 210.621 130.184C208.661 129.662 206.742 129.13 204.867 128.589C202.847 132.545 200.981 136.587 199.276 140.704C191.176 160.26 186.841 181.161 186.488 202.309ZM206.869 124.786C208.448 125.236 210.06 125.68 211.703 126.118C221.298 128.672 231.828 130.962 243.127 132.956C251.785 112.206 264.528 92.9584 281.225 76.6118C276.582 74.955 272.72 73.1464 269.741 71.2262C266.156 68.9157 263.901 66.4784 263.039 63.9968C253.224 70.3778 244.077 77.781 235.759 86.0996C224.298 97.561 214.576 110.596 206.869 124.786ZM284.842 52.0163C278.648 54.8457 272.641 58.044 266.852 61.5906C266.85 61.6279 266.849 61.664 266.849 61.6989C266.849 62.7552 267.681 64.8928 272.02 67.6892C275.063 69.6503 279.298 71.5697 284.66 73.3425C298.059 60.9394 313.845 50.3477 331.955 42.225C315.861 43.8627 300.04 47.147 284.842 52.0163ZM353.617 36.8062C354 36.805 354.383 36.8042 354.766 36.8036L354.766 36.8022C354.383 36.8022 354 36.8036 353.617 36.8062ZM186.465 205.114C186.465 227.217 190.818 249.104 199.276 269.524C199.882 270.987 200.509 272.441 201.155 273.885C213.402 270.654 227.014 267.828 241.694 265.457C234.028 246.092 230.017 225.618 229.56 205.114H186.465ZM202.951 277.764C215.132 274.581 228.692 271.792 243.336 269.456C252.7 291.464 266.872 311.92 286.004 329.204C277.084 331.598 270.001 334.432 265.152 337.548C262.193 339.45 260.102 341.434 258.909 343.458C250.649 337.734 242.899 331.269 235.759 324.128C222.26 310.628 211.172 294.946 202.951 277.764ZM262.413 345.822C263.058 344.593 264.489 342.976 267.427 341.088C271.804 338.275 278.511 335.553 287.364 333.196C288.172 332.981 288.995 332.77 289.832 332.563C295.563 337.447 301.71 342.056 308.279 346.351L342.934 369.009C334.502 368.721 326.238 368.137 318.366 367.269C312.63 366.636 307.168 365.86 302.052 364.957C298.108 363.656 294.208 362.208 290.36 360.614C280.577 356.561 271.222 351.605 262.413 345.822ZM336.809 372.465C341.326 372.82 345.891 373 350.499 373C351.925 373 353.348 372.983 354.766 372.948L354.766 373.426C348.756 373.426 342.762 373.104 336.809 372.465ZM309.814 344.003C303.947 340.167 298.422 336.077 293.235 331.76C300.716 330.078 309.189 328.7 318.366 327.688C321.455 327.347 324.604 327.05 327.8 326.798L347.915 368.914L309.814 344.003ZM317.905 323.505C307.358 324.668 297.671 326.314 289.278 328.366C269.948 311.275 255.64 290.934 246.2 269.006C254.464 267.733 263.062 266.602 271.94 265.624C282.132 264.501 292.61 263.588 303.281 262.89C307.417 279.836 313.314 296.467 320.975 312.509L325.859 322.734C323.172 322.96 320.517 323.217 317.905 323.505ZM330.802 326.574L350.999 368.863L350.999 325.762C344.165 325.842 337.394 326.115 330.802 326.574ZM323.507 311.3L328.854 322.496C336.067 321.957 343.498 321.641 350.999 321.554V261.229C335.856 261.307 320.817 261.805 306.125 262.71C310.21 279.302 316.002 295.586 323.507 311.3ZM298.804 205.114C299.011 223.04 301.121 240.958 305.139 258.555C320.151 257.616 335.523 257.101 350.999 257.021L351.7 257.018L351.7 205.114H298.804ZM295.982 202.309C295.973 182.845 298.182 163.389 302.602 144.332C294.002 143.717 285.542 142.953 277.279 142.041C265.772 140.773 254.75 139.231 244.341 137.439C236.228 158.111 232.179 180.199 232.325 202.309H295.982ZM295.999 205.114C296.204 223.1 298.304 241.077 302.304 258.738C291.815 259.433 281.511 260.336 271.479 261.441C262.182 262.466 253.182 263.658 244.539 265.006C236.851 245.8 232.828 225.473 232.366 205.114H295.999ZM298.787 202.309H351.7L351.7 146.194C336.064 146.109 320.543 145.549 305.436 144.529C300.997 163.517 298.778 182.909 298.787 202.309ZM289.958 79.3031C287.946 78.766 286.031 78.2056 284.217 77.6237C267.451 93.7604 254.656 112.842 245.965 133.448C256.012 135.157 266.642 136.635 277.74 137.859C286.172 138.789 294.812 139.565 303.601 140.185C308.319 121.28 315.227 102.798 324.316 85.1232C322.938 84.9908 321.571 84.8497 320.216 84.6999C308.901 83.4487 298.619 81.6149 289.958 79.3031ZM291.044 75.2376C289.912 74.9354 288.816 74.6271 287.759 74.3131C301.903 61.4708 318.692 50.6591 338.052 42.6518L340.864 41.4885C343.049 41.3495 345.237 41.2407 347.429 41.1622L326.423 81.0935C324.487 80.9188 322.571 80.7268 320.679 80.5176C309.52 79.2838 299.454 77.4826 291.044 75.2376ZM351.7 41.0479C351.349 41.0541 350.998 41.0611 350.647 41.0689L329.457 81.3517C336.675 81.9294 344.146 82.2694 351.7 82.3615L351.7 41.0479ZM351.7 86.5696C343.413 86.4697 335.218 86.0752 327.332 85.3976C318.163 103.033 311.198 121.491 306.444 140.38C321.225 141.361 336.405 141.902 351.7 141.986L351.7 86.5696Z" fill="#55BC85"/>
</g>
<mask id="mask1" mask-type="alpha" maskUnits="userSpaceOnUse" x="185" y="22" width="143" height="162">
<path d="M185.862 92.3332C207.599 58.5315 240.712 33.6235 279.214 22.1131L327.417 183.374L185.862 92.3332Z" fill="#130947"/>
</mask>
<g mask="url(#mask1)">
<path fill-rule="evenodd" clip-rule="evenodd" d="M327.417 15.0619C327.037 15.0619 326.656 15.0632 326.275 15.0658C326.656 15.0646 327.037 15.0638 327.417 15.0632L327.417 15.0619ZM263.012 27.8738C283.079 19.5612 304.562 15.2132 326.275 15.0658C326.272 15.0658 326.27 15.0658 326.268 15.0658C304.557 15.2141 283.077 19.5621 263.012 27.8738ZM257.494 30.2759C272.693 25.4065 288.513 22.1224 304.606 20.4846C286.497 28.6073 270.711 39.199 257.311 51.6021C251.95 49.8293 247.715 47.9099 244.672 45.9488C240.332 43.1524 239.501 41.0149 239.501 39.9585C239.501 39.9236 239.502 39.8875 239.503 39.8503C245.293 36.3036 251.3 33.1052 257.494 30.2759ZM235.691 42.2565C236.553 44.738 238.807 47.1754 242.393 49.4858C245.372 51.406 249.234 53.2146 253.877 54.8714C237.18 71.218 224.437 90.4653 215.779 111.216C204.48 109.222 193.95 106.932 184.355 104.377C182.712 103.94 181.1 103.496 179.521 103.045C187.227 88.8552 196.95 75.8206 208.411 64.3592C216.729 56.0406 225.876 48.6375 235.691 42.2565ZM177.518 106.848C179.394 107.39 181.313 107.922 183.273 108.443C192.745 110.965 203.098 113.228 214.172 115.204C206.071 136.051 202.027 158.299 202.171 180.569H159.14C159.493 159.421 163.828 138.52 171.928 118.963C172.035 118.706 172.142 118.449 172.25 118.192C173.867 114.341 175.625 110.558 177.518 106.848ZM235.065 324.081C235.71 322.852 237.141 321.236 240.079 319.348C244.455 316.535 251.163 313.813 260.016 311.456C260.824 311.241 261.647 311.03 262.484 310.822C268.214 315.707 274.362 320.316 280.931 324.611L315.586 347.269C307.153 346.981 298.89 346.396 291.018 345.528C285.281 344.896 279.82 344.12 274.704 343.217C270.76 341.916 266.86 340.467 263.012 338.873C253.229 334.821 243.874 329.864 235.065 324.081ZM231.561 321.718C232.753 319.694 234.845 317.71 237.804 315.808C242.652 312.692 249.736 309.858 258.656 307.464C239.524 290.18 225.352 269.723 215.988 247.715C201.344 250.052 187.784 252.84 175.603 256.024C183.824 273.206 194.912 288.888 208.411 302.388C215.551 309.528 223.301 315.994 231.561 321.718ZM168.949 240.06C162.45 221.888 159.117 202.714 159.117 183.374H202.212C202.668 203.878 206.68 224.351 214.346 243.717C199.666 246.087 186.054 248.914 173.807 252.145C173.161 250.701 172.534 249.247 171.928 247.784C170.871 245.231 169.878 242.656 168.949 240.06ZM282.466 322.263C276.599 318.427 271.074 314.336 265.886 310.019C273.368 308.337 281.841 306.959 291.018 305.947C294.107 305.607 297.256 305.31 300.452 305.057L320.567 347.174L282.466 322.263ZM290.557 301.765C280.01 302.928 270.322 304.574 261.93 306.625C242.6 289.534 228.292 269.194 218.852 247.266C227.116 245.993 235.713 244.862 244.592 243.883C254.784 242.76 265.262 241.847 275.933 241.15C280.069 258.096 285.966 274.726 293.627 290.768L298.511 300.994C295.823 301.22 293.169 301.477 290.557 301.765ZM303.454 304.834L323.651 347.122L323.651 304.022C316.817 304.101 310.046 304.374 303.454 304.834ZM296.158 289.559L301.506 300.756C308.719 300.217 316.15 299.9 323.651 299.814V239.489C308.507 239.567 293.469 240.065 278.777 240.969C282.862 257.562 288.654 273.846 296.158 289.559ZM271.456 183.374C271.663 201.3 273.773 219.217 277.791 236.815C292.803 235.876 308.175 235.36 323.651 235.281L324.352 235.278L324.352 183.374H271.456ZM268.634 180.569C268.625 161.104 270.834 141.649 275.254 122.592C266.653 121.977 258.194 121.212 249.931 120.301C238.424 119.032 227.402 117.49 216.993 115.698C208.88 136.371 204.831 158.459 204.977 180.569H268.634ZM268.651 183.374C268.856 201.359 270.956 219.336 274.956 236.997C264.467 237.693 254.163 238.595 244.131 239.701C234.833 240.726 225.834 241.917 217.191 243.266C209.503 224.06 205.48 203.733 205.018 183.374H268.651ZM271.439 180.569H324.352L324.352 124.454C308.716 124.368 293.195 123.808 278.088 122.789C273.649 141.777 271.43 161.168 271.439 180.569ZM262.61 57.5627C260.598 57.0256 258.683 56.4652 256.869 55.8833C240.102 72.02 227.307 91.1015 218.617 111.708C228.664 113.417 239.293 114.895 250.392 116.119C258.824 117.048 267.464 117.825 276.253 118.445C280.971 99.5395 287.878 81.0576 296.967 63.3828C295.59 63.2505 294.223 63.1093 292.868 62.9595C281.553 61.7084 271.271 59.8745 262.61 57.5627ZM263.695 53.4972C262.563 53.1951 261.468 52.8867 260.411 52.5727C274.555 39.7305 291.344 28.9187 310.704 20.9114L313.516 19.7481C315.701 19.6091 317.889 19.5003 320.081 19.4219L299.075 59.3531C297.139 59.1784 295.223 58.9864 293.33 58.7772C282.172 57.5434 272.106 55.7422 263.695 53.4972ZM324.352 19.3075C324.001 19.3137 323.65 19.3208 323.299 19.3285L302.108 59.6113C309.327 60.1891 316.798 60.529 324.352 60.6211L324.352 19.3075ZM324.352 64.8292C316.065 64.7294 307.87 64.3349 299.983 63.6572C290.815 81.2924 283.85 99.7505 279.096 118.639C293.877 119.621 309.057 120.162 324.352 120.246L324.352 64.8292Z" fill="#55BC85"/>
</g>
<mask id="mask2" mask-type="alpha" maskUnits="userSpaceOnUse" x="155" y="121" width="168" height="92">
<path d="M155.69 190.54C158.976 165.941 167.661 142.372 181.124 121.523L322.508 212.828L155.69 190.54Z" fill="#130947"/>
</mask>
<g mask="url(#mask2)">
<path fill-rule="evenodd" clip-rule="evenodd" d="M322.509 44.5164C322.128 44.5164 321.747 44.5177 321.366 44.5202C321.747 44.5191 322.128 44.5183 322.509 44.5177L322.509 44.5164ZM258.103 57.3283C278.17 49.0156 299.653 44.6676 321.366 44.5202C321.364 44.5202 321.361 44.5202 321.359 44.5203C299.648 44.6686 278.168 49.0165 258.103 57.3283ZM252.585 59.7303C267.784 54.861 283.604 51.5768 299.698 49.9391C281.588 58.0618 265.802 68.6535 252.403 81.0566C247.041 79.2838 242.806 77.3644 239.763 75.4033C235.424 72.6069 234.592 70.4693 234.592 69.413C234.592 69.3781 234.593 69.342 234.595 69.3048C240.384 65.7581 246.391 62.5597 252.585 59.7303ZM230.783 71.711C231.644 74.1925 233.899 76.6298 237.484 78.9403C240.464 80.8605 244.325 82.6691 248.968 84.3259C232.271 100.672 219.528 119.92 210.87 140.67C199.571 138.676 189.041 136.386 179.446 133.832C177.803 133.394 176.192 132.95 174.613 132.5C182.319 118.31 192.042 105.275 203.502 93.8137C211.82 85.4951 220.967 78.092 230.783 71.711ZM172.61 136.303C174.486 136.844 176.404 137.376 178.364 137.898C187.836 140.42 198.189 142.683 209.264 144.659C201.162 165.505 197.119 187.753 197.263 210.023H154.232C154.584 188.875 158.919 167.974 167.019 148.418C167.126 148.161 167.233 147.904 167.341 147.647C168.958 143.796 170.716 140.012 172.61 136.303ZM230.156 353.536C230.801 352.307 232.232 350.69 235.17 348.802C239.547 345.989 246.255 343.267 255.107 340.91C255.915 340.695 256.738 340.484 257.575 340.277C263.306 345.161 269.454 349.77 276.022 354.065L310.678 376.724C302.245 376.435 293.981 375.851 286.109 374.983C280.373 374.35 274.911 373.574 269.795 372.671C265.851 371.37 261.951 369.922 258.103 368.328C248.32 364.275 238.966 359.319 230.156 353.536ZM226.652 351.172C227.845 349.148 229.936 347.164 232.895 345.262C237.744 342.146 244.827 339.312 253.747 336.918C234.615 319.634 220.443 299.178 211.079 277.17C196.435 279.506 182.875 282.295 170.694 285.478C178.915 302.66 190.003 318.343 203.502 331.842C210.642 338.983 218.393 345.449 226.652 351.172ZM164.041 269.514C157.541 251.343 154.208 232.169 154.208 212.829H197.303C197.76 233.332 201.771 253.806 209.437 273.171C194.758 275.542 181.145 278.369 168.898 281.599C168.252 280.155 167.625 278.702 167.019 277.238C165.962 274.686 164.969 272.11 164.041 269.514ZM277.557 351.717C271.69 347.881 266.165 343.791 260.978 339.474C268.459 337.792 276.932 336.414 286.109 335.402C289.198 335.061 292.347 334.764 295.543 334.512L315.658 376.629L277.557 351.717ZM285.648 331.219C275.101 332.382 265.414 334.028 257.021 336.08C237.691 318.989 223.384 298.648 213.943 276.72C222.208 275.447 230.805 274.316 239.683 273.338C249.875 272.215 260.354 271.302 271.024 270.604C275.161 287.55 281.057 304.181 288.719 320.223L293.602 330.448C290.915 330.674 288.261 330.931 285.648 331.219ZM298.545 334.288L318.742 376.577L318.742 333.476C311.908 333.556 305.137 333.829 298.545 334.288ZM291.25 319.014L296.597 330.21C303.81 329.671 311.241 329.355 318.742 329.268V268.943C303.599 269.021 288.56 269.519 273.868 270.424C277.953 287.016 283.745 303.301 291.25 319.014ZM266.547 212.829C266.754 230.754 268.864 248.672 272.882 266.269C287.894 265.33 303.266 264.815 318.742 264.735L319.443 264.732L319.443 212.829H266.547ZM263.725 210.023C263.716 190.559 265.925 171.103 270.345 152.046C261.745 151.431 253.285 150.667 245.022 149.756C233.515 148.487 222.493 146.945 212.084 145.153C203.971 165.825 199.922 187.914 200.068 210.023H263.725ZM263.742 212.829C263.947 230.814 266.047 248.791 270.047 266.452C259.558 267.147 249.254 268.05 239.222 269.155C229.925 270.18 220.925 271.372 212.282 272.72C204.594 253.514 200.571 233.187 200.109 212.829H263.742ZM266.53 210.023H319.443L319.444 153.908C303.807 153.823 288.287 153.263 273.18 152.243C268.74 171.231 266.521 190.623 266.53 210.023ZM257.702 87.0172C255.69 86.4801 253.774 85.9196 251.96 85.3378C235.194 101.474 222.399 120.556 213.709 141.162C223.755 142.871 234.385 144.349 245.483 145.573C253.915 146.503 262.555 147.279 271.344 147.899C276.062 128.994 282.97 110.512 292.059 92.8373C290.681 92.7049 289.315 92.5638 287.959 92.414C276.644 91.1628 266.362 89.329 257.702 87.0172ZM258.787 82.9517C257.655 82.6495 256.56 82.3411 255.502 82.0272C269.647 69.1849 286.435 58.3732 305.795 50.3659L308.608 49.2026C310.792 49.0636 312.981 48.9548 315.172 48.8763L294.166 88.8076C292.23 88.6329 290.314 88.4409 288.422 88.2317C277.263 86.9979 267.197 85.1967 258.787 82.9517ZM319.443 48.762C319.092 48.7682 318.741 48.7752 318.39 48.783L297.2 89.0658C304.418 89.6435 311.889 89.9834 319.443 90.0756L319.443 48.762ZM319.444 94.2837C311.157 94.1838 302.962 93.7893 295.075 93.1117C285.906 110.747 278.941 129.205 274.187 148.094C288.968 149.076 304.148 149.616 319.444 149.7L319.444 94.2837Z" fill="#55BC85"/>
</g>
<mask id="mask3" mask-type="alpha" maskUnits="userSpaceOnUse" x="167" y="221" width="169" height="149">
<path d="M224.732 369.411C204.067 351.249 188.169 328.298 178.43 302.567C168.691 276.836 165.408 249.11 168.868 221.816L335.832 242.984L224.732 369.411Z" fill="#130947"/>
</mask>
<g mask="url(#mask3)">
<path fill-rule="evenodd" clip-rule="evenodd" d="M335.832 74.6722C335.451 74.6722 335.07 74.6735 334.689 74.6761C335.07 74.675 335.451 74.6741 335.832 74.6736L335.832 74.6722ZM271.426 87.4842C291.493 79.1715 312.977 74.8235 334.689 74.6761C334.687 74.6761 334.685 74.6761 334.682 74.6761C312.972 74.8245 291.491 79.1724 271.426 87.4842ZM265.909 89.8862C281.107 85.0169 296.927 81.7327 313.021 80.0949C294.911 88.2177 279.126 98.8093 265.726 111.212C260.365 109.44 256.129 107.52 253.086 105.559C248.747 102.763 247.915 100.625 247.915 99.5688C247.915 99.5339 247.916 99.4979 247.918 99.4606C253.707 95.914 259.715 92.7156 265.909 89.8862ZM244.106 101.867C244.968 104.348 247.222 106.786 250.807 109.096C253.787 111.016 257.649 112.825 262.292 114.482C245.595 130.828 232.852 150.076 224.194 170.826C212.895 168.832 202.364 166.542 192.77 163.988C191.126 163.55 189.515 163.106 187.936 162.656C195.642 148.466 205.365 135.431 216.826 123.97C225.144 115.651 234.29 108.248 244.106 101.867ZM185.933 166.459C187.809 167 189.727 167.532 191.687 168.054C201.16 170.576 211.512 172.838 222.587 174.814C214.485 195.661 210.442 217.909 210.586 240.179H167.555C167.907 219.031 172.243 198.13 180.343 178.574C180.449 178.316 180.556 178.059 180.664 177.803C182.282 173.952 184.039 170.168 185.933 166.459ZM243.479 383.692C244.125 382.463 245.556 380.846 248.493 378.958C252.87 376.145 259.578 373.423 268.431 371.066C269.239 370.851 270.061 370.64 270.898 370.433C276.629 375.317 282.777 379.926 289.345 384.221L324.001 406.879C315.568 406.591 307.305 406.007 299.432 405.139C293.696 404.506 288.235 403.73 283.119 402.827C279.175 401.526 275.274 400.078 271.426 398.484C261.643 394.431 252.289 389.475 243.479 383.692ZM239.976 381.328C241.168 379.304 243.26 377.32 246.219 375.418C251.067 372.302 258.15 369.468 267.071 367.074C247.938 349.79 233.766 329.334 224.402 307.326C209.758 309.662 196.198 312.451 184.017 315.634C192.239 332.816 203.327 348.498 216.826 361.998C223.965 369.139 231.716 375.604 239.976 381.328ZM177.364 299.67C170.864 281.499 167.532 262.324 167.531 242.984H210.626C211.083 263.488 215.094 283.962 222.761 303.327C208.081 305.698 194.468 308.524 182.221 311.755C181.575 310.311 180.949 308.857 180.343 307.394C179.285 304.841 178.292 302.266 177.364 299.67ZM290.88 381.873C285.014 378.037 279.488 373.947 274.301 369.63C281.782 367.948 290.255 366.57 299.432 365.558C302.521 365.217 305.67 364.92 308.866 364.668L328.982 406.784L290.88 381.873ZM298.971 361.375C288.424 362.538 278.737 364.184 270.344 366.236C251.014 349.145 236.707 328.804 227.267 306.876C235.531 305.603 244.128 304.472 253.006 303.494C263.199 302.371 273.677 301.458 284.347 300.76C288.484 317.706 294.38 334.337 302.042 350.379L306.926 360.604C304.238 360.83 301.584 361.087 298.971 361.375ZM311.868 364.444L332.065 406.733L332.065 363.632C325.231 363.712 318.46 363.985 311.868 364.444ZM304.573 349.17L309.921 360.366C317.134 359.827 324.564 359.51 332.065 359.424V299.099C316.922 299.177 301.883 299.675 287.191 300.58C291.276 317.172 297.068 333.456 304.573 349.17ZM279.87 242.984C280.077 260.91 282.187 278.828 286.206 296.425C301.218 295.486 316.589 294.97 332.065 294.891L332.767 294.888L332.767 242.984H279.87ZM277.048 240.179C277.039 220.715 279.248 201.259 283.669 182.202C275.068 181.587 266.608 180.823 258.346 179.911C246.838 178.642 235.817 177.101 225.407 175.309C217.294 195.981 213.245 218.069 213.391 240.179H277.048ZM277.065 242.984C277.271 260.97 279.37 278.947 283.37 296.608C272.882 297.303 262.577 298.206 252.545 299.311C243.248 300.336 234.248 301.528 225.605 302.876C217.918 283.67 213.894 263.343 213.432 242.984H277.065ZM279.853 240.179H332.767L332.767 184.064C317.131 183.979 301.61 183.419 286.503 182.399C282.063 201.387 279.844 220.779 279.853 240.179ZM271.025 117.173C269.013 116.636 267.097 116.076 265.284 115.494C248.517 131.63 235.722 150.712 227.032 171.318C237.078 173.027 247.708 174.505 258.807 175.729C267.238 176.659 275.878 177.435 284.667 178.055C289.385 159.15 296.293 140.668 305.382 122.993C304.005 122.861 302.638 122.72 301.283 122.57C289.967 121.319 279.685 119.485 271.025 117.173ZM272.11 113.108C270.978 112.805 269.883 112.497 268.825 112.183C282.97 99.3408 299.758 88.529 319.118 80.5218L321.931 79.3585C324.115 79.2195 326.304 79.1107 328.495 79.0322L307.489 118.963C305.553 118.789 303.637 118.597 301.745 118.388C290.586 117.154 280.52 115.353 272.11 113.108ZM332.767 78.9179C332.416 78.9241 332.065 78.9311 331.714 78.9389L310.523 119.222C317.741 119.799 325.213 120.139 332.767 120.232L332.767 78.9179ZM332.767 124.44C324.48 124.34 316.285 123.945 308.398 123.268C299.229 140.903 292.264 159.361 287.51 178.25C302.291 179.231 317.471 179.772 332.767 179.856L332.767 124.44Z" fill="#55BC85"/>
</g>
<mask id="mask4" mask-type="alpha" maskUnits="userSpaceOnUse" x="245" y="252" width="114" height="169">
<path d="M358.272 420.412C316.598 420.412 276.406 404.95 245.476 377.018L358.272 252.101L358.272 420.412Z" fill="#130947"/>
</mask>
<g mask="url(#mask4)">
<path fill-rule="evenodd" clip-rule="evenodd" d="M358.272 83.7905C357.89 83.7911 357.508 83.7919 357.126 83.7931C335.414 83.941 313.933 88.289 293.867 96.6011C292.012 97.3695 290.172 98.1704 288.349 99.0032C303.547 94.1339 319.368 90.8497 335.461 89.2119C317.352 97.3346 301.566 107.926 288.166 120.329C282.805 118.557 278.57 116.637 275.527 114.676C271.187 111.88 270.356 109.742 270.356 108.686C270.356 108.651 270.357 108.615 270.358 108.578C269.077 109.363 267.806 110.165 266.546 110.984C267.408 113.465 269.662 115.903 273.248 118.213C276.227 120.133 280.089 121.942 284.732 123.599C268.035 139.945 255.292 159.193 246.634 179.943C235.335 177.949 224.804 175.659 215.21 173.104C213.567 172.667 211.955 172.223 210.376 171.773C209.693 173.031 209.025 174.299 208.373 175.575C210.249 176.117 212.168 176.649 214.128 177.171C223.6 179.692 233.953 181.955 245.027 183.931C236.926 204.778 232.882 227.026 233.026 249.296H189.995C189.98 250.231 189.972 251.166 189.972 252.101C189.972 252.101 189.972 252.101 189.972 252.101H233.067C233.523 272.605 237.535 293.079 245.201 312.444C230.521 314.814 216.909 317.641 204.662 320.872C205.244 322.173 205.843 323.466 206.458 324.751C218.639 321.568 232.199 318.779 246.843 316.442C252.333 329.348 259.477 341.719 268.305 353.23L270.216 351.104C261.83 340.095 255.003 328.294 249.707 315.993C257.971 314.72 266.568 313.589 275.447 312.611C285.639 311.488 296.117 310.575 306.788 309.877C306.821 310.014 306.855 310.152 306.889 310.289L311.299 305.381C310.413 305.433 309.529 305.487 308.646 305.542C304.628 287.944 302.518 270.027 302.311 252.101H355.207L355.207 256.512L358.272 253.101L358.272 252.101L358.272 83.7905ZM305.559 411.944C310.675 412.847 316.136 413.623 321.873 414.255C329.745 415.124 338.008 415.708 346.441 415.996L311.786 393.338C305.217 389.043 299.069 384.434 293.338 379.55C292.502 379.757 291.679 379.968 290.871 380.183C282.018 382.54 275.31 385.262 270.934 388.075C267.996 389.963 266.565 391.58 265.92 392.809C274.729 398.591 284.084 403.548 293.867 407.601C297.715 409.195 301.615 410.643 305.559 411.944ZM262.416 390.445C263.608 388.421 265.7 386.437 268.659 384.535C273.507 381.419 280.591 378.585 289.511 376.191C281.598 369.042 274.533 361.35 268.305 353.23L246.283 377.741C251.403 382.306 256.791 386.547 262.416 390.445ZM355.207 256.512L355.207 304.005L354.506 304.008C339.94 304.083 325.467 304.544 311.299 305.381L355.207 256.512ZM306.889 310.289L270.216 351.104C276.78 359.719 284.298 367.849 292.785 375.353C301.177 373.301 310.865 371.655 321.412 370.492C324.024 370.204 326.678 369.947 329.366 369.721L324.482 359.496C316.883 343.584 311.02 327.092 306.889 310.289ZM313.321 390.99C307.454 387.154 301.929 383.063 296.741 378.747C304.223 377.065 312.696 375.687 321.873 374.675C324.962 374.334 328.111 374.037 331.307 373.784L351.422 415.901L313.321 390.99ZM334.309 373.561L354.506 415.85L354.506 372.749C347.672 372.829 340.901 373.102 334.309 373.561ZM327.013 358.287L332.361 369.483C339.574 368.944 347.005 368.627 354.506 368.541V308.216C339.362 308.294 324.324 308.792 309.632 309.697C313.717 326.289 319.509 342.573 327.013 358.287ZM299.489 249.296C299.48 229.832 301.689 210.376 306.109 191.319C297.508 190.704 289.049 189.94 280.786 189.028C269.279 187.759 258.257 186.218 247.848 184.426C239.735 205.098 235.686 227.186 235.832 249.296H299.489ZM299.506 252.101C299.711 270.087 301.811 288.064 305.811 305.725C295.322 306.42 285.018 307.323 274.986 308.428C265.688 309.453 256.689 310.645 248.046 311.993C240.358 292.787 236.334 272.46 235.873 252.101H299.506ZM302.294 249.296H355.207L355.207 193.181C339.571 193.096 324.05 192.535 308.943 191.516C304.504 210.504 302.285 229.896 302.294 249.296ZM293.465 126.29C291.453 125.753 289.538 125.192 287.724 124.611C270.957 140.747 258.162 159.829 249.472 180.435C259.519 182.144 270.148 183.622 281.247 184.846C289.679 185.776 298.319 186.552 307.107 187.172C311.826 168.267 318.733 149.785 327.822 132.11C326.445 131.978 325.078 131.837 323.723 131.687C312.407 130.436 302.126 128.602 293.465 126.29ZM294.55 122.225C293.418 121.922 292.323 121.614 291.266 121.3C305.41 108.458 322.199 97.646 341.559 89.6387L344.371 88.4754C346.556 88.3364 348.744 88.2276 350.936 88.1492L329.93 128.08C327.994 127.906 326.078 127.714 324.185 127.504C313.027 126.271 302.961 124.47 294.55 122.225ZM355.207 88.0348C354.856 88.041 354.505 88.0481 354.154 88.0558L332.963 128.339C340.182 128.916 347.653 129.256 355.207 129.348L355.207 88.0348ZM355.207 133.557C346.92 133.457 338.725 133.062 330.838 132.385C321.67 150.02 314.705 168.478 309.951 187.366C324.732 188.348 339.912 188.889 355.207 188.973L355.207 133.557Z" fill="#55BC85"/>
</g>
<path d="M121.19 513.712V493.168H132.902C134.63 493.168 136.294 493.296 137.894 493.552C139.494 493.808 140.902 494.32 142.118 495.088C143.334 495.792 144.294 496.816 144.998 498.16C145.766 499.504 146.15 501.264 146.15 503.44C146.15 505.616 145.766 507.376 144.998 508.72C144.294 510.064 143.334 511.12 142.118 511.888C140.902 512.592 139.494 513.072 137.894 513.328C136.294 513.584 134.63 513.712 132.902 513.712H121.19ZM106.118 481.456V550H121.19V525.424H137.03C141.318 525.424 144.966 524.816 147.974 523.6C150.982 522.32 153.414 520.656 155.27 518.608C157.19 516.56 158.566 514.224 159.398 511.6C160.294 508.912 160.742 506.192 160.742 503.44C160.742 500.624 160.294 497.904 159.398 495.28C158.566 492.656 157.19 490.32 155.27 488.272C153.414 486.224 150.982 484.592 147.974 483.376C144.966 482.096 141.318 481.456 137.03 481.456H106.118ZM192.421 512.464V493.168H208.933C212.389 493.168 214.981 493.936 216.709 495.472C218.437 496.944 219.301 499.344 219.301 502.672C219.301 506.128 218.437 508.624 216.709 510.16C214.981 511.696 212.389 512.464 208.933 512.464H192.421ZM177.349 481.456V550H192.421V523.216H207.493C211.269 523.216 213.989 524.048 215.653 525.712C217.317 527.376 218.405 530 218.917 533.584C219.301 536.336 219.589 539.216 219.781 542.224C219.973 545.232 220.485 547.824 221.317 550H236.389C235.685 549.04 235.141 547.888 234.757 546.544C234.437 545.136 234.181 543.664 233.989 542.128C233.861 540.592 233.765 539.088 233.701 537.616C233.637 536.144 233.573 534.864 233.509 533.776C233.381 532.048 233.125 530.32 232.741 528.592C232.421 526.864 231.877 525.296 231.109 523.888C230.341 522.416 229.349 521.168 228.133 520.144C226.917 519.056 225.381 518.256 223.525 517.744V517.552C227.365 516.016 230.117 513.776 231.781 510.832C233.509 507.888 234.373 504.4 234.373 500.368C234.373 497.744 233.893 495.312 232.933 493.072C232.037 490.768 230.693 488.752 228.901 487.024C227.173 485.296 225.061 483.952 222.565 482.992C220.133 481.968 217.381 481.456 214.309 481.456H177.349ZM265.926 516.016C265.926 513.008 266.246 510.096 266.886 507.28C267.59 504.464 268.678 501.968 270.15 499.792C271.622 497.552 273.542 495.792 275.91 494.512C278.278 493.168 281.158 492.496 284.55 492.496C287.942 492.496 290.822 493.168 293.19 494.512C295.558 495.792 297.478 497.552 298.95 499.792C300.422 501.968 301.478 504.464 302.118 507.28C302.822 510.096 303.174 513.008 303.174 516.016C303.174 518.896 302.822 521.712 302.118 524.464C301.478 527.152 300.422 529.584 298.95 531.76C297.478 533.936 295.558 535.696 293.19 537.04C290.822 538.32 287.942 538.96 284.55 538.96C281.158 538.96 278.278 538.32 275.91 537.04C273.542 535.696 271.622 533.936 270.15 531.76C268.678 529.584 267.59 527.152 266.886 524.464C266.246 521.712 265.926 518.896 265.926 516.016ZM250.854 516.016C250.854 521.008 251.622 525.68 253.158 530.032C254.694 534.32 256.902 538.064 259.782 541.264C262.662 544.464 266.182 546.992 270.342 548.848C274.566 550.64 279.302 551.536 284.55 551.536C289.862 551.536 294.598 550.64 298.758 548.848C302.918 546.992 306.438 544.464 309.318 541.264C312.198 538.064 314.406 534.32 315.942 530.032C317.478 525.68 318.246 521.008 318.246 516.016C318.246 510.896 317.478 506.16 315.942 501.808C314.406 497.392 312.198 493.552 309.318 490.288C306.438 487.024 302.918 484.464 298.758 482.608C294.598 480.752 289.862 479.824 284.55 479.824C279.302 479.824 274.566 480.752 270.342 482.608C266.182 484.464 262.662 487.024 259.782 490.288C256.902 493.552 254.694 497.392 253.158 501.808C251.622 506.16 250.854 510.896 250.854 516.016ZM350.917 494.128V550H365.989V494.128H386.533V481.456H330.373V494.128H350.917ZM401.636 481.456V550H453.668V537.328H416.708V520.528H449.924V508.816H416.708V494.128H452.9V481.456H401.636ZM516.782 504.496H531.374C530.926 500.528 529.838 497.008 528.11 493.936C526.382 490.864 524.174 488.304 521.486 486.256C518.862 484.144 515.854 482.544 512.462 481.456C509.134 480.368 505.582 479.824 501.806 479.824C496.558 479.824 491.822 480.752 487.598 482.608C483.438 484.464 479.918 487.024 477.038 490.288C474.158 493.552 471.95 497.392 470.414 501.808C468.878 506.16 468.11 510.896 468.11 516.016C468.11 521.008 468.878 525.68 470.414 530.032C471.95 534.32 474.158 538.064 477.038 541.264C479.918 544.464 483.438 546.992 487.598 548.848C491.822 550.64 496.558 551.536 501.806 551.536C506.03 551.536 509.902 550.896 513.422 549.616C516.942 548.336 520.014 546.48 522.638 544.048C525.262 541.616 527.374 538.672 528.974 535.216C530.574 531.76 531.566 527.888 531.95 523.6H517.358C516.782 528.208 515.182 531.92 512.558 534.736C509.998 537.552 506.414 538.96 501.806 538.96C498.414 538.96 495.534 538.32 493.166 537.04C490.798 535.696 488.878 533.936 487.406 531.76C485.934 529.584 484.846 527.152 484.142 524.464C483.502 521.712 483.182 518.896 483.182 516.016C483.182 513.008 483.502 510.096 484.142 507.28C484.846 504.464 485.934 501.968 487.406 499.792C488.878 497.552 490.798 495.792 493.166 494.512C495.534 493.168 498.414 492.496 501.806 492.496C503.662 492.496 505.422 492.816 507.086 493.456C508.814 494.032 510.35 494.864 511.694 495.952C513.038 497.04 514.158 498.32 515.054 499.792C515.95 501.2 516.526 502.768 516.782 504.496ZM564.611 494.128V550H579.683V494.128H600.227V481.456H544.067V494.128H564.611ZM144.405 598.456V667H158.517V621.112H158.709L187.221 667H202.293V598.456H188.181V644.44H187.989L159.381 598.456H144.405ZM240.041 640.504L248.969 615.352H249.161L257.801 640.504H240.041ZM241.481 598.456L215.561 667H230.729L236.105 651.736H261.737L266.922 667H282.569L256.937 598.456H241.481ZM302.036 611.128V667H317.108V611.128H337.652V598.456H281.492V611.128H302.036ZM410.931 641.08V598.456H395.859V641.08C395.859 646.2 394.835 649.976 392.787 652.408C390.739 654.776 387.027 655.96 381.651 655.96C378.579 655.96 376.115 655.544 374.259 654.712C372.467 653.816 371.059 652.696 370.035 651.352C369.011 649.944 368.339 648.344 368.019 646.552C367.699 644.76 367.539 642.936 367.539 641.08V598.456H352.467V641.08C352.467 650.424 354.995 657.336 360.051 661.816C365.171 666.296 372.371 668.536 381.651 668.536C390.803 668.536 397.971 666.296 403.155 661.816C408.339 657.272 410.931 650.36 410.931 641.08ZM446.183 629.464V610.168H462.695C466.151 610.168 468.743 610.936 470.471 612.472C472.199 613.944 473.063 616.344 473.063 619.672C473.063 623.128 472.199 625.624 470.471 627.16C468.743 628.696 466.151 629.464 462.695 629.464H446.183ZM431.111 598.456V667H446.183V640.216H461.255C465.031 640.216 467.751 641.048 469.415 642.712C471.079 644.376 472.167 647 472.679 650.584C473.063 653.336 473.351 656.216 473.543 659.224C473.735 662.232 474.247 664.824 475.079 667H490.151C489.447 666.04 488.903 664.888 488.519 663.544C488.199 662.136 487.943 660.664 487.751 659.128C487.623 657.592 487.527 656.088 487.463 654.616C487.399 653.144 487.335 651.864 487.271 650.776C487.143 649.048 486.887 647.32 486.503 645.592C486.183 643.864 485.639 642.296 484.871 640.888C484.103 639.416 483.111 638.168 481.895 637.144C480.679 636.056 479.143 635.256 477.287 634.744V634.552C481.127 633.016 483.879 630.776 485.543 627.832C487.271 624.888 488.135 621.4 488.135 617.368C488.135 614.744 487.655 612.312 486.695 610.072C485.799 607.768 484.455 605.752 482.663 604.024C480.935 602.296 478.823 600.952 476.327 599.992C473.895 598.968 471.143 598.456 468.071 598.456H431.111ZM507.593 598.456V667H559.625V654.328H522.665V637.528H555.881V625.816H522.665V611.128H558.857V598.456H507.593Z" fill="black"/>
</g>
<defs>
<clipPath id="clip0">
<rect width="700" height="700" fill="white"/>
</clipPath>
</defs>
</svg>
