<svg width="700" height="700" viewBox="0 0 700 700" fill="none" xmlns="http://www.w3.org/2000/svg">
<path fill-rule="evenodd" clip-rule="evenodd" d="M382.732 78.5451C380.663 78.4276 378.592 78.3373 376.517 78.2744C382.469 90.3435 387.718 102.667 392.263 115.184C396.4 114.9 400.464 114.537 404.421 114.1C412.756 113.178 420.459 111.94 427.297 110.441C414.645 97.9915 399.772 87.1661 382.732 78.5451ZM369.389 73.056L369.389 73.0559L369.389 151.761L369.389 126.868V121.959H369.389V115.959L369.389 97.0625V78.1664L369.389 73.056ZM388.1 115.443C384.341 105.195 380.104 95.0791 375.389 85.1304L375.389 115.906C379.669 115.831 383.916 115.676 388.1 115.443ZM375.389 121.907C380.382 121.821 385.335 121.628 390.201 121.331C396.279 138.832 400.974 156.699 404.284 174.768C394.753 175.209 385.097 175.469 375.389 175.546V126.868V121.907ZM375.389 181.546C385.447 181.467 395.451 181.193 405.324 180.726C408.386 199.177 410.01 217.82 410.19 236.478H375.389V181.546ZM369.389 236.478V181.569H369.389L369.389 236.478H369.389ZM369.389 240.478L369.389 380.308L369.389 362.894V356.894L369.389 350.582V298.374V292.374L369.389 247.14V240.478H369.389ZM375.389 240.478H410.207C410.182 258.1 408.871 275.725 406.269 293.207C396.078 292.743 385.759 292.472 375.389 292.396L375.389 247.14V240.478ZM414.207 240.478C414.183 258.163 412.876 275.852 410.284 293.4C424.926 294.141 439.28 295.28 453.117 296.805C458.754 297.426 464.282 298.109 469.687 298.851C476.436 280.001 479.892 260.24 480.138 240.478H414.207ZM484.139 240.478C483.896 260.424 480.457 280.37 473.736 299.421C491.778 302.025 508.384 305.297 523.046 309.145C523.676 307.736 524.287 306.316 524.879 304.888C533.336 284.468 537.69 262.581 537.69 240.478L484.139 240.478ZM537.642 236.478H484.145C483.949 215.268 480.143 194.126 472.827 174.132C488.073 171.767 502.145 168.884 514.676 165.547C516.29 165.118 517.876 164.681 519.433 164.238C521.397 168.104 523.214 172.05 524.879 176.068C532.826 195.256 537.149 215.738 537.642 236.478ZM480.145 236.478H414.19C414.011 217.753 412.395 199.045 409.345 180.525C422.558 179.827 435.513 178.784 448.018 177.405C455.137 176.62 462.069 175.731 468.786 174.742C476.127 194.52 479.947 215.464 480.145 236.478ZM375.389 298.396C385.445 298.47 395.449 298.73 405.33 299.171C402.056 318.893 397.133 338.411 390.554 357.513C386.224 357.256 381.83 357.079 377.402 356.982C376.732 356.967 376.061 356.954 375.389 356.943L375.389 350.582V298.396ZM452.46 302.769C438.547 301.236 424.099 300.095 409.353 299.361C406.102 319.105 401.216 338.648 394.69 357.783C398.766 358.075 402.775 358.437 406.691 358.869C407.43 358.95 408.165 359.034 408.895 359.12C416.364 360.002 423.376 361.128 429.77 362.472C446.615 345.325 459.155 325.604 467.511 304.61C462.595 303.947 457.575 303.333 452.46 302.769ZM377.363 362.982C381.097 363.065 384.806 363.206 388.468 363.404C384.621 373.977 380.261 384.414 375.389 394.68L375.389 382.842V362.944C376.048 362.955 376.706 362.968 377.363 362.982ZM402.35 401.233C396.244 401.829 389.926 402.257 383.496 402.512L401.351 390.838C411.671 384.091 421.003 376.605 429.36 368.519C431.95 369.075 434.424 369.667 436.77 370.292C437.318 370.438 437.858 370.585 438.388 370.733C446.343 372.959 452.305 375.456 456.2 377.959C456.373 378.071 456.54 378.181 456.701 378.289C459.113 379.912 460.132 381.171 460.56 381.955C452.097 387.409 443.141 392.106 433.795 395.978C433.459 396.117 433.123 396.255 432.786 396.392C424.951 398.247 415.914 399.761 406.033 400.851C404.815 400.985 403.587 401.113 402.35 401.233ZM399.162 387.49C408.445 381.421 416.911 374.74 424.569 367.554C419.468 366.594 413.985 365.763 408.195 365.079C407.479 364.995 406.758 364.913 406.033 364.833C401.675 364.352 397.195 363.959 392.631 363.655C388.543 375.004 383.873 386.201 378.619 397.201L376.035 402.611L399.162 387.49ZM438.314 364.494C437.027 364.151 435.706 363.819 434.353 363.497C450.96 346.128 463.335 326.269 471.595 305.175C489.507 307.72 505.959 310.918 520.456 314.67C512.315 331.249 501.49 346.398 488.396 359.492C481.345 366.543 473.7 372.936 465.556 378.607C464.42 376.779 462.55 374.985 459.969 373.257C459.797 373.141 459.622 373.027 459.443 372.912C454.851 369.96 448.254 367.262 439.989 364.951C439.438 364.797 438.879 364.644 438.314 364.494ZM513.133 159.749C500.485 163.117 486.185 166.027 470.621 168.4C462.695 148.791 451.323 130.413 436.604 114.322C444.67 112.084 451.1 109.462 455.556 106.59C458.854 104.464 461.026 102.232 462.024 99.9558C471.496 106.201 480.335 113.402 488.396 121.464C499.496 132.565 508.967 145.143 516.553 158.816C515.43 159.13 514.289 159.441 513.133 159.749ZM405.081 120.064C415.059 118.96 424.234 117.404 432.202 115.466C447.067 131.325 458.549 149.533 466.545 169.006C460.333 169.903 453.93 170.717 447.36 171.441C434.748 172.832 421.665 173.879 408.314 174.57C405.027 156.479 400.367 138.585 394.337 121.051C397.983 120.781 401.571 120.452 405.081 120.064ZM433.791 108.87C433.167 109.036 432.532 109.201 431.889 109.363C420.584 97.92 407.484 87.7665 392.628 79.318C410.956 81.1407 428.927 85.1138 446.022 91.1438C447.08 91.5171 448.134 91.8979 449.183 92.2861C451.642 93.6101 454.066 94.9945 456.454 96.4378C456.638 96.8092 456.656 97.0241 456.656 97.0625C456.656 97.1765 456.497 98.8456 452.306 101.546C448.364 104.087 442.168 106.634 433.791 108.87Z" fill="#EAB131"/>
<mask id="mask0" mask-type="alpha" maskUnits="userSpaceOnUse" x="312" y="37" width="45" height="170">
<path d="M312.488 43.7316C326.944 39.7891 341.862 37.795 356.846 37.8022L356.766 206.114L312.488 43.7316Z" fill="#130947"/>
</mask>
<g mask="url(#mask0)">
<path fill-rule="evenodd" clip-rule="evenodd" d="M188.489 203.309H231.52C231.376 181.039 235.419 158.791 243.521 137.944C232.446 135.969 222.094 133.706 212.621 131.184C210.661 130.662 208.743 130.13 206.867 129.589C204.847 133.545 202.982 137.587 201.277 141.704C193.177 161.26 188.841 182.161 188.489 203.309ZM208.87 125.786C210.449 126.236 212.06 126.68 213.704 127.118C223.298 129.672 233.829 131.962 245.128 133.956C253.786 113.206 266.529 93.9584 283.226 77.6118C278.583 75.955 274.721 74.1464 271.741 72.2262C268.156 69.9157 265.902 67.4784 265.04 64.9968C255.224 71.3778 246.078 78.781 237.76 87.0996C226.299 98.561 216.576 111.596 208.87 125.786ZM286.842 53.0163C280.648 55.8457 274.641 59.044 268.852 62.5906C268.85 62.6279 268.849 62.664 268.849 62.6989C268.849 63.7552 269.681 65.8928 274.02 68.6892C277.063 70.6503 281.299 72.5697 286.66 74.3425C300.06 61.9394 315.845 51.3477 333.955 43.225C317.861 44.8627 302.041 48.147 286.842 53.0163ZM355.617 37.8062C356 37.805 356.383 37.8042 356.766 37.8036L356.766 37.8022C356.383 37.8022 356 37.8036 355.617 37.8062ZM188.466 206.114C188.466 228.217 192.819 250.104 201.277 270.524C201.883 271.987 202.509 273.441 203.155 274.885C215.402 271.654 229.015 268.828 243.695 266.457C236.028 247.092 232.017 226.618 231.56 206.114H188.466ZM204.951 278.764C217.133 275.581 230.693 272.792 245.336 270.456C254.7 292.464 268.872 312.92 288.005 330.204C279.084 332.598 272.001 335.432 267.153 338.548C264.194 340.45 262.102 342.434 260.91 344.458C252.65 338.734 244.899 332.269 237.76 325.128C224.261 311.628 213.173 295.946 204.951 278.764ZM264.413 346.822C265.059 345.593 266.49 343.976 269.427 342.088C273.804 339.275 280.512 336.553 289.365 334.196C290.173 333.981 290.995 333.77 291.832 333.563C297.563 338.447 303.711 343.056 310.28 347.351L344.935 370.009C336.502 369.721 328.239 369.137 320.367 368.269C314.63 367.636 309.169 366.86 304.053 365.957C300.109 364.656 296.208 363.208 292.36 361.614C282.577 357.561 273.223 352.605 264.413 346.822ZM338.809 373.465C343.326 373.82 347.892 374 352.499 374C353.926 374 355.348 373.983 356.766 373.948L356.766 374.426C350.756 374.426 344.762 374.104 338.809 373.465ZM311.814 345.003C305.948 341.167 300.422 337.077 295.235 332.76C302.716 331.078 311.189 329.7 320.366 328.688C323.455 328.347 326.604 328.05 329.8 327.798L349.916 369.914L311.814 345.003ZM319.905 324.505C309.358 325.668 299.671 327.314 291.278 329.366C271.948 312.275 257.641 291.934 248.201 270.006C256.465 268.733 265.062 267.602 273.94 266.624C284.133 265.501 294.611 264.588 305.282 263.89C309.418 280.836 315.314 297.467 322.976 313.509L327.86 323.734C325.172 323.96 322.518 324.217 319.905 324.505ZM332.802 327.574L353 369.863L353 326.762C346.165 326.842 339.395 327.115 332.802 327.574ZM325.507 312.3L330.855 323.496C338.068 322.957 345.498 322.641 353 322.554V262.229C337.856 262.307 322.817 262.805 308.125 263.71C312.21 280.302 318.002 296.586 325.507 312.3ZM300.804 206.114C301.011 224.04 303.121 241.958 307.14 259.555C322.152 258.616 337.523 258.101 353 258.021L353.701 258.018L353.701 206.114H300.804ZM297.983 203.309C297.973 183.845 300.183 164.389 304.603 145.332C296.002 144.717 287.543 143.953 279.28 143.041C267.772 141.773 256.751 140.231 246.342 138.439C238.228 159.111 234.179 181.199 234.325 203.309H297.983ZM297.999 206.114C298.205 224.1 300.305 242.077 304.305 259.738C293.816 260.433 283.512 261.336 273.479 262.441C264.182 263.466 255.182 264.658 246.539 266.006C238.852 246.8 234.828 226.473 234.367 206.114H297.999ZM300.788 203.309H353.701L353.701 147.194C338.065 147.109 322.544 146.549 307.437 145.529C302.997 164.517 300.778 183.909 300.788 203.309ZM291.959 80.3031C289.947 79.766 288.032 79.2056 286.218 78.6237C269.451 94.7604 256.656 113.842 247.966 134.448C258.012 136.157 268.642 137.635 279.741 138.859C288.172 139.789 296.813 140.565 305.601 141.185C310.32 122.28 317.227 103.798 326.316 86.1232C324.939 85.9908 323.572 85.8497 322.217 85.6999C310.901 84.4487 300.62 82.6149 291.959 80.3031ZM293.044 76.2376C291.912 75.9354 290.817 75.6271 289.759 75.3131C303.904 62.4708 320.692 51.6591 340.052 43.6518L342.865 42.4885C345.05 42.3495 347.238 42.2407 349.429 42.1622L328.423 82.0935C326.487 81.9188 324.571 81.7268 322.679 81.5176C311.521 80.2838 301.454 78.4826 293.044 76.2376ZM353.701 42.0479C353.35 42.0541 352.999 42.0611 352.648 42.0689L331.457 82.3517C338.676 82.9294 346.147 83.2694 353.701 83.3615L353.701 42.0479ZM353.701 87.5696C345.414 87.4697 337.219 87.0752 329.332 86.3976C320.163 104.033 313.198 122.491 308.444 141.38C323.225 142.361 338.405 142.902 353.701 142.986L353.701 87.5696Z" fill="#EAB131"/>
</g>
<mask id="mask1" mask-type="alpha" maskUnits="userSpaceOnUse" x="187" y="23" width="143" height="162">
<path d="M187.862 93.3332C209.599 59.5315 242.712 34.6235 281.214 23.1131L329.417 184.374L187.862 93.3332Z" fill="#130947"/>
</mask>
<g mask="url(#mask1)">
<path fill-rule="evenodd" clip-rule="evenodd" d="M329.417 16.0619C329.037 16.0619 328.656 16.0632 328.275 16.0658C328.656 16.0646 329.037 16.0638 329.417 16.0632L329.417 16.0619ZM265.012 28.8738C285.079 20.5612 306.562 16.2132 328.275 16.0658C328.272 16.0658 328.27 16.0658 328.268 16.0658C306.557 16.2141 285.077 20.5621 265.012 28.8738ZM259.494 31.2759C274.693 26.4065 290.513 23.1224 306.606 21.4846C288.497 29.6073 272.711 40.199 259.311 52.6021C253.95 50.8293 249.715 48.9099 246.672 46.9488C242.332 44.1524 241.501 42.0149 241.501 40.9585C241.501 40.9236 241.502 40.8875 241.503 40.8503C247.293 37.3036 253.3 34.1052 259.494 31.2759ZM237.691 43.2565C238.553 45.738 240.807 48.1754 244.393 50.4858C247.372 52.406 251.234 54.2146 255.877 55.8714C239.18 72.218 226.437 91.4653 217.779 112.216C206.48 110.222 195.95 107.932 186.355 105.377C184.712 104.94 183.1 104.496 181.521 104.045C189.227 89.8552 198.95 76.8206 210.411 65.3592C218.729 57.0406 227.876 49.6375 237.691 43.2565ZM179.518 107.848C181.394 108.39 183.313 108.922 185.273 109.443C194.745 111.965 205.098 114.228 216.172 116.204C208.071 137.051 204.027 159.299 204.171 181.569H161.14C161.493 160.421 165.828 139.52 173.928 119.963C174.035 119.706 174.142 119.449 174.25 119.192C175.867 115.341 177.625 111.558 179.518 107.848ZM237.065 325.081C237.71 323.852 239.141 322.236 242.079 320.348C246.455 317.535 253.163 314.813 262.016 312.456C262.824 312.241 263.647 312.03 264.484 311.822C270.214 316.707 276.362 321.316 282.931 325.611L317.586 348.269C309.153 347.981 300.89 347.396 293.018 346.528C287.281 345.896 281.82 345.12 276.704 344.217C272.76 342.916 268.86 341.467 265.012 339.873C255.229 335.821 245.874 330.864 237.065 325.081ZM233.561 322.718C234.753 320.694 236.845 318.71 239.804 316.808C244.652 313.692 251.736 310.858 260.656 308.464C241.524 291.18 227.352 270.723 217.988 248.715C203.344 251.052 189.784 253.84 177.603 257.024C185.824 274.206 196.912 289.888 210.411 303.388C217.551 310.528 225.301 316.994 233.561 322.718ZM170.949 241.06C164.45 222.888 161.117 203.714 161.117 184.374H204.212C204.668 204.878 208.68 225.351 216.346 244.717C201.666 247.087 188.054 249.914 175.807 253.145C175.161 251.701 174.534 250.247 173.928 248.784C172.871 246.231 171.878 243.656 170.949 241.06ZM284.466 323.263C278.599 319.427 273.074 315.336 267.886 311.019C275.368 309.337 283.841 307.959 293.018 306.947C296.107 306.607 299.256 306.31 302.452 306.057L322.567 348.174L284.466 323.263ZM292.557 302.765C282.01 303.928 272.322 305.574 263.93 307.625C244.6 290.534 230.292 270.194 220.852 248.266C229.116 246.993 237.713 245.862 246.592 244.883C256.784 243.76 267.262 242.847 277.933 242.15C282.069 259.096 287.966 275.726 295.627 291.768L300.511 301.994C297.823 302.22 295.169 302.477 292.557 302.765ZM305.454 305.834L325.651 348.122L325.651 305.022C318.817 305.101 312.046 305.374 305.454 305.834ZM298.158 290.559L303.506 301.756C310.719 301.217 318.15 300.9 325.651 300.814V240.489C310.507 240.567 295.469 241.065 280.777 241.969C284.862 258.562 290.654 274.846 298.158 290.559ZM273.456 184.374C273.663 202.3 275.773 220.217 279.791 237.815C294.803 236.876 310.175 236.36 325.651 236.281L326.352 236.278L326.352 184.374H273.456ZM270.634 181.569C270.625 162.104 272.834 142.649 277.254 123.592C268.653 122.977 260.194 122.212 251.931 121.301C240.424 120.032 229.402 118.49 218.993 116.698C210.88 137.371 206.831 159.459 206.977 181.569H270.634ZM270.651 184.374C270.856 202.359 272.956 220.336 276.956 237.997C266.467 238.693 256.163 239.595 246.131 240.701C236.833 241.726 227.834 242.917 219.191 244.266C211.503 225.06 207.48 204.733 207.018 184.374H270.651ZM273.439 181.569H326.352L326.352 125.454C310.716 125.368 295.195 124.808 280.088 123.789C275.649 142.777 273.43 162.168 273.439 181.569ZM264.61 58.5627C262.598 58.0256 260.683 57.4652 258.869 56.8833C242.102 73.02 229.307 92.1015 220.617 112.708C230.664 114.417 241.293 115.895 252.392 117.119C260.824 118.048 269.464 118.825 278.253 119.445C282.971 100.54 289.878 82.0576 298.967 64.3828C297.59 64.2505 296.223 64.1093 294.868 63.9595C283.553 62.7084 273.271 60.8745 264.61 58.5627ZM265.695 54.4972C264.563 54.1951 263.468 53.8867 262.411 53.5727C276.555 40.7305 293.344 29.9187 312.704 21.9114L315.516 20.7481C317.701 20.6091 319.889 20.5003 322.081 20.4219L301.075 60.3531C299.139 60.1784 297.223 59.9864 295.33 59.7772C284.172 58.5434 274.106 56.7422 265.695 54.4972ZM326.352 20.3075C326.001 20.3137 325.65 20.3208 325.299 20.3285L304.108 60.6113C311.327 61.1891 318.798 61.529 326.352 61.6211L326.352 20.3075ZM326.352 65.8292C318.065 65.7294 309.87 65.3349 301.983 64.6572C292.815 82.2924 285.85 100.75 281.096 119.639C295.877 120.621 311.057 121.162 326.352 121.246L326.352 65.8292Z" fill="#EAB131"/>
</g>
<mask id="mask2" mask-type="alpha" maskUnits="userSpaceOnUse" x="157" y="122" width="168" height="92">
<path d="M157.69 191.54C160.976 166.941 169.662 143.372 183.124 122.523L324.509 213.828L157.69 191.54Z" fill="#130947"/>
</mask>
<g mask="url(#mask2)">
<path fill-rule="evenodd" clip-rule="evenodd" d="M324.509 45.5164C324.128 45.5164 323.747 45.5177 323.366 45.5202C323.747 45.5191 324.128 45.5183 324.509 45.5177L324.509 45.5164ZM260.103 58.3283C280.17 50.0156 301.653 45.6676 323.366 45.5202C323.364 45.5202 323.361 45.5202 323.359 45.5203C301.648 45.6686 280.168 50.0165 260.103 58.3283ZM254.585 60.7303C269.784 55.861 285.604 52.5768 301.698 50.9391C283.588 59.0618 267.802 69.6535 254.403 82.0566C249.041 80.2838 244.806 78.3644 241.763 76.4033C237.424 73.6069 236.592 71.4693 236.592 70.413C236.592 70.3781 236.593 70.342 236.595 70.3048C242.384 66.7581 248.391 63.5597 254.585 60.7303ZM232.783 72.711C233.644 75.1925 235.899 77.6298 239.484 79.9403C242.464 81.8605 246.325 83.6691 250.968 85.3259C234.271 101.672 221.528 120.92 212.87 141.67C201.571 139.676 191.041 137.386 181.446 134.832C179.803 134.394 178.192 133.95 176.613 133.5C184.319 119.31 194.042 106.275 205.502 94.8137C213.82 86.4951 222.967 79.092 232.783 72.711ZM174.61 137.303C176.486 137.844 178.404 138.376 180.364 138.898C189.836 141.42 200.189 143.683 211.264 145.659C203.162 166.505 199.119 188.753 199.263 211.023H156.232C156.584 189.875 160.919 168.974 169.019 149.418C169.126 149.161 169.233 148.904 169.341 148.647C170.958 144.796 172.716 141.012 174.61 137.303ZM232.156 354.536C232.801 353.307 234.232 351.69 237.17 349.802C241.547 346.989 248.255 344.267 257.107 341.91C257.915 341.695 258.738 341.484 259.575 341.277C265.306 346.161 271.454 350.77 278.022 355.065L312.678 377.724C304.245 377.435 295.981 376.851 288.109 375.983C282.373 375.35 276.911 374.574 271.795 373.671C267.851 372.37 263.951 370.922 260.103 369.328C250.32 365.275 240.966 360.319 232.156 354.536ZM228.652 352.172C229.845 350.148 231.936 348.164 234.895 346.262C239.744 343.146 246.827 340.312 255.747 337.918C236.615 320.634 222.443 300.178 213.079 278.17C198.435 280.506 184.875 283.295 172.694 286.478C180.915 303.66 192.003 319.343 205.502 332.842C212.642 339.983 220.393 346.449 228.652 352.172ZM166.041 270.514C159.541 252.343 156.208 233.169 156.208 213.829H199.303C199.76 234.332 203.771 254.806 211.437 274.171C196.758 276.542 183.145 279.369 170.898 282.599C170.252 281.155 169.625 279.702 169.019 278.238C167.962 275.686 166.969 273.11 166.041 270.514ZM279.557 352.717C273.69 348.881 268.165 344.791 262.978 340.474C270.459 338.792 278.932 337.414 288.109 336.402C291.198 336.061 294.347 335.764 297.543 335.512L317.658 377.629L279.557 352.717ZM287.648 332.219C277.101 333.382 267.414 335.028 259.021 337.08C239.691 319.989 225.384 299.648 215.943 277.72C224.208 276.447 232.805 275.316 241.683 274.338C251.875 273.215 262.354 272.302 273.024 271.604C277.161 288.55 283.057 305.181 290.719 321.223L295.602 331.448C292.915 331.674 290.261 331.931 287.648 332.219ZM300.545 335.288L320.742 377.577L320.742 334.476C313.908 334.556 307.137 334.829 300.545 335.288ZM293.25 320.014L298.597 331.21C305.81 330.671 313.241 330.355 320.742 330.268V269.943C305.599 270.021 290.56 270.519 275.868 271.424C279.953 288.016 285.745 304.301 293.25 320.014ZM268.547 213.829C268.754 231.754 270.864 249.672 274.882 267.269C289.894 266.33 305.266 265.815 320.742 265.735L321.443 265.732L321.443 213.829H268.547ZM265.725 211.023C265.716 191.559 267.925 172.103 272.345 153.046C263.745 152.431 255.285 151.667 247.022 150.756C235.515 149.487 224.493 147.945 214.084 146.153C205.971 166.825 201.922 188.914 202.068 211.023H265.725ZM265.742 213.829C265.947 231.814 268.047 249.791 272.047 267.452C261.558 268.147 251.254 269.05 241.222 270.155C231.925 271.18 222.925 272.372 214.282 273.72C206.594 254.514 202.571 234.187 202.109 213.829H265.742ZM268.53 211.023H321.443L321.444 154.908C305.807 154.823 290.287 154.263 275.18 153.243C270.74 172.231 268.521 191.623 268.53 211.023ZM259.702 88.0172C257.69 87.4801 255.774 86.9196 253.96 86.3378C237.194 102.474 224.399 121.556 215.709 142.162C225.755 143.871 236.385 145.349 247.483 146.573C255.915 147.503 264.555 148.279 273.344 148.899C278.062 129.994 284.97 111.512 294.059 93.8373C292.681 93.7049 291.315 93.5638 289.959 93.414C278.644 92.1628 268.362 90.329 259.702 88.0172ZM260.787 83.9517C259.655 83.6495 258.56 83.3411 257.502 83.0272C271.647 70.1849 288.435 59.3732 307.795 51.3659L310.608 50.2026C312.792 50.0636 314.981 49.9548 317.172 49.8763L296.166 89.8076C294.23 89.6329 292.314 89.4409 290.422 89.2317C279.263 87.9979 269.197 86.1967 260.787 83.9517ZM321.443 49.762C321.092 49.7682 320.741 49.7752 320.39 49.783L299.2 90.0658C306.418 90.6435 313.889 90.9834 321.443 91.0756L321.443 49.762ZM321.444 95.2837C313.157 95.1838 304.962 94.7893 297.075 94.1117C287.906 111.747 280.941 130.205 276.187 149.094C290.968 150.076 306.148 150.616 321.444 150.7L321.444 95.2837Z" fill="#EAB131"/>
</g>
<mask id="mask3" mask-type="alpha" maskUnits="userSpaceOnUse" x="169" y="222" width="169" height="149">
<path d="M226.732 370.411C206.067 352.249 190.169 329.298 180.43 303.567C170.691 277.836 167.408 250.11 170.868 222.816L337.832 243.984L226.732 370.411Z" fill="#130947"/>
</mask>
<g mask="url(#mask3)">
<path fill-rule="evenodd" clip-rule="evenodd" d="M337.833 75.6722C337.452 75.6722 337.071 75.6735 336.69 75.6761C337.071 75.675 337.452 75.6741 337.833 75.6736L337.833 75.6722ZM273.427 88.4842C293.494 80.1715 314.977 75.8235 336.69 75.6761C336.688 75.6761 336.685 75.6761 336.683 75.6761C314.972 75.8245 293.492 80.1724 273.427 88.4842ZM267.909 90.8862C283.108 86.0169 298.928 82.7327 315.021 81.0949C296.912 89.2177 281.126 99.8093 267.726 112.212C262.365 110.44 258.13 108.52 255.087 106.559C250.748 103.763 249.916 101.625 249.916 100.569C249.916 100.534 249.917 100.498 249.919 100.461C255.708 96.914 261.715 93.7156 267.909 90.8862ZM246.106 102.867C246.968 105.348 249.222 107.786 252.808 110.096C255.787 112.016 259.649 113.825 264.292 115.482C247.595 131.828 234.852 151.076 226.194 171.826C214.895 169.832 204.365 167.542 194.77 164.988C193.127 164.55 191.515 164.106 189.936 163.656C197.642 149.466 207.365 136.431 218.826 124.97C227.144 116.651 236.291 109.248 246.106 102.867ZM187.933 167.459C189.809 168 191.728 168.532 193.688 169.054C203.16 171.576 213.513 173.838 224.587 175.814C216.486 196.661 212.442 218.909 212.586 241.179H169.555C169.908 220.031 174.243 199.13 182.343 179.574C182.45 179.316 182.557 179.059 182.665 178.803C184.282 174.952 186.04 171.168 187.933 167.459ZM245.48 384.692C246.125 383.463 247.556 381.846 250.494 379.958C254.87 377.145 261.578 374.423 270.431 372.066C271.239 371.851 272.062 371.64 272.899 371.433C278.629 376.317 284.777 380.926 291.346 385.221L326.001 407.879C317.569 407.591 309.305 407.007 301.433 406.139C295.696 405.506 290.235 404.73 285.119 403.827C281.175 402.526 277.275 401.078 273.427 399.484C263.644 395.431 254.289 390.475 245.48 384.692ZM241.976 382.328C243.169 380.304 245.26 378.32 248.219 376.418C253.067 373.302 260.151 370.468 269.071 368.074C249.939 350.79 235.767 330.334 226.403 308.326C211.759 310.662 198.199 313.451 186.018 316.634C194.239 333.816 205.327 349.498 218.826 362.998C225.966 370.139 233.716 376.604 241.976 382.328ZM179.364 300.67C172.865 282.499 169.532 263.324 169.532 243.984H212.627C213.083 264.488 217.095 284.962 224.761 304.327C210.081 306.698 196.469 309.524 184.222 312.755C183.576 311.311 182.949 309.857 182.343 308.394C181.286 305.841 180.293 303.266 179.364 300.67ZM292.881 382.873C287.014 379.037 281.489 374.947 276.301 370.63C283.783 368.948 292.256 367.57 301.433 366.558C304.522 366.217 307.671 365.92 310.867 365.668L330.982 407.784L292.881 382.873ZM300.972 362.375C290.425 363.538 280.737 365.184 272.345 367.236C253.015 350.145 238.707 329.804 229.267 307.876C237.531 306.603 246.128 305.472 255.007 304.494C265.199 303.371 275.677 302.458 286.348 301.76C290.484 318.706 296.381 335.337 304.042 351.379L308.926 361.604C306.238 361.83 303.584 362.087 300.972 362.375ZM313.869 365.444L334.066 407.733L334.066 364.632C327.232 364.712 320.461 364.985 313.869 365.444ZM306.573 350.17L311.921 361.366C319.134 360.827 326.565 360.51 334.066 360.424V300.099C318.922 300.177 303.884 300.675 289.192 301.58C293.277 318.172 299.069 334.456 306.573 350.17ZM281.871 243.984C282.078 261.91 284.188 279.828 288.206 297.425C303.218 296.486 318.59 295.97 334.066 295.891L334.767 295.888L334.767 243.984H281.871ZM279.049 241.179C279.04 221.715 281.249 202.259 285.669 183.202C277.068 182.587 268.609 181.823 260.346 180.911C248.839 179.642 237.817 178.101 227.408 176.309C219.295 196.981 215.246 219.069 215.392 241.179H279.049ZM279.066 243.984C279.271 261.97 281.371 279.947 285.371 297.608C274.882 298.303 264.578 299.206 254.546 300.311C245.248 301.336 236.249 302.528 227.606 303.876C219.918 284.67 215.895 264.343 215.433 243.984H279.066ZM281.854 241.179H334.767L334.767 185.064C319.131 184.979 303.61 184.419 288.503 183.399C284.064 202.387 281.845 221.779 281.854 241.179ZM273.025 118.173C271.013 117.636 269.098 117.076 267.284 116.494C250.517 132.63 237.723 151.712 229.032 172.318C239.079 174.027 249.709 175.505 260.807 176.729C269.239 177.659 277.879 178.435 286.668 179.055C291.386 160.15 298.293 141.668 307.382 123.993C306.005 123.861 304.638 123.72 303.283 123.57C291.968 122.319 281.686 120.485 273.025 118.173ZM274.11 114.108C272.978 113.805 271.883 113.497 270.826 113.183C284.97 100.341 301.759 89.529 321.119 81.5218L323.931 80.3585C326.116 80.2195 328.304 80.1107 330.496 80.0322L309.49 119.963C307.554 119.789 305.638 119.597 303.746 119.388C292.587 118.154 282.521 116.353 274.11 114.108ZM334.767 79.9179C334.416 79.9241 334.065 79.9311 333.714 79.9389L312.523 120.222C319.742 120.799 327.213 121.139 334.767 121.232L334.767 79.9179ZM334.767 125.44C326.48 125.34 318.285 124.945 310.398 124.268C301.23 141.903 294.265 160.361 289.511 179.25C304.292 180.231 319.472 180.772 334.767 180.856L334.767 125.44Z" fill="#EAB131"/>
</g>
<mask id="mask4" mask-type="alpha" maskUnits="userSpaceOnUse" x="247" y="253" width="114" height="169">
<path d="M360.272 421.412C318.598 421.412 278.406 405.95 247.476 378.018L360.272 253.101L360.272 421.412Z" fill="#130947"/>
</mask>
<g mask="url(#mask4)">
<path fill-rule="evenodd" clip-rule="evenodd" d="M360.272 84.7905C359.89 84.7911 359.508 84.7919 359.126 84.7931C337.414 84.941 315.933 89.289 295.867 97.6011C294.012 98.3695 292.172 99.1704 290.349 100.003C305.547 95.1339 321.368 91.8497 337.461 90.2119C319.352 98.3346 303.566 108.926 290.166 121.329C284.805 119.557 280.57 117.637 277.527 115.676C273.187 112.88 272.356 110.742 272.356 109.686C272.356 109.651 272.357 109.615 272.358 109.578C271.077 110.363 269.806 111.165 268.546 111.984C269.408 114.465 271.662 116.903 275.248 119.213C278.227 121.133 282.089 122.942 286.732 124.599C270.035 140.945 257.292 160.193 248.634 180.943C237.335 178.949 226.804 176.659 217.21 174.104C215.567 173.667 213.955 173.223 212.376 172.773C211.693 174.031 211.025 175.299 210.373 176.575C212.249 177.117 214.168 177.649 216.128 178.171C225.6 180.692 235.953 182.955 247.027 184.931C238.926 205.778 234.882 228.026 235.026 250.296H191.995C191.98 251.231 191.972 252.166 191.972 253.101C191.972 253.101 191.972 253.101 191.972 253.101H235.067C235.523 273.605 239.535 294.079 247.201 313.444C232.521 315.814 218.909 318.641 206.662 321.872C207.244 323.173 207.843 324.466 208.458 325.751C220.639 322.568 234.199 319.779 248.843 317.442C254.333 330.348 261.477 342.719 270.305 354.23L272.216 352.104C263.83 341.095 257.003 329.294 251.707 316.993C259.971 315.72 268.568 314.589 277.447 313.611C287.639 312.488 298.117 311.575 308.788 310.877C308.821 311.014 308.855 311.152 308.889 311.289L313.299 306.381C312.413 306.433 311.529 306.487 310.646 306.542C306.628 288.944 304.518 271.027 304.311 253.101H357.207L357.207 257.512L360.272 254.101L360.272 253.101L360.272 84.7905ZM307.559 412.944C312.675 413.847 318.136 414.623 323.873 415.255C331.745 416.124 340.008 416.708 348.441 416.996L313.786 394.338C307.217 390.043 301.069 385.434 295.338 380.55C294.502 380.757 293.679 380.968 292.871 381.183C284.018 383.54 277.31 386.262 272.934 389.075C269.996 390.963 268.565 392.58 267.92 393.809C276.729 399.591 286.084 404.548 295.867 408.601C299.715 410.195 303.615 411.643 307.559 412.944ZM264.416 391.445C265.608 389.421 267.7 387.437 270.659 385.535C275.507 382.419 282.591 379.585 291.511 377.191C283.598 370.042 276.533 362.35 270.305 354.23L248.283 378.741C253.403 383.306 258.791 387.547 264.416 391.445ZM357.207 257.512L357.207 305.005L356.506 305.008C341.94 305.083 327.467 305.544 313.299 306.381L357.207 257.512ZM308.889 311.289L272.216 352.104C278.78 360.719 286.298 368.849 294.785 376.353C303.177 374.301 312.865 372.655 323.412 371.492C326.024 371.204 328.678 370.947 331.366 370.721L326.482 360.496C318.883 344.584 313.02 328.092 308.889 311.289ZM315.321 391.99C309.454 388.154 303.929 384.063 298.741 379.747C306.223 378.065 314.696 376.687 323.873 375.675C326.962 375.334 330.111 375.037 333.307 374.784L353.422 416.901L315.321 391.99ZM336.309 374.561L356.506 416.85L356.506 373.749C349.672 373.829 342.901 374.102 336.309 374.561ZM329.013 359.287L334.361 370.483C341.574 369.944 349.005 369.627 356.506 369.541V309.216C341.362 309.294 326.324 309.792 311.632 310.697C315.717 327.289 321.509 343.573 329.013 359.287ZM301.489 250.296C301.48 230.832 303.689 211.376 308.109 192.319C299.508 191.704 291.049 190.94 282.786 190.028C271.279 188.759 260.257 187.218 249.848 185.426C241.735 206.098 237.686 228.186 237.832 250.296H301.489ZM301.506 253.101C301.711 271.087 303.811 289.064 307.811 306.725C297.322 307.42 287.018 308.323 276.986 309.428C267.688 310.453 258.689 311.645 250.046 312.993C242.358 293.787 238.334 273.46 237.873 253.101H301.506ZM304.294 250.296H357.207L357.207 194.181C341.571 194.096 326.05 193.535 310.943 192.516C306.504 211.504 304.285 230.896 304.294 250.296ZM295.465 127.29C293.453 126.753 291.538 126.192 289.724 125.611C272.957 141.747 260.162 160.829 251.472 181.435C261.519 183.144 272.148 184.622 283.247 185.846C291.679 186.776 300.319 187.552 309.107 188.172C313.826 169.267 320.733 150.785 329.822 133.11C328.445 132.978 327.078 132.837 325.723 132.687C314.407 131.436 304.126 129.602 295.465 127.29ZM296.55 123.225C295.418 122.922 294.323 122.614 293.266 122.3C307.41 109.458 324.199 98.646 343.559 90.6387L346.371 89.4754C348.556 89.3364 350.744 89.2276 352.936 89.1492L331.93 129.08C329.994 128.906 328.078 128.714 326.185 128.504C315.027 127.271 304.961 125.47 296.55 123.225ZM357.207 89.0348C356.856 89.041 356.505 89.0481 356.154 89.0558L334.963 129.339C342.182 129.916 349.653 130.256 357.207 130.348L357.207 89.0348ZM357.207 134.557C348.92 134.457 340.725 134.062 332.838 133.385C323.67 151.02 316.705 169.478 311.951 188.366C326.732 189.348 341.912 189.889 357.207 189.973L357.207 134.557Z" fill="#EAB131"/>
</g>
<path d="M150.071 511.464V492.168H166.583C170.039 492.168 172.631 492.936 174.359 494.472C176.087 495.944 176.951 498.344 176.951 501.672C176.951 505.128 176.087 507.624 174.359 509.16C172.631 510.696 170.039 511.464 166.583 511.464H150.071ZM134.999 480.456V549H150.071V522.216H165.143C168.919 522.216 171.639 523.048 173.303 524.712C174.967 526.376 176.055 529 176.567 532.584C176.951 535.336 177.239 538.216 177.431 541.224C177.623 544.232 178.135 546.824 178.967 549H194.039C193.335 548.04 192.791 546.888 192.407 545.544C192.087 544.136 191.831 542.664 191.639 541.128C191.511 539.592 191.415 538.088 191.351 536.616C191.287 535.144 191.223 533.864 191.159 532.776C191.031 531.048 190.775 529.32 190.391 527.592C190.071 525.864 189.527 524.296 188.759 522.888C187.991 521.416 186.999 520.168 185.783 519.144C184.567 518.056 183.031 517.256 181.175 516.744V516.552C185.015 515.016 187.767 512.776 189.431 509.832C191.159 506.888 192.023 503.4 192.023 499.368C192.023 496.744 191.543 494.312 190.583 492.072C189.687 489.768 188.343 487.752 186.551 486.024C184.823 484.296 182.711 482.952 180.215 481.992C177.783 480.968 175.031 480.456 171.959 480.456H134.999ZM211.48 480.456V549H263.512V536.328H226.552V519.528H259.768V507.816H226.552V493.128H262.744V480.456H211.48ZM296.002 536.328V493.128H306.754C310.466 493.128 313.57 493.672 316.066 494.76C318.626 495.784 320.674 497.288 322.21 499.272C323.746 501.256 324.834 503.656 325.474 506.472C326.178 509.224 326.53 512.328 326.53 515.784C326.53 519.56 326.05 522.76 325.09 525.384C324.13 528.008 322.85 530.152 321.25 531.816C319.65 533.416 317.826 534.568 315.778 535.272C313.73 535.976 311.618 536.328 309.442 536.328H296.002ZM280.93 480.456V549H310.498C315.746 549 320.29 548.136 324.13 546.408C328.034 544.616 331.266 542.184 333.826 539.112C336.45 536.04 338.402 532.392 339.682 528.168C340.962 523.944 341.602 519.336 341.602 514.344C341.602 508.648 340.802 503.688 339.202 499.464C337.666 495.24 335.49 491.72 332.674 488.904C329.922 486.088 326.626 483.976 322.786 482.568C319.01 481.16 314.914 480.456 310.498 480.456H280.93ZM417.463 523.08V480.456H402.391V523.08C402.391 528.2 401.367 531.976 399.319 534.408C397.271 536.776 393.559 537.96 388.183 537.96C385.111 537.96 382.647 537.544 380.791 536.712C378.999 535.816 377.591 534.696 376.567 533.352C375.543 531.944 374.871 530.344 374.551 528.552C374.231 526.76 374.071 524.936 374.071 523.08V480.456H358.999V523.08C358.999 532.424 361.527 539.336 366.583 543.816C371.703 548.296 378.903 550.536 388.183 550.536C397.335 550.536 404.503 548.296 409.687 543.816C414.871 539.272 417.463 532.36 417.463 523.08ZM483.339 503.496H497.931C497.483 499.528 496.395 496.008 494.667 492.936C492.939 489.864 490.731 487.304 488.043 485.256C485.419 483.144 482.411 481.544 479.019 480.456C475.691 479.368 472.139 478.824 468.363 478.824C463.115 478.824 458.379 479.752 454.155 481.608C449.995 483.464 446.475 486.024 443.595 489.288C440.715 492.552 438.507 496.392 436.971 500.808C435.435 505.16 434.667 509.896 434.667 515.016C434.667 520.008 435.435 524.68 436.971 529.032C438.507 533.32 440.715 537.064 443.595 540.264C446.475 543.464 449.995 545.992 454.155 547.848C458.379 549.64 463.115 550.536 468.363 550.536C472.587 550.536 476.459 549.896 479.979 548.616C483.499 547.336 486.571 545.48 489.195 543.048C491.819 540.616 493.931 537.672 495.531 534.216C497.131 530.76 498.123 526.888 498.507 522.6H483.915C483.339 527.208 481.739 530.92 479.115 533.736C476.555 536.552 472.971 537.96 468.363 537.96C464.971 537.96 462.091 537.32 459.723 536.04C457.355 534.696 455.435 532.936 453.963 530.76C452.491 528.584 451.403 526.152 450.699 523.464C450.059 520.712 449.739 517.896 449.739 515.016C449.739 512.008 450.059 509.096 450.699 506.28C451.403 503.464 452.491 500.968 453.963 498.792C455.435 496.552 457.355 494.792 459.723 493.512C462.091 492.168 464.971 491.496 468.363 491.496C470.219 491.496 471.979 491.816 473.643 492.456C475.371 493.032 476.907 493.864 478.251 494.952C479.595 496.04 480.715 497.32 481.611 498.792C482.507 500.2 483.083 501.768 483.339 503.496ZM515.999 480.456V549H568.031V536.328H531.071V519.528H564.287V507.816H531.071V493.128H567.263V480.456H515.999ZM139.43 653.328V610.128H150.182C153.894 610.128 156.998 610.672 159.494 611.76C162.054 612.784 164.102 614.288 165.638 616.272C167.174 618.256 168.262 620.656 168.902 623.472C169.606 626.224 169.958 629.328 169.958 632.784C169.958 636.56 169.478 639.76 168.518 642.384C167.558 645.008 166.278 647.152 164.678 648.816C163.078 650.416 161.254 651.568 159.206 652.272C157.158 652.976 155.046 653.328 152.87 653.328H139.43ZM124.358 597.456V666H153.926C159.174 666 163.718 665.136 167.558 663.408C171.462 661.616 174.694 659.184 177.254 656.112C179.878 653.04 181.83 649.392 183.11 645.168C184.39 640.944 185.03 636.336 185.03 631.344C185.03 625.648 184.23 620.688 182.63 616.464C181.094 612.24 178.918 608.72 176.102 605.904C173.35 603.088 170.054 600.976 166.214 599.568C162.438 598.16 158.342 597.456 153.926 597.456H124.358ZM202.715 597.456V666H254.747V653.328H217.787V636.528H251.003V624.816H217.787V610.128H253.979V597.456H202.715ZM272.165 597.456V666H286.277V617.904H286.469L303.269 666H314.885L331.685 617.424H331.877V666H345.989V597.456H324.773L309.605 644.592H309.413L293.381 597.456H272.165ZM383.738 639.504L392.666 614.352H392.858L401.498 639.504H383.738ZM385.178 597.456L359.258 666H374.426L379.802 650.736H405.434L410.618 666H426.266L400.634 597.456H385.178ZM439.377 597.456V666H453.489V620.112H453.681L482.193 666H497.265V597.456H483.153V643.44H482.961L454.353 597.456H439.377ZM532.805 653.328V610.128H543.557C547.269 610.128 550.373 610.672 552.869 611.76C555.429 612.784 557.477 614.288 559.013 616.272C560.549 618.256 561.637 620.656 562.277 623.472C562.981 626.224 563.333 629.328 563.333 632.784C563.333 636.56 562.853 639.76 561.893 642.384C560.933 645.008 559.653 647.152 558.053 648.816C556.453 650.416 554.629 651.568 552.581 652.272C550.533 652.976 548.421 653.328 546.245 653.328H532.805ZM517.733 597.456V666H547.301C552.549 666 557.093 665.136 560.933 663.408C564.837 661.616 568.069 659.184 570.629 656.112C573.253 653.04 575.205 649.392 576.485 645.168C577.765 640.944 578.405 636.336 578.405 631.344C578.405 625.648 577.605 620.688 576.005 616.464C574.469 612.24 572.293 608.72 569.477 605.904C566.725 603.088 563.429 600.976 559.589 599.568C555.813 598.16 551.717 597.456 547.301 597.456H517.733Z" fill="black"/>
</svg>
