<svg width="700" height="700" viewBox="0 0 700 700" fill="none" xmlns="http://www.w3.org/2000/svg">
<path fill-rule="evenodd" clip-rule="evenodd" d="M384.732 77.5451C382.663 77.4276 380.592 77.3373 378.517 77.2744C384.469 89.3435 389.718 101.667 394.263 114.184C398.4 113.9 402.464 113.537 406.421 113.1C414.756 112.178 422.459 110.94 429.297 109.441C416.645 96.9915 401.772 86.1661 384.732 77.5451ZM371.389 72.056L371.389 72.0559L371.389 150.761L371.389 125.868V120.959H371.389V114.959L371.389 96.0625V77.1664L371.389 72.056ZM390.1 114.443C386.341 104.195 382.104 94.0791 377.389 84.1304L377.389 114.906C381.669 114.831 385.916 114.676 390.1 114.443ZM377.389 120.907C382.382 120.821 387.335 120.628 392.201 120.331C398.279 137.832 402.974 155.699 406.284 173.768C396.753 174.209 387.097 174.469 377.389 174.546V125.868V120.907ZM377.389 180.546C387.447 180.467 397.451 180.193 407.324 179.726C410.386 198.177 412.01 216.82 412.19 235.478H377.389V180.546ZM371.389 235.478V180.569H371.389L371.389 235.478H371.389ZM371.389 239.478L371.389 379.308L371.389 361.894V355.894L371.389 349.582V297.374V291.374L371.389 246.14V239.478H371.389ZM377.389 239.478H412.207C412.182 257.1 410.871 274.725 408.269 292.207C398.078 291.743 387.759 291.472 377.389 291.396L377.389 246.14V239.478ZM416.207 239.478C416.183 257.163 414.876 274.852 412.284 292.4C426.926 293.141 441.28 294.28 455.117 295.805C460.754 296.426 466.282 297.109 471.687 297.851C478.436 279.001 481.892 259.24 482.138 239.478H416.207ZM486.139 239.478C485.896 259.424 482.457 279.37 475.736 298.421C493.778 301.025 510.384 304.297 525.046 308.145C525.676 306.736 526.287 305.316 526.879 303.888C535.336 283.468 539.69 261.581 539.69 239.478L486.139 239.478ZM539.642 235.478H486.145C485.949 214.268 482.143 193.126 474.827 173.132C490.073 170.767 504.145 167.884 516.676 164.547C518.29 164.118 519.876 163.681 521.433 163.238C523.397 167.104 525.214 171.05 526.879 175.068C534.826 194.256 539.149 214.738 539.642 235.478ZM482.145 235.478H416.19C416.011 216.753 414.395 198.045 411.345 179.525C424.558 178.827 437.513 177.784 450.018 176.405C457.137 175.62 464.069 174.731 470.786 173.742C478.127 193.52 481.947 214.464 482.145 235.478ZM377.389 297.396C387.445 297.47 397.449 297.73 407.33 298.171C404.056 317.893 399.133 337.411 392.554 356.513C388.224 356.256 383.83 356.079 379.402 355.982C378.732 355.967 378.061 355.954 377.389 355.943L377.389 349.582V297.396ZM454.46 301.769C440.547 300.236 426.099 299.095 411.353 298.361C408.102 318.105 403.216 337.648 396.69 356.783C400.766 357.075 404.775 357.437 408.691 357.869C409.43 357.95 410.165 358.034 410.895 358.12C418.364 359.002 425.376 360.128 431.77 361.472C448.615 344.325 461.155 324.604 469.511 303.61C464.595 302.947 459.575 302.333 454.46 301.769ZM379.363 361.982C383.097 362.065 386.806 362.206 390.468 362.404C386.621 372.977 382.261 383.414 377.389 393.68L377.389 381.842V361.944C378.048 361.955 378.706 361.968 379.363 361.982ZM404.35 400.233C398.244 400.829 391.926 401.257 385.496 401.512L403.351 389.838C413.671 383.091 423.003 375.605 431.36 367.519C433.95 368.075 436.424 368.667 438.77 369.292C439.318 369.438 439.858 369.585 440.388 369.733C448.343 371.959 454.305 374.456 458.2 376.959C458.373 377.071 458.54 377.181 458.701 377.289C461.113 378.912 462.132 380.171 462.56 380.955C454.097 386.409 445.141 391.106 435.795 394.978C435.459 395.117 435.123 395.255 434.786 395.392C426.951 397.247 417.914 398.761 408.033 399.851C406.815 399.985 405.587 400.113 404.35 400.233ZM401.162 386.49C410.445 380.421 418.911 373.74 426.569 366.554C421.468 365.594 415.985 364.763 410.195 364.079C409.479 363.995 408.758 363.913 408.033 363.833C403.675 363.352 399.195 362.959 394.631 362.655C390.543 374.004 385.873 385.201 380.619 396.201L378.035 401.611L401.162 386.49ZM440.314 363.494C439.027 363.151 437.706 362.819 436.353 362.497C452.96 345.128 465.335 325.269 473.595 304.175C491.507 306.72 507.959 309.918 522.456 313.67C514.315 330.249 503.49 345.398 490.396 358.492C483.345 365.543 475.7 371.936 467.556 377.607C466.42 375.779 464.55 373.985 461.969 372.257C461.797 372.141 461.622 372.027 461.443 371.912C456.851 368.96 450.254 366.262 441.989 363.951C441.438 363.797 440.879 363.644 440.314 363.494ZM515.133 158.749C502.485 162.117 488.185 165.027 472.621 167.4C464.695 147.791 453.323 129.413 438.604 113.322C446.67 111.084 453.1 108.462 457.556 105.59C460.854 103.464 463.026 101.232 464.024 98.9558C473.496 105.201 482.335 112.402 490.396 120.464C501.496 131.565 510.967 144.143 518.553 157.816C517.43 158.13 516.289 158.441 515.133 158.749ZM407.081 119.064C417.059 117.96 426.234 116.404 434.202 114.466C449.067 130.325 460.549 148.533 468.545 168.006C462.333 168.903 455.93 169.717 449.36 170.441C436.748 171.832 423.665 172.879 410.314 173.57C407.027 155.479 402.367 137.585 396.337 120.051C399.983 119.781 403.571 119.452 407.081 119.064ZM435.791 107.87C435.167 108.036 434.532 108.201 433.889 108.363C422.584 96.92 409.484 86.7665 394.628 78.318C412.956 80.1407 430.927 84.1138 448.022 90.1438C449.08 90.5171 450.134 90.8979 451.183 91.2861C453.642 92.6101 456.066 93.9945 458.454 95.4378C458.638 95.8092 458.656 96.0241 458.656 96.0625C458.656 96.1765 458.497 97.8456 454.306 100.546C450.364 103.087 444.168 105.634 435.791 107.87Z" fill="#5C95A9"/>
<mask id="mask0" mask-type="alpha" maskUnits="userSpaceOnUse" x="314" y="36" width="45" height="170">
<path d="M314.488 42.7316C328.944 38.7891 343.862 36.795 358.846 36.8022L358.766 205.114L314.488 42.7316Z" fill="#130947"/>
</mask>
<g mask="url(#mask0)">
<path fill-rule="evenodd" clip-rule="evenodd" d="M190.489 202.309H233.52C233.376 180.039 237.419 157.791 245.521 136.944C234.446 134.969 224.094 132.706 214.621 130.184C212.661 129.662 210.743 129.13 208.867 128.589C206.847 132.545 204.982 136.587 203.277 140.704C195.177 160.26 190.841 181.161 190.489 202.309ZM210.87 124.786C212.449 125.236 214.06 125.68 215.704 126.118C225.298 128.672 235.829 130.962 247.128 132.956C255.786 112.206 268.529 92.9584 285.226 76.6118C280.583 74.955 276.721 73.1464 273.741 71.2262C270.156 68.9157 267.902 66.4784 267.04 63.9968C257.224 70.3778 248.078 77.781 239.76 86.0996C228.299 97.561 218.576 110.596 210.87 124.786ZM288.842 52.0163C282.648 54.8457 276.641 58.044 270.852 61.5906C270.85 61.6279 270.849 61.664 270.849 61.6989C270.849 62.7552 271.681 64.8928 276.02 67.6892C279.063 69.6503 283.299 71.5697 288.66 73.3425C302.06 60.9394 317.845 50.3477 335.955 42.225C319.861 43.8627 304.041 47.147 288.842 52.0163ZM357.617 36.8062C358 36.805 358.383 36.8042 358.766 36.8036L358.766 36.8022C358.383 36.8022 358 36.8036 357.617 36.8062ZM190.466 205.114C190.466 227.217 194.819 249.104 203.277 269.524C203.883 270.987 204.509 272.441 205.155 273.885C217.402 270.654 231.015 267.828 245.695 265.457C238.028 246.092 234.017 225.618 233.56 205.114H190.466ZM206.951 277.764C219.133 274.581 232.693 271.792 247.336 269.456C256.7 291.464 270.872 311.92 290.005 329.204C281.084 331.598 274.001 334.432 269.153 337.548C266.194 339.45 264.102 341.434 262.91 343.458C254.65 337.734 246.899 331.269 239.76 324.128C226.261 310.628 215.173 294.946 206.951 277.764ZM266.413 345.822C267.059 344.593 268.49 342.976 271.427 341.088C275.804 338.275 282.512 335.553 291.365 333.196C292.173 332.981 292.995 332.77 293.832 332.563C299.563 337.447 305.711 342.056 312.28 346.351L346.935 369.009C338.502 368.721 330.239 368.137 322.367 367.269C316.63 366.636 311.169 365.86 306.053 364.957C302.109 363.656 298.208 362.208 294.36 360.614C284.577 356.561 275.223 351.605 266.413 345.822ZM340.809 372.465C345.326 372.82 349.892 373 354.499 373C355.926 373 357.348 372.983 358.766 372.948L358.766 373.426C352.756 373.426 346.762 373.104 340.809 372.465ZM313.814 344.003C307.948 340.167 302.422 336.077 297.235 331.76C304.716 330.078 313.189 328.7 322.366 327.688C325.455 327.347 328.604 327.05 331.8 326.798L351.916 368.914L313.814 344.003ZM321.905 323.505C311.358 324.668 301.671 326.314 293.278 328.366C273.948 311.275 259.641 290.934 250.201 269.006C258.465 267.733 267.062 266.602 275.94 265.624C286.133 264.501 296.611 263.588 307.282 262.89C311.418 279.836 317.314 296.467 324.976 312.509L329.86 322.734C327.172 322.96 324.518 323.217 321.905 323.505ZM334.802 326.574L355 368.863L355 325.762C348.165 325.842 341.395 326.115 334.802 326.574ZM327.507 311.3L332.855 322.496C340.068 321.957 347.498 321.641 355 321.554V261.229C339.856 261.307 324.817 261.805 310.125 262.71C314.21 279.302 320.002 295.586 327.507 311.3ZM302.804 205.114C303.011 223.04 305.121 240.958 309.14 258.555C324.152 257.616 339.523 257.101 355 257.021L355.701 257.018L355.701 205.114H302.804ZM299.983 202.309C299.973 182.845 302.183 163.389 306.603 144.332C298.002 143.717 289.543 142.953 281.28 142.041C269.772 140.773 258.751 139.231 248.342 137.439C240.228 158.111 236.179 180.199 236.325 202.309H299.983ZM299.999 205.114C300.205 223.1 302.305 241.077 306.305 258.738C295.816 259.433 285.512 260.336 275.479 261.441C266.182 262.466 257.182 263.658 248.539 265.006C240.852 245.8 236.828 225.473 236.367 205.114H299.999ZM302.788 202.309H355.701L355.701 146.194C340.065 146.109 324.544 145.549 309.437 144.529C304.997 163.517 302.778 182.909 302.788 202.309ZM293.959 79.3031C291.947 78.766 290.032 78.2056 288.218 77.6237C271.451 93.7604 258.656 112.842 249.966 133.448C260.012 135.157 270.642 136.635 281.741 137.859C290.172 138.789 298.813 139.565 307.601 140.185C312.32 121.28 319.227 102.798 328.316 85.1232C326.939 84.9908 325.572 84.8497 324.217 84.6999C312.901 83.4487 302.62 81.6149 293.959 79.3031ZM295.044 75.2376C293.912 74.9354 292.817 74.6271 291.759 74.3131C305.904 61.4708 322.692 50.6591 342.052 42.6518L344.865 41.4885C347.05 41.3495 349.238 41.2407 351.429 41.1622L330.423 81.0935C328.487 80.9188 326.571 80.7268 324.679 80.5176C313.521 79.2838 303.454 77.4826 295.044 75.2376ZM355.701 41.0479C355.35 41.0541 354.999 41.0611 354.648 41.0689L333.457 81.3517C340.676 81.9294 348.147 82.2694 355.701 82.3615L355.701 41.0479ZM355.701 86.5696C347.414 86.4697 339.219 86.0752 331.332 85.3976C322.163 103.033 315.198 121.491 310.444 140.38C325.225 141.361 340.405 141.902 355.701 141.986L355.701 86.5696Z" fill="#5C95A9"/>
</g>
<mask id="mask1" mask-type="alpha" maskUnits="userSpaceOnUse" x="189" y="22" width="143" height="162">
<path d="M189.862 92.3332C211.599 58.5315 244.712 33.6235 283.214 22.1131L331.417 183.374L189.862 92.3332Z" fill="#130947"/>
</mask>
<g mask="url(#mask1)">
<path fill-rule="evenodd" clip-rule="evenodd" d="M331.417 15.0619C331.037 15.0619 330.656 15.0632 330.275 15.0658C330.656 15.0646 331.037 15.0638 331.417 15.0632L331.417 15.0619ZM267.012 27.8738C287.079 19.5612 308.562 15.2132 330.275 15.0658C330.272 15.0658 330.27 15.0658 330.268 15.0658C308.557 15.2141 287.077 19.5621 267.012 27.8738ZM261.494 30.2759C276.693 25.4065 292.513 22.1224 308.606 20.4846C290.497 28.6073 274.711 39.199 261.311 51.6021C255.95 49.8293 251.715 47.9099 248.672 45.9488C244.332 43.1524 243.501 41.0149 243.501 39.9585C243.501 39.9236 243.502 39.8875 243.503 39.8503C249.293 36.3036 255.3 33.1052 261.494 30.2759ZM239.691 42.2565C240.553 44.738 242.807 47.1754 246.393 49.4858C249.372 51.406 253.234 53.2146 257.877 54.8714C241.18 71.218 228.437 90.4653 219.779 111.216C208.48 109.222 197.95 106.932 188.355 104.377C186.712 103.94 185.1 103.496 183.521 103.045C191.227 88.8552 200.95 75.8206 212.411 64.3592C220.729 56.0406 229.876 48.6375 239.691 42.2565ZM181.518 106.848C183.394 107.39 185.313 107.922 187.273 108.443C196.745 110.965 207.098 113.228 218.172 115.204C210.071 136.051 206.027 158.299 206.171 180.569H163.14C163.493 159.421 167.828 138.52 175.928 118.963C176.035 118.706 176.142 118.449 176.25 118.192C177.867 114.341 179.625 110.558 181.518 106.848ZM239.065 324.081C239.71 322.852 241.141 321.236 244.079 319.348C248.455 316.535 255.163 313.813 264.016 311.456C264.824 311.241 265.647 311.03 266.484 310.822C272.214 315.707 278.362 320.316 284.931 324.611L319.586 347.269C311.153 346.981 302.89 346.396 295.018 345.528C289.281 344.896 283.82 344.12 278.704 343.217C274.76 341.916 270.86 340.467 267.012 338.873C257.229 334.821 247.874 329.864 239.065 324.081ZM235.561 321.718C236.753 319.694 238.845 317.71 241.804 315.808C246.652 312.692 253.736 309.858 262.656 307.464C243.524 290.18 229.352 269.723 219.988 247.715C205.344 250.052 191.784 252.84 179.603 256.024C187.824 273.206 198.912 288.888 212.411 302.388C219.551 309.528 227.301 315.994 235.561 321.718ZM172.949 240.06C166.45 221.888 163.117 202.714 163.117 183.374H206.212C206.668 203.878 210.68 224.351 218.346 243.717C203.666 246.087 190.054 248.914 177.807 252.145C177.161 250.701 176.534 249.247 175.928 247.784C174.871 245.231 173.878 242.656 172.949 240.06ZM286.466 322.263C280.599 318.427 275.074 314.336 269.886 310.019C277.368 308.337 285.841 306.959 295.018 305.947C298.107 305.607 301.256 305.31 304.452 305.057L324.567 347.174L286.466 322.263ZM294.557 301.765C284.01 302.928 274.322 304.574 265.93 306.625C246.6 289.534 232.292 269.194 222.852 247.266C231.116 245.993 239.713 244.862 248.592 243.883C258.784 242.76 269.262 241.847 279.933 241.15C284.069 258.096 289.966 274.726 297.627 290.768L302.511 300.994C299.823 301.22 297.169 301.477 294.557 301.765ZM307.454 304.834L327.651 347.122L327.651 304.022C320.817 304.101 314.046 304.374 307.454 304.834ZM300.158 289.559L305.506 300.756C312.719 300.217 320.15 299.9 327.651 299.814V239.489C312.507 239.567 297.469 240.065 282.777 240.969C286.862 257.562 292.654 273.846 300.158 289.559ZM275.456 183.374C275.663 201.3 277.773 219.217 281.791 236.815C296.803 235.876 312.175 235.36 327.651 235.281L328.352 235.278L328.352 183.374H275.456ZM272.634 180.569C272.625 161.104 274.834 141.649 279.254 122.592C270.653 121.977 262.194 121.212 253.931 120.301C242.424 119.032 231.402 117.49 220.993 115.698C212.88 136.371 208.831 158.459 208.977 180.569H272.634ZM272.651 183.374C272.856 201.359 274.956 219.336 278.956 236.997C268.467 237.693 258.163 238.595 248.131 239.701C238.833 240.726 229.834 241.917 221.191 243.266C213.503 224.06 209.48 203.733 209.018 183.374H272.651ZM275.439 180.569H328.352L328.352 124.454C312.716 124.368 297.195 123.808 282.088 122.789C277.649 141.777 275.43 161.168 275.439 180.569ZM266.61 57.5627C264.598 57.0256 262.683 56.4652 260.869 55.8833C244.102 72.02 231.307 91.1015 222.617 111.708C232.664 113.417 243.293 114.895 254.392 116.119C262.824 117.048 271.464 117.825 280.253 118.445C284.971 99.5395 291.878 81.0576 300.967 63.3828C299.59 63.2505 298.223 63.1093 296.868 62.9595C285.553 61.7084 275.271 59.8745 266.61 57.5627ZM267.695 53.4972C266.563 53.1951 265.468 52.8867 264.411 52.5727C278.555 39.7305 295.344 28.9187 314.704 20.9114L317.516 19.7481C319.701 19.6091 321.889 19.5003 324.081 19.4219L303.075 59.3531C301.139 59.1784 299.223 58.9864 297.33 58.7772C286.172 57.5434 276.106 55.7422 267.695 53.4972ZM328.352 19.3075C328.001 19.3137 327.65 19.3208 327.299 19.3285L306.108 59.6113C313.327 60.1891 320.798 60.529 328.352 60.6211L328.352 19.3075ZM328.352 64.8292C320.065 64.7294 311.87 64.3349 303.983 63.6572C294.815 81.2924 287.85 99.7505 283.096 118.639C297.877 119.621 313.057 120.162 328.352 120.246L328.352 64.8292Z" fill="#5C95A9"/>
</g>
<mask id="mask2" mask-type="alpha" maskUnits="userSpaceOnUse" x="159" y="121" width="168" height="92">
<path d="M159.69 190.54C162.976 165.941 171.662 142.372 185.124 121.523L326.509 212.828L159.69 190.54Z" fill="#130947"/>
</mask>
<g mask="url(#mask2)">
<path fill-rule="evenodd" clip-rule="evenodd" d="M326.509 44.5164C326.128 44.5164 325.747 44.5177 325.366 44.5202C325.747 44.5191 326.128 44.5183 326.509 44.5177L326.509 44.5164ZM262.103 57.3283C282.17 49.0156 303.653 44.6676 325.366 44.5202C325.364 44.5202 325.361 44.5202 325.359 44.5203C303.648 44.6686 282.168 49.0165 262.103 57.3283ZM256.585 59.7303C271.784 54.861 287.604 51.5768 303.698 49.9391C285.588 58.0618 269.802 68.6535 256.403 81.0566C251.041 79.2838 246.806 77.3644 243.763 75.4033C239.424 72.6069 238.592 70.4693 238.592 69.413C238.592 69.3781 238.593 69.342 238.595 69.3048C244.384 65.7581 250.391 62.5597 256.585 59.7303ZM234.783 71.711C235.644 74.1925 237.899 76.6298 241.484 78.9403C244.464 80.8605 248.325 82.6691 252.968 84.3259C236.271 100.672 223.528 119.92 214.87 140.67C203.571 138.676 193.041 136.386 183.446 133.832C181.803 133.394 180.192 132.95 178.613 132.5C186.319 118.31 196.042 105.275 207.502 93.8137C215.82 85.4951 224.967 78.092 234.783 71.711ZM176.61 136.303C178.486 136.844 180.404 137.376 182.364 137.898C191.836 140.42 202.189 142.683 213.264 144.659C205.162 165.505 201.119 187.753 201.263 210.023H158.232C158.584 188.875 162.919 167.974 171.019 148.418C171.126 148.161 171.233 147.904 171.341 147.647C172.958 143.796 174.716 140.012 176.61 136.303ZM234.156 353.536C234.801 352.307 236.232 350.69 239.17 348.802C243.547 345.989 250.255 343.267 259.107 340.91C259.915 340.695 260.738 340.484 261.575 340.277C267.306 345.161 273.454 349.77 280.022 354.065L314.678 376.724C306.245 376.435 297.981 375.851 290.109 374.983C284.373 374.35 278.911 373.574 273.795 372.671C269.851 371.37 265.951 369.922 262.103 368.328C252.32 364.275 242.966 359.319 234.156 353.536ZM230.652 351.172C231.845 349.148 233.936 347.164 236.895 345.262C241.744 342.146 248.827 339.312 257.747 336.918C238.615 319.634 224.443 299.178 215.079 277.17C200.435 279.506 186.875 282.295 174.694 285.478C182.915 302.66 194.003 318.343 207.502 331.842C214.642 338.983 222.393 345.449 230.652 351.172ZM168.041 269.514C161.541 251.343 158.208 232.169 158.208 212.829H201.303C201.76 233.332 205.771 253.806 213.437 273.171C198.758 275.542 185.145 278.369 172.898 281.599C172.252 280.155 171.625 278.702 171.019 277.238C169.962 274.686 168.969 272.11 168.041 269.514ZM281.557 351.717C275.69 347.881 270.165 343.791 264.978 339.474C272.459 337.792 280.932 336.414 290.109 335.402C293.198 335.061 296.347 334.764 299.543 334.512L319.658 376.629L281.557 351.717ZM289.648 331.219C279.101 332.382 269.414 334.028 261.021 336.08C241.691 318.989 227.384 298.648 217.943 276.72C226.208 275.447 234.805 274.316 243.683 273.338C253.875 272.215 264.354 271.302 275.024 270.604C279.161 287.55 285.057 304.181 292.719 320.223L297.602 330.448C294.915 330.674 292.261 330.931 289.648 331.219ZM302.545 334.288L322.742 376.577L322.742 333.476C315.908 333.556 309.137 333.829 302.545 334.288ZM295.25 319.014L300.597 330.21C307.81 329.671 315.241 329.355 322.742 329.268V268.943C307.599 269.021 292.56 269.519 277.868 270.424C281.953 287.016 287.745 303.301 295.25 319.014ZM270.547 212.829C270.754 230.754 272.864 248.672 276.882 266.269C291.894 265.33 307.266 264.815 322.742 264.735L323.443 264.732L323.443 212.829H270.547ZM267.725 210.023C267.716 190.559 269.925 171.103 274.345 152.046C265.745 151.431 257.285 150.667 249.022 149.756C237.515 148.487 226.493 146.945 216.084 145.153C207.971 165.825 203.922 187.914 204.068 210.023H267.725ZM267.742 212.829C267.947 230.814 270.047 248.791 274.047 266.452C263.558 267.147 253.254 268.05 243.222 269.155C233.925 270.18 224.925 271.372 216.282 272.72C208.594 253.514 204.571 233.187 204.109 212.829H267.742ZM270.53 210.023H323.443L323.444 153.908C307.807 153.823 292.287 153.263 277.18 152.243C272.74 171.231 270.521 190.623 270.53 210.023ZM261.702 87.0172C259.69 86.4801 257.774 85.9196 255.96 85.3378C239.194 101.474 226.399 120.556 217.709 141.162C227.755 142.871 238.385 144.349 249.483 145.573C257.915 146.503 266.555 147.279 275.344 147.899C280.062 128.994 286.97 110.512 296.059 92.8373C294.681 92.7049 293.315 92.5638 291.959 92.414C280.644 91.1628 270.362 89.329 261.702 87.0172ZM262.787 82.9517C261.655 82.6495 260.56 82.3411 259.502 82.0272C273.647 69.1849 290.435 58.3732 309.795 50.3659L312.608 49.2026C314.792 49.0636 316.981 48.9548 319.172 48.8763L298.166 88.8076C296.23 88.6329 294.314 88.4409 292.422 88.2317C281.263 86.9979 271.197 85.1967 262.787 82.9517ZM323.443 48.762C323.092 48.7682 322.741 48.7752 322.39 48.783L301.2 89.0658C308.418 89.6435 315.889 89.9834 323.443 90.0756L323.443 48.762ZM323.444 94.2837C315.157 94.1838 306.962 93.7893 299.075 93.1117C289.906 110.747 282.941 129.205 278.187 148.094C292.968 149.076 308.148 149.616 323.444 149.7L323.444 94.2837Z" fill="#5C95A9"/>
</g>
<mask id="mask3" mask-type="alpha" maskUnits="userSpaceOnUse" x="171" y="221" width="169" height="149">
<path d="M228.732 369.411C208.067 351.249 192.169 328.298 182.43 302.567C172.691 276.836 169.408 249.11 172.868 221.816L339.832 242.984L228.732 369.411Z" fill="#130947"/>
</mask>
<g mask="url(#mask3)">
<path fill-rule="evenodd" clip-rule="evenodd" d="M339.833 74.6722C339.452 74.6722 339.071 74.6735 338.69 74.6761C339.071 74.675 339.452 74.6741 339.833 74.6736L339.833 74.6722ZM275.427 87.4842C295.494 79.1715 316.977 74.8235 338.69 74.6761C338.688 74.6761 338.685 74.6761 338.683 74.6761C316.972 74.8245 295.492 79.1724 275.427 87.4842ZM269.909 89.8862C285.108 85.0169 300.928 81.7327 317.021 80.0949C298.912 88.2177 283.126 98.8093 269.726 111.212C264.365 109.44 260.13 107.52 257.087 105.559C252.748 102.763 251.916 100.625 251.916 99.5688C251.916 99.5339 251.917 99.4979 251.919 99.4606C257.708 95.914 263.715 92.7156 269.909 89.8862ZM248.106 101.867C248.968 104.348 251.222 106.786 254.808 109.096C257.787 111.016 261.649 112.825 266.292 114.482C249.595 130.828 236.852 150.076 228.194 170.826C216.895 168.832 206.365 166.542 196.77 163.988C195.127 163.55 193.515 163.106 191.936 162.656C199.642 148.466 209.365 135.431 220.826 123.97C229.144 115.651 238.291 108.248 248.106 101.867ZM189.933 166.459C191.809 167 193.728 167.532 195.688 168.054C205.16 170.576 215.513 172.838 226.587 174.814C218.486 195.661 214.442 217.909 214.586 240.179H171.555C171.908 219.031 176.243 198.13 184.343 178.574C184.45 178.316 184.557 178.059 184.665 177.803C186.282 173.952 188.04 170.168 189.933 166.459ZM247.48 383.692C248.125 382.463 249.556 380.846 252.494 378.958C256.87 376.145 263.578 373.423 272.431 371.066C273.239 370.851 274.062 370.64 274.899 370.433C280.629 375.317 286.777 379.926 293.346 384.221L328.001 406.879C319.569 406.591 311.305 406.007 303.433 405.139C297.696 404.506 292.235 403.73 287.119 402.827C283.175 401.526 279.275 400.078 275.427 398.484C265.644 394.431 256.289 389.475 247.48 383.692ZM243.976 381.328C245.169 379.304 247.26 377.32 250.219 375.418C255.067 372.302 262.151 369.468 271.071 367.074C251.939 349.79 237.767 329.334 228.403 307.326C213.759 309.662 200.199 312.451 188.018 315.634C196.239 332.816 207.327 348.498 220.826 361.998C227.966 369.139 235.716 375.604 243.976 381.328ZM181.364 299.67C174.865 281.499 171.532 262.324 171.532 242.984H214.627C215.083 263.488 219.095 283.962 226.761 303.327C212.081 305.698 198.469 308.524 186.222 311.755C185.576 310.311 184.949 308.857 184.343 307.394C183.286 304.841 182.293 302.266 181.364 299.67ZM294.881 381.873C289.014 378.037 283.489 373.947 278.301 369.63C285.783 367.948 294.256 366.57 303.433 365.558C306.522 365.217 309.671 364.92 312.867 364.668L332.982 406.784L294.881 381.873ZM302.972 361.375C292.425 362.538 282.737 364.184 274.345 366.236C255.015 349.145 240.707 328.804 231.267 306.876C239.531 305.603 248.128 304.472 257.007 303.494C267.199 302.371 277.677 301.458 288.348 300.76C292.484 317.706 298.381 334.337 306.042 350.379L310.926 360.604C308.238 360.83 305.584 361.087 302.972 361.375ZM315.869 364.444L336.066 406.733L336.066 363.632C329.232 363.712 322.461 363.985 315.869 364.444ZM308.573 349.17L313.921 360.366C321.134 359.827 328.565 359.51 336.066 359.424V299.099C320.922 299.177 305.884 299.675 291.192 300.58C295.277 317.172 301.069 333.456 308.573 349.17ZM283.871 242.984C284.078 260.91 286.188 278.828 290.206 296.425C305.218 295.486 320.59 294.97 336.066 294.891L336.767 294.888L336.767 242.984H283.871ZM281.049 240.179C281.04 220.715 283.249 201.259 287.669 182.202C279.068 181.587 270.609 180.823 262.346 179.911C250.839 178.642 239.817 177.101 229.408 175.309C221.295 195.981 217.246 218.069 217.392 240.179H281.049ZM281.066 242.984C281.271 260.97 283.371 278.947 287.371 296.608C276.882 297.303 266.578 298.206 256.546 299.311C247.248 300.336 238.249 301.528 229.606 302.876C221.918 283.67 217.895 263.343 217.433 242.984H281.066ZM283.854 240.179H336.767L336.767 184.064C321.131 183.979 305.61 183.419 290.503 182.399C286.064 201.387 283.845 220.779 283.854 240.179ZM275.025 117.173C273.013 116.636 271.098 116.076 269.284 115.494C252.517 131.63 239.723 150.712 231.032 171.318C241.079 173.027 251.709 174.505 262.807 175.729C271.239 176.659 279.879 177.435 288.668 178.055C293.386 159.15 300.293 140.668 309.382 122.993C308.005 122.861 306.638 122.72 305.283 122.57C293.968 121.319 283.686 119.485 275.025 117.173ZM276.11 113.108C274.978 112.805 273.883 112.497 272.826 112.183C286.97 99.3408 303.759 88.529 323.119 80.5218L325.931 79.3585C328.116 79.2195 330.304 79.1107 332.496 79.0322L311.49 118.963C309.554 118.789 307.638 118.597 305.746 118.388C294.587 117.154 284.521 115.353 276.11 113.108ZM336.767 78.9179C336.416 78.9241 336.065 78.9311 335.714 78.9389L314.523 119.222C321.742 119.799 329.213 120.139 336.767 120.232L336.767 78.9179ZM336.767 124.44C328.48 124.34 320.285 123.945 312.398 123.268C303.23 140.903 296.265 159.361 291.511 178.25C306.292 179.231 321.472 179.772 336.767 179.856L336.767 124.44Z" fill="#5C95A9"/>
</g>
<mask id="mask4" mask-type="alpha" maskUnits="userSpaceOnUse" x="249" y="252" width="114" height="169">
<path d="M362.272 420.412C320.598 420.412 280.406 404.95 249.476 377.018L362.272 252.101L362.272 420.412Z" fill="#130947"/>
</mask>
<g mask="url(#mask4)">
<path fill-rule="evenodd" clip-rule="evenodd" d="M362.272 83.7905C361.89 83.7911 361.508 83.7919 361.126 83.7931C339.414 83.941 317.933 88.289 297.867 96.6011C296.012 97.3695 294.172 98.1704 292.349 99.0032C307.547 94.1339 323.368 90.8497 339.461 89.2119C321.352 97.3346 305.566 107.926 292.166 120.329C286.805 118.557 282.57 116.637 279.527 114.676C275.187 111.88 274.356 109.742 274.356 108.686C274.356 108.651 274.357 108.615 274.358 108.578C273.077 109.363 271.806 110.165 270.546 110.984C271.408 113.465 273.662 115.903 277.248 118.213C280.227 120.133 284.089 121.942 288.732 123.599C272.035 139.945 259.292 159.193 250.634 179.943C239.335 177.949 228.804 175.659 219.21 173.104C217.567 172.667 215.955 172.223 214.376 171.773C213.693 173.031 213.025 174.299 212.373 175.575C214.249 176.117 216.168 176.649 218.128 177.171C227.6 179.692 237.953 181.955 249.027 183.931C240.926 204.778 236.882 227.026 237.026 249.296H193.995C193.98 250.231 193.972 251.166 193.972 252.101C193.972 252.101 193.972 252.101 193.972 252.101H237.067C237.523 272.605 241.535 293.079 249.201 312.444C234.521 314.814 220.909 317.641 208.662 320.872C209.244 322.173 209.843 323.466 210.458 324.751C222.639 321.568 236.199 318.779 250.843 316.442C256.333 329.348 263.477 341.719 272.305 353.23L274.216 351.104C265.83 340.095 259.003 328.294 253.707 315.993C261.971 314.72 270.568 313.589 279.447 312.611C289.639 311.488 300.117 310.575 310.788 309.877C310.821 310.014 310.855 310.152 310.889 310.289L315.299 305.381C314.413 305.433 313.529 305.487 312.646 305.542C308.628 287.944 306.518 270.027 306.311 252.101H359.207L359.207 256.512L362.272 253.101L362.272 252.101L362.272 83.7905ZM309.559 411.944C314.675 412.847 320.136 413.623 325.873 414.255C333.745 415.124 342.008 415.708 350.441 415.996L315.786 393.338C309.217 389.043 303.069 384.434 297.338 379.55C296.502 379.757 295.679 379.968 294.871 380.183C286.018 382.54 279.31 385.262 274.934 388.075C271.996 389.963 270.565 391.58 269.92 392.809C278.729 398.591 288.084 403.548 297.867 407.601C301.715 409.195 305.615 410.643 309.559 411.944ZM266.416 390.445C267.608 388.421 269.7 386.437 272.659 384.535C277.507 381.419 284.591 378.585 293.511 376.191C285.598 369.042 278.533 361.35 272.305 353.23L250.283 377.741C255.403 382.306 260.791 386.547 266.416 390.445ZM359.207 256.512L359.207 304.005L358.506 304.008C343.94 304.083 329.467 304.544 315.299 305.381L359.207 256.512ZM310.889 310.289L274.216 351.104C280.78 359.719 288.298 367.849 296.785 375.353C305.177 373.301 314.865 371.655 325.412 370.492C328.024 370.204 330.678 369.947 333.366 369.721L328.482 359.496C320.883 343.584 315.02 327.092 310.889 310.289ZM317.321 390.99C311.454 387.154 305.929 383.063 300.741 378.747C308.223 377.065 316.696 375.687 325.873 374.675C328.962 374.334 332.111 374.037 335.307 373.784L355.422 415.901L317.321 390.99ZM338.309 373.561L358.506 415.85L358.506 372.749C351.672 372.829 344.901 373.102 338.309 373.561ZM331.013 358.287L336.361 369.483C343.574 368.944 351.005 368.627 358.506 368.541V308.216C343.362 308.294 328.324 308.792 313.632 309.697C317.717 326.289 323.509 342.573 331.013 358.287ZM303.489 249.296C303.48 229.832 305.689 210.376 310.109 191.319C301.508 190.704 293.049 189.94 284.786 189.028C273.279 187.759 262.257 186.218 251.848 184.426C243.735 205.098 239.686 227.186 239.832 249.296H303.489ZM303.506 252.101C303.711 270.087 305.811 288.064 309.811 305.725C299.322 306.42 289.018 307.323 278.986 308.428C269.688 309.453 260.689 310.645 252.046 311.993C244.358 292.787 240.334 272.46 239.873 252.101H303.506ZM306.294 249.296H359.207L359.207 193.181C343.571 193.096 328.05 192.535 312.943 191.516C308.504 210.504 306.285 229.896 306.294 249.296ZM297.465 126.29C295.453 125.753 293.538 125.192 291.724 124.611C274.957 140.747 262.162 159.829 253.472 180.435C263.519 182.144 274.148 183.622 285.247 184.846C293.679 185.776 302.319 186.552 311.107 187.172C315.826 168.267 322.733 149.785 331.822 132.11C330.445 131.978 329.078 131.837 327.723 131.687C316.407 130.436 306.126 128.602 297.465 126.29ZM298.55 122.225C297.418 121.922 296.323 121.614 295.266 121.3C309.41 108.458 326.199 97.646 345.559 89.6387L348.371 88.4754C350.556 88.3364 352.744 88.2276 354.936 88.1492L333.93 128.08C331.994 127.906 330.078 127.714 328.185 127.504C317.027 126.271 306.961 124.47 298.55 122.225ZM359.207 88.0348C358.856 88.041 358.505 88.0481 358.154 88.0558L336.963 128.339C344.182 128.916 351.653 129.256 359.207 129.348L359.207 88.0348ZM359.207 133.557C350.92 133.457 342.725 133.062 334.838 132.385C325.67 150.02 318.705 168.478 313.951 187.366C328.732 188.348 343.912 188.889 359.207 188.973L359.207 133.557Z" fill="#5C95A9"/>
</g>
<path d="M141.93 504.464V485.168H158.442C161.898 485.168 164.49 485.936 166.218 487.472C167.946 488.944 168.81 491.344 168.81 494.672C168.81 498.128 167.946 500.624 166.218 502.16C164.49 503.696 161.898 504.464 158.442 504.464H141.93ZM126.858 473.456V542H141.93V515.216H157.002C160.778 515.216 163.498 516.048 165.162 517.712C166.826 519.376 167.914 522 168.426 525.584C168.81 528.336 169.098 531.216 169.29 534.224C169.482 537.232 169.994 539.824 170.826 542H185.898C185.194 541.04 184.65 539.888 184.266 538.544C183.946 537.136 183.69 535.664 183.498 534.128C183.37 532.592 183.274 531.088 183.21 529.616C183.146 528.144 183.082 526.864 183.018 525.776C182.89 524.048 182.634 522.32 182.25 520.592C181.93 518.864 181.386 517.296 180.618 515.888C179.85 514.416 178.858 513.168 177.642 512.144C176.426 511.056 174.89 510.256 173.034 509.744V509.552C176.874 508.016 179.626 505.776 181.29 502.832C183.018 499.888 183.882 496.4 183.882 492.368C183.882 489.744 183.402 487.312 182.442 485.072C181.546 482.768 180.202 480.752 178.41 479.024C176.682 477.296 174.57 475.952 172.074 474.992C169.642 473.968 166.89 473.456 163.818 473.456H126.858ZM203.34 473.456V542H255.372V529.328H218.412V512.528H251.628V500.816H218.412V486.128H254.604V473.456H203.34ZM272.79 473.456V542H287.862V513.68H316.566V501.968H287.862V486.128H320.982V473.456H272.79ZM348.992 508.016C348.992 505.008 349.312 502.096 349.952 499.28C350.656 496.464 351.744 493.968 353.216 491.792C354.688 489.552 356.608 487.792 358.976 486.512C361.344 485.168 364.224 484.496 367.616 484.496C371.008 484.496 373.888 485.168 376.256 486.512C378.624 487.792 380.544 489.552 382.016 491.792C383.488 493.968 384.544 496.464 385.184 499.28C385.888 502.096 386.24 505.008 386.24 508.016C386.24 510.896 385.888 513.712 385.184 516.464C384.544 519.152 383.488 521.584 382.016 523.76C380.544 525.936 378.624 527.696 376.256 529.04C373.888 530.32 371.008 530.96 367.616 530.96C364.224 530.96 361.344 530.32 358.976 529.04C356.608 527.696 354.688 525.936 353.216 523.76C351.744 521.584 350.656 519.152 349.952 516.464C349.312 513.712 348.992 510.896 348.992 508.016ZM333.92 508.016C333.92 513.008 334.688 517.68 336.224 522.032C337.76 526.32 339.968 530.064 342.848 533.264C345.728 536.464 349.248 538.992 353.408 540.848C357.632 542.64 362.368 543.536 367.616 543.536C372.928 543.536 377.664 542.64 381.824 540.848C385.984 538.992 389.504 536.464 392.384 533.264C395.264 530.064 397.472 526.32 399.008 522.032C400.544 517.68 401.312 513.008 401.312 508.016C401.312 502.896 400.544 498.16 399.008 493.808C397.472 489.392 395.264 485.552 392.384 482.288C389.504 479.024 385.984 476.464 381.824 474.608C377.664 472.752 372.928 471.824 367.616 471.824C362.368 471.824 357.632 472.752 353.408 474.608C349.248 476.464 345.728 479.024 342.848 482.288C339.968 485.552 337.76 489.392 336.224 493.808C334.688 498.16 333.92 502.896 333.92 508.016ZM433.887 504.464V485.168H450.399C453.855 485.168 456.447 485.936 458.175 487.472C459.903 488.944 460.767 491.344 460.767 494.672C460.767 498.128 459.903 500.624 458.175 502.16C456.447 503.696 453.855 504.464 450.399 504.464H433.887ZM418.815 473.456V542H433.887V515.216H448.959C452.735 515.216 455.455 516.048 457.119 517.712C458.783 519.376 459.871 522 460.383 525.584C460.767 528.336 461.055 531.216 461.247 534.224C461.439 537.232 461.951 539.824 462.783 542H477.855C477.151 541.04 476.607 539.888 476.223 538.544C475.903 537.136 475.647 535.664 475.455 534.128C475.327 532.592 475.231 531.088 475.167 529.616C475.103 528.144 475.039 526.864 474.975 525.776C474.847 524.048 474.591 522.32 474.207 520.592C473.887 518.864 473.343 517.296 472.575 515.888C471.807 514.416 470.815 513.168 469.599 512.144C468.383 511.056 466.847 510.256 464.991 509.744V509.552C468.831 508.016 471.583 505.776 473.247 502.832C474.975 499.888 475.839 496.4 475.839 492.368C475.839 489.744 475.359 487.312 474.399 485.072C473.503 482.768 472.159 480.752 470.367 479.024C468.639 477.296 466.527 475.952 464.031 474.992C461.599 473.968 458.847 473.456 455.775 473.456H418.815ZM495.296 473.456V542H509.408V493.904H509.6L526.4 542H538.016L554.816 493.424H555.008V542H569.12V473.456H547.904L532.736 520.592H532.544L516.512 473.456H495.296ZM125.833 590.456V659H140.905V630.68H169.609V618.968H140.905V603.128H174.025V590.456H125.833ZM196.689 632.504L205.617 607.352H205.809L214.449 632.504H196.689ZM198.129 590.456L172.209 659H187.377L192.753 643.736H218.385L223.569 659H239.217L213.585 590.456H198.129ZM262.12 621.464V602.168H278.632C282.088 602.168 284.68 602.936 286.408 604.472C288.136 605.944 289 608.344 289 611.672C289 615.128 288.136 617.624 286.408 619.16C284.68 620.696 282.088 621.464 278.632 621.464H262.12ZM247.048 590.456V659H262.12V632.216H277.192C280.968 632.216 283.688 633.048 285.352 634.712C287.016 636.376 288.104 639 288.616 642.584C289 645.336 289.288 648.216 289.48 651.224C289.672 654.232 290.184 656.824 291.016 659H306.088C305.384 658.04 304.84 656.888 304.456 655.544C304.136 654.136 303.88 652.664 303.688 651.128C303.56 649.592 303.464 648.088 303.4 646.616C303.336 645.144 303.272 643.864 303.208 642.776C303.08 641.048 302.824 639.32 302.44 637.592C302.12 635.864 301.576 634.296 300.808 632.888C300.04 631.416 299.048 630.168 297.832 629.144C296.616 628.056 295.08 627.256 293.224 626.744V626.552C297.064 625.016 299.816 622.776 301.48 619.832C303.208 616.888 304.072 613.4 304.072 609.368C304.072 606.744 303.592 604.312 302.632 602.072C301.736 599.768 300.392 597.752 298.6 596.024C296.872 594.296 294.76 592.952 292.264 591.992C289.832 590.968 287.08 590.456 284.008 590.456H247.048ZM318.249 590.456V659H332.361V610.904H332.553L349.353 659H360.969L377.769 610.424H377.961V659H392.073V590.456H370.857L355.689 637.592H355.497L339.465 590.456H318.249ZM407.263 590.456V659H422.335V590.456H407.263ZM437.495 590.456V659H451.607V613.112H451.799L480.311 659H495.383V590.456H481.271V636.44H481.079L452.471 590.456H437.495ZM560.108 651.224L561.644 659H571.244V621.944H542.444V633.176H557.612C557.164 637.976 555.564 641.656 552.812 644.216C550.124 646.712 546.284 647.96 541.292 647.96C537.9 647.96 535.02 647.32 532.652 646.04C530.284 644.696 528.364 642.936 526.892 640.76C525.42 638.584 524.332 636.152 523.628 633.464C522.988 630.712 522.668 627.896 522.668 625.016C522.668 622.008 522.988 619.096 523.628 616.28C524.332 613.464 525.42 610.968 526.892 608.792C528.364 606.552 530.284 604.792 532.652 603.512C535.02 602.168 537.9 601.496 541.292 601.496C544.94 601.496 548.044 602.456 550.604 604.376C553.164 606.296 554.892 609.176 555.788 613.016H570.188C569.804 609.112 568.748 605.656 567.02 602.648C565.292 599.64 563.084 597.112 560.396 595.064C557.772 593.016 554.796 591.48 551.468 590.456C548.204 589.368 544.812 588.824 541.292 588.824C536.044 588.824 531.308 589.752 527.084 591.608C522.924 593.464 519.404 596.024 516.524 599.288C513.644 602.552 511.436 606.392 509.9 610.808C508.364 615.16 507.596 619.896 507.596 625.016C507.596 630.008 508.364 634.68 509.9 639.032C511.436 643.32 513.644 647.064 516.524 650.264C519.404 653.464 522.924 655.992 527.084 657.848C531.308 659.64 536.044 660.536 541.292 660.536C544.62 660.536 547.916 659.864 551.18 658.52C554.444 657.112 557.42 654.68 560.108 651.224Z" fill="black"/>
</svg>
