<svg width="700" height="700" viewBox="0 0 700 700" fill="none" xmlns="http://www.w3.org/2000/svg">
<path fill-rule="evenodd" clip-rule="evenodd" d="M384.731 78.5451C382.663 78.4276 380.591 78.3373 378.517 78.2744C384.469 90.3435 389.718 102.667 394.263 115.184C398.4 114.9 402.463 114.537 406.421 114.1C414.755 113.178 422.459 111.94 429.297 110.441C416.645 97.9915 401.771 87.1661 384.731 78.5451ZM371.389 73.056L371.389 73.0559L371.389 151.761L371.389 126.868V121.959H371.389V115.959L371.389 97.0625V78.1664L371.389 73.056ZM390.099 115.443C386.34 105.195 382.103 95.0791 377.389 85.1304L377.389 115.906C381.668 115.831 385.915 115.676 390.099 115.443ZM377.389 121.907C382.381 121.821 387.334 121.628 392.201 121.331C398.278 138.832 402.974 156.699 406.284 174.768C396.753 175.209 387.097 175.469 377.389 175.546V126.868V121.907ZM377.389 181.546C387.446 181.467 397.451 181.193 407.324 180.726C410.386 199.177 412.009 217.82 412.19 236.478H377.389V181.546ZM371.389 236.478V181.569H371.389L371.389 236.478H371.389ZM371.389 240.478L371.389 380.308L371.389 362.894V356.894L371.389 350.582V298.374V292.374L371.389 247.14V240.478H371.389ZM377.389 240.478H412.206C412.182 258.1 410.87 275.725 408.268 293.207C398.078 292.743 387.759 292.472 377.389 292.396L377.389 247.14V240.478ZM416.206 240.478C416.182 258.163 414.876 275.852 412.283 293.4C426.925 294.141 441.28 295.28 455.116 296.805C460.754 297.426 466.282 298.109 471.687 298.851C478.436 280.001 481.891 260.24 482.138 240.478H416.206ZM486.139 240.478C485.896 260.424 482.456 280.37 475.736 299.421C493.777 302.025 510.383 305.297 525.046 309.145C525.676 307.736 526.287 306.316 526.878 304.888C535.336 284.468 539.689 262.581 539.689 240.478L486.139 240.478ZM539.642 236.478H486.145C485.949 215.268 482.142 194.126 474.827 174.132C490.073 171.767 504.145 168.884 516.676 165.547C518.29 165.118 519.876 164.681 521.433 164.238C523.397 168.104 525.214 172.05 526.878 176.068C534.825 195.256 539.149 215.738 539.642 236.478ZM482.144 236.478H416.19C416.011 217.753 414.394 199.045 411.345 180.525C424.558 179.827 437.513 178.784 450.017 177.405C457.136 176.62 464.069 175.731 470.786 174.742C478.126 194.52 481.947 215.464 482.144 236.478ZM377.389 298.396C387.444 298.47 397.448 298.73 407.329 299.171C404.056 318.893 399.132 338.411 392.554 357.513C388.224 357.256 383.83 357.079 379.402 356.982C378.732 356.967 378.06 356.954 377.389 356.943L377.389 350.582V298.396ZM454.459 302.769C440.547 301.236 426.098 300.095 411.352 299.361C408.101 319.105 403.215 338.648 396.69 357.783C400.765 358.075 404.775 358.437 408.69 358.869C409.43 358.95 410.164 359.034 410.895 359.12C418.363 360.002 425.375 361.128 431.77 362.472C448.615 345.325 461.154 325.604 469.51 304.61C464.595 303.947 459.574 303.333 454.459 302.769ZM379.363 362.982C383.097 363.065 386.805 363.206 390.468 363.404C386.62 373.977 382.261 384.414 377.389 394.68L377.389 382.842V362.944C378.047 362.955 378.705 362.968 379.363 362.982ZM404.35 401.233C398.243 401.829 391.925 402.257 385.495 402.512L403.35 390.838C413.67 384.091 423.003 376.605 431.36 368.519C433.949 369.075 436.423 369.667 438.77 370.292C439.318 370.438 439.857 370.585 440.387 370.733C448.342 372.959 454.305 375.456 458.199 377.959C458.373 378.071 458.539 378.181 458.7 378.289C461.112 379.912 462.132 381.171 462.559 381.955C454.096 387.409 445.141 392.106 435.794 395.978C435.458 396.117 435.122 396.255 434.785 396.392C426.951 398.247 417.914 399.761 408.033 400.851C406.814 400.985 405.586 401.113 404.35 401.233ZM401.161 387.49C410.444 381.421 418.91 374.74 426.569 367.554C421.467 366.594 415.984 365.763 410.195 365.079C409.479 364.995 408.758 364.913 408.033 364.833C403.675 364.352 399.195 363.959 394.631 363.655C390.543 375.004 385.872 386.201 380.619 397.201L378.035 402.611L401.161 387.49ZM440.313 364.494C439.027 364.151 437.706 363.819 436.352 363.497C452.96 346.128 465.335 326.269 473.595 305.175C491.507 307.72 507.959 310.918 522.456 314.67C514.315 331.249 503.489 346.398 490.395 359.492C483.345 366.543 475.699 372.936 467.556 378.607C466.42 376.779 464.55 374.985 461.969 373.257C461.797 373.141 461.621 373.027 461.443 372.912C456.851 369.96 450.253 367.262 441.988 364.951C441.437 364.797 440.879 364.644 440.313 364.494ZM515.132 159.749C502.484 163.117 488.185 166.027 472.621 168.4C464.694 148.791 453.322 130.413 438.604 114.322C446.67 112.084 453.099 109.462 457.556 106.59C460.854 104.464 463.026 102.232 464.023 99.9558C473.495 106.201 482.334 113.402 490.395 121.464C501.496 132.565 510.966 145.143 518.553 158.816C517.429 159.13 516.289 159.441 515.132 159.749ZM407.08 120.064C417.059 118.96 426.233 117.404 434.201 115.466C449.067 131.325 460.548 149.533 468.545 169.006C462.332 169.903 455.93 170.717 449.36 171.441C436.747 172.832 423.664 173.879 410.314 174.57C407.027 156.479 402.366 138.585 396.337 121.051C399.982 120.781 403.57 120.452 407.08 120.064ZM435.791 108.87C435.166 109.036 434.532 109.201 433.889 109.363C422.583 97.92 409.483 87.7665 394.628 79.318C412.955 81.1407 430.927 85.1138 448.022 91.1438C449.08 91.5171 450.134 91.8979 451.183 92.2861C453.641 93.6101 456.066 94.9945 458.453 96.4378C458.637 96.8092 458.655 97.0241 458.655 97.0625C458.655 97.1765 458.497 98.8456 454.306 101.546C450.363 104.087 444.167 106.634 435.791 108.87Z" fill="#CA3B2C"/>
<mask id="mask0" mask-type="alpha" maskUnits="userSpaceOnUse" x="314" y="37" width="45" height="170">
<path d="M314.488 43.7315C328.944 39.7891 343.862 37.795 358.846 37.8022L358.766 206.114L314.488 43.7315Z" fill="#130947"/>
</mask>
<g mask="url(#mask0)">
<path fill-rule="evenodd" clip-rule="evenodd" d="M190.488 203.309H233.52C233.375 181.039 237.419 158.791 245.52 137.944C234.446 135.969 224.093 133.706 214.621 131.184C212.661 130.662 210.742 130.13 208.867 129.589C206.847 133.545 204.981 137.587 203.276 141.704C195.176 161.26 190.841 182.161 190.488 203.309ZM210.869 125.786C212.448 126.236 214.06 126.68 215.703 127.118C225.298 129.672 235.828 131.962 247.127 133.956C255.785 113.206 268.528 93.9584 285.225 77.6118C280.582 75.955 276.72 74.1464 273.741 72.2262C270.156 69.9157 267.901 67.4784 267.039 64.9968C257.224 71.3778 248.077 78.781 239.759 87.0996C228.298 98.561 218.576 111.596 210.869 125.786ZM288.842 53.0163C282.648 55.8457 276.641 59.044 270.852 62.5906C270.85 62.6279 270.849 62.664 270.849 62.6989C270.849 63.7552 271.681 65.8928 276.02 68.6892C279.063 70.6503 283.298 72.5697 288.66 74.3425C302.059 61.9394 317.845 51.3477 335.955 43.225C319.861 44.8627 304.04 48.147 288.842 53.0163ZM357.617 37.8062C358 37.805 358.383 37.8042 358.766 37.8036L358.766 37.8022C358.383 37.8022 358 37.8036 357.617 37.8062ZM190.465 206.114C190.465 228.217 194.818 250.104 203.276 270.524C203.882 271.987 204.509 273.441 205.155 274.885C217.402 271.654 231.014 268.828 245.694 266.457C238.028 247.092 234.017 226.618 233.56 206.114H190.465ZM206.951 278.764C219.132 275.581 232.692 272.792 247.336 270.456C256.7 292.464 270.872 312.92 290.004 330.204C281.084 332.598 274.001 335.432 269.152 338.548C266.193 340.45 264.102 342.434 262.909 344.458C254.649 338.734 246.899 332.269 239.759 325.128C226.26 311.628 215.172 295.946 206.951 278.764ZM266.413 346.822C267.058 345.593 268.489 343.976 271.427 342.088C275.804 339.275 282.511 336.553 291.364 334.196C292.172 333.981 292.995 333.77 293.832 333.563C299.563 338.447 305.71 343.056 312.279 347.351L346.934 370.009C338.502 369.721 330.238 369.137 322.366 368.269C316.63 367.636 311.168 366.86 306.052 365.957C302.108 364.656 298.208 363.208 294.36 361.614C284.577 357.561 275.222 352.605 266.413 346.822ZM340.809 373.465C345.326 373.819 349.891 374 354.499 374C355.925 374 357.348 373.983 358.766 373.948L358.766 374.426C352.756 374.426 346.762 374.104 340.809 373.465ZM313.814 345.003C307.947 341.167 302.422 337.077 297.235 332.76C304.716 331.078 313.189 329.7 322.366 328.688C325.455 328.347 328.604 328.05 331.8 327.798L351.915 369.914L313.814 345.003ZM321.905 324.505C311.358 325.668 301.671 327.314 293.278 329.366C273.948 312.275 259.64 291.934 250.2 270.006C258.464 268.733 267.062 267.602 275.94 266.624C286.132 265.501 296.61 264.588 307.281 263.89C311.417 280.836 317.314 297.467 324.975 313.509L329.859 323.734C327.172 323.96 324.517 324.217 321.905 324.505ZM334.802 327.574L354.999 369.863L354.999 326.762C348.165 326.842 341.394 327.115 334.802 327.574ZM327.507 312.3L332.854 323.496C340.067 322.957 347.498 322.641 354.999 322.554V262.229C339.856 262.307 324.817 262.805 310.125 263.71C314.21 280.302 320.002 296.586 327.507 312.3ZM302.804 206.114C303.011 224.04 305.121 241.958 309.139 259.555C324.151 258.616 339.523 258.101 354.999 258.021L355.7 258.018L355.7 206.114H302.804ZM299.982 203.309C299.973 183.845 302.182 164.389 306.602 145.332C298.002 144.717 289.542 143.953 281.279 143.041C269.772 141.773 258.75 140.231 248.341 138.439C240.228 159.111 236.179 181.199 236.325 203.309H299.982ZM299.999 206.114C300.204 224.1 302.304 242.077 306.304 259.738C295.815 260.433 285.511 261.336 275.479 262.441C266.182 263.466 257.182 264.658 248.539 266.006C240.851 246.8 236.828 226.473 236.366 206.114H299.999ZM302.787 203.309H355.7L355.7 147.194C340.064 147.109 324.543 146.549 309.436 145.529C304.997 164.517 302.778 183.909 302.787 203.309ZM293.958 80.3031C291.946 79.766 290.031 79.2056 288.217 78.6237C271.451 94.7604 258.656 113.842 249.965 134.448C260.012 136.157 270.642 137.635 281.74 138.859C290.172 139.789 298.812 140.565 307.601 141.185C312.319 122.28 319.227 103.798 328.316 86.1232C326.938 85.9908 325.571 85.8497 324.216 85.6999C312.901 84.4487 302.619 82.6149 293.958 80.3031ZM295.044 76.2376C293.912 75.9354 292.816 75.6271 291.759 75.3131C305.903 62.4708 322.692 51.6591 342.052 43.6518L344.864 42.4885C347.049 42.3495 349.237 42.2407 351.429 42.1623L330.423 82.0935C328.487 81.9188 326.571 81.7268 324.679 81.5176C313.52 80.2838 303.454 78.4826 295.044 76.2376ZM355.7 42.0479C355.349 42.0541 354.998 42.0611 354.647 42.0689L333.457 82.3517C340.675 82.9294 348.146 83.2694 355.7 83.3615L355.7 42.0479ZM355.7 87.5696C347.413 87.4697 339.218 87.0752 331.332 86.3976C322.163 104.033 315.198 122.491 310.444 141.38C325.225 142.361 340.405 142.902 355.7 142.986L355.7 87.5696Z" fill="#CA3B2C"/>
</g>
<mask id="mask1" mask-type="alpha" maskUnits="userSpaceOnUse" x="189" y="23" width="143" height="162">
<path d="M189.862 93.3332C211.599 59.5315 244.712 34.6235 283.214 23.113L331.417 184.374L189.862 93.3332Z" fill="#130947"/>
</mask>
<g mask="url(#mask1)">
<path fill-rule="evenodd" clip-rule="evenodd" d="M331.417 16.0619C331.036 16.0619 330.655 16.0632 330.274 16.0658C330.655 16.0646 331.036 16.0638 331.417 16.0632L331.417 16.0619ZM267.011 28.8738C287.078 20.5612 308.562 16.2132 330.274 16.0658C330.272 16.0658 330.27 16.0658 330.267 16.0658C308.557 16.2141 287.076 20.5621 267.011 28.8738ZM261.494 31.2759C276.692 26.4065 292.512 23.1224 308.606 21.4846C290.496 29.6073 274.71 40.199 261.311 52.6021C255.949 50.8293 251.714 48.9099 248.671 46.9488C244.332 44.1524 243.5 42.0149 243.5 40.9585C243.5 40.9236 243.501 40.8875 243.503 40.8503C249.292 37.3036 255.3 34.1052 261.494 31.2759ZM239.691 43.2565C240.553 45.738 242.807 48.1754 246.392 50.4858C249.372 52.406 253.233 54.2146 257.877 55.8714C241.18 72.218 228.437 91.4653 219.779 112.216C208.48 110.222 197.949 107.932 188.355 105.377C186.711 104.94 185.1 104.496 183.521 104.045C191.227 89.8552 200.95 76.8206 212.411 65.3592C220.729 57.0406 229.875 49.6375 239.691 43.2565ZM181.518 107.848C183.394 108.39 185.312 108.922 187.272 109.443C196.745 111.965 207.097 114.228 218.172 116.204C210.07 137.051 206.027 159.299 206.171 181.569H163.14C163.492 160.421 167.828 139.52 175.928 119.963C176.034 119.706 176.141 119.449 176.249 119.192C177.867 115.341 179.624 111.558 181.518 107.848ZM239.064 325.081C239.71 323.852 241.141 322.236 244.078 320.348C248.455 317.535 255.163 314.813 264.016 312.456C264.824 312.241 265.646 312.03 266.483 311.822C272.214 316.707 278.362 321.316 284.93 325.611L319.586 348.269C311.153 347.981 302.89 347.396 295.017 346.528C289.281 345.896 283.82 345.12 278.704 344.217C274.76 342.916 270.859 341.467 267.011 339.873C257.228 335.821 247.874 330.864 239.064 325.081ZM235.561 322.718C236.753 320.694 238.845 318.71 241.804 316.808C246.652 313.692 253.735 310.858 262.656 308.464C243.523 291.18 229.351 270.723 219.987 248.715C205.343 251.052 191.783 253.84 179.602 257.024C187.823 274.206 198.912 289.888 212.41 303.388C219.55 310.528 227.301 316.994 235.561 322.718ZM172.949 241.06C166.449 222.888 163.116 203.714 163.116 184.374H206.211C206.668 204.878 210.679 225.351 218.346 244.717C203.666 247.087 190.053 249.914 177.806 253.145C177.16 251.701 176.534 250.247 175.928 248.784C174.87 246.231 173.877 243.656 172.949 241.06ZM286.465 323.263C280.599 319.427 275.073 315.336 269.886 311.019C277.367 309.337 285.84 307.959 295.017 306.947C298.106 306.607 301.255 306.31 304.451 306.057L324.567 348.174L286.465 323.263ZM294.556 302.765C284.009 303.928 274.322 305.574 265.929 307.625C246.599 290.534 232.292 270.194 222.851 248.266C231.116 246.993 239.713 245.862 248.591 244.883C258.784 243.76 269.262 242.847 279.932 242.15C284.069 259.096 289.965 275.726 297.627 291.768L302.511 301.994C299.823 302.22 297.169 302.477 294.556 302.765ZM307.453 305.834L327.65 348.122L327.65 305.022C320.816 305.101 314.045 305.374 307.453 305.834ZM300.158 290.559L305.506 301.756C312.719 301.217 320.149 300.9 327.65 300.814V240.489C312.507 240.567 297.468 241.065 282.776 241.969C286.861 258.562 292.653 274.846 300.158 290.559ZM275.455 184.374C275.662 202.3 277.772 220.217 281.791 237.815C296.802 236.876 312.174 236.36 327.65 236.281L328.352 236.278L328.352 184.374H275.455ZM272.633 181.569C272.624 162.104 274.833 142.649 279.254 123.592C270.653 122.977 262.193 122.212 253.93 121.301C242.423 120.032 231.402 118.49 220.992 116.698C212.879 137.371 208.83 159.459 208.976 181.569H272.633ZM272.65 184.374C272.856 202.359 274.955 220.336 278.955 237.997C268.467 238.693 258.162 239.595 248.13 240.701C238.833 241.726 229.833 242.917 221.19 244.266C213.503 225.06 209.479 204.733 209.017 184.374H272.65ZM275.438 181.569H328.352L328.352 125.454C312.715 125.368 297.195 124.808 282.088 123.789C277.648 142.777 275.429 162.168 275.438 181.569ZM266.61 58.5627C264.598 58.0256 262.682 57.4652 260.869 56.8833C244.102 73.02 231.307 92.1015 222.617 112.708C232.663 114.417 243.293 115.895 254.392 117.119C262.823 118.048 271.463 118.825 280.252 119.445C284.97 100.54 291.878 82.0576 300.967 64.3828C299.59 64.2505 298.223 64.1093 296.868 63.9595C285.552 62.7084 275.27 60.8745 266.61 58.5627ZM267.695 54.4972C266.563 54.1951 265.468 53.8867 264.41 53.5727C278.555 40.7305 295.343 29.9187 314.703 21.9114L317.516 20.7481C319.7 20.6091 321.889 20.5003 324.08 20.4219L303.074 60.3531C301.138 60.1784 299.222 59.9864 297.33 59.7772C286.171 58.5434 276.105 56.7422 267.695 54.4972ZM328.352 20.3075C328.001 20.3137 327.65 20.3208 327.299 20.3285L306.108 60.6113C313.326 61.1891 320.798 61.529 328.352 61.6211L328.352 20.3075ZM328.352 65.8292C320.065 65.7294 311.87 65.3349 303.983 64.6572C294.814 82.2924 287.849 100.75 283.095 119.639C297.876 120.621 313.056 121.162 328.352 121.246L328.352 65.8292Z" fill="#CA3B2C"/>
</g>
<mask id="mask2" mask-type="alpha" maskUnits="userSpaceOnUse" x="159" y="122" width="168" height="92">
<path d="M159.69 191.54C162.976 166.941 171.661 143.372 185.124 122.523L326.508 213.828L159.69 191.54Z" fill="#130947"/>
</mask>
<g mask="url(#mask2)">
<path fill-rule="evenodd" clip-rule="evenodd" d="M326.509 45.5164C326.128 45.5164 325.747 45.5177 325.366 45.5202C325.747 45.5191 326.128 45.5183 326.509 45.5177L326.509 45.5164ZM262.103 58.3283C282.17 50.0156 303.653 45.6676 325.366 45.5202C325.364 45.5202 325.361 45.5202 325.359 45.5203C303.648 45.6686 282.168 50.0165 262.103 58.3283ZM256.585 60.7303C271.784 55.861 287.604 52.5768 303.698 50.9391C285.588 59.0618 269.802 69.6535 256.403 82.0565C251.041 80.2838 246.806 78.3644 243.763 76.4033C239.424 73.6069 238.592 71.4693 238.592 70.413C238.592 70.3781 238.593 70.342 238.595 70.3048C244.384 66.7581 250.391 63.5597 256.585 60.7303ZM234.783 72.711C235.644 75.1925 237.899 77.6298 241.484 79.9403C244.464 81.8605 248.325 83.6691 252.968 85.3259C236.271 101.672 223.528 120.92 214.87 141.67C203.571 139.676 193.041 137.386 183.446 134.832C181.803 134.394 180.192 133.95 178.613 133.5C186.319 119.31 196.042 106.275 207.502 94.8137C215.82 86.4951 224.967 79.092 234.783 72.711ZM176.61 137.303C178.486 137.844 180.404 138.376 182.364 138.898C191.836 141.42 202.189 143.683 213.264 145.659C205.162 166.505 201.119 188.753 201.263 211.023H158.232C158.584 189.875 162.919 168.974 171.019 149.418C171.126 149.161 171.233 148.904 171.341 148.647C172.958 144.796 174.716 141.012 176.61 137.303ZM234.156 354.536C234.801 353.307 236.232 351.69 239.17 349.802C243.547 346.989 250.255 344.267 259.107 341.91C259.915 341.695 260.738 341.484 261.575 341.277C267.306 346.161 273.454 350.77 280.022 355.065L314.678 377.724C306.245 377.435 297.981 376.851 290.109 375.983C284.373 375.35 278.911 374.574 273.795 373.671C269.851 372.37 265.951 370.922 262.103 369.328C252.32 365.275 242.966 360.319 234.156 354.536ZM230.652 352.172C231.845 350.148 233.936 348.164 236.895 346.262C241.744 343.146 248.827 340.312 257.747 337.918C238.615 320.634 224.443 300.178 215.079 278.17C200.435 280.506 186.875 283.295 174.694 286.478C182.915 303.66 194.003 319.343 207.502 332.842C214.642 339.983 222.393 346.449 230.652 352.172ZM168.041 270.514C161.541 252.343 158.208 233.169 158.208 213.829H201.303C201.76 234.332 205.771 254.806 213.437 274.171C198.758 276.542 185.145 279.369 172.898 282.599C172.252 281.155 171.625 279.702 171.019 278.238C169.962 275.686 168.969 273.11 168.041 270.514ZM281.557 352.717C275.69 348.881 270.165 344.791 264.978 340.474C272.459 338.792 280.932 337.414 290.109 336.402C293.198 336.061 296.347 335.764 299.543 335.512L319.658 377.629L281.557 352.717ZM289.648 332.219C279.101 333.382 269.414 335.028 261.021 337.08C241.691 319.989 227.384 299.648 217.943 277.72C226.208 276.447 234.805 275.316 243.683 274.338C253.875 273.215 264.354 272.302 275.024 271.604C279.161 288.55 285.057 305.181 292.719 321.223L297.602 331.448C294.915 331.674 292.261 331.931 289.648 332.219ZM302.545 335.288L322.742 377.577L322.742 334.476C315.908 334.556 309.137 334.829 302.545 335.288ZM295.25 320.014L300.597 331.21C307.81 330.671 315.241 330.355 322.742 330.268V269.943C307.599 270.021 292.56 270.519 277.868 271.424C281.953 288.016 287.745 304.301 295.25 320.014ZM270.547 213.829C270.754 231.754 272.864 249.672 276.882 267.269C291.894 266.33 307.266 265.815 322.742 265.735L323.443 265.732L323.443 213.829H270.547ZM267.725 211.023C267.716 191.559 269.925 172.103 274.345 153.046C265.745 152.431 257.285 151.667 249.022 150.756C237.515 149.487 226.493 147.945 216.084 146.153C207.971 166.825 203.922 188.914 204.068 211.023H267.725ZM267.742 213.829C267.947 231.814 270.047 249.791 274.047 267.452C263.558 268.147 253.254 269.05 243.222 270.155C233.925 271.18 224.925 272.372 216.282 273.72C208.594 254.514 204.571 234.187 204.109 213.829H267.742ZM270.53 211.023H323.443L323.444 154.908C307.807 154.823 292.287 154.263 277.18 153.243C272.74 172.231 270.521 191.623 270.53 211.023ZM261.702 88.0172C259.69 87.4801 257.774 86.9196 255.96 86.3378C239.194 102.474 226.399 121.556 217.709 142.162C227.755 143.871 238.385 145.349 249.483 146.573C257.915 147.503 266.555 148.279 275.344 148.899C280.062 129.994 286.97 111.512 296.059 93.8373C294.681 93.7049 293.315 93.5638 291.959 93.414C280.644 92.1628 270.362 90.329 261.702 88.0172ZM262.787 83.9517C261.655 83.6495 260.56 83.3411 259.502 83.0272C273.647 70.1849 290.435 59.3732 309.795 51.3659L312.608 50.2026C314.792 50.0636 316.981 49.9548 319.172 49.8763L298.166 89.8076C296.23 89.6329 294.314 89.4409 292.422 89.2317C281.263 87.9979 271.197 86.1967 262.787 83.9517ZM323.443 49.762C323.092 49.7682 322.741 49.7752 322.39 49.783L301.2 90.0658C308.418 90.6435 315.889 90.9834 323.443 91.0756L323.443 49.762ZM323.444 95.2837C315.157 95.1838 306.962 94.7893 299.075 94.1117C289.906 111.747 282.941 130.205 278.187 149.094C292.968 150.076 308.148 150.616 323.444 150.7L323.444 95.2837Z" fill="#CA3B2C"/>
</g>
<mask id="mask3" mask-type="alpha" maskUnits="userSpaceOnUse" x="171" y="222" width="169" height="149">
<path d="M228.732 370.411C208.067 352.249 192.169 329.298 182.43 303.567C172.691 277.836 169.408 250.11 172.868 222.816L339.832 243.984L228.732 370.411Z" fill="#130947"/>
</mask>
<g mask="url(#mask3)">
<path fill-rule="evenodd" clip-rule="evenodd" d="M339.832 75.6722C339.451 75.6722 339.07 75.6735 338.689 75.6761C339.07 75.675 339.451 75.6741 339.832 75.6736L339.832 75.6722ZM275.426 88.4842C295.493 80.1715 316.977 75.8235 338.689 75.6761C338.687 75.6761 338.685 75.6761 338.682 75.6761C316.972 75.8245 295.491 80.1724 275.426 88.4842ZM269.909 90.8862C285.107 86.0169 300.927 82.7327 317.021 81.0949C298.911 89.2177 283.126 99.8093 269.726 112.212C264.365 110.44 260.129 108.52 257.086 106.559C252.747 103.763 251.915 101.625 251.915 100.569C251.915 100.534 251.916 100.498 251.918 100.461C257.707 96.914 263.715 93.7156 269.909 90.8862ZM248.106 102.867C248.968 105.348 251.222 107.786 254.807 110.096C257.787 112.016 261.649 113.825 266.292 115.482C249.595 131.828 236.852 151.076 228.194 171.826C216.895 169.832 206.364 167.542 196.77 164.988C195.126 164.55 193.515 164.106 191.936 163.656C199.642 149.466 209.365 136.431 220.826 124.97C229.144 116.651 238.29 109.248 248.106 102.867ZM189.933 167.459C191.809 168 193.727 168.532 195.687 169.054C205.16 171.576 215.512 173.838 226.587 175.814C218.485 196.661 214.442 218.909 214.586 241.179H171.555C171.907 220.031 176.243 199.13 184.343 179.574C184.449 179.316 184.556 179.059 184.664 178.803C186.282 174.952 188.039 171.168 189.933 167.459ZM247.479 384.692C248.125 383.463 249.556 381.846 252.493 379.958C256.87 377.145 263.578 374.423 272.431 372.066C273.239 371.851 274.061 371.64 274.898 371.433C280.629 376.317 286.777 380.926 293.345 385.221L328.001 407.879C319.568 407.591 311.305 407.007 303.432 406.139C297.696 405.506 292.235 404.73 287.119 403.827C283.175 402.526 279.274 401.078 275.426 399.484C265.643 395.431 256.289 390.475 247.479 384.692ZM243.976 382.328C245.168 380.304 247.26 378.32 250.219 376.418C255.067 373.302 262.15 370.468 271.071 368.074C251.938 350.79 237.766 330.334 228.402 308.326C213.758 310.662 200.198 313.451 188.017 316.634C196.239 333.816 207.327 349.498 220.826 362.998C227.965 370.139 235.716 376.604 243.976 382.328ZM181.364 300.67C174.864 282.499 171.532 263.324 171.531 243.984H214.626C215.083 264.488 219.094 284.962 226.761 304.327C212.081 306.698 198.468 309.524 186.221 312.755C185.575 311.311 184.949 309.857 184.343 308.394C183.285 305.841 182.292 303.266 181.364 300.67ZM294.88 382.873C289.014 379.037 283.488 374.947 278.301 370.63C285.782 368.948 294.255 367.57 303.432 366.558C306.521 366.217 309.67 365.92 312.866 365.668L332.982 407.784L294.88 382.873ZM302.971 362.375C292.424 363.538 282.737 365.184 274.344 367.236C255.014 350.145 240.707 329.804 231.267 307.876C239.531 306.603 248.128 305.472 257.006 304.494C267.199 303.371 277.677 302.458 288.347 301.76C292.484 318.706 298.38 335.337 306.042 351.379L310.926 361.604C308.238 361.83 305.584 362.087 302.971 362.375ZM315.868 365.444L336.065 407.733L336.065 364.632C329.231 364.712 322.46 364.985 315.868 365.444ZM308.573 350.17L313.921 361.366C321.134 360.827 328.564 360.51 336.065 360.424V300.099C320.922 300.177 305.883 300.675 291.191 301.58C295.276 318.172 301.068 334.456 308.573 350.17ZM283.87 243.984C284.077 261.91 286.187 279.828 290.206 297.425C305.218 296.486 320.589 295.97 336.065 295.891L336.767 295.888L336.767 243.984H283.87ZM281.048 241.179C281.039 221.715 283.248 202.259 287.669 183.202C279.068 182.587 270.608 181.823 262.346 180.911C250.838 179.642 239.817 178.101 229.407 176.309C221.294 196.981 217.245 219.069 217.391 241.179H281.048ZM281.065 243.984C281.271 261.97 283.37 279.947 287.37 297.608C276.882 298.303 266.577 299.206 256.545 300.311C247.248 301.336 238.248 302.528 229.605 303.876C221.918 284.67 217.894 264.343 217.432 243.984H281.065ZM283.853 241.179H336.767L336.767 185.064C321.131 184.979 305.61 184.419 290.503 183.399C286.063 202.387 283.844 221.779 283.853 241.179ZM275.025 118.173C273.013 117.636 271.097 117.076 269.284 116.494C252.517 132.63 239.722 151.712 231.032 172.318C241.078 174.027 251.708 175.505 262.807 176.729C271.238 177.659 279.878 178.435 288.667 179.055C293.385 160.15 300.293 141.668 309.382 123.993C308.005 123.861 306.638 123.72 305.283 123.57C293.967 122.319 283.685 120.485 275.025 118.173ZM276.11 114.108C274.978 113.805 273.883 113.497 272.825 113.183C286.97 100.341 303.758 89.529 323.118 81.5218L325.931 80.3585C328.115 80.2195 330.304 80.1107 332.495 80.0322L311.489 119.963C309.553 119.789 307.637 119.597 305.745 119.388C294.586 118.154 284.52 116.353 276.11 114.108ZM336.767 79.9179C336.416 79.9241 336.065 79.9311 335.714 79.9389L314.523 120.222C321.741 120.799 329.213 121.139 336.767 121.231L336.767 79.9179ZM336.767 125.44C328.48 125.34 320.285 124.945 312.398 124.268C303.229 141.903 296.264 160.361 291.51 179.25C306.291 180.231 321.471 180.772 336.767 180.856L336.767 125.44Z" fill="#CA3B2C"/>
</g>
<mask id="mask4" mask-type="alpha" maskUnits="userSpaceOnUse" x="249" y="253" width="114" height="169">
<path d="M362.272 421.412C320.598 421.412 280.406 405.95 249.476 378.018L362.272 253.101L362.272 421.412Z" fill="#130947"/>
</mask>
<g mask="url(#mask4)">
<path fill-rule="evenodd" clip-rule="evenodd" d="M362.272 84.7905C361.89 84.7911 361.508 84.7919 361.126 84.7931C339.414 84.941 317.933 89.289 297.867 97.6011C296.012 98.3695 294.172 99.1704 292.349 100.003C307.547 95.1339 323.368 91.8497 339.461 90.2119C321.352 98.3346 305.566 108.926 292.166 121.329C286.805 119.557 282.57 117.637 279.527 115.676C275.187 112.88 274.356 110.742 274.356 109.686C274.356 109.651 274.357 109.615 274.358 109.578C273.077 110.363 271.806 111.165 270.546 111.984C271.408 114.465 273.662 116.903 277.248 119.213C280.227 121.133 284.089 122.942 288.732 124.599C272.035 140.945 259.292 160.193 250.634 180.943C239.335 178.949 228.804 176.659 219.21 174.104C217.567 173.667 215.955 173.223 214.376 172.773C213.693 174.031 213.025 175.299 212.373 176.575C214.249 177.117 216.168 177.649 218.128 178.171C227.6 180.692 237.953 182.955 249.027 184.931C240.926 205.778 236.882 228.026 237.026 250.296H193.995C193.98 251.231 193.972 252.166 193.972 253.101C193.972 253.101 193.972 253.101 193.972 253.101H237.067C237.523 273.605 241.535 294.079 249.201 313.444C234.521 315.814 220.909 318.641 208.662 321.872C209.244 323.173 209.843 324.466 210.458 325.751C222.639 322.568 236.199 319.779 250.843 317.442C256.333 330.348 263.477 342.719 272.305 354.23L274.216 352.104C265.83 341.095 259.003 329.294 253.707 316.993C261.971 315.72 270.568 314.589 279.447 313.611C289.639 312.488 300.117 311.575 310.788 310.877C310.821 311.014 310.855 311.152 310.889 311.289L315.299 306.381C314.413 306.433 313.529 306.487 312.646 306.542C308.628 288.944 306.518 271.027 306.311 253.101H359.207L359.207 257.512L362.272 254.101L362.272 253.101L362.272 84.7905ZM309.559 412.944C314.675 413.847 320.136 414.623 325.873 415.255C333.745 416.124 342.008 416.708 350.441 416.996L315.786 394.338C309.217 390.043 303.069 385.434 297.339 380.55C296.502 380.757 295.679 380.968 294.871 381.183C286.018 383.54 279.31 386.262 274.934 389.075C271.996 390.963 270.565 392.58 269.92 393.809C278.729 399.591 288.084 404.548 297.867 408.601C301.715 410.195 305.615 411.643 309.559 412.944ZM266.416 391.445C267.608 389.421 269.7 387.437 272.659 385.535C277.507 382.419 284.591 379.585 293.511 377.191C285.598 370.042 278.533 362.35 272.305 354.23L250.283 378.741C255.403 383.306 260.791 387.547 266.416 391.445ZM359.207 257.512L359.207 305.005L358.506 305.008C343.94 305.083 329.467 305.544 315.299 306.381L359.207 257.512ZM310.889 311.289L274.216 352.104C280.78 360.719 288.298 368.849 296.785 376.353C305.177 374.301 314.865 372.655 325.412 371.492C328.024 371.204 330.678 370.947 333.366 370.721L328.482 360.496C320.883 344.584 315.02 328.092 310.889 311.289ZM317.321 391.99C311.454 388.154 305.929 384.063 300.741 379.747C308.223 378.065 316.696 376.687 325.873 375.675C328.962 375.334 332.111 375.037 335.307 374.784L355.422 416.901L317.321 391.99ZM338.309 374.561L358.506 416.85L358.506 373.749C351.672 373.829 344.901 374.102 338.309 374.561ZM331.013 359.287L336.361 370.483C343.574 369.944 351.005 369.627 358.506 369.541V309.216C343.362 309.294 328.324 309.792 313.632 310.697C317.716 327.289 323.509 343.573 331.013 359.287ZM303.489 250.296C303.48 230.832 305.689 211.376 310.109 192.319C301.508 191.704 293.049 190.94 284.786 190.028C273.279 188.759 262.257 187.218 251.848 185.426C243.735 206.098 239.686 228.186 239.832 250.296H303.489ZM303.506 253.101C303.711 271.087 305.811 289.064 309.811 306.725C299.322 307.42 289.018 308.323 278.986 309.428C269.688 310.453 260.689 311.645 252.046 312.993C244.358 293.787 240.334 273.46 239.873 253.101H303.506ZM306.294 250.296H359.207L359.207 194.181C343.571 194.096 328.05 193.535 312.943 192.516C308.504 211.504 306.285 230.896 306.294 250.296ZM297.465 127.29C295.453 126.753 293.538 126.192 291.724 125.611C274.957 141.747 262.162 160.829 253.472 181.435C263.519 183.144 274.148 184.622 285.247 185.846C293.679 186.776 302.319 187.552 311.107 188.172C315.826 169.267 322.733 150.785 331.822 133.11C330.445 132.978 329.078 132.837 327.723 132.687C316.407 131.436 306.126 129.602 297.465 127.29ZM298.55 123.225C297.418 122.922 296.323 122.614 295.266 122.3C309.41 109.458 326.199 98.646 345.559 90.6387L348.371 89.4754C350.556 89.3364 352.744 89.2276 354.936 89.1492L333.93 129.08C331.994 128.906 330.078 128.714 328.185 128.504C317.027 127.271 306.961 125.47 298.55 123.225ZM359.207 89.0348C358.856 89.041 358.505 89.0481 358.154 89.0558L336.963 129.339C344.182 129.916 351.653 130.256 359.207 130.348L359.207 89.0348ZM359.207 134.557C350.92 134.457 342.725 134.062 334.838 133.385C325.67 151.02 318.705 169.478 313.951 188.366C328.732 189.348 343.912 189.889 359.207 189.973L359.207 134.557Z" fill="#CA3B2C"/>
</g>
<path d="M233.596 526.424H219.004C218.94 530.648 219.708 534.296 221.308 537.368C222.908 540.44 225.052 542.968 227.74 544.952C230.492 546.936 233.628 548.376 237.148 549.272C240.732 550.232 244.412 550.712 248.188 550.712C252.86 550.712 256.956 550.168 260.476 549.08C264.06 547.992 267.036 546.488 269.404 544.568C271.836 542.584 273.66 540.248 274.876 537.56C276.092 534.872 276.7 531.96 276.7 528.824C276.7 524.984 275.868 521.848 274.204 519.416C272.604 516.92 270.684 514.936 268.444 513.464C266.204 511.992 263.932 510.936 261.628 510.296C259.388 509.592 257.628 509.112 256.348 508.856C252.06 507.768 248.572 506.872 245.884 506.168C243.26 505.464 241.18 504.76 239.644 504.056C238.172 503.352 237.18 502.584 236.668 501.752C236.156 500.92 235.9 499.832 235.9 498.488C235.9 497.016 236.22 495.8 236.86 494.84C237.5 493.88 238.3 493.08 239.26 492.44C240.284 491.8 241.404 491.352 242.62 491.096C243.836 490.84 245.052 490.712 246.268 490.712C248.124 490.712 249.82 490.872 251.356 491.192C252.956 491.512 254.364 492.056 255.58 492.824C256.796 493.592 257.756 494.648 258.46 495.992C259.228 497.336 259.676 499.032 259.804 501.08H274.396C274.396 497.112 273.628 493.752 272.092 491C270.62 488.184 268.604 485.88 266.044 484.088C263.484 482.296 260.54 481.016 257.212 480.248C253.948 479.416 250.524 479 246.94 479C243.868 479 240.796 479.416 237.724 480.248C234.652 481.08 231.9 482.36 229.468 484.088C227.036 485.816 225.052 487.992 223.516 490.616C222.044 493.176 221.308 496.216 221.308 499.736C221.308 502.872 221.884 505.56 223.036 507.8C224.252 509.976 225.82 511.8 227.74 513.272C229.66 514.744 231.836 515.96 234.268 516.92C236.7 517.816 239.196 518.584 241.756 519.224C244.252 519.928 246.716 520.568 249.148 521.144C251.58 521.72 253.756 522.392 255.676 523.16C257.596 523.928 259.132 524.888 260.284 526.04C261.5 527.192 262.108 528.696 262.108 530.552C262.108 532.28 261.66 533.72 260.764 534.872C259.868 535.96 258.748 536.824 257.404 537.464C256.06 538.104 254.62 538.552 253.084 538.808C251.548 539 250.108 539.096 248.764 539.096C246.78 539.096 244.86 538.872 243.004 538.424C241.148 537.912 239.516 537.176 238.108 536.216C236.764 535.192 235.676 533.88 234.844 532.28C234.012 530.68 233.596 528.728 233.596 526.424Z" fill="black"/>
<path d="M308.035 493.304V549.176H323.107V493.304H343.651V480.632H287.491V493.304H308.035Z" fill="black"/>
<path d="M370.851 515.192C370.851 512.184 371.171 509.272 371.811 506.456C372.515 503.64 373.603 501.144 375.075 498.968C376.547 496.728 378.467 494.968 380.835 493.688C383.203 492.344 386.083 491.672 389.475 491.672C392.867 491.672 395.747 492.344 398.115 493.688C400.483 494.968 402.403 496.728 403.875 498.968C405.347 501.144 406.403 503.64 407.043 506.456C407.747 509.272 408.099 512.184 408.099 515.192C408.099 518.072 407.747 520.888 407.043 523.64C406.403 526.328 405.347 528.76 403.875 530.936C402.403 533.112 400.483 534.872 398.115 536.216C395.747 537.496 392.867 538.136 389.475 538.136C386.083 538.136 383.203 537.496 380.835 536.216C378.467 534.872 376.547 533.112 375.075 530.936C373.603 528.76 372.515 526.328 371.811 523.64C371.171 520.888 370.851 518.072 370.851 515.192ZM355.779 515.192C355.779 520.184 356.547 524.856 358.083 529.208C359.619 533.496 361.827 537.24 364.707 540.44C367.587 543.64 371.107 546.168 375.267 548.024C379.491 549.816 384.227 550.712 389.475 550.712C394.787 550.712 399.523 549.816 403.683 548.024C407.843 546.168 411.363 543.64 414.243 540.44C417.123 537.24 419.331 533.496 420.867 529.208C422.403 524.856 423.171 520.184 423.171 515.192C423.171 510.072 422.403 505.336 420.867 500.984C419.331 496.568 417.123 492.728 414.243 489.464C411.363 486.2 407.843 483.64 403.683 481.784C399.523 479.928 394.787 479 389.475 479C384.227 479 379.491 479.928 375.267 481.784C371.107 483.64 367.587 486.2 364.707 489.464C361.827 492.728 359.619 496.568 358.083 500.984C356.547 505.336 355.779 510.072 355.779 515.192Z" fill="black"/>
<path d="M455.746 512.888V492.344H467.458C469.186 492.344 470.85 492.472 472.45 492.728C474.05 492.984 475.458 493.496 476.674 494.264C477.89 494.968 478.85 495.992 479.554 497.336C480.322 498.68 480.706 500.44 480.706 502.616C480.706 504.792 480.322 506.552 479.554 507.896C478.85 509.24 477.89 510.296 476.674 511.064C475.458 511.768 474.05 512.248 472.45 512.504C470.85 512.76 469.186 512.888 467.458 512.888H455.746ZM440.674 480.632V549.176H455.746V524.6H471.586C475.874 524.6 479.522 523.992 482.53 522.776C485.538 521.496 487.97 519.832 489.826 517.784C491.746 515.736 493.122 513.4 493.954 510.776C494.85 508.088 495.298 505.368 495.298 502.616C495.298 499.8 494.85 497.08 493.954 494.456C493.122 491.832 491.746 489.496 489.826 487.448C487.97 485.4 485.538 483.768 482.53 482.552C479.522 481.272 475.874 480.632 471.586 480.632H440.674Z" fill="black"/>
<path d="M124 597.636H165.598V608.032H149.261V666.364H140.265V608.032H124V597.636Z" fill="black"/>
<path d="M171.196 597.636H195.737C201.399 597.636 205.645 599.273 208.476 602.545C211.306 605.818 212.722 610.374 212.722 616.214C212.722 619.487 212.362 622.214 211.642 624.396C210.923 626.513 210.083 628.246 209.123 629.594C208.164 630.877 207.204 631.807 206.245 632.385C205.333 632.963 204.661 633.348 204.229 633.54V633.733C204.997 633.861 205.813 634.182 206.676 634.695C207.588 635.209 208.428 636.043 209.195 637.198C209.963 638.289 210.587 639.733 211.067 641.529C211.594 643.326 211.858 645.572 211.858 648.267C211.858 652.31 212.074 656 212.506 659.337C212.986 662.61 213.705 664.952 214.665 666.364H205.021C204.349 664.888 203.942 663.251 203.798 661.455C203.702 659.658 203.654 657.925 203.654 656.257C203.654 653.112 203.51 650.417 203.222 648.171C202.934 645.861 202.406 643.968 201.639 642.492C200.871 640.952 199.815 639.829 198.472 639.123C197.176 638.417 195.497 638.064 193.434 638.064H180.192V666.364H171.196V597.636ZM180.192 628.92H194.945C197.824 628.92 200.007 628.021 201.495 626.225C202.982 624.364 203.726 621.604 203.726 617.947C203.726 615.765 203.486 614 203.006 612.652C202.526 611.241 201.854 610.15 200.991 609.38C200.175 608.61 199.216 608.096 198.112 607.84C197.057 607.583 195.953 607.455 194.801 607.455H180.192V628.92Z" fill="black"/>
<path d="M235.256 597.636H244.827L264.619 666.364H254.975L250.153 648.171H229.642L224.82 666.364H215.536L235.256 597.636ZM232.089 639.027H247.778L240.077 609.476H239.862L232.089 639.027Z" fill="black"/>
<path d="M269.152 597.636H304.633V608.032H278.149V626.032H301.395V635.85H278.149V666.364H269.152V597.636Z" fill="black"/>
<path d="M311.454 597.636H346.935V608.032H320.45V626.032H343.696V635.85H320.45V666.364H311.454V597.636Z" fill="black"/>
<path d="M353.756 597.636H362.752V666.364H353.756V597.636Z" fill="black"/>
<path d="M408.116 619.487C407.732 617.497 407.204 615.668 406.532 614C405.861 612.332 404.997 610.888 403.941 609.668C402.886 608.449 401.638 607.519 400.199 606.877C398.808 606.171 397.176 605.818 395.305 605.818C392.57 605.818 390.195 606.556 388.18 608.032C386.213 609.508 384.606 611.497 383.358 614C382.111 616.438 381.175 619.23 380.551 622.374C379.976 625.519 379.688 628.727 379.688 632C379.688 635.273 379.976 638.481 380.551 641.626C381.175 644.77 382.111 647.594 383.358 650.096C384.606 652.535 386.213 654.492 388.18 655.968C390.195 657.444 392.57 658.182 395.305 658.182C397.32 658.182 399.095 657.733 400.631 656.834C402.166 655.872 403.486 654.588 404.589 652.984C405.693 651.316 406.556 649.39 407.18 647.209C407.804 645.027 408.212 642.684 408.404 640.182H417.184C416.992 644.289 416.32 648.043 415.169 651.444C414.065 654.845 412.554 657.797 410.635 660.299C408.715 662.738 406.46 664.631 403.869 665.979C401.279 667.326 398.424 668 395.305 668C391.467 668 388.012 667.07 384.942 665.209C381.919 663.283 379.352 660.684 377.241 657.412C375.13 654.139 373.498 650.321 372.347 645.957C371.243 641.594 370.692 636.941 370.692 632C370.692 627.123 371.243 622.503 372.347 618.139C373.498 613.775 375.13 609.957 377.241 606.684C379.352 603.412 381.919 600.813 384.942 598.888C388.012 596.963 391.467 596 395.305 596C398.184 596 400.895 596.545 403.438 597.636C405.981 598.663 408.212 600.203 410.131 602.257C412.098 604.246 413.681 606.684 414.881 609.572C416.08 612.46 416.824 615.765 417.112 619.487H408.116Z" fill="black"/>
<path d="M425.005 597.636H434.002V628.92L456.888 597.636H467.971L447.46 625.07L469.41 666.364H458.183L441.342 633.54L434.002 643.262V666.364H425.005V597.636Z" fill="black"/>
<path d="M473.914 597.636H482.91V666.364H473.914V597.636Z" fill="black"/>
<path d="M493.224 597.636H502.724L526.186 648.267H526.33V597.636H534.895V666.364H525.395L502.005 615.829H501.789V666.364H493.224V597.636Z" fill="black"/>
<path d="M590 666.364H584.242L582.875 658.278C580.476 661.936 578.077 664.471 575.678 665.882C573.279 667.294 570.52 668 567.402 668C563.563 668 560.109 667.07 557.038 665.209C554.015 663.283 551.448 660.684 549.337 657.412C547.226 654.139 545.595 650.321 544.443 645.957C543.34 641.594 542.788 636.941 542.788 632C542.788 627.123 543.34 622.503 544.443 618.139C545.595 613.775 547.226 609.957 549.337 606.684C551.448 603.412 554.015 600.813 557.038 598.888C560.109 596.963 563.563 596 567.402 596C570.184 596 572.823 596.513 575.318 597.54C577.861 598.503 580.116 599.979 582.083 601.968C584.051 603.893 585.682 606.332 586.977 609.283C588.273 612.235 589.088 615.636 589.424 619.487H580.644C580.404 617.241 579.876 615.283 579.061 613.615C578.293 611.882 577.309 610.438 576.11 609.283C574.91 608.128 573.567 607.262 572.08 606.684C570.592 606.107 569.033 605.818 567.402 605.818C564.667 605.818 562.292 606.556 560.277 608.032C558.31 609.508 556.702 611.497 555.455 614C554.207 616.438 553.272 619.23 552.648 622.374C552.072 625.519 551.784 628.727 551.784 632C551.784 635.273 552.072 638.481 552.648 641.626C553.272 644.77 554.207 647.594 555.455 650.096C556.702 652.535 558.31 654.492 560.277 655.968C562.292 657.444 564.667 658.182 567.402 658.182C569.705 658.246 571.744 657.861 573.519 657.027C575.294 656.128 576.782 654.877 577.981 653.273C579.229 651.604 580.164 649.583 580.788 647.209C581.412 644.834 581.748 642.203 581.796 639.316H568.121V630.171H590V666.364Z" fill="black"/>
</svg>
