<svg width="700" height="700" viewBox="0 0 700 700" fill="none" xmlns="http://www.w3.org/2000/svg">
<path fill-rule="evenodd" clip-rule="evenodd" d="M384.731 78.5451C382.663 78.4276 380.591 78.3373 378.517 78.2744C384.469 90.3435 389.718 102.667 394.263 115.184C398.4 114.9 402.463 114.537 406.421 114.1C414.755 113.178 422.459 111.94 429.297 110.441C416.645 97.9915 401.771 87.1661 384.731 78.5451ZM371.389 73.056L371.389 73.0559L371.389 151.761L371.389 126.868V121.959H371.389V115.959L371.389 97.0625V78.1664L371.389 73.056ZM390.099 115.443C386.34 105.195 382.103 95.0791 377.389 85.1304L377.389 115.906C381.668 115.831 385.915 115.676 390.099 115.443ZM377.389 121.907C382.381 121.821 387.334 121.628 392.201 121.331C398.278 138.832 402.974 156.699 406.284 174.768C396.753 175.209 387.097 175.469 377.389 175.546V126.868V121.907ZM377.389 181.546C387.446 181.467 397.451 181.193 407.324 180.726C410.386 199.177 412.009 217.82 412.19 236.478H377.389V181.546ZM371.389 236.478V181.569H371.389L371.389 236.478H371.389ZM371.389 240.478L371.389 380.308L371.389 362.894V356.894L371.389 350.582V298.374V292.374L371.389 247.14V240.478H371.389ZM377.389 240.478H412.206C412.182 258.1 410.87 275.725 408.268 293.207C398.078 292.743 387.759 292.472 377.389 292.396L377.389 247.14V240.478ZM416.206 240.478C416.182 258.163 414.876 275.852 412.283 293.4C426.925 294.141 441.28 295.28 455.116 296.805C460.754 297.426 466.282 298.109 471.687 298.851C478.436 280.001 481.891 260.24 482.138 240.478H416.206ZM486.139 240.478C485.896 260.424 482.456 280.37 475.736 299.421C493.777 302.025 510.383 305.297 525.046 309.145C525.676 307.736 526.287 306.316 526.878 304.888C535.336 284.468 539.689 262.581 539.689 240.478L486.139 240.478ZM539.642 236.478H486.145C485.949 215.268 482.142 194.126 474.827 174.132C490.073 171.767 504.145 168.884 516.676 165.547C518.29 165.118 519.876 164.681 521.433 164.238C523.397 168.104 525.214 172.05 526.878 176.068C534.825 195.256 539.149 215.738 539.642 236.478ZM482.144 236.478H416.19C416.011 217.753 414.394 199.045 411.345 180.525C424.558 179.827 437.513 178.784 450.017 177.405C457.136 176.62 464.069 175.731 470.786 174.742C478.126 194.52 481.947 215.464 482.144 236.478ZM377.389 298.396C387.444 298.47 397.448 298.73 407.329 299.171C404.056 318.893 399.132 338.411 392.554 357.513C388.224 357.256 383.83 357.079 379.402 356.982C378.732 356.967 378.06 356.954 377.389 356.943L377.389 350.582V298.396ZM454.459 302.769C440.547 301.236 426.098 300.095 411.352 299.361C408.101 319.105 403.215 338.648 396.69 357.783C400.765 358.075 404.775 358.437 408.69 358.869C409.43 358.95 410.164 359.034 410.895 359.12C418.363 360.002 425.375 361.128 431.77 362.472C448.615 345.325 461.154 325.604 469.51 304.61C464.595 303.947 459.574 303.333 454.459 302.769ZM379.363 362.982C383.097 363.065 386.805 363.206 390.468 363.404C386.62 373.977 382.261 384.414 377.389 394.68L377.389 382.842V362.944C378.047 362.955 378.705 362.968 379.363 362.982ZM404.35 401.233C398.243 401.829 391.925 402.257 385.495 402.512L403.35 390.838C413.67 384.091 423.003 376.605 431.36 368.519C433.949 369.075 436.423 369.667 438.77 370.292C439.318 370.438 439.857 370.585 440.387 370.733C448.342 372.959 454.305 375.456 458.199 377.959C458.373 378.071 458.539 378.181 458.7 378.289C461.112 379.912 462.132 381.171 462.559 381.955C454.096 387.409 445.141 392.106 435.794 395.978C435.458 396.117 435.122 396.255 434.785 396.392C426.951 398.247 417.914 399.761 408.033 400.851C406.814 400.985 405.586 401.113 404.35 401.233ZM401.161 387.49C410.444 381.421 418.91 374.74 426.569 367.554C421.467 366.594 415.984 365.763 410.195 365.079C409.479 364.995 408.758 364.913 408.033 364.833C403.675 364.352 399.195 363.959 394.631 363.655C390.543 375.004 385.872 386.201 380.619 397.201L378.035 402.611L401.161 387.49ZM440.313 364.494C439.027 364.151 437.706 363.819 436.352 363.497C452.96 346.128 465.335 326.269 473.595 305.175C491.507 307.72 507.959 310.918 522.456 314.67C514.315 331.249 503.489 346.398 490.395 359.492C483.345 366.543 475.699 372.936 467.556 378.607C466.42 376.779 464.55 374.985 461.969 373.257C461.797 373.141 461.621 373.027 461.443 372.912C456.851 369.96 450.253 367.262 441.988 364.951C441.437 364.797 440.879 364.644 440.313 364.494ZM515.132 159.749C502.484 163.117 488.185 166.027 472.621 168.4C464.694 148.791 453.322 130.413 438.604 114.322C446.67 112.084 453.099 109.462 457.556 106.59C460.854 104.464 463.026 102.232 464.023 99.9558C473.495 106.201 482.334 113.402 490.395 121.464C501.496 132.565 510.966 145.143 518.553 158.816C517.429 159.13 516.289 159.441 515.132 159.749ZM407.08 120.064C417.059 118.96 426.233 117.404 434.201 115.466C449.067 131.325 460.548 149.533 468.545 169.006C462.332 169.903 455.93 170.717 449.36 171.441C436.747 172.832 423.664 173.879 410.314 174.57C407.027 156.479 402.366 138.585 396.337 121.051C399.982 120.781 403.57 120.452 407.08 120.064ZM435.791 108.87C435.166 109.036 434.532 109.201 433.889 109.363C422.583 97.92 409.483 87.7665 394.628 79.318C412.955 81.1407 430.927 85.1138 448.022 91.1438C449.08 91.5171 450.134 91.8979 451.183 92.2861C453.641 93.6101 456.066 94.9945 458.453 96.4378C458.637 96.8092 458.655 97.0241 458.655 97.0625C458.655 97.1765 458.497 98.8456 454.306 101.546C450.363 104.087 444.167 106.634 435.791 108.87Z" fill="#CA3B2C"/>
<mask id="mask0" mask-type="alpha" maskUnits="userSpaceOnUse" x="314" y="37" width="45" height="170">
<path d="M314.488 43.7315C328.944 39.7891 343.862 37.795 358.846 37.8022L358.766 206.114L314.488 43.7315Z" fill="#130947"/>
</mask>
<g mask="url(#mask0)">
<path fill-rule="evenodd" clip-rule="evenodd" d="M190.488 203.309H233.52C233.375 181.039 237.419 158.791 245.52 137.944C234.446 135.969 224.093 133.706 214.621 131.184C212.661 130.662 210.742 130.13 208.867 129.589C206.847 133.545 204.981 137.587 203.276 141.704C195.176 161.26 190.841 182.161 190.488 203.309ZM210.869 125.786C212.448 126.236 214.06 126.68 215.703 127.118C225.298 129.672 235.828 131.962 247.127 133.956C255.785 113.206 268.528 93.9584 285.225 77.6118C280.582 75.955 276.72 74.1464 273.741 72.2262C270.156 69.9157 267.901 67.4784 267.039 64.9968C257.224 71.3778 248.077 78.781 239.759 87.0996C228.298 98.561 218.576 111.596 210.869 125.786ZM288.842 53.0163C282.648 55.8457 276.641 59.044 270.852 62.5906C270.85 62.6279 270.849 62.664 270.849 62.6989C270.849 63.7552 271.681 65.8928 276.02 68.6892C279.063 70.6503 283.298 72.5697 288.66 74.3425C302.059 61.9394 317.845 51.3477 335.955 43.225C319.861 44.8627 304.04 48.147 288.842 53.0163ZM357.617 37.8062C358 37.805 358.383 37.8042 358.766 37.8036L358.766 37.8022C358.383 37.8022 358 37.8036 357.617 37.8062ZM190.465 206.114C190.465 228.217 194.818 250.104 203.276 270.524C203.882 271.987 204.509 273.441 205.155 274.885C217.402 271.654 231.014 268.828 245.694 266.457C238.028 247.092 234.017 226.618 233.56 206.114H190.465ZM206.951 278.764C219.132 275.581 232.692 272.792 247.336 270.456C256.7 292.464 270.872 312.92 290.004 330.204C281.084 332.598 274.001 335.432 269.152 338.548C266.193 340.45 264.102 342.434 262.909 344.458C254.649 338.734 246.899 332.269 239.759 325.128C226.26 311.628 215.172 295.946 206.951 278.764ZM266.413 346.822C267.058 345.593 268.489 343.976 271.427 342.088C275.804 339.275 282.511 336.553 291.364 334.196C292.172 333.981 292.995 333.77 293.832 333.563C299.563 338.447 305.71 343.056 312.279 347.351L346.934 370.009C338.502 369.721 330.238 369.137 322.366 368.269C316.63 367.636 311.168 366.86 306.052 365.957C302.108 364.656 298.208 363.208 294.36 361.614C284.577 357.561 275.222 352.605 266.413 346.822ZM340.809 373.465C345.326 373.819 349.891 374 354.499 374C355.925 374 357.348 373.983 358.766 373.948L358.766 374.426C352.756 374.426 346.762 374.104 340.809 373.465ZM313.814 345.003C307.947 341.167 302.422 337.077 297.235 332.76C304.716 331.078 313.189 329.7 322.366 328.688C325.455 328.347 328.604 328.05 331.8 327.798L351.915 369.914L313.814 345.003ZM321.905 324.505C311.358 325.668 301.671 327.314 293.278 329.366C273.948 312.275 259.64 291.934 250.2 270.006C258.464 268.733 267.062 267.602 275.94 266.624C286.132 265.501 296.61 264.588 307.281 263.89C311.417 280.836 317.314 297.467 324.975 313.509L329.859 323.734C327.172 323.96 324.517 324.217 321.905 324.505ZM334.802 327.574L354.999 369.863L354.999 326.762C348.165 326.842 341.394 327.115 334.802 327.574ZM327.507 312.3L332.854 323.496C340.067 322.957 347.498 322.641 354.999 322.554V262.229C339.856 262.307 324.817 262.805 310.125 263.71C314.21 280.302 320.002 296.586 327.507 312.3ZM302.804 206.114C303.011 224.04 305.121 241.958 309.139 259.555C324.151 258.616 339.523 258.101 354.999 258.021L355.7 258.018L355.7 206.114H302.804ZM299.982 203.309C299.973 183.845 302.182 164.389 306.602 145.332C298.002 144.717 289.542 143.953 281.279 143.041C269.772 141.773 258.75 140.231 248.341 138.439C240.228 159.111 236.179 181.199 236.325 203.309H299.982ZM299.999 206.114C300.204 224.1 302.304 242.077 306.304 259.738C295.815 260.433 285.511 261.336 275.479 262.441C266.182 263.466 257.182 264.658 248.539 266.006C240.851 246.8 236.828 226.473 236.366 206.114H299.999ZM302.787 203.309H355.7L355.7 147.194C340.064 147.109 324.543 146.549 309.436 145.529C304.997 164.517 302.778 183.909 302.787 203.309ZM293.958 80.3031C291.946 79.766 290.031 79.2056 288.217 78.6237C271.451 94.7604 258.656 113.842 249.965 134.448C260.012 136.157 270.642 137.635 281.74 138.859C290.172 139.789 298.812 140.565 307.601 141.185C312.319 122.28 319.227 103.798 328.316 86.1232C326.938 85.9908 325.571 85.8497 324.216 85.6999C312.901 84.4487 302.619 82.6149 293.958 80.3031ZM295.044 76.2376C293.912 75.9354 292.816 75.6271 291.759 75.3131C305.903 62.4708 322.692 51.6591 342.052 43.6518L344.864 42.4885C347.049 42.3495 349.237 42.2407 351.429 42.1623L330.423 82.0935C328.487 81.9188 326.571 81.7268 324.679 81.5176C313.52 80.2838 303.454 78.4826 295.044 76.2376ZM355.7 42.0479C355.349 42.0541 354.998 42.0611 354.647 42.0689L333.457 82.3517C340.675 82.9294 348.146 83.2694 355.7 83.3615L355.7 42.0479ZM355.7 87.5696C347.413 87.4697 339.218 87.0752 331.332 86.3976C322.163 104.033 315.198 122.491 310.444 141.38C325.225 142.361 340.405 142.902 355.7 142.986L355.7 87.5696Z" fill="#CA3B2C"/>
</g>
<mask id="mask1" mask-type="alpha" maskUnits="userSpaceOnUse" x="189" y="23" width="143" height="162">
<path d="M189.862 93.3332C211.599 59.5315 244.712 34.6235 283.214 23.113L331.417 184.374L189.862 93.3332Z" fill="#130947"/>
</mask>
<g mask="url(#mask1)">
<path fill-rule="evenodd" clip-rule="evenodd" d="M331.417 16.0619C331.036 16.0619 330.655 16.0632 330.274 16.0658C330.655 16.0646 331.036 16.0638 331.417 16.0632L331.417 16.0619ZM267.011 28.8738C287.078 20.5612 308.562 16.2132 330.274 16.0658C330.272 16.0658 330.27 16.0658 330.267 16.0658C308.557 16.2141 287.076 20.5621 267.011 28.8738ZM261.494 31.2759C276.692 26.4065 292.512 23.1224 308.606 21.4846C290.496 29.6073 274.71 40.199 261.311 52.6021C255.949 50.8293 251.714 48.9099 248.671 46.9488C244.332 44.1524 243.5 42.0149 243.5 40.9585C243.5 40.9236 243.501 40.8875 243.503 40.8503C249.292 37.3036 255.3 34.1052 261.494 31.2759ZM239.691 43.2565C240.553 45.738 242.807 48.1754 246.392 50.4858C249.372 52.406 253.233 54.2146 257.877 55.8714C241.18 72.218 228.437 91.4653 219.779 112.216C208.48 110.222 197.949 107.932 188.355 105.377C186.711 104.94 185.1 104.496 183.521 104.045C191.227 89.8552 200.95 76.8206 212.411 65.3592C220.729 57.0406 229.875 49.6375 239.691 43.2565ZM181.518 107.848C183.394 108.39 185.312 108.922 187.272 109.443C196.745 111.965 207.097 114.228 218.172 116.204C210.07 137.051 206.027 159.299 206.171 181.569H163.14C163.492 160.421 167.828 139.52 175.928 119.963C176.034 119.706 176.141 119.449 176.249 119.192C177.867 115.341 179.624 111.558 181.518 107.848ZM239.064 325.081C239.71 323.852 241.141 322.236 244.078 320.348C248.455 317.535 255.163 314.813 264.016 312.456C264.824 312.241 265.646 312.03 266.483 311.822C272.214 316.707 278.362 321.316 284.93 325.611L319.586 348.269C311.153 347.981 302.89 347.396 295.017 346.528C289.281 345.896 283.82 345.12 278.704 344.217C274.76 342.916 270.859 341.467 267.011 339.873C257.228 335.821 247.874 330.864 239.064 325.081ZM235.561 322.718C236.753 320.694 238.845 318.71 241.804 316.808C246.652 313.692 253.735 310.858 262.656 308.464C243.523 291.18 229.351 270.723 219.987 248.715C205.343 251.052 191.783 253.84 179.602 257.024C187.823 274.206 198.912 289.888 212.41 303.388C219.55 310.528 227.301 316.994 235.561 322.718ZM172.949 241.06C166.449 222.888 163.116 203.714 163.116 184.374H206.211C206.668 204.878 210.679 225.351 218.346 244.717C203.666 247.087 190.053 249.914 177.806 253.145C177.16 251.701 176.534 250.247 175.928 248.784C174.87 246.231 173.877 243.656 172.949 241.06ZM286.465 323.263C280.599 319.427 275.073 315.336 269.886 311.019C277.367 309.337 285.84 307.959 295.017 306.947C298.106 306.607 301.255 306.31 304.451 306.057L324.567 348.174L286.465 323.263ZM294.556 302.765C284.009 303.928 274.322 305.574 265.929 307.625C246.599 290.534 232.292 270.194 222.851 248.266C231.116 246.993 239.713 245.862 248.591 244.883C258.784 243.76 269.262 242.847 279.932 242.15C284.069 259.096 289.965 275.726 297.627 291.768L302.511 301.994C299.823 302.22 297.169 302.477 294.556 302.765ZM307.453 305.834L327.65 348.122L327.65 305.022C320.816 305.101 314.045 305.374 307.453 305.834ZM300.158 290.559L305.506 301.756C312.719 301.217 320.149 300.9 327.65 300.814V240.489C312.507 240.567 297.468 241.065 282.776 241.969C286.861 258.562 292.653 274.846 300.158 290.559ZM275.455 184.374C275.662 202.3 277.772 220.217 281.791 237.815C296.802 236.876 312.174 236.36 327.65 236.281L328.352 236.278L328.352 184.374H275.455ZM272.633 181.569C272.624 162.104 274.833 142.649 279.254 123.592C270.653 122.977 262.193 122.212 253.93 121.301C242.423 120.032 231.402 118.49 220.992 116.698C212.879 137.371 208.83 159.459 208.976 181.569H272.633ZM272.65 184.374C272.856 202.359 274.955 220.336 278.955 237.997C268.467 238.693 258.162 239.595 248.13 240.701C238.833 241.726 229.833 242.917 221.19 244.266C213.503 225.06 209.479 204.733 209.017 184.374H272.65ZM275.438 181.569H328.352L328.352 125.454C312.715 125.368 297.195 124.808 282.088 123.789C277.648 142.777 275.429 162.168 275.438 181.569ZM266.61 58.5627C264.598 58.0256 262.682 57.4652 260.869 56.8833C244.102 73.02 231.307 92.1015 222.617 112.708C232.663 114.417 243.293 115.895 254.392 117.119C262.823 118.048 271.463 118.825 280.252 119.445C284.97 100.54 291.878 82.0576 300.967 64.3828C299.59 64.2505 298.223 64.1093 296.868 63.9595C285.552 62.7084 275.27 60.8745 266.61 58.5627ZM267.695 54.4972C266.563 54.1951 265.468 53.8867 264.41 53.5727C278.555 40.7305 295.343 29.9187 314.703 21.9114L317.516 20.7481C319.7 20.6091 321.889 20.5003 324.08 20.4219L303.074 60.3531C301.138 60.1784 299.222 59.9864 297.33 59.7772C286.171 58.5434 276.105 56.7422 267.695 54.4972ZM328.352 20.3075C328.001 20.3137 327.65 20.3208 327.299 20.3285L306.108 60.6113C313.326 61.1891 320.798 61.529 328.352 61.6211L328.352 20.3075ZM328.352 65.8292C320.065 65.7294 311.87 65.3349 303.983 64.6572C294.814 82.2924 287.849 100.75 283.095 119.639C297.876 120.621 313.056 121.162 328.352 121.246L328.352 65.8292Z" fill="#CA3B2C"/>
</g>
<mask id="mask2" mask-type="alpha" maskUnits="userSpaceOnUse" x="159" y="122" width="168" height="92">
<path d="M159.69 191.54C162.976 166.941 171.661 143.372 185.124 122.523L326.508 213.828L159.69 191.54Z" fill="#130947"/>
</mask>
<g mask="url(#mask2)">
<path fill-rule="evenodd" clip-rule="evenodd" d="M326.509 45.5164C326.128 45.5164 325.747 45.5177 325.366 45.5202C325.747 45.5191 326.128 45.5183 326.509 45.5177L326.509 45.5164ZM262.103 58.3283C282.17 50.0156 303.653 45.6676 325.366 45.5202C325.364 45.5202 325.361 45.5202 325.359 45.5203C303.648 45.6686 282.168 50.0165 262.103 58.3283ZM256.585 60.7303C271.784 55.861 287.604 52.5768 303.698 50.9391C285.588 59.0618 269.802 69.6535 256.403 82.0565C251.041 80.2838 246.806 78.3644 243.763 76.4033C239.424 73.6069 238.592 71.4693 238.592 70.413C238.592 70.3781 238.593 70.342 238.595 70.3048C244.384 66.7581 250.391 63.5597 256.585 60.7303ZM234.783 72.711C235.644 75.1925 237.899 77.6298 241.484 79.9403C244.464 81.8605 248.325 83.6691 252.968 85.3259C236.271 101.672 223.528 120.92 214.87 141.67C203.571 139.676 193.041 137.386 183.446 134.832C181.803 134.394 180.192 133.95 178.613 133.5C186.319 119.31 196.042 106.275 207.502 94.8137C215.82 86.4951 224.967 79.092 234.783 72.711ZM176.61 137.303C178.486 137.844 180.404 138.376 182.364 138.898C191.836 141.42 202.189 143.683 213.264 145.659C205.162 166.505 201.119 188.753 201.263 211.023H158.232C158.584 189.875 162.919 168.974 171.019 149.418C171.126 149.161 171.233 148.904 171.341 148.647C172.958 144.796 174.716 141.012 176.61 137.303ZM234.156 354.536C234.801 353.307 236.232 351.69 239.17 349.802C243.547 346.989 250.255 344.267 259.107 341.91C259.915 341.695 260.738 341.484 261.575 341.277C267.306 346.161 273.454 350.77 280.022 355.065L314.678 377.724C306.245 377.435 297.981 376.851 290.109 375.983C284.373 375.35 278.911 374.574 273.795 373.671C269.851 372.37 265.951 370.922 262.103 369.328C252.32 365.275 242.966 360.319 234.156 354.536ZM230.652 352.172C231.845 350.148 233.936 348.164 236.895 346.262C241.744 343.146 248.827 340.312 257.747 337.918C238.615 320.634 224.443 300.178 215.079 278.17C200.435 280.506 186.875 283.295 174.694 286.478C182.915 303.66 194.003 319.343 207.502 332.842C214.642 339.983 222.393 346.449 230.652 352.172ZM168.041 270.514C161.541 252.343 158.208 233.169 158.208 213.829H201.303C201.76 234.332 205.771 254.806 213.437 274.171C198.758 276.542 185.145 279.369 172.898 282.599C172.252 281.155 171.625 279.702 171.019 278.238C169.962 275.686 168.969 273.11 168.041 270.514ZM281.557 352.717C275.69 348.881 270.165 344.791 264.978 340.474C272.459 338.792 280.932 337.414 290.109 336.402C293.198 336.061 296.347 335.764 299.543 335.512L319.658 377.629L281.557 352.717ZM289.648 332.219C279.101 333.382 269.414 335.028 261.021 337.08C241.691 319.989 227.384 299.648 217.943 277.72C226.208 276.447 234.805 275.316 243.683 274.338C253.875 273.215 264.354 272.302 275.024 271.604C279.161 288.55 285.057 305.181 292.719 321.223L297.602 331.448C294.915 331.674 292.261 331.931 289.648 332.219ZM302.545 335.288L322.742 377.577L322.742 334.476C315.908 334.556 309.137 334.829 302.545 335.288ZM295.25 320.014L300.597 331.21C307.81 330.671 315.241 330.355 322.742 330.268V269.943C307.599 270.021 292.56 270.519 277.868 271.424C281.953 288.016 287.745 304.301 295.25 320.014ZM270.547 213.829C270.754 231.754 272.864 249.672 276.882 267.269C291.894 266.33 307.266 265.815 322.742 265.735L323.443 265.732L323.443 213.829H270.547ZM267.725 211.023C267.716 191.559 269.925 172.103 274.345 153.046C265.745 152.431 257.285 151.667 249.022 150.756C237.515 149.487 226.493 147.945 216.084 146.153C207.971 166.825 203.922 188.914 204.068 211.023H267.725ZM267.742 213.829C267.947 231.814 270.047 249.791 274.047 267.452C263.558 268.147 253.254 269.05 243.222 270.155C233.925 271.18 224.925 272.372 216.282 273.72C208.594 254.514 204.571 234.187 204.109 213.829H267.742ZM270.53 211.023H323.443L323.444 154.908C307.807 154.823 292.287 154.263 277.18 153.243C272.74 172.231 270.521 191.623 270.53 211.023ZM261.702 88.0172C259.69 87.4801 257.774 86.9196 255.96 86.3378C239.194 102.474 226.399 121.556 217.709 142.162C227.755 143.871 238.385 145.349 249.483 146.573C257.915 147.503 266.555 148.279 275.344 148.899C280.062 129.994 286.97 111.512 296.059 93.8373C294.681 93.7049 293.315 93.5638 291.959 93.414C280.644 92.1628 270.362 90.329 261.702 88.0172ZM262.787 83.9517C261.655 83.6495 260.56 83.3411 259.502 83.0272C273.647 70.1849 290.435 59.3732 309.795 51.3659L312.608 50.2026C314.792 50.0636 316.981 49.9548 319.172 49.8763L298.166 89.8076C296.23 89.6329 294.314 89.4409 292.422 89.2317C281.263 87.9979 271.197 86.1967 262.787 83.9517ZM323.443 49.762C323.092 49.7682 322.741 49.7752 322.39 49.783L301.2 90.0658C308.418 90.6435 315.889 90.9834 323.443 91.0756L323.443 49.762ZM323.444 95.2837C315.157 95.1838 306.962 94.7893 299.075 94.1117C289.906 111.747 282.941 130.205 278.187 149.094C292.968 150.076 308.148 150.616 323.444 150.7L323.444 95.2837Z" fill="#CA3B2C"/>
</g>
<mask id="mask3" mask-type="alpha" maskUnits="userSpaceOnUse" x="171" y="222" width="169" height="149">
<path d="M228.732 370.411C208.067 352.249 192.169 329.298 182.43 303.567C172.691 277.836 169.408 250.11 172.868 222.816L339.832 243.984L228.732 370.411Z" fill="#130947"/>
</mask>
<g mask="url(#mask3)">
<path fill-rule="evenodd" clip-rule="evenodd" d="M339.832 75.6722C339.451 75.6722 339.07 75.6735 338.689 75.6761C339.07 75.675 339.451 75.6741 339.832 75.6736L339.832 75.6722ZM275.426 88.4842C295.493 80.1715 316.977 75.8235 338.689 75.6761C338.687 75.6761 338.685 75.6761 338.682 75.6761C316.972 75.8245 295.491 80.1724 275.426 88.4842ZM269.909 90.8862C285.107 86.0169 300.927 82.7327 317.021 81.0949C298.911 89.2177 283.126 99.8093 269.726 112.212C264.365 110.44 260.129 108.52 257.086 106.559C252.747 103.763 251.915 101.625 251.915 100.569C251.915 100.534 251.916 100.498 251.918 100.461C257.707 96.914 263.715 93.7156 269.909 90.8862ZM248.106 102.867C248.968 105.348 251.222 107.786 254.807 110.096C257.787 112.016 261.649 113.825 266.292 115.482C249.595 131.828 236.852 151.076 228.194 171.826C216.895 169.832 206.364 167.542 196.77 164.988C195.126 164.55 193.515 164.106 191.936 163.656C199.642 149.466 209.365 136.431 220.826 124.97C229.144 116.651 238.29 109.248 248.106 102.867ZM189.933 167.459C191.809 168 193.727 168.532 195.687 169.054C205.16 171.576 215.512 173.838 226.587 175.814C218.485 196.661 214.442 218.909 214.586 241.179H171.555C171.907 220.031 176.243 199.13 184.343 179.574C184.449 179.316 184.556 179.059 184.664 178.803C186.282 174.952 188.039 171.168 189.933 167.459ZM247.479 384.692C248.125 383.463 249.556 381.846 252.493 379.958C256.87 377.145 263.578 374.423 272.431 372.066C273.239 371.851 274.061 371.64 274.898 371.433C280.629 376.317 286.777 380.926 293.345 385.221L328.001 407.879C319.568 407.591 311.305 407.007 303.432 406.139C297.696 405.506 292.235 404.73 287.119 403.827C283.175 402.526 279.274 401.078 275.426 399.484C265.643 395.431 256.289 390.475 247.479 384.692ZM243.976 382.328C245.168 380.304 247.26 378.32 250.219 376.418C255.067 373.302 262.15 370.468 271.071 368.074C251.938 350.79 237.766 330.334 228.402 308.326C213.758 310.662 200.198 313.451 188.017 316.634C196.239 333.816 207.327 349.498 220.826 362.998C227.965 370.139 235.716 376.604 243.976 382.328ZM181.364 300.67C174.864 282.499 171.532 263.324 171.531 243.984H214.626C215.083 264.488 219.094 284.962 226.761 304.327C212.081 306.698 198.468 309.524 186.221 312.755C185.575 311.311 184.949 309.857 184.343 308.394C183.285 305.841 182.292 303.266 181.364 300.67ZM294.88 382.873C289.014 379.037 283.488 374.947 278.301 370.63C285.782 368.948 294.255 367.57 303.432 366.558C306.521 366.217 309.67 365.92 312.866 365.668L332.982 407.784L294.88 382.873ZM302.971 362.375C292.424 363.538 282.737 365.184 274.344 367.236C255.014 350.145 240.707 329.804 231.267 307.876C239.531 306.603 248.128 305.472 257.006 304.494C267.199 303.371 277.677 302.458 288.347 301.76C292.484 318.706 298.38 335.337 306.042 351.379L310.926 361.604C308.238 361.83 305.584 362.087 302.971 362.375ZM315.868 365.444L336.065 407.733L336.065 364.632C329.231 364.712 322.46 364.985 315.868 365.444ZM308.573 350.17L313.921 361.366C321.134 360.827 328.564 360.51 336.065 360.424V300.099C320.922 300.177 305.883 300.675 291.191 301.58C295.276 318.172 301.068 334.456 308.573 350.17ZM283.87 243.984C284.077 261.91 286.187 279.828 290.206 297.425C305.218 296.486 320.589 295.97 336.065 295.891L336.767 295.888L336.767 243.984H283.87ZM281.048 241.179C281.039 221.715 283.248 202.259 287.669 183.202C279.068 182.587 270.608 181.823 262.346 180.911C250.838 179.642 239.817 178.101 229.407 176.309C221.294 196.981 217.245 219.069 217.391 241.179H281.048ZM281.065 243.984C281.271 261.97 283.37 279.947 287.37 297.608C276.882 298.303 266.577 299.206 256.545 300.311C247.248 301.336 238.248 302.528 229.605 303.876C221.918 284.67 217.894 264.343 217.432 243.984H281.065ZM283.853 241.179H336.767L336.767 185.064C321.131 184.979 305.61 184.419 290.503 183.399C286.063 202.387 283.844 221.779 283.853 241.179ZM275.025 118.173C273.013 117.636 271.097 117.076 269.284 116.494C252.517 132.63 239.722 151.712 231.032 172.318C241.078 174.027 251.708 175.505 262.807 176.729C271.238 177.659 279.878 178.435 288.667 179.055C293.385 160.15 300.293 141.668 309.382 123.993C308.005 123.861 306.638 123.72 305.283 123.57C293.967 122.319 283.685 120.485 275.025 118.173ZM276.11 114.108C274.978 113.805 273.883 113.497 272.825 113.183C286.97 100.341 303.758 89.529 323.118 81.5218L325.931 80.3585C328.115 80.2195 330.304 80.1107 332.495 80.0322L311.489 119.963C309.553 119.789 307.637 119.597 305.745 119.388C294.586 118.154 284.52 116.353 276.11 114.108ZM336.767 79.9179C336.416 79.9241 336.065 79.9311 335.714 79.9389L314.523 120.222C321.741 120.799 329.213 121.139 336.767 121.231L336.767 79.9179ZM336.767 125.44C328.48 125.34 320.285 124.945 312.398 124.268C303.229 141.903 296.264 160.361 291.51 179.25C306.291 180.231 321.471 180.772 336.767 180.856L336.767 125.44Z" fill="#CA3B2C"/>
</g>
<mask id="mask4" mask-type="alpha" maskUnits="userSpaceOnUse" x="249" y="253" width="114" height="169">
<path d="M362.272 421.412C320.598 421.412 280.406 405.95 249.476 378.018L362.272 253.101L362.272 421.412Z" fill="#130947"/>
</mask>
<g mask="url(#mask4)">
<path fill-rule="evenodd" clip-rule="evenodd" d="M362.272 84.7905C361.89 84.7911 361.508 84.7919 361.126 84.7931C339.414 84.941 317.933 89.289 297.867 97.6011C296.012 98.3695 294.172 99.1704 292.349 100.003C307.547 95.1339 323.368 91.8497 339.461 90.2119C321.352 98.3346 305.566 108.926 292.166 121.329C286.805 119.557 282.57 117.637 279.527 115.676C275.187 112.88 274.356 110.742 274.356 109.686C274.356 109.651 274.357 109.615 274.358 109.578C273.077 110.363 271.806 111.165 270.546 111.984C271.408 114.465 273.662 116.903 277.248 119.213C280.227 121.133 284.089 122.942 288.732 124.599C272.035 140.945 259.292 160.193 250.634 180.943C239.335 178.949 228.804 176.659 219.21 174.104C217.567 173.667 215.955 173.223 214.376 172.773C213.693 174.031 213.025 175.299 212.373 176.575C214.249 177.117 216.168 177.649 218.128 178.171C227.6 180.692 237.953 182.955 249.027 184.931C240.926 205.778 236.882 228.026 237.026 250.296H193.995C193.98 251.231 193.972 252.166 193.972 253.101C193.972 253.101 193.972 253.101 193.972 253.101H237.067C237.523 273.605 241.535 294.079 249.201 313.444C234.521 315.814 220.909 318.641 208.662 321.872C209.244 323.173 209.843 324.466 210.458 325.751C222.639 322.568 236.199 319.779 250.843 317.442C256.333 330.348 263.477 342.719 272.305 354.23L274.216 352.104C265.83 341.095 259.003 329.294 253.707 316.993C261.971 315.72 270.568 314.589 279.447 313.611C289.639 312.488 300.117 311.575 310.788 310.877C310.821 311.014 310.855 311.152 310.889 311.289L315.299 306.381C314.413 306.433 313.529 306.487 312.646 306.542C308.628 288.944 306.518 271.027 306.311 253.101H359.207L359.207 257.512L362.272 254.101L362.272 253.101L362.272 84.7905ZM309.559 412.944C314.675 413.847 320.136 414.623 325.873 415.255C333.745 416.124 342.008 416.708 350.441 416.996L315.786 394.338C309.217 390.043 303.069 385.434 297.339 380.55C296.502 380.757 295.679 380.968 294.871 381.183C286.018 383.54 279.31 386.262 274.934 389.075C271.996 390.963 270.565 392.58 269.92 393.809C278.729 399.591 288.084 404.548 297.867 408.601C301.715 410.195 305.615 411.643 309.559 412.944ZM266.416 391.445C267.608 389.421 269.7 387.437 272.659 385.535C277.507 382.419 284.591 379.585 293.511 377.191C285.598 370.042 278.533 362.35 272.305 354.23L250.283 378.741C255.403 383.306 260.791 387.547 266.416 391.445ZM359.207 257.512L359.207 305.005L358.506 305.008C343.94 305.083 329.467 305.544 315.299 306.381L359.207 257.512ZM310.889 311.289L274.216 352.104C280.78 360.719 288.298 368.849 296.785 376.353C305.177 374.301 314.865 372.655 325.412 371.492C328.024 371.204 330.678 370.947 333.366 370.721L328.482 360.496C320.883 344.584 315.02 328.092 310.889 311.289ZM317.321 391.99C311.454 388.154 305.929 384.063 300.741 379.747C308.223 378.065 316.696 376.687 325.873 375.675C328.962 375.334 332.111 375.037 335.307 374.784L355.422 416.901L317.321 391.99ZM338.309 374.561L358.506 416.85L358.506 373.749C351.672 373.829 344.901 374.102 338.309 374.561ZM331.013 359.287L336.361 370.483C343.574 369.944 351.005 369.627 358.506 369.541V309.216C343.362 309.294 328.324 309.792 313.632 310.697C317.716 327.289 323.509 343.573 331.013 359.287ZM303.489 250.296C303.48 230.832 305.689 211.376 310.109 192.319C301.508 191.704 293.049 190.94 284.786 190.028C273.279 188.759 262.257 187.218 251.848 185.426C243.735 206.098 239.686 228.186 239.832 250.296H303.489ZM303.506 253.101C303.711 271.087 305.811 289.064 309.811 306.725C299.322 307.42 289.018 308.323 278.986 309.428C269.688 310.453 260.689 311.645 252.046 312.993C244.358 293.787 240.334 273.46 239.873 253.101H303.506ZM306.294 250.296H359.207L359.207 194.181C343.571 194.096 328.05 193.535 312.943 192.516C308.504 211.504 306.285 230.896 306.294 250.296ZM297.465 127.29C295.453 126.753 293.538 126.192 291.724 125.611C274.957 141.747 262.162 160.829 253.472 181.435C263.519 183.144 274.148 184.622 285.247 185.846C293.679 186.776 302.319 187.552 311.107 188.172C315.826 169.267 322.733 150.785 331.822 133.11C330.445 132.978 329.078 132.837 327.723 132.687C316.407 131.436 306.126 129.602 297.465 127.29ZM298.55 123.225C297.418 122.922 296.323 122.614 295.266 122.3C309.41 109.458 326.199 98.646 345.559 90.6387L348.371 89.4754C350.556 89.3364 352.744 89.2276 354.936 89.1492L333.93 129.08C331.994 128.906 330.078 128.714 328.185 128.504C317.027 127.271 306.961 125.47 298.55 123.225ZM359.207 89.0348C358.856 89.041 358.505 89.0481 358.154 89.0558L336.963 129.339C344.182 129.916 351.653 130.256 359.207 130.348L359.207 89.0348ZM359.207 134.557C350.92 134.457 342.725 134.062 334.838 133.385C325.67 151.02 318.705 169.478 313.951 188.366C328.732 189.348 343.912 189.889 359.207 189.973L359.207 134.557Z" fill="#CA3B2C"/>
</g>
<path d="M209.246 526.248H194.654C194.59 530.472 195.358 534.12 196.958 537.192C198.558 540.264 200.702 542.792 203.39 544.776C206.142 546.76 209.278 548.2 212.798 549.096C216.382 550.056 220.062 550.536 223.838 550.536C228.51 550.536 232.606 549.992 236.126 548.904C239.71 547.816 242.686 546.312 245.054 544.392C247.486 542.408 249.31 540.072 250.526 537.384C251.742 534.696 252.35 531.784 252.35 528.648C252.35 524.808 251.518 521.672 249.854 519.24C248.254 516.744 246.334 514.76 244.094 513.288C241.854 511.816 239.582 510.76 237.278 510.12C235.038 509.416 233.278 508.936 231.998 508.68C227.71 507.592 224.222 506.696 221.534 505.992C218.91 505.288 216.83 504.584 215.294 503.88C213.822 503.176 212.83 502.408 212.318 501.576C211.806 500.744 211.55 499.656 211.55 498.312C211.55 496.84 211.87 495.624 212.51 494.664C213.15 493.704 213.95 492.904 214.91 492.264C215.934 491.624 217.054 491.176 218.27 490.92C219.486 490.664 220.702 490.536 221.918 490.536C223.774 490.536 225.47 490.696 227.006 491.016C228.606 491.336 230.014 491.88 231.23 492.648C232.446 493.416 233.406 494.472 234.11 495.816C234.878 497.16 235.326 498.856 235.454 500.904H250.046C250.046 496.936 249.278 493.576 247.742 490.824C246.27 488.008 244.254 485.704 241.694 483.912C239.134 482.12 236.19 480.84 232.862 480.072C229.598 479.24 226.174 478.824 222.59 478.824C219.518 478.824 216.446 479.24 213.374 480.072C210.302 480.904 207.55 482.184 205.118 483.912C202.686 485.64 200.702 487.816 199.166 490.44C197.694 493 196.958 496.04 196.958 499.56C196.958 502.696 197.534 505.384 198.686 507.624C199.902 509.8 201.47 511.624 203.39 513.096C205.31 514.568 207.486 515.784 209.918 516.744C212.35 517.64 214.846 518.408 217.406 519.048C219.902 519.752 222.366 520.392 224.798 520.968C227.23 521.544 229.406 522.216 231.326 522.984C233.246 523.752 234.782 524.712 235.934 525.864C237.15 527.016 237.758 528.52 237.758 530.376C237.758 532.104 237.31 533.544 236.414 534.696C235.518 535.784 234.398 536.648 233.054 537.288C231.71 537.928 230.27 538.376 228.734 538.632C227.198 538.824 225.758 538.92 224.414 538.92C222.43 538.92 220.51 538.696 218.654 538.248C216.798 537.736 215.166 537 213.758 536.04C212.414 535.016 211.326 533.704 210.494 532.104C209.662 530.504 209.246 528.552 209.246 526.248ZM283.686 493.128V549H298.758V493.128H319.302V480.456H263.142V493.128H283.686ZM346.501 515.016C346.501 512.008 346.821 509.096 347.461 506.28C348.165 503.464 349.253 500.968 350.725 498.792C352.197 496.552 354.117 494.792 356.485 493.512C358.853 492.168 361.733 491.496 365.125 491.496C368.517 491.496 371.397 492.168 373.765 493.512C376.133 494.792 378.053 496.552 379.525 498.792C380.997 500.968 382.053 503.464 382.693 506.28C383.397 509.096 383.749 512.008 383.749 515.016C383.749 517.896 383.397 520.712 382.693 523.464C382.053 526.152 380.997 528.584 379.525 530.76C378.053 532.936 376.133 534.696 373.765 536.04C371.397 537.32 368.517 537.96 365.125 537.96C361.733 537.96 358.853 537.32 356.485 536.04C354.117 534.696 352.197 532.936 350.725 530.76C349.253 528.584 348.165 526.152 347.461 523.464C346.821 520.712 346.501 517.896 346.501 515.016ZM331.429 515.016C331.429 520.008 332.197 524.68 333.733 529.032C335.269 533.32 337.477 537.064 340.357 540.264C343.237 543.464 346.757 545.992 350.917 547.848C355.141 549.64 359.877 550.536 365.125 550.536C370.437 550.536 375.173 549.64 379.333 547.848C383.493 545.992 387.013 543.464 389.893 540.264C392.773 537.064 394.981 533.32 396.517 529.032C398.053 524.68 398.821 520.008 398.821 515.016C398.821 509.896 398.053 505.16 396.517 500.808C394.981 496.392 392.773 492.552 389.893 489.288C387.013 486.024 383.493 483.464 379.333 481.608C375.173 479.752 370.437 478.824 365.125 478.824C359.877 478.824 355.141 479.752 350.917 481.608C346.757 483.464 343.237 486.024 340.357 489.288C337.477 492.552 335.269 496.392 333.733 500.808C332.197 505.16 331.429 509.896 331.429 515.016ZM431.396 512.712V492.168H443.108C444.836 492.168 446.5 492.296 448.1 492.552C449.7 492.808 451.108 493.32 452.324 494.088C453.54 494.792 454.5 495.816 455.204 497.16C455.972 498.504 456.356 500.264 456.356 502.44C456.356 504.616 455.972 506.376 455.204 507.72C454.5 509.064 453.54 510.12 452.324 510.888C451.108 511.592 449.7 512.072 448.1 512.328C446.5 512.584 444.836 512.712 443.108 512.712H431.396ZM416.324 480.456V549H431.396V524.424H447.236C451.524 524.424 455.172 523.816 458.18 522.6C461.188 521.32 463.62 519.656 465.476 517.608C467.396 515.56 468.772 513.224 469.604 510.6C470.5 507.912 470.948 505.192 470.948 502.44C470.948 499.624 470.5 496.904 469.604 494.28C468.772 491.656 467.396 489.32 465.476 487.272C463.62 485.224 461.188 483.592 458.18 482.376C455.172 481.096 451.524 480.456 447.236 480.456H416.324ZM28.3107 610.128V666H43.3827V610.128H63.9267V597.456H7.76674V610.128H28.3107ZM90.7422 628.464V609.168H107.254C110.71 609.168 113.302 609.936 115.03 611.472C116.758 612.944 117.622 615.344 117.622 618.672C117.622 622.128 116.758 624.624 115.03 626.16C113.302 627.696 110.71 628.464 107.254 628.464H90.7422ZM75.6702 597.456V666H90.7422V639.216H105.814C109.59 639.216 112.31 640.048 113.974 641.712C115.638 643.376 116.726 646 117.238 649.584C117.622 652.336 117.91 655.216 118.102 658.224C118.294 661.232 118.806 663.824 119.638 666H134.71C134.006 665.04 133.462 663.888 133.078 662.544C132.758 661.136 132.502 659.664 132.31 658.128C132.182 656.592 132.086 655.088 132.022 653.616C131.958 652.144 131.894 650.864 131.83 649.776C131.702 648.048 131.446 646.32 131.062 644.592C130.742 642.864 130.198 641.296 129.43 639.888C128.662 638.416 127.67 637.168 126.454 636.144C125.238 635.056 123.702 634.256 121.846 633.744V633.552C125.686 632.016 128.438 629.776 130.102 626.832C131.83 623.888 132.694 620.4 132.694 616.368C132.694 613.744 132.214 611.312 131.254 609.072C130.358 606.768 129.014 604.752 127.222 603.024C125.494 601.296 123.382 599.952 120.886 598.992C118.454 597.968 115.702 597.456 112.63 597.456H75.6702ZM166.071 639.504L174.999 614.352H175.191L183.831 639.504H166.071ZM167.511 597.456L141.591 666H156.759L162.135 650.736H187.767L192.951 666H208.599L182.967 597.456H167.511ZM218.35 597.456V666H233.422V637.68H262.126V625.968H233.422V610.128H266.542V597.456H218.35ZM279.096 597.456V666H294.168V637.68H322.872V625.968H294.168V610.128H327.288V597.456H279.096ZM339.843 597.456V666H354.915V597.456H339.843ZM417.691 620.496H432.283C431.835 616.528 430.747 613.008 429.019 609.936C427.291 606.864 425.083 604.304 422.395 602.256C419.771 600.144 416.763 598.544 413.371 597.456C410.043 596.368 406.491 595.824 402.715 595.824C397.467 595.824 392.731 596.752 388.507 598.608C384.347 600.464 380.827 603.024 377.947 606.288C375.067 609.552 372.859 613.392 371.323 617.808C369.787 622.16 369.019 626.896 369.019 632.016C369.019 637.008 369.787 641.68 371.323 646.032C372.859 650.32 375.067 654.064 377.947 657.264C380.827 660.464 384.347 662.992 388.507 664.848C392.731 666.64 397.467 667.536 402.715 667.536C406.939 667.536 410.811 666.896 414.331 665.616C417.851 664.336 420.923 662.48 423.547 660.048C426.171 657.616 428.283 654.672 429.883 651.216C431.483 647.76 432.475 643.888 432.859 639.6H418.267C417.691 644.208 416.091 647.92 413.467 650.736C410.907 653.552 407.323 654.96 402.715 654.96C399.323 654.96 396.443 654.32 394.075 653.04C391.707 651.696 389.787 649.936 388.315 647.76C386.843 645.584 385.755 643.152 385.051 640.464C384.411 637.712 384.091 634.896 384.091 632.016C384.091 629.008 384.411 626.096 385.051 623.28C385.755 620.464 386.843 617.968 388.315 615.792C389.787 613.552 391.707 611.792 394.075 610.512C396.443 609.168 399.323 608.496 402.715 608.496C404.571 608.496 406.331 608.816 407.995 609.456C409.723 610.032 411.259 610.864 412.603 611.952C413.947 613.04 415.067 614.32 415.963 615.792C416.859 617.2 417.435 618.768 417.691 620.496ZM446.991 597.456V666H462.063V643.92L470.703 635.184L491.343 666H510.255L480.879 624.528L507.663 597.456H488.847L462.063 625.872V597.456H446.991ZM520.113 597.456V666H535.185V597.456H520.113ZM552.265 597.456V666H566.377V620.112H566.569L595.081 666H610.153V597.456H596.041V643.44H595.849L567.241 597.456H552.265ZM676.798 658.224L678.334 666H687.934V628.944H659.134V640.176H674.302C673.854 644.976 672.254 648.656 669.502 651.216C666.814 653.712 662.974 654.96 657.982 654.96C654.59 654.96 651.71 654.32 649.342 653.04C646.974 651.696 645.054 649.936 643.582 647.76C642.11 645.584 641.022 643.152 640.318 640.464C639.678 637.712 639.358 634.896 639.358 632.016C639.358 629.008 639.678 626.096 640.318 623.28C641.022 620.464 642.11 617.968 643.582 615.792C645.054 613.552 646.974 611.792 649.342 610.512C651.71 609.168 654.59 608.496 657.982 608.496C661.63 608.496 664.734 609.456 667.294 611.376C669.854 613.296 671.582 616.176 672.478 620.016H686.878C686.494 616.112 685.438 612.656 683.71 609.648C681.982 606.64 679.774 604.112 677.086 602.064C674.462 600.016 671.486 598.48 668.158 597.456C664.894 596.368 661.502 595.824 657.982 595.824C652.734 595.824 647.998 596.752 643.774 598.608C639.614 600.464 636.094 603.024 633.214 606.288C630.334 609.552 628.126 613.392 626.59 617.808C625.054 622.16 624.286 626.896 624.286 632.016C624.286 637.008 625.054 641.68 626.59 646.032C628.126 650.32 630.334 654.064 633.214 657.264C636.094 660.464 639.614 662.992 643.774 664.848C647.998 666.64 652.734 667.536 657.982 667.536C661.31 667.536 664.606 666.864 667.87 665.52C671.134 664.112 674.11 661.68 676.798 658.224Z" fill="black"/>
</svg>
