<svg width="1991" height="448" viewBox="0 0 1991 448" fill="none" xmlns="http://www.w3.org/2000/svg">
<path d="M0 27C0 12.0883 12.0883 0 27 0H1964C1978.91 0 1991 12.0883 1991 27V421C1991 435.912 1978.91 448 1964 448H27C12.0883 448 0 435.912 0 421V27Z" fill="white"/>
<path fill-rule="evenodd" clip-rule="evenodd" d="M410.731 78.5451C408.663 78.4276 406.591 78.3373 404.517 78.2744C410.469 90.3435 415.718 102.667 420.263 115.184C424.4 114.9 428.463 114.537 432.421 114.1C440.756 113.178 448.459 111.94 455.297 110.441C442.645 97.9915 427.772 87.1661 410.731 78.5451ZM403.389 115.906L403.389 85.1304C408.104 95.0791 412.341 105.195 416.1 115.443C411.916 115.676 407.668 115.831 403.389 115.906ZM403.389 121.907C408.381 121.821 413.335 121.628 418.201 121.331C424.278 138.832 428.974 156.699 432.284 174.768C422.753 175.209 413.097 175.469 403.389 175.546V126.868L403.389 121.907ZM403.389 181.546C413.446 181.467 423.451 181.193 433.324 180.726C436.386 199.177 438.009 217.82 438.19 236.478H403.389V181.546ZM397.389 240.478L397.389 292.374L397.389 247.14L397.389 240.478ZM403.389 240.478H438.206C438.182 258.1 436.871 275.725 434.268 293.207C424.078 292.743 413.759 292.472 403.389 292.396L403.389 247.14V240.478ZM442.206 240.478C442.182 258.163 440.876 275.852 438.283 293.4C452.926 294.141 467.28 295.28 481.117 296.805C486.754 297.426 492.282 298.109 497.687 298.851C504.436 280.001 507.891 260.24 508.138 240.478H442.206ZM512.139 240.478C511.896 260.424 508.457 280.37 501.736 299.421C519.778 302.025 536.384 305.297 551.046 309.145C551.676 307.736 552.287 306.316 552.878 304.888C561.336 284.468 565.69 262.581 565.69 240.478L512.139 240.478ZM565.642 236.478H512.145C511.949 215.268 508.143 194.126 500.827 174.132C516.073 171.767 530.145 168.884 542.676 165.547C544.29 165.118 545.876 164.681 547.433 164.238C549.397 168.104 551.214 172.05 552.878 176.068C560.826 195.256 565.149 215.738 565.642 236.478ZM508.144 236.478H442.19C442.011 217.753 440.394 199.045 437.345 180.525C450.558 179.827 463.513 178.784 476.018 177.405C483.136 176.62 490.069 175.731 496.786 174.742C504.126 194.52 507.947 215.464 508.144 236.478ZM397.389 236.478L397.389 181.569H397.389L397.389 236.478ZM403.389 298.396C413.444 298.47 423.448 298.73 433.33 299.171C430.056 318.893 425.132 338.411 418.554 357.513C414.224 357.256 409.83 357.079 405.402 356.982C404.732 356.967 404.061 356.954 403.389 356.943L403.389 350.582V298.396ZM437.352 299.361C434.101 319.105 429.216 338.648 422.69 357.783C426.766 358.075 430.775 358.437 434.691 358.869C435.43 358.95 436.165 359.034 436.895 359.12C444.364 360.002 451.375 361.128 457.77 362.472C474.615 345.325 487.155 325.604 495.511 304.61C490.595 303.947 485.575 303.333 480.459 302.769C466.547 301.236 452.098 300.095 437.352 299.361ZM405.363 362.982C409.097 363.065 412.805 363.206 416.468 363.404C412.62 373.977 408.261 384.414 403.389 394.68L403.389 382.842V362.944C404.048 362.955 404.706 362.968 405.363 362.982ZM430.35 401.233C424.244 401.829 417.925 402.257 411.496 402.512L429.35 390.838C439.671 384.091 449.003 376.605 457.36 368.519C459.95 369.075 462.423 369.667 464.77 370.292C465.318 370.438 465.857 370.585 466.388 370.733C474.343 372.959 480.305 375.456 484.199 377.959C484.373 378.071 484.54 378.181 484.701 378.289C487.112 379.912 488.132 381.171 488.559 381.955C480.097 387.409 471.141 392.106 461.795 395.978C461.459 396.117 461.122 396.255 460.786 396.392C452.951 398.247 443.914 399.761 434.033 400.851C432.815 400.985 431.587 401.113 430.35 401.233ZM427.161 387.49C436.445 381.421 444.911 374.74 452.569 367.554C447.468 366.594 441.985 365.763 436.195 365.079C435.479 364.995 434.758 364.913 434.033 364.833C429.675 364.352 425.195 363.959 420.631 363.655C416.543 375.004 411.873 386.2 406.619 397.201L404.035 402.611L427.161 387.49ZM466.314 364.494C465.027 364.151 463.706 363.819 462.353 363.497C478.96 346.128 491.335 326.269 499.595 305.175C517.507 307.72 533.959 310.918 548.456 314.67C540.315 331.249 529.489 346.398 516.395 359.492C509.345 366.543 501.7 372.936 493.556 378.607C492.42 376.779 490.55 374.985 487.969 373.257C487.797 373.141 487.622 373.026 487.443 372.912C482.851 369.96 476.253 367.262 467.989 364.951C467.438 364.797 466.879 364.644 466.314 364.494ZM541.132 159.749C528.485 163.117 514.185 166.027 498.621 168.4C490.694 148.791 479.322 130.413 464.604 114.322C472.67 112.084 479.1 109.462 483.556 106.59C486.854 104.464 489.026 102.232 490.024 99.9558C499.496 106.201 508.335 113.402 516.395 121.464C527.496 132.565 536.967 145.143 544.553 158.816C543.429 159.13 542.289 159.441 541.132 159.749ZM433.081 120.064C443.059 118.96 452.234 117.404 460.201 115.466C475.067 131.325 486.549 149.533 494.545 169.006C488.333 169.903 481.93 170.717 475.36 171.441C462.748 172.832 449.665 173.879 436.314 174.57C433.027 156.479 428.367 138.585 422.337 121.051C425.982 120.781 429.571 120.452 433.081 120.064ZM461.791 108.87C461.166 109.036 460.532 109.201 459.889 109.363C448.583 97.92 435.483 87.7665 420.628 79.318C438.955 81.1407 456.927 85.1138 474.022 91.1438C475.08 91.5171 476.134 91.8979 477.183 92.2861C479.642 93.6101 482.066 94.9944 484.453 96.4378C484.638 96.8092 484.656 97.0241 484.656 97.0625C484.656 97.1765 484.497 98.8456 480.306 101.546C476.364 104.087 470.168 106.634 461.791 108.87Z" fill="black"/>
<mask id="mask0" mask-type="alpha" maskUnits="userSpaceOnUse" x="340" y="37" width="45" height="170">
<path d="M340.488 43.7318C354.944 39.7894 369.862 37.7953 384.846 37.8024L384.766 206.114L340.488 43.7318Z" fill="#130947"/>
</mask>
<g mask="url(#mask0)">
<path d="M384.766 374.426C362.665 374.426 340.78 370.072 320.36 361.614C299.941 353.155 281.388 340.757 265.76 325.128C250.132 309.499 237.735 290.944 229.277 270.524C220.819 250.103 216.466 228.217 216.466 206.114C216.466 184.011 220.819 162.124 229.277 141.704C237.735 121.283 250.132 102.729 265.76 87.0996C281.388 71.4704 299.941 59.0726 320.361 50.6142C340.78 42.1557 362.665 37.8022 384.766 37.8022L384.766 206.114L384.766 374.426Z" fill="black"/>
<mask id="mask1" mask-type="alpha" maskUnits="userSpaceOnUse" x="381" y="37" width="170" height="338">
<path d="M381.961 37.803C404.063 37.803 425.948 42.1565 446.367 50.6149C466.786 59.0734 485.34 71.4712 500.968 87.1003C516.596 102.73 528.993 121.284 537.451 141.705C545.909 162.125 550.262 184.012 550.262 206.115C550.262 228.218 545.909 250.104 537.451 270.525C528.993 290.945 516.596 309.5 500.968 325.129C485.34 340.758 466.786 353.156 446.367 361.614C425.948 370.073 404.063 374.426 381.961 374.426L381.961 206.115L381.961 37.803Z" fill="#5EBA8D"/>
</mask>
<g mask="url(#mask1)">
<mask id="path-6-inside-1" fill="white">
<path d="M381.961 37.8027C408.944 37.8027 435.662 39.2176 460.59 41.9666C485.518 44.7156 508.169 48.7449 527.248 53.8244C546.328 58.9039 561.462 64.9341 571.788 71.5708C582.114 78.2074 587.428 85.3206 587.428 92.504C587.428 99.6875 582.114 106.801 571.788 113.437C561.462 120.074 546.328 126.104 527.248 131.184C508.169 136.263 485.518 140.292 460.59 143.041C435.662 145.79 408.944 147.205 381.961 147.205L381.961 92.504L381.961 37.8027Z"/>
</mask>
<path d="M381.961 37.8027C408.944 37.8027 435.662 39.2176 460.59 41.9666C485.518 44.7156 508.169 48.7449 527.248 53.8244C546.328 58.9039 561.462 64.9341 571.788 71.5708C582.114 78.2074 587.428 85.3206 587.428 92.504C587.428 99.6875 582.114 106.801 571.788 113.437C561.462 120.074 546.328 126.104 527.248 131.184C508.169 136.263 485.518 140.292 460.59 143.041C435.662 145.79 408.944 147.205 381.961 147.205L381.961 92.504L381.961 37.8027Z" stroke="white" stroke-width="12" mask="url(#path-6-inside-1)"/>
<mask id="path-7-inside-2" fill="white">
<path d="M381.961 37.8027C408.944 37.8027 435.662 42.3286 460.59 51.1218C485.518 59.9151 508.169 72.8036 527.248 89.0515C546.328 105.299 561.462 124.588 571.788 145.817C582.114 167.046 587.428 189.799 587.428 212.777C587.428 235.755 582.114 258.508 571.788 279.736C561.462 300.965 546.328 320.254 527.248 336.502C508.169 352.75 485.518 365.638 460.59 374.432C435.662 383.225 408.944 387.751 381.961 387.751L381.961 212.777L381.961 37.8027Z"/>
</mask>
<path d="M381.961 37.8027C408.944 37.8027 435.662 42.3286 460.59 51.1218C485.518 59.9151 508.169 72.8036 527.248 89.0515C546.328 105.299 561.462 124.588 571.788 145.817C582.114 167.046 587.428 189.799 587.428 212.777C587.428 235.755 582.114 258.508 571.788 279.736C561.462 300.965 546.328 320.254 527.248 336.502C508.169 352.75 485.518 365.638 460.59 374.432C435.662 383.225 408.944 387.751 381.961 387.751L381.961 212.777L381.961 37.8027Z" stroke="white" stroke-width="12" mask="url(#path-7-inside-2)"/>
<mask id="path-8-inside-3" fill="white">
<path d="M381.961 37.8027C394.209 37.8027 406.337 38.4467 417.653 39.6978C428.968 40.949 439.25 42.7828 447.911 45.0946C456.571 47.4065 463.441 50.151 468.128 53.1715C472.815 56.192 475.228 59.4294 475.228 62.6988C475.228 65.9682 472.815 69.2056 468.128 72.2262C463.441 75.2467 456.571 77.9912 447.911 80.303C439.25 82.6149 428.968 84.4487 417.653 85.6998C406.337 86.951 394.209 87.5949 381.961 87.5949L381.961 62.6988L381.961 37.8027Z"/>
</mask>
<path d="M381.961 37.8027C394.209 37.8027 406.337 38.4467 417.653 39.6978C428.968 40.949 439.25 42.7828 447.911 45.0946C456.571 47.4065 463.441 50.151 468.128 53.1715C472.815 56.192 475.228 59.4294 475.228 62.6988C475.228 65.9682 472.815 69.2056 468.128 72.2262C463.441 75.2467 456.571 77.9912 447.911 80.303C439.25 82.6149 428.968 84.4487 417.653 85.6998C406.337 86.951 394.209 87.5949 381.961 87.5949L381.961 62.6988L381.961 37.8027Z" stroke="white" stroke-width="12" mask="url(#path-8-inside-3)"/>
<path d="M383.725 373.829L389.387 361.975C438.769 258.58 436.329 137.739 382.983 36.3318C517.33 91.8975 534.512 275.241 412.828 354.801L383.725 373.829Z" stroke="white" stroke-width="4"/>
<line x1="381.961" y1="204.115" x2="560.781" y2="204.115" stroke="white" stroke-width="4"/>
</g>
<mask id="path-11-inside-4" fill="white">
<path d="M385.909 37.803C358.926 37.803 332.208 39.2179 307.28 41.9669C282.351 44.7159 259.701 48.7451 240.622 53.8246C221.542 58.9041 206.408 64.9343 196.082 71.571C185.756 78.2077 180.442 85.3208 180.442 92.5043C180.442 99.6878 185.756 106.801 196.082 113.438C206.408 120.074 221.542 126.104 240.622 131.184C259.701 136.263 282.352 140.293 307.28 143.042C332.208 145.791 358.926 147.206 385.909 147.206L385.909 92.5043L385.909 37.803Z"/>
</mask>
<path d="M385.909 37.803C358.926 37.803 332.208 39.2179 307.28 41.9669C282.351 44.7159 259.701 48.7451 240.622 53.8246C221.542 58.9041 206.408 64.9343 196.082 71.571C185.756 78.2077 180.442 85.3208 180.442 92.5043C180.442 99.6878 185.756 106.801 196.082 113.438C206.408 120.074 221.542 126.104 240.622 131.184C259.701 136.263 282.352 140.293 307.28 143.042C332.208 145.791 358.926 147.206 385.909 147.206L385.909 92.5043L385.909 37.803Z" stroke="white" stroke-width="12" mask="url(#path-11-inside-4)"/>
<mask id="path-12-inside-5" fill="white">
<path d="M385.909 37.803C358.926 37.803 332.208 42.3288 307.28 51.1221C282.351 59.9154 259.701 72.8039 240.622 89.0517C221.542 105.3 206.408 124.589 196.082 145.817C185.756 167.046 180.442 189.799 180.442 212.777C180.442 235.755 185.756 258.508 196.082 279.737C206.408 300.966 221.542 320.255 240.622 336.502C259.701 352.75 282.352 365.639 307.28 374.432C332.208 383.225 358.926 387.751 385.909 387.751L385.909 212.777L385.909 37.803Z"/>
</mask>
<path d="M385.909 37.803C358.926 37.803 332.208 42.3288 307.28 51.1221C282.351 59.9154 259.701 72.8039 240.622 89.0517C221.542 105.3 206.408 124.589 196.082 145.817C185.756 167.046 180.442 189.799 180.442 212.777C180.442 235.755 185.756 258.508 196.082 279.737C206.408 300.966 221.542 320.255 240.622 336.502C259.701 352.75 282.352 365.639 307.28 374.432C332.208 383.225 358.926 387.751 385.909 387.751L385.909 212.777L385.909 37.803Z" stroke="white" stroke-width="12" mask="url(#path-12-inside-5)"/>
<mask id="path-13-inside-6" fill="white">
<path d="M385.909 37.803C373.661 37.803 361.533 38.4469 350.217 39.6981C338.901 40.9492 328.62 42.7831 319.959 45.0949C311.299 47.4067 304.429 50.1512 299.742 53.1718C295.054 56.1923 292.642 59.4297 292.642 62.6991C292.642 65.9685 295.054 69.2059 299.742 72.2264C304.429 75.2469 311.299 77.9915 319.959 80.3033C328.62 82.6151 338.901 84.4489 350.217 85.7001C361.533 86.9512 373.661 87.5952 385.909 87.5952L385.909 62.6991L385.909 37.803Z"/>
</mask>
<path d="M385.909 37.803C373.661 37.803 361.533 38.4469 350.217 39.6981C338.901 40.9492 328.62 42.7831 319.959 45.0949C311.299 47.4067 304.429 50.1512 299.742 53.1718C295.054 56.1923 292.642 59.4297 292.642 62.6991C292.642 65.9685 295.054 69.2059 299.742 72.2264C304.429 75.2469 311.299 77.9915 319.959 80.3033C328.62 82.6151 338.901 84.4489 350.217 85.7001C361.533 86.9512 373.661 87.5952 385.909 87.5952L385.909 62.6991L385.909 37.803Z" stroke="white" stroke-width="12" mask="url(#path-13-inside-6)"/>
<path d="M381.34 373.829L375.678 361.975C326.296 258.58 328.736 137.739 382.081 36.3318C247.735 91.8975 230.553 275.241 352.237 354.801L381.34 373.829Z" stroke="white" stroke-width="4"/>
<line y1="-2" x2="178.819" y2="-2" transform="matrix(-1 0 0 1 383.104 206.115)" stroke="white" stroke-width="4"/>
</g>
<mask id="mask2" mask-type="alpha" maskUnits="userSpaceOnUse" x="215" y="23" width="143" height="162">
<path d="M215.863 93.3333C237.599 59.5315 270.712 34.6235 309.214 23.1131L357.418 184.374L215.863 93.3333Z" fill="#130947"/>
</mask>
<g mask="url(#mask2)">
<path d="M357.417 352.685C335.316 352.685 313.431 348.332 293.012 339.873C272.592 331.415 254.039 319.017 238.411 303.388C222.783 287.759 210.386 269.204 201.928 248.784C193.47 228.363 189.117 206.477 189.117 184.374C189.117 162.271 193.47 140.384 201.928 119.964C210.386 99.543 222.783 80.9885 238.411 65.3593C254.039 49.7301 272.593 37.3324 293.012 28.874C313.431 20.4155 335.316 16.062 357.417 16.062L357.417 184.374L357.417 352.685Z" fill="black"/>
<mask id="mask3" mask-type="alpha" maskUnits="userSpaceOnUse" x="354" y="16" width="169" height="337">
<path d="M354.612 16.0627C376.714 16.0627 398.599 20.4163 419.018 28.8747C439.437 37.3332 457.991 49.7309 473.619 65.3601C489.247 80.9893 501.644 99.5438 510.102 119.964C518.56 140.385 522.913 162.271 522.913 184.374C522.913 206.477 518.56 228.364 510.102 248.785C501.644 269.205 489.247 287.76 473.619 303.389C457.991 319.018 439.437 331.416 419.018 339.874C398.599 348.333 376.714 352.686 354.612 352.686L354.612 184.374L354.612 16.0627Z" fill="#5EBA8D"/>
</mask>
<g mask="url(#mask3)">
<mask id="path-19-inside-7" fill="white">
<path d="M354.612 16.0625C381.595 16.0625 408.313 17.4774 433.241 20.2264C458.17 22.9754 480.82 27.0047 499.899 32.0841C518.979 37.1636 534.113 43.1939 544.439 49.8305C554.765 56.4672 560.079 63.5803 560.079 70.7638C560.079 77.9473 554.765 85.0604 544.439 91.6971C534.113 98.3338 518.979 104.364 499.899 109.443C480.82 114.523 458.17 118.552 433.241 121.301C408.313 124.05 381.595 125.465 354.612 125.465L354.612 70.7638L354.612 16.0625Z"/>
</mask>
<path d="M354.612 16.0625C381.595 16.0625 408.313 17.4774 433.241 20.2264C458.17 22.9754 480.82 27.0047 499.899 32.0841C518.979 37.1636 534.113 43.1939 544.439 49.8305C554.765 56.4672 560.079 63.5803 560.079 70.7638C560.079 77.9473 554.765 85.0604 544.439 91.6971C534.113 98.3338 518.979 104.364 499.899 109.443C480.82 114.523 458.17 118.552 433.241 121.301C408.313 124.05 381.595 125.465 354.612 125.465L354.612 70.7638L354.612 16.0625Z" stroke="white" stroke-width="12" mask="url(#path-19-inside-7)"/>
<mask id="path-20-inside-8" fill="white">
<path d="M354.612 16.0625C381.595 16.0625 408.313 20.5883 433.241 29.3816C458.17 38.1749 480.82 51.0634 499.899 67.3112C518.979 83.5591 534.113 102.848 544.439 124.077C554.765 145.306 560.079 168.059 560.079 191.037C560.079 214.014 554.765 236.767 544.439 257.996C534.113 279.225 518.979 298.514 499.899 314.762C480.82 331.01 458.17 343.898 433.241 352.691C408.313 361.485 381.595 366.011 354.612 366.011L354.612 191.037L354.612 16.0625Z"/>
</mask>
<path d="M354.612 16.0625C381.595 16.0625 408.313 20.5883 433.241 29.3816C458.17 38.1749 480.82 51.0634 499.899 67.3112C518.979 83.5591 534.113 102.848 544.439 124.077C554.765 145.306 560.079 168.059 560.079 191.037C560.079 214.014 554.765 236.767 544.439 257.996C534.113 279.225 518.979 298.514 499.899 314.762C480.82 331.01 458.17 343.898 433.241 352.691C408.313 361.485 381.595 366.011 354.612 366.011L354.612 191.037L354.612 16.0625Z" stroke="white" stroke-width="12" mask="url(#path-20-inside-8)"/>
<mask id="path-21-inside-9" fill="white">
<path d="M354.612 16.0625C366.86 16.0625 378.988 16.7065 390.304 17.9576C401.62 19.2088 411.901 21.0426 420.562 23.3544C429.222 25.6662 436.092 28.4107 440.779 31.4313C445.467 34.4518 447.879 37.6892 447.879 40.9586C447.879 44.228 445.467 47.4654 440.779 50.4859C436.092 53.5065 429.222 56.251 420.562 58.5628C411.901 60.8746 401.62 62.7085 390.304 63.9596C378.988 65.2108 366.86 65.8547 354.612 65.8547L354.612 40.9586L354.612 16.0625Z"/>
</mask>
<path d="M354.612 16.0625C366.86 16.0625 378.988 16.7065 390.304 17.9576C401.62 19.2088 411.901 21.0426 420.562 23.3544C429.222 25.6662 436.092 28.4107 440.779 31.4313C445.467 34.4518 447.879 37.6892 447.879 40.9586C447.879 44.228 445.467 47.4654 440.779 50.4859C436.092 53.5065 429.222 56.251 420.562 58.5628C411.901 60.8746 401.62 62.7085 390.304 63.9596C378.988 65.2108 366.86 65.8547 354.612 65.8547L354.612 40.9586L354.612 16.0625Z" stroke="white" stroke-width="12" mask="url(#path-21-inside-9)"/>
<path d="M356.376 352.089L362.038 340.235C411.42 236.84 408.98 115.999 355.635 14.5916C489.981 70.1573 507.163 253.501 385.479 333.06L356.376 352.089Z" stroke="white" stroke-width="4"/>
<line x1="354.612" y1="182.374" x2="533.432" y2="182.374" stroke="white" stroke-width="4"/>
</g>
<mask id="path-24-inside-10" fill="white">
<path d="M358.56 16.0627C331.577 16.0627 304.859 17.4776 279.931 20.2266C255.003 22.9756 232.352 27.0049 213.273 32.0844C194.193 37.1639 179.059 43.1941 168.733 49.8308C158.407 56.4674 153.093 63.5806 153.093 70.7641C153.093 77.9475 158.407 85.0607 168.733 91.6973C179.059 98.334 194.193 104.364 213.273 109.444C232.352 114.523 255.003 118.552 279.931 121.301C304.859 124.05 331.577 125.465 358.56 125.465L358.56 70.764L358.56 16.0627Z"/>
</mask>
<path d="M358.56 16.0627C331.577 16.0627 304.859 17.4776 279.931 20.2266C255.003 22.9756 232.352 27.0049 213.273 32.0844C194.193 37.1639 179.059 43.1941 168.733 49.8308C158.407 56.4674 153.093 63.5806 153.093 70.7641C153.093 77.9475 158.407 85.0607 168.733 91.6973C179.059 98.334 194.193 104.364 213.273 109.444C232.352 114.523 255.003 118.552 279.931 121.301C304.859 124.05 331.577 125.465 358.56 125.465L358.56 70.764L358.56 16.0627Z" stroke="white" stroke-width="12" mask="url(#path-24-inside-10)"/>
<mask id="path-25-inside-11" fill="white">
<path d="M358.56 16.0627C331.577 16.0627 304.859 20.5886 279.931 29.3819C255.003 38.1751 232.352 51.0636 213.273 67.3115C194.193 83.5593 179.059 102.848 168.733 124.077C158.407 145.306 153.093 168.059 153.093 191.037C153.093 214.015 158.407 236.768 168.733 257.996C179.059 279.225 194.193 298.514 213.273 314.762C232.352 331.01 255.003 343.898 279.931 352.692C304.859 361.485 331.577 366.011 358.56 366.011L358.56 191.037L358.56 16.0627Z"/>
</mask>
<path d="M358.56 16.0627C331.577 16.0627 304.859 20.5886 279.931 29.3819C255.003 38.1751 232.352 51.0636 213.273 67.3115C194.193 83.5593 179.059 102.848 168.733 124.077C158.407 145.306 153.093 168.059 153.093 191.037C153.093 214.015 158.407 236.768 168.733 257.996C179.059 279.225 194.193 298.514 213.273 314.762C232.352 331.01 255.003 343.898 279.931 352.692C304.859 361.485 331.577 366.011 358.56 366.011L358.56 191.037L358.56 16.0627Z" stroke="white" stroke-width="12" mask="url(#path-25-inside-11)"/>
<mask id="path-26-inside-12" fill="white">
<path d="M358.56 16.0627C346.312 16.0627 334.184 16.7067 322.868 17.9578C311.553 19.209 301.271 21.0428 292.61 23.3546C283.95 25.6665 277.08 28.411 272.393 31.4315C267.706 34.4521 265.293 37.6894 265.293 40.9589C265.293 44.2283 267.706 47.4656 272.393 50.4862C277.08 53.5067 283.95 56.2512 292.61 58.5631C301.271 60.8749 311.553 62.7087 322.868 63.9599C334.184 65.211 346.312 65.855 358.56 65.855L358.56 40.9588L358.56 16.0627Z"/>
</mask>
<path d="M358.56 16.0627C346.312 16.0627 334.184 16.7067 322.868 17.9578C311.553 19.209 301.271 21.0428 292.61 23.3546C283.95 25.6665 277.08 28.411 272.393 31.4315C267.706 34.4521 265.293 37.6894 265.293 40.9589C265.293 44.2283 267.706 47.4656 272.393 50.4862C277.08 53.5067 283.95 56.2512 292.61 58.5631C301.271 60.8749 311.553 62.7087 322.868 63.9599C334.184 65.211 346.312 65.855 358.56 65.855L358.56 40.9588L358.56 16.0627Z" stroke="white" stroke-width="12" mask="url(#path-26-inside-12)"/>
<path d="M353.991 352.089L348.329 340.235C298.947 236.84 301.387 115.999 354.733 14.5916C220.386 70.1573 203.204 253.501 324.888 333.06L353.991 352.089Z" stroke="white" stroke-width="4"/>
<line y1="-2" x2="178.819" y2="-2" transform="matrix(-1 0 0 1 355.755 184.374)" stroke="white" stroke-width="4"/>
</g>
<mask id="mask4" mask-type="alpha" maskUnits="userSpaceOnUse" x="185" y="122" width="168" height="92">
<path d="M185.69 191.541C188.976 166.941 197.662 143.372 211.124 122.523L352.509 213.828L185.69 191.541Z" fill="#130947"/>
</mask>
<g mask="url(#mask4)">
<path d="M352.509 382.14C330.407 382.14 308.522 377.786 288.103 369.328C267.684 360.87 249.13 348.472 233.502 332.843C217.874 317.213 205.477 298.659 197.019 278.238C188.561 257.818 184.208 235.931 184.208 213.828C184.208 191.725 188.561 169.839 197.019 149.418C205.477 128.998 217.874 110.443 233.502 94.8139C249.13 79.1847 267.684 66.787 288.103 58.3285C308.522 49.8701 330.407 45.5166 352.509 45.5166L352.509 213.828L352.509 382.14Z" fill="black"/>
<mask id="mask5" mask-type="alpha" maskUnits="userSpaceOnUse" x="349" y="45" width="170" height="338">
<path d="M349.704 45.5173C371.805 45.5173 393.69 49.8708 414.109 58.3293C434.529 66.7878 453.082 79.1855 468.71 94.8147C484.338 110.444 496.735 128.998 505.193 149.419C513.651 169.839 518.004 191.726 518.004 213.829C518.004 235.932 513.651 257.819 505.193 278.239C496.735 298.66 484.338 317.214 468.71 332.843C453.082 348.473 434.529 360.87 414.109 369.329C393.69 377.787 371.805 382.141 349.704 382.141L349.704 213.829L349.704 45.5173Z" fill="#5EBA8D"/>
</mask>
<g mask="url(#mask5)">
<mask id="path-32-inside-13" fill="white">
<path d="M349.704 45.5171C376.686 45.5171 403.404 46.932 428.332 49.681C453.261 52.43 475.911 56.4592 494.991 61.5387C514.07 66.6182 529.205 72.6484 539.53 79.2851C549.856 85.9218 555.171 93.0349 555.171 100.218C555.171 107.402 549.856 114.515 539.53 121.152C529.205 127.788 514.07 133.819 494.991 138.898C475.911 143.978 453.261 148.007 428.332 150.756C403.404 153.505 376.686 154.92 349.704 154.92L349.704 100.218L349.704 45.5171Z"/>
</mask>
<path d="M349.704 45.5171C376.686 45.5171 403.404 46.932 428.332 49.681C453.261 52.43 475.911 56.4592 494.991 61.5387C514.07 66.6182 529.205 72.6484 539.53 79.2851C549.856 85.9218 555.171 93.0349 555.171 100.218C555.171 107.402 549.856 114.515 539.53 121.152C529.205 127.788 514.07 133.819 494.991 138.898C475.911 143.978 453.261 148.007 428.332 150.756C403.404 153.505 376.686 154.92 349.704 154.92L349.704 100.218L349.704 45.5171Z" stroke="white" stroke-width="12" mask="url(#path-32-inside-13)"/>
<mask id="path-33-inside-14" fill="white">
<path d="M349.704 45.5171C376.686 45.5171 403.404 50.0429 428.332 58.8362C453.261 67.6295 475.911 80.518 494.991 96.7658C514.07 113.014 529.205 132.303 539.53 153.531C549.856 174.76 555.171 197.513 555.171 220.491C555.171 243.469 549.856 266.222 539.53 287.451C529.205 308.68 514.07 327.969 494.991 344.216C475.911 360.464 453.261 373.353 428.332 382.146C403.404 390.939 376.686 395.465 349.704 395.465L349.704 220.491L349.704 45.5171Z"/>
</mask>
<path d="M349.704 45.5171C376.686 45.5171 403.404 50.0429 428.332 58.8362C453.261 67.6295 475.911 80.518 494.991 96.7658C514.07 113.014 529.205 132.303 539.53 153.531C549.856 174.76 555.171 197.513 555.171 220.491C555.171 243.469 549.856 266.222 539.53 287.451C529.205 308.68 514.07 327.969 494.991 344.216C475.911 360.464 453.261 373.353 428.332 382.146C403.404 390.939 376.686 395.465 349.704 395.465L349.704 220.491L349.704 45.5171Z" stroke="white" stroke-width="12" mask="url(#path-33-inside-14)"/>
<path d="M351.468 381.543L357.129 369.689C406.511 266.294 404.071 145.453 350.726 44.0461C485.073 99.6118 502.254 282.956 380.571 362.515L351.468 381.543Z" stroke="white" stroke-width="4"/>
<line x1="349.704" y1="211.829" x2="528.523" y2="211.829" stroke="white" stroke-width="4"/>
</g>
<mask id="path-36-inside-15" fill="white">
<path d="M353.651 45.5173C326.669 45.5173 299.951 46.9322 275.022 49.6812C250.094 52.4302 227.443 56.4595 208.364 61.539C189.285 66.6185 174.15 72.6487 163.824 79.2854C153.499 85.922 148.184 93.0352 148.184 100.219C148.184 107.402 153.499 114.515 163.824 121.152C174.15 127.789 189.285 133.819 208.364 138.898C227.443 143.978 250.094 148.007 275.022 150.756C299.951 153.505 326.669 154.92 353.651 154.92L353.651 100.219L353.651 45.5173Z"/>
</mask>
<path d="M353.651 45.5173C326.669 45.5173 299.951 46.9322 275.022 49.6812C250.094 52.4302 227.443 56.4595 208.364 61.539C189.285 66.6185 174.15 72.6487 163.824 79.2854C153.499 85.922 148.184 93.0352 148.184 100.219C148.184 107.402 153.499 114.515 163.824 121.152C174.15 127.789 189.285 133.819 208.364 138.898C227.443 143.978 250.094 148.007 275.022 150.756C299.951 153.505 326.669 154.92 353.651 154.92L353.651 100.219L353.651 45.5173Z" stroke="white" stroke-width="12" mask="url(#path-36-inside-15)"/>
<mask id="path-37-inside-16" fill="white">
<path d="M353.651 45.5173C326.669 45.5173 299.951 50.0432 275.022 58.8364C250.094 67.6297 227.443 80.5182 208.364 96.7661C189.285 113.014 174.15 132.303 163.824 153.532C153.499 174.761 148.184 197.513 148.184 220.491C148.184 243.469 153.499 266.222 163.824 287.451C174.15 308.68 189.285 327.969 208.364 344.217C227.443 360.465 250.094 373.353 275.022 382.146C299.951 390.94 326.669 395.465 353.651 395.465L353.651 220.491L353.651 45.5173Z"/>
</mask>
<path d="M353.651 45.5173C326.669 45.5173 299.951 50.0432 275.022 58.8364C250.094 67.6297 227.443 80.5182 208.364 96.7661C189.285 113.014 174.15 132.303 163.824 153.532C153.499 174.761 148.184 197.513 148.184 220.491C148.184 243.469 153.499 266.222 163.824 287.451C174.15 308.68 189.285 327.969 208.364 344.217C227.443 360.465 250.094 373.353 275.022 382.146C299.951 390.94 326.669 395.465 353.651 395.465L353.651 220.491L353.651 45.5173Z" stroke="white" stroke-width="12" mask="url(#path-37-inside-16)"/>
<path d="M349.082 381.543L343.421 369.689C294.039 266.294 296.479 145.453 349.824 44.0461C215.477 99.6118 198.295 282.956 319.979 362.515L349.082 381.543Z" stroke="white" stroke-width="4"/>
<line y1="-2" x2="178.819" y2="-2" transform="matrix(-1 0 0 1 350.846 213.829)" stroke="white" stroke-width="4"/>
</g>
<mask id="mask6" mask-type="alpha" maskUnits="userSpaceOnUse" x="197" y="222" width="169" height="149">
<path d="M254.732 370.411C234.067 352.25 218.17 329.299 208.431 303.568C198.692 277.837 195.409 250.111 198.868 222.816L365.833 243.984L254.732 370.411Z" fill="#130947"/>
</mask>
<g mask="url(#mask6)">
<path d="M365.833 412.296C343.731 412.296 321.846 407.942 301.427 399.484C281.008 391.025 262.454 378.628 246.826 362.998C231.198 347.369 218.801 328.815 210.343 308.394C201.885 287.974 197.532 266.087 197.532 243.984C197.532 221.881 201.885 199.994 210.343 179.574C218.801 159.153 231.198 140.599 246.826 124.97C262.454 109.34 281.008 96.9427 301.427 88.4843C321.846 80.0259 343.731 75.6724 365.833 75.6724L365.833 243.984L365.833 412.296Z" fill="black"/>
<mask id="mask7" mask-type="alpha" maskUnits="userSpaceOnUse" x="363" y="75" width="169" height="338">
<path d="M363.028 75.6731C385.129 75.6731 407.014 80.0266 427.433 88.4851C447.853 96.9435 466.406 109.341 482.034 124.97C497.662 140.6 510.059 159.154 518.517 179.575C526.975 199.995 531.328 221.882 531.328 243.985C531.328 266.088 526.975 287.974 518.517 308.395C510.059 328.815 497.662 347.37 482.034 362.999C466.406 378.628 447.852 391.026 427.433 399.485C407.014 407.943 385.129 412.296 363.027 412.296L363.028 243.985L363.028 75.6731Z" fill="#5EBA8D"/>
</mask>
<g mask="url(#mask7)">
<mask id="path-43-inside-17" fill="white">
<path d="M363.028 75.6729C390.01 75.6729 416.728 80.1987 441.656 88.992C466.585 97.7852 489.235 110.674 508.315 126.922C527.394 143.169 542.529 162.458 552.854 183.687C563.18 204.916 568.494 227.669 568.494 250.647C568.494 273.625 563.18 296.378 552.854 317.607C542.528 338.835 527.394 358.124 508.315 374.372C489.235 390.62 466.585 403.509 441.656 412.302C416.728 421.095 390.01 425.621 363.027 425.621L363.028 250.647L363.028 75.6729Z"/>
</mask>
<path d="M363.028 75.6729C390.01 75.6729 416.728 80.1987 441.656 88.992C466.585 97.7852 489.235 110.674 508.315 126.922C527.394 143.169 542.529 162.458 552.854 183.687C563.18 204.916 568.494 227.669 568.494 250.647C568.494 273.625 563.18 296.378 552.854 317.607C542.528 338.835 527.394 358.124 508.315 374.372C489.235 390.62 466.585 403.509 441.656 412.302C416.728 421.095 390.01 425.621 363.027 425.621L363.028 250.647L363.028 75.6729Z" stroke="white" stroke-width="12" mask="url(#path-43-inside-17)"/>
<mask id="path-44-inside-18" fill="white">
<path d="M363.027 360.4C375.828 360.4 388.503 361.071 400.329 362.375C412.155 363.679 422.901 365.591 431.952 368C441.003 370.41 448.183 373.27 453.082 376.418C457.98 379.566 460.502 382.941 460.502 386.348C460.502 389.756 457.98 393.13 453.082 396.278C448.183 399.426 441.003 402.287 431.952 404.696C422.901 407.106 412.155 409.017 400.329 410.321C388.503 411.625 375.828 412.296 363.027 412.296L363.027 386.348L363.027 360.4Z"/>
</mask>
<path d="M363.027 360.4C375.828 360.4 388.503 361.071 400.329 362.375C412.155 363.679 422.901 365.591 431.952 368C441.003 370.41 448.183 373.27 453.082 376.418C457.98 379.566 460.502 382.941 460.502 386.348C460.502 389.756 457.98 393.13 453.082 396.278C448.183 399.426 441.003 402.287 431.952 404.696C422.901 407.106 412.155 409.017 400.329 410.321C388.503 411.625 375.828 412.296 363.027 412.296L363.027 386.348L363.027 360.4Z" stroke="white" stroke-width="12" mask="url(#path-44-inside-18)"/>
<mask id="path-45-inside-19" fill="white">
<path d="M363.027 360.4C375.828 360.4 388.503 361.072 400.329 362.376C412.155 363.68 422.901 365.591 431.952 368C441.003 370.41 448.183 373.27 453.082 376.419C457.98 379.567 460.502 382.941 460.502 386.348C460.502 389.756 457.98 393.13 453.082 396.278C448.183 399.426 441.003 402.287 431.952 404.696C422.901 407.106 412.155 409.017 400.329 410.321C388.503 411.625 375.828 412.296 363.027 412.296L363.027 386.348L363.027 360.4Z"/>
</mask>
<path d="M363.027 360.4C375.828 360.4 388.503 361.072 400.329 362.376C412.155 363.68 422.901 365.591 431.952 368C441.003 370.41 448.183 373.27 453.082 376.419C457.98 379.567 460.502 382.941 460.502 386.348C460.502 389.756 457.98 393.13 453.082 396.278C448.183 399.426 441.003 402.287 431.952 404.696C422.901 407.106 412.155 409.017 400.329 410.321C388.503 411.625 375.828 412.296 363.027 412.296L363.027 386.348L363.027 360.4Z" stroke="white" stroke-width="12" mask="url(#path-45-inside-19)"/>
<mask id="path-46-inside-20" fill="white">
<path d="M363.028 295.881C391.76 295.881 420.21 297.386 446.755 300.312C473.3 303.237 497.419 307.524 517.736 312.93C538.052 318.335 554.169 324.751 565.164 331.813C576.159 338.876 581.818 346.445 581.818 354.089C581.818 361.733 576.159 369.302 565.164 376.364C554.168 383.426 538.052 389.843 517.736 395.248C497.419 400.653 473.3 404.94 446.755 407.866C420.21 410.791 391.759 412.296 363.027 412.296L363.028 354.089L363.028 295.881Z"/>
</mask>
<path d="M363.028 295.881C391.76 295.881 420.21 297.386 446.755 300.312C473.3 303.237 497.419 307.524 517.736 312.93C538.052 318.335 554.169 324.751 565.164 331.813C576.159 338.876 581.818 346.445 581.818 354.089C581.818 361.733 576.159 369.302 565.164 376.364C554.168 383.426 538.052 389.843 517.736 395.248C497.419 400.653 473.3 404.94 446.755 407.866C420.21 410.791 391.759 412.296 363.027 412.296L363.028 354.089L363.028 295.881Z" stroke="white" stroke-width="12" mask="url(#path-46-inside-20)"/>
<path d="M364.791 411.699L370.453 399.845C419.835 296.45 417.395 175.609 364.05 74.2019C498.396 129.768 515.578 313.111 393.894 392.671L364.791 411.699Z" stroke="white" stroke-width="4"/>
<line x1="363.027" y1="241.985" x2="541.847" y2="241.985" stroke="white" stroke-width="4"/>
</g>
<mask id="path-49-inside-21" fill="white">
<path d="M366.975 75.6731C339.993 75.6731 313.274 80.1989 288.346 88.9922C263.418 97.7855 240.767 110.674 221.688 126.922C202.608 143.17 187.474 162.459 177.148 183.687C166.822 204.916 161.508 227.669 161.508 250.647C161.508 273.625 166.823 296.378 177.148 317.607C187.474 338.836 202.608 358.125 221.688 374.372C240.767 390.62 263.418 403.509 288.346 412.302C313.275 421.095 339.993 425.621 366.975 425.621L366.975 250.647L366.975 75.6731Z"/>
</mask>
<path d="M366.975 75.6731C339.993 75.6731 313.274 80.1989 288.346 88.9922C263.418 97.7855 240.767 110.674 221.688 126.922C202.608 143.17 187.474 162.459 177.148 183.687C166.822 204.916 161.508 227.669 161.508 250.647C161.508 273.625 166.823 296.378 177.148 317.607C187.474 338.836 202.608 358.125 221.688 374.372C240.767 390.62 263.418 403.509 288.346 412.302C313.275 421.095 339.993 425.621 366.975 425.621L366.975 250.647L366.975 75.6731Z" stroke="white" stroke-width="12" mask="url(#path-49-inside-21)"/>
<mask id="path-50-inside-22" fill="white">
<path d="M366.274 360.4C353.473 360.4 340.798 361.072 328.972 362.376C317.146 363.68 306.4 365.591 297.349 368C288.298 370.41 281.118 373.27 276.219 376.419C271.321 379.567 268.8 382.941 268.8 386.348C268.8 389.756 271.321 393.13 276.219 396.278C281.118 399.426 288.298 402.287 297.349 404.696C306.4 407.106 317.146 409.017 328.972 410.321C340.798 411.625 353.473 412.296 366.274 412.296L366.274 386.348L366.274 360.4Z"/>
</mask>
<path d="M366.274 360.4C353.473 360.4 340.798 361.072 328.972 362.376C317.146 363.68 306.4 365.591 297.349 368C288.298 370.41 281.118 373.27 276.219 376.419C271.321 379.567 268.8 382.941 268.8 386.348C268.8 389.756 271.321 393.13 276.219 396.278C281.118 399.426 288.298 402.287 297.349 404.696C306.4 407.106 317.146 409.017 328.972 410.321C340.798 411.625 353.473 412.296 366.274 412.296L366.274 386.348L366.274 360.4Z" stroke="white" stroke-width="12" mask="url(#path-50-inside-22)"/>
<mask id="path-51-inside-23" fill="white">
<path d="M366.274 295.881C337.542 295.881 309.091 297.386 282.546 300.312C256.001 303.237 231.882 307.524 211.565 312.93C191.249 318.335 175.133 324.751 164.137 331.813C153.142 338.876 147.483 346.445 147.483 354.089C147.483 361.733 153.142 369.302 164.137 376.364C175.133 383.426 191.249 389.843 211.565 395.248C231.882 400.653 256.001 404.94 282.546 407.866C309.091 410.791 337.542 412.296 366.274 412.296L366.274 354.089L366.274 295.881Z"/>
</mask>
<path d="M366.274 295.881C337.542 295.881 309.091 297.386 282.546 300.312C256.001 303.237 231.882 307.524 211.565 312.93C191.249 318.335 175.133 324.751 164.137 331.813C153.142 338.876 147.483 346.445 147.483 354.089C147.483 361.733 153.142 369.302 164.137 376.364C175.133 383.426 191.249 389.843 211.565 395.248C231.882 400.653 256.001 404.94 282.546 407.866C309.091 410.791 337.542 412.296 366.274 412.296L366.274 354.089L366.274 295.881Z" stroke="white" stroke-width="12" mask="url(#path-51-inside-23)"/>
<path d="M362.406 411.699L356.744 399.845C307.362 296.45 309.802 175.609 363.148 74.2019C228.801 129.768 211.619 313.111 333.303 392.671L362.406 411.699Z" stroke="white" stroke-width="4"/>
<line y1="-2" x2="178.819" y2="-2" transform="matrix(-1 0 0 1 364.17 243.985)" stroke="white" stroke-width="4"/>
</g>
<mask id="mask8" mask-type="alpha" maskUnits="userSpaceOnUse" x="275" y="253" width="114" height="169">
<path d="M388.273 421.413C346.598 421.413 306.406 405.95 275.477 378.018L388.273 253.101L388.273 421.413Z" fill="#130947"/>
</mask>
<g mask="url(#mask8)">
<path d="M388.273 421.413C366.171 421.413 344.286 417.059 323.867 408.601C303.448 400.142 284.894 387.745 269.266 372.115C253.638 356.486 241.241 337.932 232.783 317.511C224.325 297.091 219.972 275.204 219.972 253.101C219.972 230.998 224.325 209.111 232.783 188.691C241.241 168.27 253.638 149.716 269.266 134.087C284.894 118.457 303.448 106.06 323.867 97.6013C344.286 89.1428 366.171 84.7893 388.273 84.7893L388.273 253.101L388.273 421.413Z" fill="black"/>
<mask id="path-56-inside-24" fill="white">
<path d="M389.415 84.79C362.433 84.79 335.714 89.3159 310.786 98.1091C285.858 106.902 263.207 119.791 244.128 136.039C225.048 152.287 209.914 171.576 199.588 192.804C189.263 214.033 183.948 236.786 183.948 259.764C183.948 282.742 189.263 305.495 199.588 326.724C209.914 347.953 225.049 367.242 244.128 383.489C263.207 399.737 285.858 412.626 310.786 421.419C335.715 430.212 362.433 434.738 389.415 434.738L389.415 259.764L389.415 84.79Z"/>
</mask>
<path d="M389.415 84.79C362.433 84.79 335.714 89.3159 310.786 98.1091C285.858 106.902 263.207 119.791 244.128 136.039C225.048 152.287 209.914 171.576 199.588 192.804C189.263 214.033 183.948 236.786 183.948 259.764C183.948 282.742 189.263 305.495 199.588 326.724C209.914 347.953 225.049 367.242 244.128 383.489C263.207 399.737 285.858 412.626 310.786 421.419C335.715 430.212 362.433 434.738 389.415 434.738L389.415 259.764L389.415 84.79Z" stroke="white" stroke-width="12" mask="url(#path-56-inside-24)"/>
<mask id="path-57-inside-25" fill="white">
<path d="M388.714 369.517C375.913 369.517 363.238 370.188 351.412 371.492C339.586 372.796 328.84 374.708 319.789 377.117C310.738 379.527 303.558 382.387 298.659 385.535C293.761 388.683 291.24 392.058 291.24 395.465C291.24 398.873 293.761 402.247 298.659 405.395C303.558 408.543 310.738 411.404 319.789 413.813C328.84 416.223 339.586 418.134 351.412 419.438C363.238 420.742 375.913 421.413 388.714 421.413L388.714 395.465L388.714 369.517Z"/>
</mask>
<path d="M388.714 369.517C375.913 369.517 363.238 370.188 351.412 371.492C339.586 372.796 328.84 374.708 319.789 377.117C310.738 379.527 303.558 382.387 298.659 385.535C293.761 388.683 291.24 392.058 291.24 395.465C291.24 398.873 293.761 402.247 298.659 405.395C303.558 408.543 310.738 411.404 319.789 413.813C328.84 416.223 339.586 418.134 351.412 419.438C363.238 420.742 375.913 421.413 388.714 421.413L388.714 395.465L388.714 369.517Z" stroke="white" stroke-width="12" mask="url(#path-57-inside-25)"/>
<mask id="path-58-inside-26" fill="white">
<path d="M388.714 304.998C359.982 304.998 331.531 306.503 304.986 309.429C278.441 312.354 254.322 316.641 234.005 322.046C213.689 327.452 197.573 333.868 186.577 340.93C175.582 347.993 169.923 355.562 169.923 363.206C169.923 370.85 175.582 378.419 186.577 385.481C197.573 392.543 213.689 398.96 234.005 404.365C254.322 409.77 278.441 414.057 304.986 416.983C331.531 419.908 359.982 421.413 388.714 421.413L388.714 363.206L388.714 304.998Z"/>
</mask>
<path d="M388.714 304.998C359.982 304.998 331.531 306.503 304.986 309.429C278.441 312.354 254.322 316.641 234.005 322.046C213.689 327.452 197.573 333.868 186.577 340.93C175.582 347.993 169.923 355.562 169.923 363.206C169.923 370.85 175.582 378.419 186.577 385.481C197.573 392.543 213.689 398.96 234.005 404.365C254.322 409.77 278.441 414.057 304.986 416.983C331.531 419.908 359.982 421.413 388.714 421.413L388.714 363.206L388.714 304.998Z" stroke="white" stroke-width="12" mask="url(#path-58-inside-26)"/>
<path d="M384.846 420.816L379.185 408.962C329.802 305.567 332.242 184.726 385.588 83.3188C251.241 138.885 234.059 322.228 355.743 401.788L384.846 420.816Z" stroke="white" stroke-width="4"/>
<line y1="-2" x2="178.819" y2="-2" transform="matrix(-1 0 0 1 386.61 253.102)" stroke="white" stroke-width="4"/>
</g>
<path d="M624.084 256.312V322H630.34V256.312H624.084ZM643.743 274.528V322H649.539V294.308C649.6 291.977 649.968 289.831 650.643 287.868C651.379 285.844 652.36 284.127 653.587 282.716C654.875 281.244 656.408 280.109 658.187 279.312C660.027 278.453 662.112 278.024 664.443 278.024C666.773 278.024 668.705 278.392 670.239 279.128C671.833 279.864 673.091 280.876 674.011 282.164C674.931 283.452 675.575 284.985 675.943 286.764C676.311 288.481 676.495 290.352 676.495 292.376V322H682.291V291.456C682.291 288.635 682.015 286.089 681.463 283.82C680.911 281.551 679.96 279.649 678.611 278.116C677.261 276.521 675.452 275.295 673.183 274.436C670.975 273.577 668.215 273.148 664.903 273.148C661.529 273.148 658.432 274.037 655.611 275.816C652.789 277.533 650.827 279.833 649.723 282.716H649.539V274.528H643.743ZM688.833 274.528L707.141 322H713.305L731.061 274.528H725.081L710.361 316.204H710.177L695.273 274.528H688.833ZM771.807 294.952H741.079C741.324 292.805 741.815 290.72 742.551 288.696C743.348 286.611 744.391 284.801 745.679 283.268C746.967 281.673 748.531 280.416 750.371 279.496C752.211 278.515 754.327 278.024 756.719 278.024C759.049 278.024 761.135 278.515 762.975 279.496C764.815 280.416 766.379 281.673 767.667 283.268C768.955 284.801 769.936 286.58 770.611 288.604C771.347 290.628 771.745 292.744 771.807 294.952ZM741.079 299.828H777.603C777.725 296.516 777.419 293.265 776.683 290.076C775.947 286.825 774.72 283.973 773.003 281.52C771.347 279.005 769.169 276.981 766.471 275.448C763.772 273.915 760.521 273.148 756.719 273.148C752.977 273.148 749.727 273.884 746.967 275.356C744.268 276.767 742.06 278.668 740.343 281.06C738.625 283.391 737.337 286.059 736.479 289.064C735.681 292.069 735.283 295.136 735.283 298.264C735.283 301.637 735.681 304.857 736.479 307.924C737.337 310.929 738.625 313.597 740.343 315.928C742.06 318.197 744.268 320.007 746.967 321.356C749.727 322.644 752.977 323.288 756.719 323.288C762.729 323.288 767.36 321.816 770.611 318.872C773.923 315.928 776.192 311.757 777.419 306.36H771.623C770.703 310.04 769.047 312.984 766.655 315.192C764.263 317.4 760.951 318.504 756.719 318.504C753.959 318.504 751.597 317.921 749.635 316.756C747.672 315.591 746.047 314.119 744.759 312.34C743.471 310.561 742.52 308.568 741.907 306.36C741.355 304.091 741.079 301.913 741.079 299.828ZM814.73 288.42H820.526C820.403 285.844 819.882 283.605 818.962 281.704C818.042 279.803 816.784 278.208 815.19 276.92C813.656 275.632 811.847 274.681 809.762 274.068C807.738 273.455 805.53 273.148 803.138 273.148C801.052 273.148 798.936 273.393 796.79 273.884C794.704 274.375 792.803 275.141 791.086 276.184C789.368 277.227 787.958 278.607 786.854 280.324C785.811 282.041 785.29 284.096 785.29 286.488C785.29 288.512 785.627 290.229 786.302 291.64C786.976 292.989 787.896 294.155 789.062 295.136C790.288 296.056 791.699 296.853 793.294 297.528C794.888 298.141 796.636 298.693 798.538 299.184L805.99 300.84C807.278 301.147 808.535 301.515 809.762 301.944C811.05 302.373 812.184 302.925 813.166 303.6C814.147 304.213 814.914 305.011 815.466 305.992C816.079 306.912 816.386 308.077 816.386 309.488C816.386 311.144 815.956 312.555 815.098 313.72C814.3 314.824 813.258 315.744 811.97 316.48C810.682 317.216 809.271 317.737 807.738 318.044C806.266 318.351 804.824 318.504 803.414 318.504C799.55 318.504 796.299 317.523 793.662 315.56C791.086 313.536 789.675 310.561 789.43 306.636H783.634C784.124 312.463 786.087 316.695 789.522 319.332C793.018 321.969 797.556 323.288 803.138 323.288C805.346 323.288 807.584 323.043 809.854 322.552C812.123 322.061 814.147 321.264 815.926 320.16C817.766 318.995 819.268 317.523 820.434 315.744C821.599 313.904 822.182 311.696 822.182 309.12C822.182 307.035 821.783 305.225 820.986 303.692C820.188 302.159 819.146 300.871 817.858 299.828C816.631 298.785 815.19 297.957 813.534 297.344C811.939 296.669 810.314 296.209 808.658 295.964L800.93 294.216C799.948 293.971 798.875 293.664 797.71 293.296C796.544 292.867 795.471 292.345 794.49 291.732C793.508 291.119 792.68 290.383 792.006 289.524C791.392 288.604 791.086 287.5 791.086 286.212C791.086 284.679 791.423 283.391 792.098 282.348C792.772 281.305 793.662 280.477 794.766 279.864C795.87 279.189 797.066 278.729 798.354 278.484C799.703 278.177 801.022 278.024 802.31 278.024C803.966 278.024 805.53 278.239 807.002 278.668C808.474 279.036 809.762 279.649 810.866 280.508C812.031 281.367 812.951 282.471 813.626 283.82C814.3 285.108 814.668 286.641 814.73 288.42ZM840.715 274.528V260.268H834.919V274.528H826.639V279.404H834.919V311.88C834.857 315.928 835.593 318.719 837.127 320.252C838.66 321.724 841.359 322.46 845.223 322.46C846.081 322.46 846.94 322.429 847.799 322.368C848.657 322.307 849.516 322.276 850.375 322.276V317.4C848.719 317.584 847.063 317.676 845.407 317.676C843.321 317.553 842.003 316.971 841.451 315.928C840.96 314.824 840.715 313.321 840.715 311.42V279.404H850.375V274.528H840.715ZM859.749 256.312V265.604H865.545V256.312H859.749ZM859.749 274.528V322H865.545V274.528H859.749ZM877.466 274.528V322H883.262V294.308C883.323 291.977 883.691 289.831 884.366 287.868C885.102 285.844 886.083 284.127 887.31 282.716C888.598 281.244 890.131 280.109 891.91 279.312C893.75 278.453 895.835 278.024 898.166 278.024C900.496 278.024 902.428 278.392 903.962 279.128C905.556 279.864 906.814 280.876 907.734 282.164C908.654 283.452 909.298 284.985 909.666 286.764C910.034 288.481 910.218 290.352 910.218 292.376V322H916.014V291.456C916.014 288.635 915.738 286.089 915.186 283.82C914.634 281.551 913.683 279.649 912.334 278.116C910.984 276.521 909.175 275.295 906.906 274.436C904.698 273.577 901.938 273.148 898.626 273.148C895.252 273.148 892.155 274.037 889.334 275.816C886.512 277.533 884.55 279.833 883.446 282.716H883.262V274.528H877.466ZM968.004 318.136V274.528H962.208V282.716H962.024C961.472 281.428 960.674 280.201 959.632 279.036C958.65 277.871 957.516 276.859 956.228 276C954.94 275.08 953.498 274.375 951.904 273.884C950.37 273.393 948.714 273.148 946.936 273.148C943.501 273.148 940.434 273.792 937.736 275.08C935.098 276.307 932.86 278.024 931.02 280.232C929.241 282.379 927.861 284.924 926.88 287.868C925.96 290.751 925.5 293.817 925.5 297.068C925.5 300.441 925.898 303.631 926.696 306.636C927.493 309.58 928.75 312.156 930.468 314.364C932.246 316.572 934.485 318.32 937.184 319.608C939.882 320.835 943.133 321.448 946.936 321.448C950.432 321.448 953.468 320.559 956.044 318.78C958.681 317.001 960.674 314.64 962.024 311.696H962.208V318.136C962.208 323.901 961.012 328.317 958.62 331.384C956.228 334.451 952.333 335.984 946.936 335.984C945.341 335.984 943.777 335.8 942.244 335.432C940.71 335.125 939.3 334.604 938.012 333.868C936.785 333.132 935.712 332.151 934.792 330.924C933.933 329.759 933.35 328.287 933.044 326.508H927.248C927.432 329.023 928.106 331.169 929.272 332.948C930.498 334.788 932.001 336.291 933.78 337.456C935.62 338.621 937.674 339.48 939.944 340.032C942.213 340.584 944.544 340.86 946.936 340.86C950.8 340.86 954.05 340.339 956.688 339.296C959.386 338.253 961.564 336.751 963.22 334.788C964.876 332.825 966.072 330.433 966.808 327.612C967.605 324.791 968.004 321.632 968.004 318.136ZM946.936 316.572C944.237 316.572 941.906 316.051 939.944 315.008C937.981 313.904 936.356 312.493 935.068 310.776C933.78 308.997 932.829 306.973 932.216 304.704C931.602 302.435 931.296 300.104 931.296 297.712C931.296 295.259 931.572 292.867 932.124 290.536C932.737 288.144 933.688 286.028 934.976 284.188C936.264 282.348 937.889 280.876 939.852 279.772C941.814 278.607 944.176 278.024 946.936 278.024C949.696 278.024 952.026 278.607 953.928 279.772C955.89 280.937 957.485 282.471 958.712 284.372C959.938 286.273 960.828 288.389 961.38 290.72C961.932 293.051 962.208 295.381 962.208 297.712C962.208 300.104 961.87 302.435 961.196 304.704C960.582 306.973 959.632 308.997 958.344 310.776C957.056 312.493 955.461 313.904 953.56 315.008C951.658 316.051 949.45 316.572 946.936 316.572ZM1006.55 256.312V265.604H1012.35V256.312H1006.55ZM1006.55 274.528V322H1012.35V274.528H1006.55ZM1024.27 274.528V322H1030.06V294.308C1030.12 291.977 1030.49 289.831 1031.17 287.868C1031.9 285.844 1032.88 284.127 1034.11 282.716C1035.4 281.244 1036.93 280.109 1038.71 279.312C1040.55 278.453 1042.64 278.024 1044.97 278.024C1047.3 278.024 1049.23 278.392 1050.76 279.128C1052.36 279.864 1053.61 280.876 1054.53 282.164C1055.45 283.452 1056.1 284.985 1056.47 286.764C1056.83 288.481 1057.02 290.352 1057.02 292.376V322H1062.81V291.456C1062.81 288.635 1062.54 286.089 1061.99 283.82C1061.43 281.551 1060.48 279.649 1059.13 278.116C1057.79 276.521 1055.98 275.295 1053.71 274.436C1051.5 273.577 1048.74 273.148 1045.43 273.148C1042.05 273.148 1038.96 274.037 1036.13 275.816C1033.31 277.533 1031.35 279.833 1030.25 282.716H1030.06V274.528H1024.27ZM1108.58 288.512V261.648H1130.11C1134.46 261.648 1137.99 262.752 1140.69 264.96C1143.38 267.168 1144.73 270.541 1144.73 275.08C1144.73 279.619 1143.38 282.992 1140.69 285.2C1137.99 287.408 1134.46 288.512 1130.11 288.512H1108.58ZM1102.32 256.312V322H1108.58V293.848H1131.49C1134.43 293.848 1137.1 293.449 1139.49 292.652C1141.88 291.793 1143.94 290.567 1145.65 288.972C1147.37 287.316 1148.69 285.323 1149.61 282.992C1150.53 280.661 1150.99 278.024 1150.99 275.08C1150.99 272.136 1150.53 269.499 1149.61 267.168C1148.69 264.837 1147.37 262.875 1145.65 261.28C1143.94 259.624 1141.88 258.397 1139.49 257.6C1137.1 256.741 1134.43 256.312 1131.49 256.312H1102.32ZM1160.18 256.312V322H1165.98V256.312H1160.18ZM1177.44 289.064H1183.23C1183.35 285.2 1184.58 282.409 1186.91 280.692C1189.24 278.913 1192.25 278.024 1195.93 278.024C1197.65 278.024 1199.24 278.177 1200.71 278.484C1202.25 278.729 1203.56 279.22 1204.67 279.956C1205.83 280.692 1206.72 281.704 1207.34 282.992C1208.01 284.219 1208.35 285.813 1208.35 287.776C1208.35 289.064 1208.16 290.107 1207.8 290.904C1207.49 291.701 1207.03 292.345 1206.42 292.836C1205.8 293.265 1205.04 293.572 1204.12 293.756C1203.2 293.94 1202.12 294.093 1200.9 294.216C1197.77 294.584 1194.67 294.983 1191.6 295.412C1188.6 295.78 1185.87 296.455 1183.42 297.436C1181.02 298.417 1179.09 299.859 1177.62 301.76C1176.15 303.6 1175.41 306.176 1175.41 309.488C1175.41 311.88 1175.81 313.965 1176.61 315.744C1177.47 317.461 1178.6 318.903 1180.01 320.068C1181.48 321.172 1183.17 321.969 1185.07 322.46C1187.03 323.012 1189.12 323.288 1191.33 323.288C1193.66 323.288 1195.65 323.073 1197.31 322.644C1199.03 322.215 1200.53 321.601 1201.82 320.804C1203.17 320.007 1204.36 319.025 1205.4 317.86C1206.51 316.633 1207.58 315.253 1208.62 313.72H1208.81C1208.81 314.947 1208.87 316.081 1208.99 317.124C1209.18 318.105 1209.51 318.964 1210 319.7C1210.49 320.436 1211.17 321.019 1212.03 321.448C1212.95 321.816 1214.14 322 1215.62 322C1216.41 322 1217.06 321.969 1217.55 321.908C1218.1 321.847 1218.71 321.755 1219.39 321.632V316.756C1218.84 317.001 1218.22 317.124 1217.55 317.124C1215.28 317.124 1214.14 315.959 1214.14 313.628V288.42C1214.14 285.231 1213.62 282.655 1212.58 280.692C1211.54 278.668 1210.19 277.104 1208.53 276C1206.88 274.896 1205.01 274.16 1202.92 273.792C1200.83 273.363 1198.75 273.148 1196.66 273.148C1193.9 273.148 1191.39 273.455 1189.12 274.068C1186.85 274.681 1184.86 275.632 1183.14 276.92C1181.48 278.208 1180.17 279.864 1179.18 281.888C1178.2 283.912 1177.62 286.304 1177.44 289.064ZM1208.35 296.056V303.6C1208.35 305.931 1207.89 308.016 1206.97 309.856C1206.11 311.696 1204.91 313.26 1203.38 314.548C1201.91 315.836 1200.16 316.817 1198.14 317.492C1196.11 318.167 1194 318.504 1191.79 318.504C1190.44 318.504 1189.12 318.289 1187.83 317.86C1186.54 317.431 1185.41 316.817 1184.43 316.02C1183.45 315.161 1182.65 314.18 1182.04 313.076C1181.48 311.911 1181.21 310.592 1181.21 309.12C1181.21 306.789 1181.88 305.011 1183.23 303.784C1184.64 302.496 1186.42 301.515 1188.57 300.84C1190.71 300.165 1193.08 299.675 1195.65 299.368C1198.29 299 1200.83 298.601 1203.29 298.172C1204.09 298.049 1205.01 297.835 1206.05 297.528C1207.09 297.221 1207.8 296.731 1208.16 296.056H1208.35ZM1226.52 274.528V322H1232.32V294.308C1232.38 291.977 1232.75 289.831 1233.42 287.868C1234.16 285.844 1235.14 284.127 1236.37 282.716C1237.65 281.244 1239.19 280.109 1240.97 279.312C1242.81 278.453 1244.89 278.024 1247.22 278.024C1249.55 278.024 1251.49 278.392 1253.02 279.128C1254.61 279.864 1255.87 280.876 1256.79 282.164C1257.71 283.452 1258.35 284.985 1258.72 286.764C1259.09 288.481 1259.27 290.352 1259.27 292.376V322H1265.07V291.456C1265.07 288.635 1264.79 286.089 1264.24 283.82C1263.69 281.551 1262.74 279.649 1261.39 278.116C1260.04 276.521 1258.23 275.295 1255.96 274.436C1253.75 273.577 1250.99 273.148 1247.68 273.148C1244.31 273.148 1241.21 274.037 1238.39 275.816C1235.57 277.533 1233.61 279.833 1232.5 282.716H1232.32V274.528H1226.52ZM1311.08 294.952H1280.35C1280.6 292.805 1281.09 290.72 1281.83 288.696C1282.62 286.611 1283.67 284.801 1284.95 283.268C1286.24 281.673 1287.81 280.416 1289.65 279.496C1291.49 278.515 1293.6 278.024 1295.99 278.024C1298.32 278.024 1300.41 278.515 1302.25 279.496C1304.09 280.416 1305.65 281.673 1306.94 283.268C1308.23 284.801 1309.21 286.58 1309.89 288.604C1310.62 290.628 1311.02 292.744 1311.08 294.952ZM1280.35 299.828H1316.88C1317 296.516 1316.69 293.265 1315.96 290.076C1315.22 286.825 1313.99 283.973 1312.28 281.52C1310.62 279.005 1308.44 276.981 1305.75 275.448C1303.05 273.915 1299.8 273.148 1295.99 273.148C1292.25 273.148 1289 273.884 1286.24 275.356C1283.54 276.767 1281.33 278.668 1279.62 281.06C1277.9 283.391 1276.61 286.059 1275.75 289.064C1274.96 292.069 1274.56 295.136 1274.56 298.264C1274.56 301.637 1274.96 304.857 1275.75 307.924C1276.61 310.929 1277.9 313.597 1279.62 315.928C1281.33 318.197 1283.54 320.007 1286.24 321.356C1289 322.644 1292.25 323.288 1295.99 323.288C1302 323.288 1306.63 321.816 1309.89 318.872C1313.2 315.928 1315.47 311.757 1316.69 306.36H1310.9C1309.98 310.04 1308.32 312.984 1305.93 315.192C1303.54 317.4 1300.23 318.504 1295.99 318.504C1293.23 318.504 1290.87 317.921 1288.91 316.756C1286.95 315.591 1285.32 314.119 1284.03 312.34C1282.75 310.561 1281.79 308.568 1281.18 306.36C1280.63 304.091 1280.35 301.913 1280.35 299.828ZM1334.78 274.528V260.268H1328.98V274.528H1320.7V279.404H1328.98V311.88C1328.92 315.928 1329.65 318.719 1331.19 320.252C1332.72 321.724 1335.42 322.46 1339.28 322.46C1340.14 322.46 1341 322.429 1341.86 322.368C1342.72 322.307 1343.58 322.276 1344.44 322.276V317.4C1342.78 317.584 1341.12 317.676 1339.47 317.676C1337.38 317.553 1336.06 316.971 1335.51 315.928C1335.02 314.824 1334.78 313.321 1334.78 311.42V279.404H1344.44V274.528H1334.78ZM1353.17 289.064H1358.96C1359.09 285.2 1360.31 282.409 1362.64 280.692C1364.97 278.913 1367.98 278.024 1371.66 278.024C1373.38 278.024 1374.97 278.177 1376.44 278.484C1377.98 278.729 1379.29 279.22 1380.4 279.956C1381.56 280.692 1382.45 281.704 1383.07 282.992C1383.74 284.219 1384.08 285.813 1384.08 287.776C1384.08 289.064 1383.89 290.107 1383.53 290.904C1383.22 291.701 1382.76 292.345 1382.15 292.836C1381.53 293.265 1380.77 293.572 1379.85 293.756C1378.93 293.94 1377.85 294.093 1376.63 294.216C1373.5 294.584 1370.4 294.983 1367.33 295.412C1364.33 295.78 1361.6 296.455 1359.15 297.436C1356.75 298.417 1354.82 299.859 1353.35 301.76C1351.88 303.6 1351.14 306.176 1351.14 309.488C1351.14 311.88 1351.54 313.965 1352.34 315.744C1353.2 317.461 1354.33 318.903 1355.74 320.068C1357.21 321.172 1358.9 321.969 1360.8 322.46C1362.77 323.012 1364.85 323.288 1367.06 323.288C1369.39 323.288 1371.38 323.073 1373.04 322.644C1374.76 322.215 1376.26 321.601 1377.55 320.804C1378.9 320.007 1380.09 319.025 1381.13 317.86C1382.24 316.633 1383.31 315.253 1384.35 313.72H1384.54C1384.54 314.947 1384.6 316.081 1384.72 317.124C1384.91 318.105 1385.24 318.964 1385.73 319.7C1386.23 320.436 1386.9 321.019 1387.76 321.448C1388.68 321.816 1389.87 322 1391.35 322C1392.14 322 1392.79 321.969 1393.28 321.908C1393.83 321.847 1394.44 321.755 1395.12 321.632V316.756C1394.57 317.001 1393.95 317.124 1393.28 317.124C1391.01 317.124 1389.87 315.959 1389.87 313.628V288.42C1389.87 285.231 1389.35 282.655 1388.31 280.692C1387.27 278.668 1385.92 277.104 1384.26 276C1382.61 274.896 1380.74 274.16 1378.65 273.792C1376.57 273.363 1374.48 273.148 1372.39 273.148C1369.63 273.148 1367.12 273.455 1364.85 274.068C1362.58 274.681 1360.59 275.632 1358.87 276.92C1357.21 278.208 1355.9 279.864 1354.91 281.888C1353.93 283.912 1353.35 286.304 1353.17 289.064ZM1384.08 296.056V303.6C1384.08 305.931 1383.62 308.016 1382.7 309.856C1381.84 311.696 1380.64 313.26 1379.11 314.548C1377.64 315.836 1375.89 316.817 1373.87 317.492C1371.84 318.167 1369.73 318.504 1367.52 318.504C1366.17 318.504 1364.85 318.289 1363.56 317.86C1362.27 317.431 1361.14 316.817 1360.16 316.02C1359.18 315.161 1358.38 314.18 1357.77 313.076C1357.21 311.911 1356.94 310.592 1356.94 309.12C1356.94 306.789 1357.61 305.011 1358.96 303.784C1360.37 302.496 1362.15 301.515 1364.3 300.84C1366.45 300.165 1368.81 299.675 1371.38 299.368C1374.02 299 1376.57 298.601 1379.02 298.172C1379.82 298.049 1380.74 297.835 1381.78 297.528C1382.82 297.221 1383.53 296.731 1383.89 296.056H1384.08ZM1402.35 274.528V322H1408.14V296.7C1408.14 294.185 1408.57 291.885 1409.43 289.8C1410.29 287.653 1411.48 285.813 1413.02 284.28C1414.61 282.747 1416.48 281.581 1418.63 280.784C1420.78 279.925 1423.17 279.557 1425.81 279.68V273.884C1421.51 273.7 1417.8 274.651 1414.67 276.736C1411.61 278.821 1409.34 281.796 1407.87 285.66H1407.68V274.528H1402.35ZM1426.95 274.528L1445.9 321.816L1443.88 327.152C1443.39 328.256 1442.93 329.268 1442.5 330.188C1442.07 331.108 1441.55 331.875 1440.93 332.488C1440.32 333.163 1439.58 333.684 1438.73 334.052C1437.93 334.42 1436.89 334.604 1435.6 334.604C1434.92 334.604 1434.25 334.543 1433.57 334.42C1432.96 334.359 1432.32 334.267 1431.64 334.144V339.02C1432.13 339.204 1432.68 339.296 1433.3 339.296C1433.97 339.357 1434.89 339.419 1436.06 339.48C1437.9 339.48 1439.4 339.296 1440.57 338.928C1441.79 338.621 1442.83 338.069 1443.69 337.272C1444.61 336.536 1445.44 335.493 1446.18 334.144C1446.91 332.856 1447.71 331.2 1448.57 329.176L1469.18 274.528H1463.38L1448.75 315.008L1433.11 274.528H1426.95ZM1503.42 256.312V322H1509.68V290.168H1548.68V322H1554.94V256.312H1548.68V284.832H1509.68V256.312H1503.42ZM1602.15 294.952H1571.42C1571.66 292.805 1572.15 290.72 1572.89 288.696C1573.69 286.611 1574.73 284.801 1576.02 283.268C1577.31 281.673 1578.87 280.416 1580.71 279.496C1582.55 278.515 1584.67 278.024 1587.06 278.024C1589.39 278.024 1591.47 278.515 1593.31 279.496C1595.15 280.416 1596.72 281.673 1598.01 283.268C1599.29 284.801 1600.28 286.58 1600.95 288.604C1601.69 290.628 1602.08 292.744 1602.15 294.952ZM1571.42 299.828H1607.94C1608.06 296.516 1607.76 293.265 1607.02 290.076C1606.29 286.825 1605.06 283.973 1603.34 281.52C1601.69 279.005 1599.51 276.981 1596.81 275.448C1594.11 273.915 1590.86 273.148 1587.06 273.148C1583.32 273.148 1580.07 273.884 1577.31 275.356C1574.61 276.767 1572.4 278.668 1570.68 281.06C1568.96 283.391 1567.68 286.059 1566.82 289.064C1566.02 292.069 1565.62 295.136 1565.62 298.264C1565.62 301.637 1566.02 304.857 1566.82 307.924C1567.68 310.929 1568.96 313.597 1570.68 315.928C1572.4 318.197 1574.61 320.007 1577.31 321.356C1580.07 322.644 1583.32 323.288 1587.06 323.288C1593.07 323.288 1597.7 321.816 1600.95 318.872C1604.26 315.928 1606.53 311.757 1607.76 306.36H1601.96C1601.04 310.04 1599.39 312.984 1596.99 315.192C1594.6 317.4 1591.29 318.504 1587.06 318.504C1584.3 318.504 1581.94 317.921 1579.97 316.756C1578.01 315.591 1576.39 314.119 1575.1 312.34C1573.81 310.561 1572.86 308.568 1572.25 306.36C1571.69 304.091 1571.42 301.913 1571.42 299.828ZM1616.09 289.064H1621.89C1622.01 285.2 1623.23 282.409 1625.57 280.692C1627.9 278.913 1630.9 278.024 1634.58 278.024C1636.3 278.024 1637.89 278.177 1639.37 278.484C1640.9 278.729 1642.22 279.22 1643.32 279.956C1644.49 280.692 1645.38 281.704 1645.99 282.992C1646.66 284.219 1647 285.813 1647 287.776C1647 289.064 1646.82 290.107 1646.45 290.904C1646.14 291.701 1645.68 292.345 1645.07 292.836C1644.46 293.265 1643.69 293.572 1642.77 293.756C1641.85 293.94 1640.78 294.093 1639.55 294.216C1636.42 294.584 1633.32 294.983 1630.26 295.412C1627.25 295.78 1624.52 296.455 1622.07 297.436C1619.68 298.417 1617.75 299.859 1616.27 301.76C1614.8 303.6 1614.07 306.176 1614.07 309.488C1614.07 311.88 1614.46 313.965 1615.26 315.744C1616.12 317.461 1617.25 318.903 1618.67 320.068C1620.14 321.172 1621.82 321.969 1623.73 322.46C1625.69 323.012 1627.77 323.288 1629.98 323.288C1632.31 323.288 1634.31 323.073 1635.96 322.644C1637.68 322.215 1639.18 321.601 1640.47 320.804C1641.82 320.007 1643.01 319.025 1644.06 317.86C1645.16 316.633 1646.23 315.253 1647.28 313.72H1647.46C1647.46 314.947 1647.52 316.081 1647.65 317.124C1647.83 318.105 1648.17 318.964 1648.66 319.7C1649.15 320.436 1649.82 321.019 1650.68 321.448C1651.6 321.816 1652.8 322 1654.27 322C1655.07 322 1655.71 321.969 1656.2 321.908C1656.75 321.847 1657.37 321.755 1658.04 321.632V316.756C1657.49 317.001 1656.88 317.124 1656.2 317.124C1653.93 317.124 1652.8 315.959 1652.8 313.628V288.42C1652.8 285.231 1652.28 282.655 1651.23 280.692C1650.19 278.668 1648.84 277.104 1647.19 276C1645.53 274.896 1643.66 274.16 1641.57 273.792C1639.49 273.363 1637.4 273.148 1635.32 273.148C1632.56 273.148 1630.04 273.455 1627.77 274.068C1625.5 274.681 1623.51 275.632 1621.79 276.92C1620.14 278.208 1618.82 279.864 1617.84 281.888C1616.86 283.912 1616.27 286.304 1616.09 289.064ZM1647 296.056V303.6C1647 305.931 1646.54 308.016 1645.62 309.856C1644.76 311.696 1643.57 313.26 1642.03 314.548C1640.56 315.836 1638.81 316.817 1636.79 317.492C1634.77 318.167 1632.65 318.504 1630.44 318.504C1629.09 318.504 1627.77 318.289 1626.49 317.86C1625.2 317.431 1624.06 316.817 1623.08 316.02C1622.1 315.161 1621.3 314.18 1620.69 313.076C1620.14 311.911 1619.86 310.592 1619.86 309.12C1619.86 306.789 1620.54 305.011 1621.89 303.784C1623.3 302.496 1625.07 301.515 1627.22 300.84C1629.37 300.165 1631.73 299.675 1634.31 299.368C1636.94 299 1639.49 298.601 1641.94 298.172C1642.74 298.049 1643.66 297.835 1644.7 297.528C1645.74 297.221 1646.45 296.731 1646.82 296.056H1647ZM1665.36 256.312V322H1671.16V256.312H1665.36ZM1692.37 274.528V260.268H1686.57V274.528H1678.29V279.404H1686.57V311.88C1686.51 315.928 1687.25 318.719 1688.78 320.252C1690.31 321.724 1693.01 322.46 1696.88 322.46C1697.74 322.46 1698.59 322.429 1699.45 322.368C1700.31 322.307 1701.17 322.276 1702.03 322.276V317.4C1700.37 317.584 1698.72 317.676 1697.06 317.676C1694.98 317.553 1693.66 316.971 1693.1 315.928C1692.61 314.824 1692.37 313.321 1692.37 311.42V279.404H1702.03V274.528H1692.37ZM1711.22 256.312V322H1717.02V294.308C1717.08 291.977 1717.44 289.831 1718.12 287.868C1718.86 285.844 1719.84 284.127 1721.06 282.716C1722.35 281.244 1723.88 280.109 1725.66 279.312C1727.5 278.453 1729.59 278.024 1731.92 278.024C1734.25 278.024 1736.18 278.392 1737.72 279.128C1739.31 279.864 1740.57 280.876 1741.49 282.164C1742.41 283.452 1743.05 284.985 1743.42 286.764C1743.79 288.481 1743.97 290.352 1743.97 292.376V322H1749.77V291.456C1749.77 288.635 1749.49 286.089 1748.94 283.82C1748.39 281.551 1747.44 279.649 1746.09 278.116C1744.74 276.521 1742.93 275.295 1740.66 274.436C1738.45 273.577 1735.69 273.148 1732.38 273.148C1729.01 273.148 1725.91 274.037 1723.09 275.816C1720.27 277.533 1718.3 279.833 1717.2 282.716H1717.02V256.312H1711.22Z" fill="black"/>
<path d="M625.384 127.896V225H699.096V207.048H646.736V183.248H693.792V166.656H646.736V145.848H698.008V127.896H625.384ZM711.532 154.688V225H730.844V188.144C730.844 180.981 732.022 175.859 734.38 172.776C736.737 169.603 740.545 168.016 745.804 168.016C750.428 168.016 753.646 169.467 755.46 172.368C757.273 175.179 758.18 179.485 758.18 185.288V225H777.492V181.752C777.492 177.4 777.084 173.456 776.268 169.92C775.542 166.293 774.228 163.256 772.324 160.808C770.42 158.269 767.79 156.32 764.436 154.96C761.172 153.509 756.956 152.784 751.788 152.784C747.708 152.784 743.718 153.736 739.82 155.64C735.921 157.453 732.748 160.4 730.3 164.48H729.892V154.688H711.532ZM842.061 189.64C842.061 192.541 841.789 195.352 841.245 198.072C840.701 200.792 839.794 203.24 838.525 205.416C837.255 207.501 835.533 209.179 833.357 210.448C831.271 211.717 828.642 212.352 825.469 212.352C822.477 212.352 819.893 211.717 817.717 210.448C815.631 209.088 813.863 207.365 812.413 205.28C811.053 203.104 810.055 200.656 809.421 197.936C808.786 195.216 808.469 192.496 808.469 189.776C808.469 186.875 808.741 184.109 809.285 181.48C809.919 178.76 810.871 176.357 812.141 174.272C813.501 172.187 815.269 170.509 817.445 169.24C819.621 167.971 822.295 167.336 825.469 167.336C828.642 167.336 831.271 167.971 833.357 169.24C835.442 170.509 837.119 172.187 838.389 174.272C839.749 176.267 840.701 178.624 841.245 181.344C841.789 183.973 842.061 186.739 842.061 189.64ZM842.333 216.024V225H860.693V127.896H841.381V163.256H841.109C838.933 159.811 835.941 157.227 832.133 155.504C828.415 153.691 824.471 152.784 820.301 152.784C815.133 152.784 810.599 153.827 806.701 155.912C802.802 157.907 799.538 160.581 796.909 163.936C794.37 167.291 792.421 171.189 791.061 175.632C789.791 179.984 789.157 184.517 789.157 189.232C789.157 194.128 789.791 198.843 791.061 203.376C792.421 207.909 794.37 211.944 796.909 215.48C799.538 218.925 802.847 221.691 806.837 223.776C810.826 225.771 815.45 226.768 820.709 226.768C825.333 226.768 829.458 225.952 833.085 224.32C836.802 222.597 839.794 219.832 842.061 216.024H842.333ZM898.681 173.592V144.488H915.273C917.721 144.488 920.079 144.669 922.345 145.032C924.612 145.395 926.607 146.12 928.329 147.208C930.052 148.205 931.412 149.656 932.409 151.56C933.497 153.464 934.041 155.957 934.041 159.04C934.041 162.123 933.497 164.616 932.409 166.52C931.412 168.424 930.052 169.92 928.329 171.008C926.607 172.005 924.612 172.685 922.345 173.048C920.079 173.411 917.721 173.592 915.273 173.592H898.681ZM877.329 127.896V225H898.681V190.184H921.121C927.196 190.184 932.364 189.323 936.625 187.6C940.887 185.787 944.332 183.429 946.961 180.528C949.681 177.627 951.631 174.317 952.809 170.6C954.079 166.792 954.713 162.939 954.713 159.04C954.713 155.051 954.079 151.197 952.809 147.48C951.631 143.763 949.681 140.453 946.961 137.552C944.332 134.651 940.887 132.339 936.625 130.616C932.364 128.803 927.196 127.896 921.121 127.896H877.329ZM965.184 176.312C965.456 171.779 966.59 168.016 968.584 165.024C970.579 162.032 973.118 159.629 976.2 157.816C979.283 156.003 982.728 154.733 986.536 154.008C990.435 153.192 994.334 152.784 998.232 152.784C1001.77 152.784 1005.35 153.056 1008.98 153.6C1012.6 154.053 1015.91 155.005 1018.9 156.456C1021.9 157.907 1024.34 159.947 1026.25 162.576C1028.15 165.115 1029.1 168.515 1029.1 172.776V209.36C1029.1 212.533 1029.29 215.571 1029.65 218.472C1030.01 221.373 1030.65 223.549 1031.55 225H1011.97C1011.61 223.912 1011.29 222.824 1011.02 221.736C1010.83 220.557 1010.7 219.379 1010.61 218.2C1007.53 221.373 1003.9 223.595 999.728 224.864C995.558 226.133 991.296 226.768 986.944 226.768C983.59 226.768 980.462 226.36 977.56 225.544C974.659 224.728 972.12 223.459 969.944 221.736C967.768 220.013 966.046 217.837 964.776 215.208C963.598 212.579 963.008 209.451 963.008 205.824C963.008 201.835 963.688 198.571 965.048 196.032C966.499 193.403 968.312 191.317 970.488 189.776C972.755 188.235 975.294 187.101 978.104 186.376C981.006 185.56 983.907 184.925 986.808 184.472C989.71 184.019 992.566 183.656 995.376 183.384C998.187 183.112 1000.68 182.704 1002.86 182.16C1005.03 181.616 1006.75 180.845 1008.02 179.848C1009.29 178.76 1009.88 177.219 1009.79 175.224C1009.79 173.139 1009.43 171.507 1008.7 170.328C1008.07 169.059 1007.16 168.107 1005.98 167.472C1004.9 166.747 1003.58 166.293 1002.04 166.112C1000.59 165.84 999.003 165.704 997.28 165.704C993.472 165.704 990.48 166.52 988.304 168.152C986.128 169.784 984.859 172.504 984.496 176.312H965.184ZM1009.79 190.592C1008.98 191.317 1007.93 191.907 1006.66 192.36C1005.49 192.723 1004.17 193.04 1002.72 193.312C1001.36 193.584 999.91 193.811 998.368 193.992C996.827 194.173 995.286 194.4 993.744 194.672C992.294 194.944 990.843 195.307 989.392 195.76C988.032 196.213 986.808 196.848 985.72 197.664C984.723 198.389 983.907 199.341 983.272 200.52C982.638 201.699 982.32 203.195 982.32 205.008C982.32 206.731 982.638 208.181 983.272 209.36C983.907 210.539 984.768 211.491 985.856 212.216C986.944 212.851 988.214 213.304 989.664 213.576C991.115 213.848 992.611 213.984 994.152 213.984C997.96 213.984 1000.91 213.349 1002.99 212.08C1005.08 210.811 1006.62 209.315 1007.62 207.592C1008.61 205.779 1009.2 203.965 1009.38 202.152C1009.66 200.339 1009.79 198.888 1009.79 197.8V190.592ZM1044.09 154.688V225H1063.41V188.144C1063.41 180.981 1064.58 175.859 1066.94 172.776C1069.3 169.603 1073.11 168.016 1078.37 168.016C1082.99 168.016 1086.21 169.467 1088.02 172.368C1089.84 175.179 1090.74 179.485 1090.74 185.288V225H1110.05V181.752C1110.05 177.4 1109.65 173.456 1108.83 169.92C1108.1 166.293 1106.79 163.256 1104.89 160.808C1102.98 158.269 1100.35 156.32 1097 154.96C1093.73 153.509 1089.52 152.784 1084.35 152.784C1080.27 152.784 1076.28 153.736 1072.38 155.64C1068.48 157.453 1065.31 160.4 1062.86 164.48H1062.45V154.688H1044.09ZM1174.62 189.64C1174.62 192.541 1174.35 195.352 1173.81 198.072C1173.26 200.792 1172.36 203.24 1171.09 205.416C1169.82 207.501 1168.1 209.179 1165.92 210.448C1163.83 211.717 1161.2 212.352 1158.03 212.352C1155.04 212.352 1152.46 211.717 1150.28 210.448C1148.19 209.088 1146.43 207.365 1144.98 205.28C1143.62 203.104 1142.62 200.656 1141.98 197.936C1141.35 195.216 1141.03 192.496 1141.03 189.776C1141.03 186.875 1141.3 184.109 1141.85 181.48C1142.48 178.76 1143.43 176.357 1144.7 174.272C1146.06 172.187 1147.83 170.509 1150.01 169.24C1152.18 167.971 1154.86 167.336 1158.03 167.336C1161.2 167.336 1163.83 167.971 1165.92 169.24C1168 170.509 1169.68 172.187 1170.95 174.272C1172.31 176.267 1173.26 178.624 1173.81 181.344C1174.35 183.973 1174.62 186.739 1174.62 189.64ZM1174.9 216.024V225H1193.26V127.896H1173.94V163.256H1173.67C1171.5 159.811 1168.5 157.227 1164.7 155.504C1160.98 153.691 1157.03 152.784 1152.86 152.784C1147.7 152.784 1143.16 153.827 1139.26 155.912C1135.36 157.907 1132.1 160.581 1129.47 163.936C1126.93 167.291 1124.98 171.189 1123.62 175.632C1122.35 179.984 1121.72 184.517 1121.72 189.232C1121.72 194.128 1122.35 198.843 1123.62 203.376C1124.98 207.909 1126.93 211.944 1129.47 215.48C1132.1 218.925 1135.41 221.691 1139.4 223.776C1143.39 225.771 1148.01 226.768 1153.27 226.768C1157.9 226.768 1162.02 225.952 1165.65 224.32C1169.36 222.597 1172.36 219.832 1174.62 216.024H1174.9ZM1255.18 182.296H1223.76C1223.85 180.936 1224.13 179.395 1224.58 177.672C1225.12 175.949 1225.99 174.317 1227.16 172.776C1228.43 171.235 1230.07 169.965 1232.06 168.968C1234.15 167.88 1236.73 167.336 1239.81 167.336C1244.53 167.336 1248.02 168.605 1250.28 171.144C1252.64 173.683 1254.27 177.4 1255.18 182.296ZM1223.76 194.536H1274.49C1274.85 189.096 1274.4 183.883 1273.13 178.896C1271.86 173.909 1269.78 169.467 1266.88 165.568C1264.07 161.669 1260.44 158.587 1256 156.32C1251.55 153.963 1246.34 152.784 1240.36 152.784C1235.01 152.784 1230.11 153.736 1225.67 155.64C1221.32 157.544 1217.55 160.173 1214.38 163.528C1211.21 166.792 1208.76 170.691 1207.04 175.224C1205.31 179.757 1204.45 184.653 1204.45 189.912C1204.45 195.352 1205.27 200.339 1206.9 204.872C1208.62 209.405 1211.03 213.304 1214.11 216.568C1217.19 219.832 1220.95 222.371 1225.4 224.184C1229.84 225.907 1234.83 226.768 1240.36 226.768C1248.33 226.768 1255.13 224.955 1260.76 221.328C1266.38 217.701 1270.55 211.672 1273.27 203.24H1256.27C1255.63 205.416 1253.91 207.501 1251.1 209.496C1248.29 211.4 1244.93 212.352 1241.04 212.352C1235.6 212.352 1231.43 210.947 1228.52 208.136C1225.62 205.325 1224.04 200.792 1223.76 194.536ZM1286.49 154.688V225H1305.8V184.2C1305.8 180.755 1306.3 177.989 1307.3 175.904C1308.29 173.728 1309.47 172.096 1310.83 171.008C1312.28 169.829 1313.73 169.059 1315.19 168.696C1316.73 168.243 1317.95 168.016 1318.86 168.016C1321.94 168.016 1324.25 168.56 1325.79 169.648C1327.43 170.645 1328.56 172.005 1329.19 173.728C1329.92 175.451 1330.33 177.355 1330.42 179.44C1330.51 181.435 1330.55 183.475 1330.55 185.56V225H1349.87V185.832C1349.87 183.656 1350 181.525 1350.27 179.44C1350.64 177.264 1351.27 175.36 1352.18 173.728C1353.17 172.005 1354.49 170.645 1356.12 169.648C1357.84 168.56 1360.07 168.016 1362.79 168.016C1365.51 168.016 1367.64 168.469 1369.18 169.376C1370.81 170.283 1372.03 171.507 1372.85 173.048C1373.67 174.589 1374.16 176.403 1374.35 178.488C1374.53 180.573 1374.62 182.795 1374.62 185.152V225H1393.93V177.944C1393.93 173.411 1393.29 169.557 1392.03 166.384C1390.76 163.12 1388.99 160.491 1386.72 158.496C1384.45 156.501 1381.73 155.051 1378.56 154.144C1375.39 153.237 1371.94 152.784 1368.23 152.784C1363.33 152.784 1359.07 153.963 1355.44 156.32C1351.91 158.677 1349.09 161.397 1347.01 164.48C1345.11 160.128 1342.29 157.091 1338.58 155.368C1334.95 153.645 1330.92 152.784 1326.47 152.784C1321.85 152.784 1317.72 153.781 1314.1 155.776C1310.56 157.771 1307.52 160.581 1304.99 164.208H1304.71V154.688H1286.49ZM1429.05 143.808V127.896H1409.74V143.808H1429.05ZM1409.74 154.688V225H1429.05V154.688H1409.74ZM1492.13 179.44H1511.03C1510.76 174.907 1509.67 171.008 1507.77 167.744C1505.87 164.389 1503.37 161.624 1500.29 159.448C1497.3 157.181 1493.85 155.504 1489.95 154.416C1486.15 153.328 1482.16 152.784 1477.99 152.784C1472.27 152.784 1467.2 153.736 1462.75 155.64C1458.31 157.544 1454.55 160.219 1451.47 163.664C1448.38 167.019 1446.03 171.053 1444.39 175.768C1442.85 180.392 1442.08 185.424 1442.08 190.864C1442.08 196.123 1442.94 200.973 1444.67 205.416C1446.39 209.768 1448.79 213.531 1451.87 216.704C1454.96 219.877 1458.67 222.371 1463.03 224.184C1467.47 225.907 1472.32 226.768 1477.58 226.768C1486.92 226.768 1494.58 224.32 1500.56 219.424C1506.55 214.528 1510.17 207.411 1511.44 198.072H1492.81C1492.18 202.424 1490.59 205.915 1488.05 208.544C1485.6 211.083 1482.07 212.352 1477.44 212.352C1474.45 212.352 1471.91 211.672 1469.83 210.312C1467.74 208.952 1466.06 207.229 1464.79 205.144C1463.62 202.968 1462.75 200.565 1462.21 197.936C1461.67 195.307 1461.39 192.723 1461.39 190.184C1461.39 187.555 1461.67 184.925 1462.21 182.296C1462.75 179.576 1463.66 177.128 1464.93 174.952C1466.29 172.685 1468.01 170.872 1470.1 169.512C1472.18 168.061 1474.77 167.336 1477.85 167.336C1486.1 167.336 1490.86 171.371 1492.13 179.44ZM1537.31 202.152H1518.95C1519.13 206.867 1520.18 210.811 1522.08 213.984C1524.07 217.067 1526.57 219.56 1529.56 221.464C1532.64 223.368 1536.13 224.728 1540.03 225.544C1543.93 226.36 1547.92 226.768 1552 226.768C1555.99 226.768 1559.89 226.36 1563.7 225.544C1567.59 224.819 1571.04 223.504 1574.03 221.6C1577.02 219.696 1579.43 217.203 1581.24 214.12C1583.14 210.947 1584.1 207.048 1584.1 202.424C1584.1 199.16 1583.46 196.44 1582.19 194.264C1580.92 191.997 1579.25 190.139 1577.16 188.688C1575.07 187.147 1572.67 185.923 1569.95 185.016C1567.32 184.109 1564.6 183.339 1561.79 182.704C1559.07 182.069 1556.4 181.48 1553.77 180.936C1551.14 180.392 1548.78 179.803 1546.7 179.168C1544.7 178.443 1543.07 177.536 1541.8 176.448C1540.53 175.36 1539.9 173.955 1539.9 172.232C1539.9 170.781 1540.26 169.648 1540.98 168.832C1541.71 167.925 1542.57 167.245 1543.57 166.792C1544.66 166.339 1545.83 166.067 1547.1 165.976C1548.37 165.795 1549.55 165.704 1550.64 165.704C1554.09 165.704 1557.08 166.384 1559.62 167.744C1562.15 169.013 1563.56 171.507 1563.83 175.224H1582.19C1581.83 170.872 1580.7 167.291 1578.79 164.48C1576.98 161.579 1574.67 159.267 1571.86 157.544C1569.05 155.821 1565.83 154.597 1562.2 153.872C1558.66 153.147 1554.99 152.784 1551.18 152.784C1547.38 152.784 1543.66 153.147 1540.03 153.872C1536.41 154.507 1533.14 155.685 1530.24 157.408C1527.34 159.04 1524.98 161.307 1523.17 164.208C1521.45 167.109 1520.58 170.827 1520.58 175.36C1520.58 178.443 1521.22 181.072 1522.49 183.248C1523.76 185.333 1525.43 187.101 1527.52 188.552C1529.61 189.912 1531.96 191.045 1534.59 191.952C1537.31 192.768 1540.08 193.493 1542.89 194.128C1549.78 195.579 1555.13 197.029 1558.94 198.48C1562.83 199.931 1564.78 202.107 1564.78 205.008C1564.78 206.731 1564.38 208.181 1563.56 209.36C1562.74 210.448 1561.7 211.355 1560.43 212.08C1559.25 212.715 1557.89 213.213 1556.35 213.576C1554.9 213.848 1553.5 213.984 1552.14 213.984C1550.23 213.984 1548.37 213.757 1546.56 213.304C1544.84 212.851 1543.3 212.171 1541.94 211.264C1540.58 210.267 1539.44 209.043 1538.54 207.592C1537.72 206.051 1537.31 204.237 1537.31 202.152Z" fill="black"/>
<g style="mix-blend-mode:exclusion">
<path d="M0 27C0 12.0883 12.0883 0 27 0H1964C1978.91 0 1991 12.0883 1991 27V421C1991 435.912 1978.91 448 1964 448H27C12.0883 448 0 435.912 0 421V27Z" fill="white"/>
</g>
</svg>
