<svg width="630" height="630" viewBox="0 0 630 630" fill="none" xmlns="http://www.w3.org/2000/svg">
<g clip-path="url(#clip0)">
<rect width="630" height="630" fill="white"/>
<mask id="mask0" mask-type="alpha" maskUnits="userSpaceOnUse" x="25" y="51" width="580" height="527">
<path d="M315 573C393.011 573 464.169 554.76 515.96 516.512C567.945 478.121 600 419.859 600 341C600 183.599 472.401 56 315 56C157.599 56 30 183.599 30 341C30 419.859 62.0551 478.121 114.04 516.512C165.831 554.76 236.989 573 315 573Z" fill="#C4C4C4" stroke="#0859F9" stroke-width="10"/>
</mask>
<g mask="url(#mask0)">
</g>
<rect width="420" height="420" transform="translate(95 102)" fill="white"/>
<path d="M154.321 296.22C154.321 298.915 152.132 301.1 149.433 301.1C146.734 301.1 144.545 298.914 144.545 296.22C144.545 293.527 146.734 291.343 149.433 291.343C152.132 291.342 154.321 293.527 154.321 296.22ZM219.874 290.875C191.046 287.742 176.562 299.138 140.778 325.639C110.141 348.33 104.369 330.496 105.501 322.741C107.167 311.342 133.527 257.804 158.925 224.669C190.341 232.806 214.339 258.734 219.874 290.875ZM157.742 296.22C157.742 291.64 154.02 287.93 149.432 287.93C144.844 287.93 141.123 291.64 141.123 296.22C141.123 300.8 144.844 304.514 149.432 304.514C154.021 304.514 157.742 300.8 157.742 296.22ZM141.038 349.905L140.778 365.472L163.461 390.624L152.551 398.776L189.56 429.255L176.494 438.261L223.865 460.367L211.837 471.173L265.496 480.128L257.134 491.555L311.312 486.532L306.871 499.531L366.781 479.406L363.714 494.214L417.135 456.137L418.779 471.173L456.655 417.319L464.965 433.068L481.84 367.78L493.386 377.24L489.904 312.245L506.358 318.754L482.932 261.987L493.664 261.608L460.384 215.332L477.399 213.817L425.145 177.419L440.985 168.108L380.074 151.831L390.36 138.865L335.218 139.255L335.884 124.469L293.063 140.083L291.289 126.016L257.971 149.773L250.809 137.742L225.707 167.126L217.906 156.514L196.879 190.099L186.216 180.405L167.6 213.817C202.613 225.122 228.692 255.892 233.3 293.138C233.749 293.234 208.443 327.791 245.473 357.273C244.833 353.964 238.68 297.515 298.249 293.404C327.882 291.36 352.03 317.424 352.03 347.062C352.03 356.135 349.752 364.67 345.767 372.161C328.07 404.99 273.699 406.258 256.397 406.082C206.223 405.573 140.777 348.963 140.777 348.963L141.038 349.905Z" fill="url(#paint0_linear)"/>
<path d="M405.741 196.661C395.124 196.408 388.551 203.739 388.551 216.631C388.551 236.601 388.804 256.571 388.804 276.542C388.804 278.311 389.057 280.334 389.057 281.85C389.057 282.103 388.804 282.103 388.804 282.356C381.726 293.226 376.67 282.356 376.67 282.356L376.418 282.609C376.418 281.092 376.67 279.575 376.67 278.058C376.67 246.965 376.67 215.62 376.923 184.527C376.923 171.382 370.351 162.534 360.492 162.281C350.128 162.029 343.555 170.118 343.555 183.768C343.555 211.575 343.808 239.129 343.302 266.936C343.302 267.947 343.049 268.705 342.797 269.716C336.983 277.047 332.685 269.716 331.927 268.2C331.927 267.947 331.927 267.694 331.927 267.441C331.421 235.59 331.927 203.486 331.674 171.635C331.674 159.248 324.596 150.653 314.99 150.4C305.384 150.148 298.053 158.995 297.8 171.382C297.548 182.252 297.8 192.869 297.8 203.739C297.8 214.356 297.8 224.72 297.8 235.337C297.8 240.646 297.8 245.702 297.8 251.01C297.8 256.066 298.053 261.122 297.548 266.177C297.295 269.716 293.756 273.761 289.711 272.497C288.194 271.992 286.678 270.728 285.919 269.211C284.908 267.441 285.667 265.672 285.667 263.65C285.667 240.14 285.667 216.884 285.667 193.374C285.667 181.493 279.094 173.657 269.488 173.657C259.377 173.404 252.551 181.746 252.551 194.133C252.551 198.177 252.551 202.222 252.551 206.267L252.804 260.363L292.239 291.456L329.146 297.27C330.41 297.523 331.421 298.029 332.432 298.534L364.789 322.549C366.306 323.56 367.064 325.077 367.317 326.847C367.57 328.363 367.064 330.133 365.548 331.397C363.525 333.925 360.239 334.43 356.953 332.914L327.377 318.505L326.871 318.757L335.971 328.363L380.462 374.876C382.737 377.151 382.737 381.449 380.462 383.724C379.198 384.988 377.429 385.746 375.912 385.493C374.395 385.493 373.384 384.988 372.373 383.724L334.455 348.334C333.191 347.07 331.168 347.322 330.157 348.586C329.146 349.85 329.146 351.367 330.41 352.631L382.99 407.992C385.518 410.52 385.518 414.311 382.99 416.839C380.462 419.367 377.429 419.367 374.901 416.839L319.287 363.248C318.023 361.984 316.254 362.237 314.99 363.248L314.484 363.754C313.473 365.018 313.473 366.787 314.484 367.798L367.317 422.906C369.845 425.434 369.845 429.226 367.317 431.754C364.789 434.282 361.756 434.282 359.228 431.754L303.614 378.415C302.351 377.151 300.581 377.404 299.317 378.415L298.812 378.921C297.548 380.185 297.548 381.954 298.812 383.218L334.455 420.126C336.224 421.895 336.224 425.434 334.455 427.709C332.685 429.479 329.146 429.479 326.871 427.709L289.711 392.066L263.927 366.282C260.388 362.743 256.596 357.181 252.804 351.367V351.62L229.8 327.605C229.295 326.847 228.536 326.088 228.031 325.33H227.778L223.481 320.78C215.644 312.69 202.752 312.185 194.663 320.021C187.332 327.099 186.321 338.475 191.882 346.564L229.042 399.65C233.339 406.222 237.637 413.047 241.681 419.873C265.443 459.813 301.845 472.958 345.577 469.925C394.871 466.386 421.667 437.062 421.667 388.021C421.667 376.14 421.667 364.259 421.667 352.378V216.631C421.667 203.991 415.853 196.913 405.741 196.661Z" fill="url(#paint1_linear)"/>
<path d="M315 597C470.744 597 597 470.744 597 315C597 159.256 470.744 33 315 33C159.256 33 33 159.256 33 315C33 470.744 159.256 597 315 597Z" stroke="#3D7BFB" stroke-width="4"/>
<path d="M257.108 507V484.464H248.432V481.368H269.528V484.464H260.852V507H257.108ZM291.645 488.424C295.989 488.424 298.161 490.848 298.161 495.696V507H294.525V495.912C294.525 494.328 294.213 493.176 293.589 492.456C292.989 491.736 292.017 491.376 290.673 491.376C289.137 491.376 287.901 491.856 286.965 492.816C286.053 493.776 285.597 495.06 285.597 496.668V507H281.997V480.504H285.597V491.664C286.197 490.608 287.025 489.804 288.081 489.252C289.137 488.7 290.325 488.424 291.645 488.424ZM329.293 488.856V507H325.693V503.904C325.165 504.984 324.373 505.812 323.317 506.388C322.285 506.964 321.073 507.252 319.681 507.252C318.073 507.252 316.657 506.868 315.433 506.1C314.233 505.332 313.297 504.252 312.625 502.86C311.953 501.444 311.617 499.8 311.617 497.928C311.617 496.056 311.953 494.4 312.625 492.96C313.321 491.52 314.281 490.404 315.505 489.612C316.729 488.82 318.121 488.424 319.681 488.424C321.073 488.424 322.285 488.724 323.317 489.324C324.349 489.9 325.141 490.728 325.693 491.808V488.856H329.293ZM320.545 504.372C322.177 504.372 323.437 503.808 324.325 502.68C325.237 501.528 325.693 499.92 325.693 497.856C325.693 495.768 325.237 494.16 324.325 493.032C323.437 491.904 322.165 491.34 320.509 491.34C318.877 491.34 317.593 491.928 316.657 493.104C315.745 494.256 315.289 495.864 315.289 497.928C315.289 499.968 315.745 501.552 316.657 502.68C317.593 503.808 318.889 504.372 320.545 504.372ZM353.642 488.424C357.986 488.424 360.158 490.848 360.158 495.696V507H356.522V495.912C356.522 494.328 356.21 493.176 355.586 492.456C354.986 491.736 354.014 491.376 352.67 491.376C351.134 491.376 349.898 491.856 348.962 492.816C348.05 493.776 347.594 495.06 347.594 496.668V507H343.994V493.968C343.994 492.072 343.898 490.368 343.706 488.856H347.09L347.414 491.988C347.99 490.836 348.818 489.96 349.898 489.36C351.002 488.736 352.25 488.424 353.642 488.424ZM391.614 507H386.97L378.294 498.432V507H374.694V480.504H378.294V497.064L386.358 488.892H390.858L382.182 497.604L391.614 507ZM438.625 488.856L430.165 508.476C429.229 510.612 428.053 512.172 426.637 513.156C425.245 514.164 423.517 514.836 421.453 515.172L420.661 512.364C422.365 511.98 423.649 511.476 424.513 510.852C425.401 510.252 426.109 509.34 426.637 508.116L427.285 506.604L419.653 488.856H423.505L429.193 502.896L434.989 488.856H438.625ZM458.363 507.252C456.587 507.252 455.027 506.868 453.683 506.1C452.339 505.332 451.295 504.24 450.551 502.824C449.831 501.408 449.471 499.752 449.471 497.856C449.471 495.96 449.831 494.304 450.551 492.888C451.295 491.448 452.339 490.344 453.683 489.576C455.027 488.808 456.587 488.424 458.363 488.424C460.115 488.424 461.663 488.808 463.007 489.576C464.351 490.344 465.383 491.448 466.103 492.888C466.847 494.304 467.219 495.96 467.219 497.856C467.219 499.752 466.847 501.408 466.103 502.824C465.383 504.24 464.351 505.332 463.007 506.1C461.663 506.868 460.115 507.252 458.363 507.252ZM458.327 504.372C460.007 504.372 461.291 503.82 462.179 502.716C463.067 501.612 463.511 499.992 463.511 497.856C463.511 495.768 463.055 494.16 462.143 493.032C461.255 491.904 459.995 491.34 458.363 491.34C456.707 491.34 455.423 491.904 454.511 493.032C453.599 494.16 453.143 495.768 453.143 497.856C453.143 499.992 453.587 501.612 454.475 502.716C455.387 503.82 456.671 504.372 458.327 504.372ZM496.597 488.856V507H493.069V503.976C492.493 505.032 491.701 505.848 490.693 506.424C489.685 506.976 488.545 507.252 487.273 507.252C482.905 507.252 480.721 504.828 480.721 499.98V488.856H484.321V499.944C484.321 501.432 484.621 502.536 485.221 503.256C485.845 503.952 486.781 504.3 488.029 504.3C489.517 504.3 490.705 503.82 491.593 502.86C492.505 501.9 492.961 500.628 492.961 499.044V488.856H496.597ZM511.823 499.836L510.671 481.368H515.171L514.055 499.836H511.823ZM510.779 502.68H515.099V507H510.779V502.68Z" fill="white"/>
</g>
<defs>
<linearGradient id="paint0_linear" x1="151.173" y1="238.543" x2="305.864" y2="443.358" gradientUnits="userSpaceOnUse">
<stop stop-color="#008CFF" stop-opacity="0.37"/>
</linearGradient>
<linearGradient id="paint1_linear" x1="235.913" y1="202.931" x2="402.444" y2="469.578" gradientUnits="userSpaceOnUse">
<stop offset="0.104167" stop-color="#3D7BFB"/>
<stop offset="0.104267" stop-color="#3D7BFB"/>
<stop offset="0.541229" stop-color="#3D7BFB"/>
<stop offset="1" stop-color="#3D7BFB" stop-opacity="0"/>
</linearGradient>
<clipPath id="clip0">
<rect width="630" height="630" fill="white"/>
</clipPath>
</defs>
</svg>
