<svg width="1705" height="384" viewBox="0 0 1705 384" fill="none" xmlns="http://www.w3.org/2000/svg">
<g clip-path="url(#clip0)">
<path fill-rule="evenodd" clip-rule="evenodd" d="M27.5683 68.7348C48.7336 35.9764 80.9402 11.8901 118.345 0.845825L164.337 156.189L27.5683 68.7348ZM20.6957 105.929C22.2649 103.169 23.912 100.459 25.6371 97.7991L162.478 185.303L1.01343 164.77C3.7133 144.069 10.3971 124.088 20.6957 105.929ZM174.642 122.795L192.316 182.46L192.321 182.471V20.5169H191.281H191.197C176.005 20.6125 160.9 22.834 146.324 27.1166L151.276 43.844L156.223 60.538L161.231 77.4935L174.642 122.795ZM371.604 209.142V210.011C371.606 231.393 367.396 252.567 359.214 272.322C351.032 292.078 339.039 310.028 323.919 325.148C308.799 340.268 290.849 352.261 271.094 360.443C251.338 368.625 230.164 372.835 208.782 372.833V47.1829H209.822H209.895C241.112 47.3463 271.617 56.5271 297.738 73.6206C320.31 88.3261 338.877 108.408 351.769 132.062C364.662 155.717 371.477 182.203 371.604 209.142ZM127.688 265.056L175.544 213.572L175.516 213.6L121.917 206.789L63.4881 199.365L14.1128 193.094C13.2211 199.883 12.7527 206.72 12.7105 213.567V214.435C12.6925 236.722 17.2614 258.775 26.133 279.221C35.0046 299.666 47.989 318.068 64.2783 333.279L92.736 302.673L122.679 270.454L127.688 265.056ZM194.108 219.693L194.102 219.71V383.406C161.255 383.453 129.168 373.517 102.096 354.914C95.2979 350.25 88.8617 345.078 82.8422 339.445L111.3 308.839L141.243 276.564L146.252 271.166L194.108 219.693Z" fill="white"/>
<path d="M75.1016 20.7396C55.9685 33.2382 39.6663 49.6068 27.2455 68.7905" stroke="black" stroke-width="4" stroke-miterlimit="10" stroke-linecap="square"/>
<path d="M75.1019 20.7396C88.3678 12.0667 102.834 5.3866 118.039 0.91272" stroke="black" stroke-width="4" stroke-miterlimit="10" stroke-linecap="square"/>
<path d="M118.417 94.705C115.994 104.171 114.086 113.762 112.702 123.435" stroke="black" stroke-width="4" stroke-linecap="round" stroke-linejoin="round"/>
<path d="M118.417 94.7049C122.226 79.9097 127.085 65.4048 132.957 51.3005" stroke="black" stroke-width="4" stroke-linecap="round" stroke-linejoin="round"/>
<path d="M107.505 30.333C114.149 31.8967 120.982 33.2545 127.96 34.334" stroke="black" stroke-width="4" stroke-linecap="round" stroke-linejoin="round"/>
<path d="M75.1019 20.7396C85.7182 24.5314 96.5356 27.7341 107.505 30.3331" stroke="black" stroke-width="4" stroke-linecap="round" stroke-linejoin="round"/>
<path d="M65.8198 87.0647C81.4955 90.0974 99.308 92.8742 118.417 94.705" stroke="black" stroke-width="4" stroke-linecap="round" stroke-linejoin="round"/>
<path d="M118.417 94.705C127.476 95.573 136.825 96.2297 146.374 96.5969" stroke="black" stroke-width="4" stroke-linecap="round" stroke-linejoin="round"/>
<path d="M51.0734 84.0265C55.7366 85.0504 60.652 86.065 65.8197 87.0704" stroke="black" stroke-width="4" stroke-linecap="round" stroke-linejoin="round"/>
<path d="M107.505 30.3329C112.438 25.8303 117.608 21.5933 122.991 17.6399" stroke="black" stroke-width="4" stroke-linecap="round" stroke-linejoin="round"/>
<path d="M63.6719 92.0786C64.3693 90.3796 65.0853 88.7102 65.8198 87.0704" stroke="black" stroke-width="4" stroke-linecap="round" stroke-linejoin="round"/>
<path d="M107.505 30.333C92.0294 44.4617 76.5818 63.1312 65.842 87.0926" stroke="black" stroke-width="4" stroke-linecap="round" stroke-linejoin="round"/>
<path d="M127.938 34.334L132.958 51.2951" stroke="black" stroke-width="4" stroke-miterlimit="10" stroke-linecap="square"/>
<path d="M122.991 17.6399L127.938 34.3339" stroke="black" stroke-width="4" stroke-miterlimit="10" stroke-linecap="square"/>
<path d="M118.039 0.91272L122.991 17.6401" stroke="black" stroke-width="4" stroke-miterlimit="10" stroke-linecap="square"/>
<path d="M132.957 51.295L164.147 156.334L27.2622 68.7904" stroke="black" stroke-width="4" stroke-miterlimit="10" stroke-linecap="square"/>
<path d="M111.088 152.472C109.865 161.097 109.122 169.784 108.863 178.492" stroke="black" stroke-width="4" stroke-miterlimit="10" stroke-linecap="round"/>
<path d="M20.6962 105.929C28.4867 108.082 38.2193 110.564 49.4432 113.029" stroke="black" stroke-width="4" stroke-miterlimit="10" stroke-linecap="round"/>
<path d="M62.058 121.087C55.577 137.026 51.6339 153.882 50.3722 171.041" stroke="black" stroke-width="4" stroke-miterlimit="10" stroke-linecap="round"/>
<path d="M191.937 20.8508C182.741 33.8567 174.704 47.6451 167.92 62.0572" stroke="black" stroke-width="4" stroke-linecap="square" stroke-linejoin="round"/>
<path d="M167.92 62.0573C165.656 66.8707 163.363 72.0236 161.109 77.4658" stroke="black" stroke-width="4" stroke-miterlimit="10" stroke-linecap="round"/>
<path d="M191.765 63.3427C183.8 63.3348 175.84 62.9057 167.92 62.0573" stroke="black" stroke-width="4" stroke-miterlimit="10" stroke-linecap="round"/>
<path d="M156.084 60.5046C159.983 61.1093 163.928 61.6268 167.92 62.0572" stroke="black" stroke-width="4" stroke-miterlimit="10" stroke-linecap="round"/>
<path d="M191.765 123.102C185.959 123.102 180.209 122.99 174.514 122.768" stroke="black" stroke-width="4" stroke-miterlimit="10" stroke-linecap="round"/>
<path d="M191.726 20.6672C187.352 22.4646 170.53 29.5707 151.143 43.8051" stroke="black" stroke-width="4" stroke-linecap="round" stroke-linejoin="round"/>
<path d="M208.348 372.922C208.348 372.922 234.379 358.921 261.39 332.895" stroke="black" stroke-width="4" stroke-miterlimit="10" stroke-linecap="round"/>
<path d="M350.041 129.902C337.179 107.231 319.087 87.9618 297.271 73.6985" stroke="black" stroke-width="4" stroke-linecap="square" stroke-linejoin="round"/>
<path d="M300.326 344.453C273.251 363.047 241.165 372.977 208.32 372.927V47.2997H209.433C240.642 47.4658 271.139 56.6403 297.26 73.7207" stroke="black" stroke-width="4" stroke-miterlimit="10" stroke-linecap="square"/>
<path d="M355.488 279.847C343.115 305.867 324.085 328.155 300.326 344.453" stroke="black" stroke-width="4" stroke-linecap="square" stroke-linejoin="round"/>
<path d="M371.137 209.232C371.033 181.412 363.768 154.088 350.041 129.891" stroke="black" stroke-width="4" stroke-linecap="square" stroke-linejoin="round"/>
<path d="M371.137 209.231C371.137 209.521 371.137 209.788 371.137 210.1C371.172 234.223 365.826 258.051 355.489 279.847" stroke="black" stroke-width="4" stroke-linecap="square" stroke-linejoin="round"/>
<path d="M262.013 209.231C262.013 209.087 262.013 208.948 262.013 208.803C262.013 187.39 258.797 166.706 253.95 147.675" stroke="black" stroke-width="4" stroke-linecap="square" stroke-linejoin="round"/>
<path d="M208.325 47.2997C217.615 60.4213 225.739 74.3303 232.604 88.8677" stroke="black" stroke-width="4" stroke-linecap="round" stroke-linejoin="round"/>
<path d="M233.233 328.098C220.673 355.365 208.337 372.916 208.337 372.916" stroke="black" stroke-width="4" stroke-linecap="round" stroke-linejoin="round"/>
<path d="M255.052 265.646C259.248 247.889 261.974 228.841 262.013 209.243" stroke="black" stroke-width="4" stroke-linecap="square" stroke-linejoin="round"/>
<path d="M253.956 147.686C248.708 127.453 241.559 107.761 232.604 88.8732" stroke="black" stroke-width="4" stroke-linecap="square" stroke-linejoin="round"/>
<path d="M233.233 328.098C241.213 310.781 249.443 289.368 255.052 265.646" stroke="black" stroke-width="4" stroke-linecap="square" stroke-linejoin="round"/>
<path d="M232.604 88.8732C224.691 89.714 216.739 90.1394 208.782 90.1475H208.348" stroke="black" stroke-width="4" stroke-linecap="square" stroke-linejoin="round"/>
<path d="M264.89 83.3141C254.259 85.8435 243.48 87.702 232.615 88.8788" stroke="black" stroke-width="4" stroke-linecap="square" stroke-linejoin="round"/>
<path d="M297.26 73.7207C286.651 77.5117 275.841 80.7144 264.879 83.3142" stroke="black" stroke-width="4" stroke-linecap="round" stroke-linejoin="round"/>
<path d="M208.32 326.607C216.645 326.652 224.962 327.15 233.233 328.098" stroke="black" stroke-width="4" stroke-linecap="square" stroke-linejoin="round"/>
<path d="M300.326 344.453C287.605 339.761 274.593 335.898 261.373 332.889" stroke="black" stroke-width="4" stroke-linecap="round" stroke-linejoin="round"/>
<path d="M233.233 328.098C242.698 329.188 252.098 330.789 261.39 332.895" stroke="black" stroke-width="4" stroke-linecap="square" stroke-linejoin="round"/>
<path d="M306.553 140.052C290.872 143.079 273.065 145.855 253.956 147.686" stroke="black" stroke-width="4" stroke-linecap="square" stroke-linejoin="round"/>
<path d="M253.956 147.686C239.487 149.072 224.324 149.912 208.754 149.912H208.32" stroke="black" stroke-width="4" stroke-linecap="square" stroke-linejoin="round"/>
<path d="M350.041 129.901C339 132.951 324.121 136.657 306.553 140.051" stroke="black" stroke-width="4" stroke-linecap="round" stroke-linejoin="round"/>
<path d="M355.488 279.847C344.248 277.477 327.365 274.243 306.781 271.294" stroke="black" stroke-width="4" stroke-linecap="round" stroke-linejoin="round"/>
<path d="M208.32 263.815C224.413 263.849 240.127 264.539 255.063 265.646" stroke="black" stroke-width="4" stroke-linecap="square" stroke-linejoin="round"/>
<path d="M306.781 271.294C291.339 269.068 273.821 267.043 255.029 265.646" stroke="black" stroke-width="4" stroke-linecap="square" stroke-linejoin="round"/>
<path d="M306.781 271.294C295.223 296.101 278.117 316.796 261.39 332.895" stroke="black" stroke-width="4" stroke-linecap="square" stroke-linejoin="round"/>
<path d="M320.915 209.231C320.915 232.047 315.384 252.814 306.781 271.283" stroke="black" stroke-width="4" stroke-linecap="square" stroke-linejoin="round"/>
<path d="M264.89 83.3142C239.944 60.5492 213.84 49.5534 208.331 47.2997" stroke="black" stroke-width="4" stroke-linecap="round" stroke-linejoin="round"/>
<path d="M320.915 209.231C320.915 182.426 315.289 159.494 306.553 140.04" stroke="black" stroke-width="4" stroke-linecap="square" stroke-linejoin="round"/>
<path d="M264.89 83.3141C280.366 97.4483 295.813 116.118 306.553 140.074" stroke="black" stroke-width="4" stroke-linecap="square" stroke-linejoin="round"/>
<path d="M262.013 209.243H208.32" stroke="black" stroke-width="4" stroke-linecap="square" stroke-linejoin="round"/>
<path d="M262.013 209.243H320.915" stroke="black" stroke-width="4" stroke-linecap="square" stroke-linejoin="round"/>
<path d="M370.914 209.243H320.915" stroke="black" stroke-width="4" stroke-linecap="round" stroke-linejoin="round"/>
<path d="M12.8384 213.605C12.8723 206.746 13.3369 199.895 14.2295 193.094L175.711 213.589L64.3894 333.324C49.4526 319.344 37.2738 302.684 28.4862 284.21" stroke="black" stroke-width="4" stroke-miterlimit="10" stroke-linecap="square"/>
<path d="M12.8385 213.605C12.8385 213.895 12.8385 214.162 12.8385 214.473C12.8045 238.593 18.1502 262.417 28.4864 284.21" stroke="black" stroke-width="4" stroke-miterlimit="10" stroke-linecap="round"/>
<path d="M122.056 206.8C121.995 208.92 121.956 211.04 121.956 213.171V213.605" stroke="black" stroke-width="4" stroke-miterlimit="10" stroke-linecap="round"/>
<path d="M121.973 213.605C122.101 230.927 124.063 248.187 127.827 265.095" stroke="black" stroke-width="4" stroke-miterlimit="10" stroke-linecap="round"/>
<path d="M28.4866 284.21C39.7272 281.839 56.616 278.6 77.1997 275.657" stroke="black" stroke-width="4" stroke-miterlimit="10" stroke-linecap="round"/>
<path d="M77.194 275.657C90.9387 273.693 106.336 271.856 122.796 270.493" stroke="black" stroke-width="4" stroke-miterlimit="10" stroke-linecap="round"/>
<path d="M92.8529 302.718C86.8685 294.164 81.6296 285.112 77.194 275.662" stroke="black" stroke-width="4" stroke-miterlimit="10" stroke-linecap="round"/>
<path d="M63.0596 213.605C63.0596 236.42 68.5908 257.188 77.1938 275.657" stroke="black" stroke-width="4" stroke-miterlimit="10" stroke-linecap="round"/>
<path d="M63.0596 213.605C63.0596 208.738 63.2451 203.995 63.616 199.376" stroke="black" stroke-width="4" stroke-miterlimit="10" stroke-linecap="round"/>
<path d="M121.956 213.605H175.633" stroke="black" stroke-width="4" stroke-miterlimit="10" stroke-linecap="round"/>
<path d="M63.0596 213.605H121.956" stroke="black" stroke-width="4" stroke-miterlimit="10" stroke-linecap="round"/>
<path d="M12.8384 213.605H63.0595" stroke="black" stroke-width="4" stroke-miterlimit="10" stroke-linecap="round"/>
<path d="M102.202 354.764C95.4033 350.096 88.9671 344.921 82.948 339.283L194.197 219.565L194.269 383.233" stroke="black" stroke-width="4" stroke-miterlimit="10" stroke-linecap="square"/>
<path d="M102.202 354.764C129.277 373.359 161.363 383.288 194.208 383.239" stroke="black" stroke-width="4" stroke-miterlimit="10" stroke-linecap="round"/>
<path d="M169.273 338.404C181.838 365.671 194.175 383.222 194.175 383.222" stroke="black" stroke-width="4" stroke-miterlimit="10" stroke-linecap="round"/>
<path d="M147.476 275.952C147.092 274.327 146.724 272.685 146.363 271.038" stroke="black" stroke-width="4" stroke-miterlimit="10" stroke-linecap="round"/>
<path d="M147.476 275.952C153.085 299.674 161.315 321.081 169.273 338.404" stroke="black" stroke-width="4" stroke-miterlimit="10" stroke-linecap="round"/>
<path d="M194.208 336.913C185.875 336.955 177.551 337.452 169.273 338.404" stroke="black" stroke-width="4" stroke-miterlimit="10" stroke-linecap="round"/>
<path d="M102.202 354.764C114.923 350.073 127.934 346.21 141.154 343.201" stroke="black" stroke-width="4" stroke-miterlimit="10" stroke-linecap="round"/>
<path d="M141.138 343.201C150.423 341.096 159.815 339.495 169.273 338.404" stroke="black" stroke-width="4" stroke-miterlimit="10" stroke-linecap="round"/>
<path d="M194.208 274.115C178.115 274.154 162.4 274.844 147.465 275.952" stroke="black" stroke-width="4" stroke-miterlimit="10" stroke-linecap="round"/>
<path d="M141.349 276.436C143.375 276.269 145.415 276.108 147.47 275.952" stroke="black" stroke-width="4" stroke-miterlimit="10" stroke-linecap="round"/>
<path d="M111.4 308.655C120.159 321.113 130.117 332.684 141.132 343.201" stroke="black" stroke-width="4" stroke-miterlimit="10" stroke-linecap="round"/>
<path d="M194.208 383.239C194.208 383.239 168.171 369.216 141.138 343.173" stroke="black" stroke-width="4" stroke-miterlimit="10" stroke-linecap="round"/>
<path d="M191.158 20.4835H192.199V182.471L146.19 27.0832C160.772 22.7987 175.882 20.5772 191.08 20.4835H191.158Z" stroke="black" stroke-width="4" stroke-miterlimit="10" stroke-linecap="square"/>
<path d="M20.6891 106.006C22.2583 103.246 23.9054 100.536 25.6305 97.876L162.471 185.38L1.00684 164.847C3.70671 144.146 10.3905 124.165 20.6891 106.006" stroke="black" stroke-width="4" stroke-miterlimit="10"/>
</g>
<path d="M417.977 215.257V280.945H424.233V215.257H417.977ZM437.636 233.473V280.945H443.432V253.253C443.493 250.922 443.861 248.775 444.536 246.813C445.272 244.789 446.253 243.071 447.48 241.661C448.768 240.189 450.301 239.054 452.08 238.257C453.92 237.398 456.005 236.969 458.336 236.969C460.666 236.969 462.598 237.337 464.132 238.073C465.726 238.809 466.984 239.821 467.904 241.109C468.824 242.397 469.468 243.93 469.836 245.709C470.204 247.426 470.388 249.297 470.388 251.321V280.945H476.184V250.401C476.184 247.579 475.908 245.034 475.356 242.765C474.804 240.495 473.853 238.594 472.504 237.061C471.154 235.466 469.345 234.239 467.076 233.381C464.868 232.522 462.108 232.093 458.796 232.093C455.422 232.093 452.325 232.982 449.504 234.761C446.682 236.478 444.72 238.778 443.616 241.661H443.432V233.473H437.636ZM482.726 233.473L501.034 280.945H507.198L524.954 233.473H518.974L504.254 275.149H504.07L489.166 233.473H482.726ZM565.7 253.897H534.972C535.217 251.75 535.708 249.665 536.444 247.641C537.241 245.555 538.284 243.746 539.572 242.213C540.86 240.618 542.424 239.361 544.264 238.441C546.104 237.459 548.22 236.969 550.612 236.969C552.942 236.969 555.028 237.459 556.868 238.441C558.708 239.361 560.272 240.618 561.56 242.213C562.848 243.746 563.829 245.525 564.504 247.549C565.24 249.573 565.638 251.689 565.7 253.897ZM534.972 258.773H571.496C571.618 255.461 571.312 252.21 570.576 249.021C569.84 245.77 568.613 242.918 566.896 240.465C565.24 237.95 563.062 235.926 560.364 234.393C557.665 232.859 554.414 232.093 550.612 232.093C546.87 232.093 543.62 232.829 540.86 234.301C538.161 235.711 535.953 237.613 534.236 240.005C532.518 242.335 531.23 245.003 530.372 248.009C529.574 251.014 529.176 254.081 529.176 257.209C529.176 260.582 529.574 263.802 530.372 266.869C531.23 269.874 532.518 272.542 534.236 274.873C535.953 277.142 538.161 278.951 540.86 280.301C543.62 281.589 546.87 282.233 550.612 282.233C556.622 282.233 561.253 280.761 564.504 277.817C567.816 274.873 570.085 270.702 571.312 265.305H565.516C564.596 268.985 562.94 271.929 560.548 274.137C558.156 276.345 554.844 277.449 550.612 277.449C547.852 277.449 545.49 276.866 543.528 275.701C541.565 274.535 539.94 273.063 538.652 271.285C537.364 269.506 536.413 267.513 535.8 265.305C535.248 263.035 534.972 260.858 534.972 258.773ZM608.623 247.365H614.419C614.296 244.789 613.775 242.55 612.855 240.649C611.935 238.747 610.677 237.153 609.083 235.865C607.549 234.577 605.74 233.626 603.655 233.013C601.631 232.399 599.423 232.093 597.031 232.093C594.945 232.093 592.829 232.338 590.683 232.829C588.597 233.319 586.696 234.086 584.979 235.129C583.261 236.171 581.851 237.551 580.747 239.269C579.704 240.986 579.183 243.041 579.183 245.433C579.183 247.457 579.52 249.174 580.195 250.585C580.869 251.934 581.789 253.099 582.955 254.081C584.181 255.001 585.592 255.798 587.187 256.473C588.781 257.086 590.529 257.638 592.431 258.129L599.883 259.785C601.171 260.091 602.428 260.459 603.655 260.889C604.943 261.318 606.077 261.87 607.059 262.545C608.04 263.158 608.807 263.955 609.359 264.937C609.972 265.857 610.279 267.022 610.279 268.433C610.279 270.089 609.849 271.499 608.991 272.665C608.193 273.769 607.151 274.689 605.863 275.425C604.575 276.161 603.164 276.682 601.631 276.989C600.159 277.295 598.717 277.449 597.307 277.449C593.443 277.449 590.192 276.467 587.555 274.505C584.979 272.481 583.568 269.506 583.323 265.581H577.527C578.017 271.407 579.98 275.639 583.415 278.277C586.911 280.914 591.449 282.233 597.031 282.233C599.239 282.233 601.477 281.987 603.747 281.497C606.016 281.006 608.04 280.209 609.819 279.105C611.659 277.939 613.161 276.467 614.327 274.689C615.492 272.849 616.075 270.641 616.075 268.065C616.075 265.979 615.676 264.17 614.879 262.637C614.081 261.103 613.039 259.815 611.751 258.773C610.524 257.73 609.083 256.902 607.427 256.289C605.832 255.614 604.207 255.154 602.551 254.909L594.823 253.161C593.841 252.915 592.768 252.609 591.603 252.241C590.437 251.811 589.364 251.29 588.383 250.677C587.401 250.063 586.573 249.327 585.899 248.469C585.285 247.549 584.979 246.445 584.979 245.157C584.979 243.623 585.316 242.335 585.991 241.293C586.665 240.25 587.555 239.422 588.659 238.809C589.763 238.134 590.959 237.674 592.247 237.429C593.596 237.122 594.915 236.969 596.203 236.969C597.859 236.969 599.423 237.183 600.895 237.613C602.367 237.981 603.655 238.594 604.759 239.453C605.924 240.311 606.844 241.415 607.519 242.765C608.193 244.053 608.561 245.586 608.623 247.365ZM634.608 233.473V219.213H628.812V233.473H620.532V238.349H628.812V270.825C628.75 274.873 629.486 277.663 631.02 279.197C632.553 280.669 635.252 281.405 639.116 281.405C639.974 281.405 640.833 281.374 641.692 281.313C642.55 281.251 643.409 281.221 644.268 281.221V276.345C642.612 276.529 640.956 276.621 639.3 276.621C637.214 276.498 635.896 275.915 635.344 274.873C634.853 273.769 634.608 272.266 634.608 270.365V238.349H644.268V233.473H634.608ZM653.642 215.257V224.549H659.438V215.257H653.642ZM653.642 233.473V280.945H659.438V233.473H653.642ZM671.359 233.473V280.945H677.155V253.253C677.216 250.922 677.584 248.775 678.259 246.813C678.995 244.789 679.976 243.071 681.203 241.661C682.491 240.189 684.024 239.054 685.803 238.257C687.643 237.398 689.728 236.969 692.059 236.969C694.39 236.969 696.322 237.337 697.855 238.073C699.45 238.809 700.707 239.821 701.627 241.109C702.547 242.397 703.191 243.93 703.559 245.709C703.927 247.426 704.111 249.297 704.111 251.321V280.945H709.907V250.401C709.907 247.579 709.631 245.034 709.079 242.765C708.527 240.495 707.576 238.594 706.227 237.061C704.878 235.466 703.068 234.239 700.799 233.381C698.591 232.522 695.831 232.093 692.519 232.093C689.146 232.093 686.048 232.982 683.227 234.761C680.406 236.478 678.443 238.778 677.339 241.661H677.155V233.473H671.359ZM761.897 277.081V233.473H756.101V241.661H755.917C755.365 240.373 754.568 239.146 753.525 237.981C752.544 236.815 751.409 235.803 750.121 234.945C748.833 234.025 747.392 233.319 745.797 232.829C744.264 232.338 742.608 232.093 740.829 232.093C737.394 232.093 734.328 232.737 731.629 234.025C728.992 235.251 726.753 236.969 724.913 239.177C723.134 241.323 721.754 243.869 720.773 246.813C719.853 249.695 719.393 252.762 719.393 256.013C719.393 259.386 719.792 262.575 720.589 265.581C721.386 268.525 722.644 271.101 724.361 273.309C726.14 275.517 728.378 277.265 731.077 278.553C733.776 279.779 737.026 280.393 740.829 280.393C744.325 280.393 747.361 279.503 749.937 277.725C752.574 275.946 754.568 273.585 755.917 270.641H756.101V277.081C756.101 282.846 754.905 287.262 752.513 290.329C750.121 293.395 746.226 294.929 740.829 294.929C739.234 294.929 737.67 294.745 736.137 294.377C734.604 294.07 733.193 293.549 731.905 292.813C730.678 292.077 729.605 291.095 728.685 289.869C727.826 288.703 727.244 287.231 726.937 285.453H721.141C721.325 287.967 722 290.114 723.165 291.893C724.392 293.733 725.894 295.235 727.673 296.401C729.513 297.566 731.568 298.425 733.837 298.977C736.106 299.529 738.437 299.805 740.829 299.805C744.693 299.805 747.944 299.283 750.581 298.241C753.28 297.198 755.457 295.695 757.113 293.733C758.769 291.77 759.965 289.378 760.701 286.557C761.498 283.735 761.897 280.577 761.897 277.081ZM740.829 275.517C738.13 275.517 735.8 274.995 733.837 273.953C731.874 272.849 730.249 271.438 728.961 269.721C727.673 267.942 726.722 265.918 726.109 263.649C725.496 261.379 725.189 259.049 725.189 256.657C725.189 254.203 725.465 251.811 726.017 249.481C726.63 247.089 727.581 244.973 728.869 243.133C730.157 241.293 731.782 239.821 733.745 238.717C735.708 237.551 738.069 236.969 740.829 236.969C743.589 236.969 745.92 237.551 747.821 238.717C749.784 239.882 751.378 241.415 752.605 243.317C753.832 245.218 754.721 247.334 755.273 249.665C755.825 251.995 756.101 254.326 756.101 256.657C756.101 259.049 755.764 261.379 755.089 263.649C754.476 265.918 753.525 267.942 752.237 269.721C750.949 271.438 749.354 272.849 747.453 273.953C745.552 274.995 743.344 275.517 740.829 275.517ZM800.443 215.257V224.549H806.239V215.257H800.443ZM800.443 233.473V280.945H806.239V233.473H800.443ZM818.16 233.473V280.945H823.956V253.253C824.017 250.922 824.385 248.775 825.06 246.813C825.796 244.789 826.777 243.071 828.004 241.661C829.292 240.189 830.825 239.054 832.604 238.257C834.444 237.398 836.529 236.969 838.86 236.969C841.191 236.969 843.123 237.337 844.656 238.073C846.251 238.809 847.508 239.821 848.428 241.109C849.348 242.397 849.992 243.93 850.36 245.709C850.728 247.426 850.912 249.297 850.912 251.321V280.945H856.708V250.401C856.708 247.579 856.432 245.034 855.88 242.765C855.328 240.495 854.377 238.594 853.028 237.061C851.679 235.466 849.869 234.239 847.6 233.381C845.392 232.522 842.632 232.093 839.32 232.093C835.947 232.093 832.849 232.982 830.028 234.761C827.207 236.478 825.244 238.778 824.14 241.661H823.956V233.473H818.16ZM902.471 247.457V220.593H923.999C928.354 220.593 931.881 221.697 934.579 223.905C937.278 226.113 938.627 229.486 938.627 234.025C938.627 238.563 937.278 241.937 934.579 244.145C931.881 246.353 928.354 247.457 923.999 247.457H902.471ZM896.215 215.257V280.945H902.471V252.793H925.379C928.323 252.793 930.991 252.394 933.383 251.597C935.775 250.738 937.83 249.511 939.547 247.917C941.265 246.261 942.583 244.267 943.503 241.937C944.423 239.606 944.883 236.969 944.883 234.025C944.883 231.081 944.423 228.443 943.503 226.113C942.583 223.782 941.265 221.819 939.547 220.225C937.83 218.569 935.775 217.342 933.383 216.545C930.991 215.686 928.323 215.257 925.379 215.257H896.215ZM954.073 215.257V280.945H959.869V215.257H954.073ZM971.329 248.009H977.125C977.248 244.145 978.474 241.354 980.805 239.637C983.136 237.858 986.141 236.969 989.821 236.969C991.538 236.969 993.133 237.122 994.605 237.429C996.138 237.674 997.457 238.165 998.561 238.901C999.726 239.637 1000.62 240.649 1001.23 241.937C1001.9 243.163 1002.24 244.758 1002.24 246.721C1002.24 248.009 1002.06 249.051 1001.69 249.849C1001.38 250.646 1000.92 251.29 1000.31 251.781C999.696 252.21 998.929 252.517 998.009 252.701C997.089 252.885 996.016 253.038 994.789 253.161C991.661 253.529 988.564 253.927 985.497 254.357C982.492 254.725 979.762 255.399 977.309 256.381C974.917 257.362 972.985 258.803 971.513 260.705C970.041 262.545 969.305 265.121 969.305 268.433C969.305 270.825 969.704 272.91 970.501 274.689C971.36 276.406 972.494 277.847 973.905 279.013C975.377 280.117 977.064 280.914 978.965 281.405C980.928 281.957 983.013 282.233 985.221 282.233C987.552 282.233 989.545 282.018 991.201 281.589C992.918 281.159 994.421 280.546 995.709 279.749C997.058 278.951 998.254 277.97 999.297 276.805C1000.4 275.578 1001.47 274.198 1002.52 272.665H1002.7C1002.7 273.891 1002.76 275.026 1002.89 276.069C1003.07 277.05 1003.41 277.909 1003.9 278.645C1004.39 279.381 1005.06 279.963 1005.92 280.393C1006.84 280.761 1008.04 280.945 1009.51 280.945C1010.31 280.945 1010.95 280.914 1011.44 280.853C1011.99 280.791 1012.61 280.699 1013.28 280.577V275.701C1012.73 275.946 1012.12 276.069 1011.44 276.069C1009.17 276.069 1008.04 274.903 1008.04 272.573V247.365C1008.04 244.175 1007.52 241.599 1006.47 239.637C1005.43 237.613 1004.08 236.049 1002.43 234.945C1000.77 233.841 998.898 233.105 996.813 232.737C994.728 232.307 992.642 232.093 990.557 232.093C987.797 232.093 985.282 232.399 983.013 233.013C980.744 233.626 978.75 234.577 977.033 235.865C975.377 237.153 974.058 238.809 973.077 240.833C972.096 242.857 971.513 245.249 971.329 248.009ZM1002.24 255.001V262.545C1002.24 264.875 1001.78 266.961 1000.86 268.801C1000 270.641 998.806 272.205 997.273 273.493C995.801 274.781 994.053 275.762 992.029 276.437C990.005 277.111 987.889 277.449 985.681 277.449C984.332 277.449 983.013 277.234 981.725 276.805C980.437 276.375 979.302 275.762 978.321 274.965C977.34 274.106 976.542 273.125 975.929 272.021C975.377 270.855 975.101 269.537 975.101 268.065C975.101 265.734 975.776 263.955 977.125 262.729C978.536 261.441 980.314 260.459 982.461 259.785C984.608 259.11 986.969 258.619 989.545 258.313C992.182 257.945 994.728 257.546 997.181 257.117C997.978 256.994 998.898 256.779 999.941 256.473C1000.98 256.166 1001.69 255.675 1002.06 255.001H1002.24ZM1020.42 233.473V280.945H1026.21V253.253C1026.27 250.922 1026.64 248.775 1027.32 246.813C1028.05 244.789 1029.03 243.071 1030.26 241.661C1031.55 240.189 1033.08 239.054 1034.86 238.257C1036.7 237.398 1038.79 236.969 1041.12 236.969C1043.45 236.969 1045.38 237.337 1046.91 238.073C1048.51 238.809 1049.76 239.821 1050.68 241.109C1051.6 242.397 1052.25 243.93 1052.62 245.709C1052.98 247.426 1053.17 249.297 1053.17 251.321V280.945H1058.96V250.401C1058.96 247.579 1058.69 245.034 1058.14 242.765C1057.58 240.495 1056.63 238.594 1055.28 237.061C1053.93 235.466 1052.13 234.239 1049.86 233.381C1047.65 232.522 1044.89 232.093 1041.58 232.093C1038.2 232.093 1035.11 232.982 1032.28 234.761C1029.46 236.478 1027.5 238.778 1026.4 241.661H1026.21V233.473H1020.42ZM1104.97 253.897H1074.25C1074.49 251.75 1074.98 249.665 1075.72 247.641C1076.52 245.555 1077.56 243.746 1078.85 242.213C1080.13 240.618 1081.7 239.361 1083.54 238.441C1085.38 237.459 1087.49 236.969 1089.89 236.969C1092.22 236.969 1094.3 237.459 1096.14 238.441C1097.98 239.361 1099.55 240.618 1100.83 242.213C1102.12 243.746 1103.1 245.525 1103.78 247.549C1104.51 249.573 1104.91 251.689 1104.97 253.897ZM1074.25 258.773H1110.77C1110.89 255.461 1110.59 252.21 1109.85 249.021C1109.11 245.77 1107.89 242.918 1106.17 240.465C1104.51 237.95 1102.34 235.926 1099.64 234.393C1096.94 232.859 1093.69 232.093 1089.89 232.093C1086.14 232.093 1082.89 232.829 1080.13 234.301C1077.44 235.711 1075.23 237.613 1073.51 240.005C1071.79 242.335 1070.5 245.003 1069.65 248.009C1068.85 251.014 1068.45 254.081 1068.45 257.209C1068.45 260.582 1068.85 263.802 1069.65 266.869C1070.5 269.874 1071.79 272.542 1073.51 274.873C1075.23 277.142 1077.44 278.951 1080.13 280.301C1082.89 281.589 1086.14 282.233 1089.89 282.233C1095.9 282.233 1100.53 280.761 1103.78 277.817C1107.09 274.873 1109.36 270.702 1110.59 265.305H1104.79C1103.87 268.985 1102.21 271.929 1099.82 274.137C1097.43 276.345 1094.12 277.449 1089.89 277.449C1087.13 277.449 1084.76 276.866 1082.8 275.701C1080.84 274.535 1079.21 273.063 1077.93 271.285C1076.64 269.506 1075.69 267.513 1075.07 265.305C1074.52 263.035 1074.25 260.858 1074.25 258.773ZM1128.67 233.473V219.213H1122.87V233.473H1114.59V238.349H1122.87V270.825C1122.81 274.873 1123.55 277.663 1125.08 279.197C1126.61 280.669 1129.31 281.405 1133.18 281.405C1134.04 281.405 1134.89 281.374 1135.75 281.313C1136.61 281.251 1137.47 281.221 1138.33 281.221V276.345C1136.67 276.529 1135.02 276.621 1133.36 276.621C1131.28 276.498 1129.96 275.915 1129.41 274.873C1128.91 273.769 1128.67 272.266 1128.67 270.365V238.349H1138.33V233.473H1128.67ZM1147.06 248.009H1152.86C1152.98 244.145 1154.21 241.354 1156.54 239.637C1158.87 237.858 1161.87 236.969 1165.55 236.969C1167.27 236.969 1168.86 237.122 1170.34 237.429C1171.87 237.674 1173.19 238.165 1174.29 238.901C1175.46 239.637 1176.35 240.649 1176.96 241.937C1177.63 243.163 1177.97 244.758 1177.97 246.721C1177.97 248.009 1177.79 249.051 1177.42 249.849C1177.11 250.646 1176.65 251.29 1176.04 251.781C1175.43 252.21 1174.66 252.517 1173.74 252.701C1172.82 252.885 1171.75 253.038 1170.52 253.161C1167.39 253.529 1164.29 253.927 1161.23 254.357C1158.22 254.725 1155.49 255.399 1153.04 256.381C1150.65 257.362 1148.72 258.803 1147.24 260.705C1145.77 262.545 1145.04 265.121 1145.04 268.433C1145.04 270.825 1145.43 272.91 1146.23 274.689C1147.09 276.406 1148.23 277.847 1149.64 279.013C1151.11 280.117 1152.79 280.914 1154.7 281.405C1156.66 281.957 1158.74 282.233 1160.95 282.233C1163.28 282.233 1165.28 282.018 1166.93 281.589C1168.65 281.159 1170.15 280.546 1171.44 279.749C1172.79 278.951 1173.99 277.97 1175.03 276.805C1176.13 275.578 1177.21 274.198 1178.25 272.665H1178.43C1178.43 273.891 1178.49 275.026 1178.62 276.069C1178.8 277.05 1179.14 277.909 1179.63 278.645C1180.12 279.381 1180.79 279.963 1181.65 280.393C1182.57 280.761 1183.77 280.945 1185.24 280.945C1186.04 280.945 1186.68 280.914 1187.17 280.853C1187.72 280.791 1188.34 280.699 1189.01 280.577V275.701C1188.46 275.946 1187.85 276.069 1187.17 276.069C1184.9 276.069 1183.77 274.903 1183.77 272.573V247.365C1183.77 244.175 1183.25 241.599 1182.2 239.637C1181.16 237.613 1179.81 236.049 1178.16 234.945C1176.5 233.841 1174.63 233.105 1172.54 232.737C1170.46 232.307 1168.37 232.093 1166.29 232.093C1163.53 232.093 1161.01 232.399 1158.74 233.013C1156.47 233.626 1154.48 234.577 1152.76 235.865C1151.11 237.153 1149.79 238.809 1148.81 240.833C1147.83 242.857 1147.24 245.249 1147.06 248.009ZM1177.97 255.001V262.545C1177.97 264.875 1177.51 266.961 1176.59 268.801C1175.73 270.641 1174.54 272.205 1173 273.493C1171.53 274.781 1169.78 275.762 1167.76 276.437C1165.74 277.111 1163.62 277.449 1161.41 277.449C1160.06 277.449 1158.74 277.234 1157.46 276.805C1156.17 276.375 1155.03 275.762 1154.05 274.965C1153.07 274.106 1152.27 273.125 1151.66 272.021C1151.11 270.855 1150.83 269.537 1150.83 268.065C1150.83 265.734 1151.51 263.955 1152.86 262.729C1154.27 261.441 1156.05 260.459 1158.19 259.785C1160.34 259.11 1162.7 258.619 1165.28 258.313C1167.91 257.945 1170.46 257.546 1172.91 257.117C1173.71 256.994 1174.63 256.779 1175.67 256.473C1176.71 256.166 1177.42 255.675 1177.79 255.001H1177.97ZM1196.24 233.473V280.945H1202.03V255.645C1202.03 253.13 1202.46 250.83 1203.32 248.745C1204.18 246.598 1205.38 244.758 1206.91 243.225C1208.51 241.691 1210.38 240.526 1212.52 239.729C1214.67 238.87 1217.06 238.502 1219.7 238.625V232.829C1215.41 232.645 1211.69 233.595 1208.57 235.681C1205.5 237.766 1203.23 240.741 1201.76 244.605H1201.57V233.473H1196.24ZM1220.84 233.473L1239.79 280.761L1237.77 286.097C1237.28 287.201 1236.82 288.213 1236.39 289.133C1235.96 290.053 1235.44 290.819 1234.83 291.433C1234.21 292.107 1233.48 292.629 1232.62 292.997C1231.82 293.365 1230.78 293.549 1229.49 293.549C1228.82 293.549 1228.14 293.487 1227.47 293.365C1226.85 293.303 1226.21 293.211 1225.53 293.089V297.965C1226.03 298.149 1226.58 298.241 1227.19 298.241C1227.87 298.302 1228.79 298.363 1229.95 298.425C1231.79 298.425 1233.29 298.241 1234.46 297.873C1235.69 297.566 1236.73 297.014 1237.59 296.217C1238.51 295.481 1239.33 294.438 1240.07 293.089C1240.81 291.801 1241.6 290.145 1242.46 288.121L1263.07 233.473H1257.27L1242.65 273.953L1227.01 233.473H1220.84ZM1297.31 215.257V280.945H1303.57V249.113H1342.58V280.945H1348.83V215.257H1342.58V243.777H1303.57V215.257H1297.31ZM1396.04 253.897H1365.31C1365.56 251.75 1366.05 249.665 1366.78 247.641C1367.58 245.555 1368.62 243.746 1369.91 242.213C1371.2 240.618 1372.76 239.361 1374.6 238.441C1376.44 237.459 1378.56 236.969 1380.95 236.969C1383.28 236.969 1385.37 237.459 1387.21 238.441C1389.05 239.361 1390.61 240.618 1391.9 242.213C1393.19 243.746 1394.17 245.525 1394.84 247.549C1395.58 249.573 1395.98 251.689 1396.04 253.897ZM1365.31 258.773H1401.84C1401.96 255.461 1401.65 252.21 1400.92 249.021C1400.18 245.77 1398.95 242.918 1397.24 240.465C1395.58 237.95 1393.4 235.926 1390.7 234.393C1388 232.859 1384.75 232.093 1380.95 232.093C1377.21 232.093 1373.96 232.829 1371.2 234.301C1368.5 235.711 1366.29 237.613 1364.58 240.005C1362.86 242.335 1361.57 245.003 1360.71 248.009C1359.91 251.014 1359.52 254.081 1359.52 257.209C1359.52 260.582 1359.91 263.802 1360.71 266.869C1361.57 269.874 1362.86 272.542 1364.58 274.873C1366.29 277.142 1368.5 278.951 1371.2 280.301C1373.96 281.589 1377.21 282.233 1380.95 282.233C1386.96 282.233 1391.59 280.761 1394.84 277.817C1398.16 274.873 1400.42 270.702 1401.65 265.305H1395.86C1394.94 268.985 1393.28 271.929 1390.89 274.137C1388.5 276.345 1385.18 277.449 1380.95 277.449C1378.19 277.449 1375.83 276.866 1373.87 275.701C1371.9 274.535 1370.28 273.063 1368.99 271.285C1367.7 269.506 1366.75 267.513 1366.14 265.305C1365.59 263.035 1365.31 260.858 1365.31 258.773ZM1409.98 248.009H1415.78C1415.9 244.145 1417.13 241.354 1419.46 239.637C1421.79 237.858 1424.79 236.969 1428.47 236.969C1430.19 236.969 1431.79 237.122 1433.26 237.429C1434.79 237.674 1436.11 238.165 1437.21 238.901C1438.38 239.637 1439.27 240.649 1439.88 241.937C1440.56 243.163 1440.89 244.758 1440.89 246.721C1440.89 248.009 1440.71 249.051 1440.34 249.849C1440.04 250.646 1439.58 251.29 1438.96 251.781C1438.35 252.21 1437.58 252.517 1436.66 252.701C1435.74 252.885 1434.67 253.038 1433.44 253.161C1430.31 253.529 1427.22 253.927 1424.15 254.357C1421.14 254.725 1418.42 255.399 1415.96 256.381C1413.57 257.362 1411.64 258.803 1410.17 260.705C1408.69 262.545 1407.96 265.121 1407.96 268.433C1407.96 270.825 1408.36 272.91 1409.15 274.689C1410.01 276.406 1411.15 277.847 1412.56 279.013C1414.03 280.117 1415.72 280.914 1417.62 281.405C1419.58 281.957 1421.67 282.233 1423.87 282.233C1426.2 282.233 1428.2 282.018 1429.85 281.589C1431.57 281.159 1433.07 280.546 1434.36 279.749C1435.71 278.951 1436.91 277.97 1437.95 276.805C1439.05 275.578 1440.13 274.198 1441.17 272.665H1441.35C1441.35 273.891 1441.42 275.026 1441.54 276.069C1441.72 277.05 1442.06 277.909 1442.55 278.645C1443.04 279.381 1443.72 279.963 1444.57 280.393C1445.49 280.761 1446.69 280.945 1448.16 280.945C1448.96 280.945 1449.6 280.914 1450.09 280.853C1450.65 280.791 1451.26 280.699 1451.93 280.577V275.701C1451.38 275.946 1450.77 276.069 1450.09 276.069C1447.82 276.069 1446.69 274.903 1446.69 272.573V247.365C1446.69 244.175 1446.17 241.599 1445.13 239.637C1444.08 237.613 1442.73 236.049 1441.08 234.945C1439.42 233.841 1437.55 233.105 1435.47 232.737C1433.38 232.307 1431.3 232.093 1429.21 232.093C1426.45 232.093 1423.94 232.399 1421.67 233.013C1419.4 233.626 1417.4 234.577 1415.69 235.865C1414.03 237.153 1412.71 238.809 1411.73 240.833C1410.75 242.857 1410.17 245.249 1409.98 248.009ZM1440.89 255.001V262.545C1440.89 264.875 1440.43 266.961 1439.51 268.801C1438.66 270.641 1437.46 272.205 1435.93 273.493C1434.45 274.781 1432.71 275.762 1430.68 276.437C1428.66 277.111 1426.54 277.449 1424.33 277.449C1422.98 277.449 1421.67 277.234 1420.38 276.805C1419.09 276.375 1417.96 275.762 1416.97 274.965C1415.99 274.106 1415.2 273.125 1414.58 272.021C1414.03 270.855 1413.75 269.537 1413.75 268.065C1413.75 265.734 1414.43 263.955 1415.78 262.729C1417.19 261.441 1418.97 260.459 1421.11 259.785C1423.26 259.11 1425.62 258.619 1428.2 258.313C1430.84 257.945 1433.38 257.546 1435.83 257.117C1436.63 256.994 1437.55 256.779 1438.59 256.473C1439.64 256.166 1440.34 255.675 1440.71 255.001H1440.89ZM1459.25 215.257V280.945H1465.05V215.257H1459.25ZM1486.26 233.473V219.213H1480.47V233.473H1472.19V238.349H1480.47V270.825C1480.4 274.873 1481.14 277.663 1482.67 279.197C1484.21 280.669 1486.91 281.405 1490.77 281.405C1491.63 281.405 1492.49 281.374 1493.35 281.313C1494.2 281.251 1495.06 281.221 1495.92 281.221V276.345C1494.27 276.529 1492.61 276.621 1490.95 276.621C1488.87 276.498 1487.55 275.915 1487 274.873C1486.51 273.769 1486.26 272.266 1486.26 270.365V238.349H1495.92V233.473H1486.26ZM1505.11 215.257V280.945H1510.91V253.253C1510.97 250.922 1511.34 248.775 1512.01 246.813C1512.75 244.789 1513.73 243.071 1514.96 241.661C1516.24 240.189 1517.78 239.054 1519.56 238.257C1521.4 237.398 1523.48 236.969 1525.81 236.969C1528.14 236.969 1530.08 237.337 1531.61 238.073C1533.2 238.809 1534.46 239.821 1535.38 241.109C1536.3 242.397 1536.94 243.93 1537.31 245.709C1537.68 247.426 1537.86 249.297 1537.86 251.321V280.945H1543.66V250.401C1543.66 247.579 1543.38 245.034 1542.83 242.765C1542.28 240.495 1541.33 238.594 1539.98 237.061C1538.63 235.466 1536.82 234.239 1534.55 233.381C1532.34 232.522 1529.58 232.093 1526.27 232.093C1522.9 232.093 1519.8 232.982 1516.98 234.761C1514.16 236.478 1512.2 238.778 1511.09 241.661H1510.91V215.257H1505.11Z" fill="black"/>
<path d="M419.277 86.8408V183.945H492.989V165.993H440.629V142.193H487.685V125.601H440.629V104.793H491.901V86.8408H419.277ZM505.425 113.633V183.945H524.737V147.089C524.737 139.926 525.915 134.803 528.273 131.721C530.63 128.547 534.438 126.961 539.697 126.961C544.321 126.961 547.539 128.411 549.353 131.313C551.166 134.123 552.073 138.43 552.073 144.233V183.945H571.385V140.697C571.385 136.345 570.977 132.401 570.161 128.865C569.435 125.238 568.121 122.201 566.217 119.753C564.313 117.214 561.683 115.265 558.329 113.905C555.065 112.454 550.849 111.729 545.681 111.729C541.601 111.729 537.611 112.681 533.713 114.585C529.814 116.398 526.641 119.345 524.193 123.425H523.785V113.633H505.425ZM635.954 148.585C635.954 151.486 635.682 154.297 635.138 157.017C634.594 159.737 633.687 162.185 632.418 164.361C631.149 166.446 629.426 168.123 627.25 169.393C625.165 170.662 622.535 171.297 619.362 171.297C616.37 171.297 613.786 170.662 611.61 169.393C609.525 168.033 607.757 166.31 606.306 164.225C604.946 162.049 603.949 159.601 603.314 156.881C602.679 154.161 602.362 151.441 602.362 148.721C602.362 145.819 602.634 143.054 603.178 140.425C603.813 137.705 604.765 135.302 606.034 133.217C607.394 131.131 609.162 129.454 611.338 128.185C613.514 126.915 616.189 126.281 619.362 126.281C622.535 126.281 625.165 126.915 627.25 128.185C629.335 129.454 631.013 131.131 632.282 133.217C633.642 135.211 634.594 137.569 635.138 140.289C635.682 142.918 635.954 145.683 635.954 148.585ZM636.226 174.969V183.945H654.586V86.8408H635.274V122.201H635.002C632.826 118.755 629.834 116.171 626.026 114.449C622.309 112.635 618.365 111.729 614.194 111.729C609.026 111.729 604.493 112.771 600.594 114.857C596.695 116.851 593.431 119.526 590.802 122.881C588.263 126.235 586.314 130.134 584.954 134.577C583.685 138.929 583.05 143.462 583.05 148.177C583.05 153.073 583.685 157.787 584.954 162.321C586.314 166.854 588.263 170.889 590.802 174.425C593.431 177.87 596.741 180.635 600.73 182.721C604.719 184.715 609.343 185.713 614.602 185.713C619.226 185.713 623.351 184.897 626.978 183.265C630.695 181.542 633.687 178.777 635.954 174.969H636.226ZM692.575 132.537V103.433H709.167C711.615 103.433 713.972 103.614 716.239 103.977C718.505 104.339 720.5 105.065 722.223 106.153C723.945 107.15 725.305 108.601 726.303 110.505C727.391 112.409 727.935 114.902 727.935 117.985C727.935 121.067 727.391 123.561 726.303 125.465C725.305 127.369 723.945 128.865 722.223 129.953C720.5 130.95 718.505 131.63 716.239 131.993C713.972 132.355 711.615 132.537 709.167 132.537H692.575ZM671.223 86.8408V183.945H692.575V149.129H715.015C721.089 149.129 726.257 148.267 730.519 146.545C734.78 144.731 738.225 142.374 740.855 139.473C743.575 136.571 745.524 133.262 746.703 129.545C747.972 125.737 748.607 121.883 748.607 117.985C748.607 113.995 747.972 110.142 746.703 106.425C745.524 102.707 743.575 99.3982 740.855 96.4968C738.225 93.5955 734.78 91.2835 730.519 89.5608C726.257 87.7475 721.089 86.8408 715.015 86.8408H671.223ZM759.077 135.257C759.349 130.723 760.483 126.961 762.477 123.969C764.472 120.977 767.011 118.574 770.093 116.761C773.176 114.947 776.621 113.678 780.429 112.953C784.328 112.137 788.227 111.729 792.125 111.729C795.661 111.729 799.243 112.001 802.869 112.545C806.496 112.998 809.805 113.95 812.797 115.401C815.789 116.851 818.237 118.891 820.141 121.521C822.045 124.059 822.997 127.459 822.997 131.721V168.305C822.997 171.478 823.179 174.515 823.541 177.417C823.904 180.318 824.539 182.494 825.445 183.945H805.861C805.499 182.857 805.181 181.769 804.909 180.681C804.728 179.502 804.592 178.323 804.501 177.145C801.419 180.318 797.792 182.539 793.621 183.809C789.451 185.078 785.189 185.713 780.837 185.713C777.483 185.713 774.355 185.305 771.453 184.489C768.552 183.673 766.013 182.403 763.837 180.681C761.661 178.958 759.939 176.782 758.669 174.153C757.491 171.523 756.901 168.395 756.901 164.769C756.901 160.779 757.581 157.515 758.941 154.977C760.392 152.347 762.205 150.262 764.381 148.721C766.648 147.179 769.187 146.046 771.997 145.321C774.899 144.505 777.8 143.87 780.701 143.417C783.603 142.963 786.459 142.601 789.269 142.329C792.08 142.057 794.573 141.649 796.749 141.105C798.925 140.561 800.648 139.79 801.917 138.793C803.187 137.705 803.776 136.163 803.685 134.169C803.685 132.083 803.323 130.451 802.597 129.273C801.963 128.003 801.056 127.051 799.877 126.417C798.789 125.691 797.475 125.238 795.933 125.057C794.483 124.785 792.896 124.649 791.173 124.649C787.365 124.649 784.373 125.465 782.197 127.097C780.021 128.729 778.752 131.449 778.389 135.257H759.077ZM803.685 149.537C802.869 150.262 801.827 150.851 800.557 151.305C799.379 151.667 798.064 151.985 796.613 152.257C795.253 152.529 793.803 152.755 792.261 152.937C790.72 153.118 789.179 153.345 787.637 153.617C786.187 153.889 784.736 154.251 783.285 154.705C781.925 155.158 780.701 155.793 779.613 156.609C778.616 157.334 777.8 158.286 777.165 159.465C776.531 160.643 776.213 162.139 776.213 163.953C776.213 165.675 776.531 167.126 777.165 168.305C777.8 169.483 778.661 170.435 779.749 171.161C780.837 171.795 782.107 172.249 783.557 172.521C785.008 172.793 786.504 172.929 788.045 172.929C791.853 172.929 794.8 172.294 796.885 171.025C798.971 169.755 800.512 168.259 801.509 166.537C802.507 164.723 803.096 162.91 803.277 161.097C803.549 159.283 803.685 157.833 803.685 156.745V149.537ZM837.987 113.633V183.945H857.299V147.089C857.299 139.926 858.478 134.803 860.835 131.721C863.193 128.547 867.001 126.961 872.259 126.961C876.883 126.961 880.102 128.411 881.915 131.313C883.729 134.123 884.635 138.43 884.635 144.233V183.945H903.947V140.697C903.947 136.345 903.539 132.401 902.723 128.865C901.998 125.238 900.683 122.201 898.779 119.753C896.875 117.214 894.246 115.265 890.891 113.905C887.627 112.454 883.411 111.729 878.243 111.729C874.163 111.729 870.174 112.681 866.275 114.585C862.377 116.398 859.203 119.345 856.755 123.425H856.347V113.633H837.987ZM968.516 148.585C968.516 151.486 968.244 154.297 967.7 157.017C967.156 159.737 966.25 162.185 964.98 164.361C963.711 166.446 961.988 168.123 959.812 169.393C957.727 170.662 955.098 171.297 951.924 171.297C948.932 171.297 946.348 170.662 944.172 169.393C942.087 168.033 940.319 166.31 938.868 164.225C937.508 162.049 936.511 159.601 935.876 156.881C935.242 154.161 934.924 151.441 934.924 148.721C934.924 145.819 935.196 143.054 935.74 140.425C936.375 137.705 937.327 135.302 938.596 133.217C939.956 131.131 941.724 129.454 943.9 128.185C946.076 126.915 948.751 126.281 951.924 126.281C955.098 126.281 957.727 126.915 959.812 128.185C961.898 129.454 963.575 131.131 964.844 133.217C966.204 135.211 967.156 137.569 967.7 140.289C968.244 142.918 968.516 145.683 968.516 148.585ZM968.788 174.969V183.945H987.148V86.8408H967.836V122.201H967.564C965.388 118.755 962.396 116.171 958.588 114.449C954.871 112.635 950.927 111.729 946.756 111.729C941.588 111.729 937.055 112.771 933.156 114.857C929.258 116.851 925.994 119.526 923.364 122.881C920.826 126.235 918.876 130.134 917.516 134.577C916.247 138.929 915.612 143.462 915.612 148.177C915.612 153.073 916.247 157.787 917.516 162.321C918.876 166.854 920.826 170.889 923.364 174.425C925.994 177.87 929.303 180.635 933.292 182.721C937.282 184.715 941.906 185.713 947.164 185.713C951.788 185.713 955.914 184.897 959.54 183.265C963.258 181.542 966.25 178.777 968.516 174.969H968.788ZM1049.07 141.241H1017.66C1017.75 139.881 1018.02 138.339 1018.47 136.617C1019.02 134.894 1019.88 133.262 1021.06 131.721C1022.33 130.179 1023.96 128.91 1025.95 127.913C1028.04 126.825 1030.62 126.281 1033.71 126.281C1038.42 126.281 1041.91 127.55 1044.18 130.089C1046.53 132.627 1048.17 136.345 1049.07 141.241ZM1017.66 153.481H1068.39C1068.75 148.041 1068.29 142.827 1067.03 137.841C1065.76 132.854 1063.67 128.411 1060.77 124.513C1057.96 120.614 1054.33 117.531 1049.89 115.265C1045.45 112.907 1040.23 111.729 1034.25 111.729C1028.9 111.729 1024 112.681 1019.56 114.585C1015.21 116.489 1011.45 119.118 1008.27 122.473C1005.1 125.737 1002.65 129.635 1000.93 134.169C999.206 138.702 998.345 143.598 998.345 148.857C998.345 154.297 999.161 159.283 1000.79 163.817C1002.52 168.35 1004.92 172.249 1008 175.513C1011.08 178.777 1014.85 181.315 1019.29 183.129C1023.73 184.851 1028.72 185.713 1034.25 185.713C1042.23 185.713 1049.03 183.899 1054.65 180.273C1060.27 176.646 1064.44 170.617 1067.16 162.185H1050.16C1049.53 164.361 1047.8 166.446 1044.99 168.441C1042.18 170.345 1038.83 171.297 1034.93 171.297C1029.49 171.297 1025.32 169.891 1022.42 167.081C1019.52 164.27 1017.93 159.737 1017.66 153.481ZM1080.38 113.633V183.945H1099.69V143.145C1099.69 139.699 1100.19 136.934 1101.19 134.849C1102.19 132.673 1103.37 131.041 1104.73 129.953C1106.18 128.774 1107.63 128.003 1109.08 127.641C1110.62 127.187 1111.84 126.961 1112.75 126.961C1115.83 126.961 1118.15 127.505 1119.69 128.593C1121.32 129.59 1122.45 130.95 1123.09 132.673C1123.81 134.395 1124.22 136.299 1124.31 138.385C1124.4 140.379 1124.45 142.419 1124.45 144.505V183.945H1143.76V144.777C1143.76 142.601 1143.89 140.47 1144.17 138.385C1144.53 136.209 1145.16 134.305 1146.07 132.673C1147.07 130.95 1148.38 129.59 1150.01 128.593C1151.74 127.505 1153.96 126.961 1156.68 126.961C1159.4 126.961 1161.53 127.414 1163.07 128.321C1164.7 129.227 1165.93 130.451 1166.74 131.993C1167.56 133.534 1168.06 135.347 1168.24 137.433C1168.42 139.518 1168.51 141.739 1168.51 144.097V183.945H1187.82V136.889C1187.82 132.355 1187.19 128.502 1185.92 125.329C1184.65 122.065 1182.88 119.435 1180.61 117.441C1178.35 115.446 1175.63 113.995 1172.45 113.089C1169.28 112.182 1165.84 111.729 1162.12 111.729C1157.22 111.729 1152.96 112.907 1149.33 115.265C1145.8 117.622 1142.99 120.342 1140.9 123.425C1139 119.073 1136.19 116.035 1132.47 114.313C1128.84 112.59 1124.81 111.729 1120.37 111.729C1115.74 111.729 1111.62 112.726 1107.99 114.721C1104.45 116.715 1101.42 119.526 1098.88 123.153H1098.61V113.633H1080.38ZM1222.94 102.753V86.8408H1203.63V102.753H1222.94ZM1203.63 113.633V183.945H1222.94V113.633H1203.63ZM1286.02 138.385H1304.93C1304.66 133.851 1303.57 129.953 1301.66 126.689C1299.76 123.334 1297.27 120.569 1294.18 118.393C1291.19 116.126 1287.75 114.449 1283.85 113.361C1280.04 112.273 1276.05 111.729 1271.88 111.729C1266.17 111.729 1261.09 112.681 1256.65 114.585C1252.2 116.489 1248.44 119.163 1245.36 122.609C1242.28 125.963 1239.92 129.998 1238.29 134.713C1236.75 139.337 1235.98 144.369 1235.98 149.809C1235.98 155.067 1236.84 159.918 1238.56 164.361C1240.28 168.713 1242.68 172.475 1245.77 175.649C1248.85 178.822 1252.57 181.315 1256.92 183.129C1261.36 184.851 1266.21 185.713 1271.47 185.713C1280.81 185.713 1288.47 183.265 1294.46 178.369C1300.44 173.473 1304.07 166.355 1305.34 157.017H1286.7C1286.07 161.369 1284.48 164.859 1281.94 167.489C1279.5 170.027 1275.96 171.297 1271.34 171.297C1268.34 171.297 1265.8 170.617 1263.72 169.257C1261.63 167.897 1259.96 166.174 1258.69 164.089C1257.51 161.913 1256.65 159.51 1256.1 156.881C1255.56 154.251 1255.29 151.667 1255.29 149.129C1255.29 146.499 1255.56 143.87 1256.1 141.241C1256.65 138.521 1257.55 136.073 1258.82 133.897C1260.18 131.63 1261.91 129.817 1263.99 128.457C1266.08 127.006 1268.66 126.281 1271.74 126.281C1279.99 126.281 1284.75 130.315 1286.02 138.385ZM1331.21 161.097H1312.85C1313.03 165.811 1314.07 169.755 1315.97 172.929C1317.97 176.011 1320.46 178.505 1323.45 180.409C1326.54 182.313 1330.03 183.673 1333.93 184.489C1337.82 185.305 1341.81 185.713 1345.89 185.713C1349.88 185.713 1353.78 185.305 1357.59 184.489C1361.49 183.763 1364.93 182.449 1367.93 180.545C1370.92 178.641 1373.32 176.147 1375.13 173.065C1377.04 169.891 1377.99 165.993 1377.99 161.369C1377.99 158.105 1377.35 155.385 1376.09 153.209C1374.82 150.942 1373.14 149.083 1371.05 147.633C1368.97 146.091 1366.57 144.867 1363.85 143.961C1361.22 143.054 1358.5 142.283 1355.69 141.649C1352.97 141.014 1350.29 140.425 1347.66 139.881C1345.03 139.337 1342.67 138.747 1340.59 138.113C1338.59 137.387 1336.96 136.481 1335.69 135.393C1334.42 134.305 1333.79 132.899 1333.79 131.177C1333.79 129.726 1334.15 128.593 1334.88 127.777C1335.6 126.87 1336.46 126.19 1337.46 125.737C1338.55 125.283 1339.73 125.011 1341 124.921C1342.27 124.739 1343.45 124.649 1344.53 124.649C1347.98 124.649 1350.97 125.329 1353.51 126.689C1356.05 127.958 1357.45 130.451 1357.73 134.169H1376.09C1375.72 129.817 1374.59 126.235 1372.69 123.425C1370.87 120.523 1368.56 118.211 1365.75 116.489C1362.94 114.766 1359.72 113.542 1356.09 112.817C1352.56 112.091 1348.89 111.729 1345.08 111.729C1341.27 111.729 1337.55 112.091 1333.93 112.817C1330.3 113.451 1327.03 114.63 1324.13 116.353C1321.23 117.985 1318.87 120.251 1317.06 123.153C1315.34 126.054 1314.48 129.771 1314.48 134.305C1314.48 137.387 1315.11 140.017 1316.38 142.193C1317.65 144.278 1319.33 146.046 1321.41 147.497C1323.5 148.857 1325.86 149.99 1328.49 150.897C1331.21 151.713 1333.97 152.438 1336.78 153.073C1343.67 154.523 1349.02 155.974 1352.83 157.425C1356.73 158.875 1358.68 161.051 1358.68 163.953C1358.68 165.675 1358.27 167.126 1357.45 168.305C1356.64 169.393 1355.59 170.299 1354.33 171.025C1353.15 171.659 1351.79 172.158 1350.25 172.521C1348.79 172.793 1347.39 172.929 1346.03 172.929C1344.13 172.929 1342.27 172.702 1340.45 172.249C1338.73 171.795 1337.19 171.115 1335.83 170.209C1334.47 169.211 1333.34 167.987 1332.43 166.537C1331.61 164.995 1331.21 163.182 1331.21 161.097Z" fill="black"/>
<defs>
<clipPath id="clip0">
<rect width="371.786" height="383.89" fill="white" transform="translate(0.106689)"/>
</clipPath>
</defs>
</svg>
